<?xml version="1.0" encoding="utf-8" standalone="no"?>
<!DOCTYPE svg PUBLIC "-//W3C//DTD SVG 1.1//EN"
  "http://www.w3.org/Graphics/SVG/1.1/DTD/svg11.dtd">
<svg xmlns:xlink="http://www.w3.org/1999/xlink" width="546.283425pt" height="360pt" viewBox="0 0 546.283425 360" xmlns="http://www.w3.org/2000/svg" version="1.1">
 <metadata>
  <rdf:RDF xmlns:dc="http://purl.org/dc/elements/1.1/" xmlns:cc="http://creativecommons.org/ns#" xmlns:rdf="http://www.w3.org/1999/02/22-rdf-syntax-ns#">
   <cc:Work>
    <dc:type rdf:resource="http://purl.org/dc/dcmitype/StillImage"/>
    <dc:date>2024-08-19T21:17:18.300709</dc:date>
    <dc:format>image/svg+xml</dc:format>
    <dc:creator>
     <cc:Agent>
      <dc:title>Matplotlib v3.9.0, https://matplotlib.org/</dc:title>
     </cc:Agent>
    </dc:creator>
   </cc:Work>
  </rdf:RDF>
 </metadata>
 <defs>
  <style type="text/css">*{stroke-linejoin: round; stroke-linecap: butt}</style>
 </defs>
 <g id="figure_1">
  <g id="patch_1">
   <path d="M 0 360 
L 546.283425 360 
L 546.283425 0 
L 0 0 
L 0 360 
z
" style="fill: none"/>
  </g>
  <g id="axes_1">
   <g id="patch_2">
    <path d="M 76.024926 228.007745 
L 504.993453 228.007745 
L 504.993453 19.44 
L 76.024926 19.44 
L 76.024926 228.007745 
z
" style="fill: none"/>
   </g>
   <g id="matplotlib.axis_1">
    <g id="xtick_1">
     <g id="text_1">
      <!-- \texttt{generic} -->
      <g style="fill: #262626" transform="translate(84.483793 290.126233) rotate(-45) scale(0.165 -0.165)">
       <defs>
        <path id="CMTT12-67" d="M 1216 422 
C 1139 422 845 422 845 769 
C 845 891 864 916 890 967 
C 1018 877 1229 794 1459 794 
C 2042 794 2490 1261 2490 1810 
C 2490 1970 2451 2169 2317 2380 
C 2483 2459 2637 2477 2733 2477 
C 2771 2304 2957 2304 2963 2304 
C 3040 2304 3200 2355 3200 2547 
C 3200 2669 3104 2880 2746 2880 
C 2630 2880 2342 2852 2074 2618 
C 1862 2765 1645 2816 1466 2816 
C 883 2816 435 2353 435 1806 
C 435 1666 467 1425 646 1197 
C 525 1018 506 826 506 749 
C 506 525 614 346 666 288 
C 314 95 186 -252 186 -502 
C 186 -1035 832 -1440 1645 -1440 
C 2458 -1440 3104 -1042 3104 -502 
C 3104 422 1971 422 1760 422 
L 1216 422 
z
M 1459 1152 
C 1139 1152 851 1431 851 1805 
C 851 2179 1146 2457 1459 2457 
C 1798 2457 2074 2166 2074 1805 
C 2074 1443 1798 1152 1459 1152 
z
M 1645 -1081 
C 1018 -1081 550 -799 550 -502 
C 550 -405 582 -180 819 -33 
C 966 64 1030 64 1472 64 
C 2035 64 2739 64 2739 -502 
C 2739 -799 2272 -1081 1645 -1081 
z
" transform="scale(0.015625)"/>
        <path id="CMTT12-65" d="M 2662 1248 
C 2797 1248 2918 1248 2918 1482 
C 2918 2221 2496 2816 1696 2816 
C 954 2816 358 2177 358 1398 
C 358 594 1005 -32 1792 -32 
C 2618 -32 2918 541 2918 709 
C 2918 748 2906 891 2707 891 
C 2586 891 2547 845 2509 748 
C 2349 371 1933 339 1811 339 
C 1280 339 858 748 787 1248 
L 2662 1248 
z
M 794 1600 
C 877 2132 1293 2445 1696 2445 
C 2336 2445 2470 1913 2496 1600 
L 794 1600 
z
" transform="scale(0.015625)"/>
        <path id="CMTT12-6e" d="M 2675 1879 
C 2675 2507 2381 2803 1856 2803 
C 1421 2803 1139 2560 1030 2438 
C 1030 2666 1030 2752 774 2752 
L 352 2752 
C 262 2752 96 2752 96 2567 
C 96 2381 262 2381 352 2381 
L 614 2381 
L 614 371 
L 352 371 
C 262 371 96 371 96 186 
C 96 0 262 0 352 0 
L 1293 0 
C 1382 0 1549 0 1549 186 
C 1549 371 1382 371 1293 371 
L 1030 371 
L 1030 1533 
C 1030 2155 1466 2432 1811 2432 
C 2182 2432 2259 2219 2259 1854 
L 2259 371 
L 1997 371 
C 1907 371 1741 371 1741 186 
C 1741 0 1907 0 1997 0 
L 2938 0 
C 3027 0 3194 0 3194 186 
C 3194 371 3027 371 2938 371 
L 2675 371 
L 2675 1879 
z
" transform="scale(0.015625)"/>
        <path id="CMTT12-72" d="M 1382 1212 
C 1382 1976 1920 2432 2464 2432 
C 2496 2432 2534 2432 2566 2425 
C 2586 2185 2765 2165 2810 2165 
C 2957 2165 3059 2275 3059 2418 
C 3059 2698 2790 2803 2470 2803 
C 2042 2803 1677 2607 1382 2241 
L 1382 2491 
C 1382 2688 1344 2752 1126 2752 
L 480 2752 
C 390 2752 224 2752 224 2567 
C 224 2381 390 2381 480 2381 
L 966 2381 
L 966 371 
L 480 371 
C 390 371 224 371 224 186 
C 224 0 390 0 480 0 
L 2054 0 
C 2144 0 2310 0 2310 186 
C 2310 371 2144 371 2054 371 
L 1382 371 
L 1382 1212 
z
" transform="scale(0.015625)"/>
        <path id="CMTT12-69" d="M 1933 3616 
C 1933 3776 1805 3904 1645 3904 
C 1485 3904 1357 3776 1357 3616 
C 1357 3456 1485 3328 1645 3328 
C 1805 3328 1933 3456 1933 3616 
z
M 832 2752 
C 742 2752 576 2752 576 2567 
C 576 2381 742 2381 832 2381 
L 1517 2381 
L 1517 371 
L 787 371 
C 698 371 525 371 525 186 
C 525 0 698 0 787 0 
L 2566 0 
C 2656 0 2822 0 2822 186 
C 2822 371 2656 371 2566 371 
L 1933 371 
L 1933 2491 
C 1933 2688 1894 2752 1677 2752 
L 832 2752 
z
" transform="scale(0.015625)"/>
        <path id="CMTT12-63" d="M 2918 702 
C 2918 868 2758 868 2707 868 
C 2560 868 2534 817 2502 728 
C 2362 377 2048 339 1894 339 
C 1350 339 890 792 890 1385 
C 890 1711 1075 2445 1914 2445 
C 2086 2445 2221 2432 2278 2426 
C 2323 2413 2330 2405 2330 2373 
C 2349 2107 2547 2107 2586 2107 
C 2726 2107 2848 2203 2848 2375 
C 2848 2816 2202 2816 1920 2816 
C 826 2816 474 1922 474 1385 
C 474 607 1069 -32 1837 -32 
C 2694 -32 2918 600 2918 702 
z
" transform="scale(0.015625)"/>
       </defs>
       <use xlink:href="#CMTT12-67" transform="scale(0.996264)"/>
       <use xlink:href="#CMTT12-65" transform="translate(51.266111 0) scale(0.996264)"/>
       <use xlink:href="#CMTT12-6e" transform="translate(102.532222 0) scale(0.996264)"/>
       <use xlink:href="#CMTT12-65" transform="translate(153.798333 0) scale(0.996264)"/>
       <use xlink:href="#CMTT12-72" transform="translate(205.064443 0) scale(0.996264)"/>
       <use xlink:href="#CMTT12-69" transform="translate(256.330554 0) scale(0.996264)"/>
       <use xlink:href="#CMTT12-63" transform="translate(307.596665 0) scale(0.996264)"/>
      </g>
     </g>
    </g>
    <g id="xtick_2">
     <g id="text_2">
      <!-- \texttt{generic-mip} -->
      <g style="fill: #262626" transform="translate(126.142175 314.051601) rotate(-45) scale(0.165 -0.165)">
       <defs>
        <path id="CMTT12-2d" d="M 2650 1728 
C 2733 1728 2938 1728 2938 1933 
C 2938 2144 2739 2144 2650 2144 
L 640 2144 
C 557 2144 352 2144 352 1939 
C 352 1728 550 1728 640 1728 
L 2650 1728 
z
" transform="scale(0.015625)"/>
        <path id="CMTT12-6d" d="M 2899 1943 
C 2899 2084 2899 2803 2336 2803 
C 2112 2803 1894 2700 1722 2463 
C 1683 2559 1542 2803 1235 2803 
C 947 2803 749 2613 698 2555 
C 691 2752 557 2752 442 2752 
L 250 2752 
C 160 2752 -6 2752 -6 2567 
C -6 2381 141 2381 339 2381 
L 339 371 
C 134 371 -6 371 -6 186 
C -6 0 160 0 250 0 
L 787 0 
C 877 0 1043 0 1043 186 
C 1043 371 896 371 698 371 
L 698 1552 
C 698 2091 928 2432 1210 2432 
C 1389 2432 1440 2207 1440 1905 
L 1440 371 
C 1331 371 1158 371 1158 186 
C 1158 0 1331 0 1421 0 
L 1888 0 
C 1978 0 2144 0 2144 186 
C 2144 371 1997 371 1798 371 
L 1798 1552 
C 1798 2091 2029 2432 2310 2432 
C 2490 2432 2541 2207 2541 1905 
L 2541 371 
C 2432 371 2259 371 2259 186 
C 2259 0 2432 0 2522 0 
L 2989 0 
C 3078 0 3245 0 3245 186 
C 3245 371 3098 371 2899 371 
L 2899 1943 
z
" transform="scale(0.015625)"/>
        <path id="CMTT12-70" d="M 1293 -1408 
C 1382 -1408 1549 -1408 1549 -1222 
C 1549 -1037 1382 -1037 1293 -1037 
L 1030 -1037 
L 1030 326 
C 1184 153 1421 -32 1779 -32 
C 2458 -32 3053 579 3053 1395 
C 3053 2186 2515 2816 1850 2816 
C 1382 2816 1088 2533 1030 2469 
C 1030 2664 1030 2752 774 2752 
L 352 2752 
C 262 2752 96 2752 96 2567 
C 96 2381 262 2381 352 2381 
L 614 2381 
L 614 -1037 
L 352 -1037 
C 262 -1037 96 -1037 96 -1222 
C 96 -1408 262 -1408 352 -1408 
L 1293 -1408 
z
M 1030 1717 
C 1030 2084 1389 2445 1805 2445 
C 2266 2445 2637 1974 2637 1395 
C 2637 777 2202 339 1747 339 
C 1267 339 1030 886 1030 1208 
L 1030 1717 
z
" transform="scale(0.015625)"/>
       </defs>
       <use xlink:href="#CMTT12-67" transform="scale(0.996264)"/>
       <use xlink:href="#CMTT12-65" transform="translate(51.266111 0) scale(0.996264)"/>
       <use xlink:href="#CMTT12-6e" transform="translate(102.532222 0) scale(0.996264)"/>
       <use xlink:href="#CMTT12-65" transform="translate(153.798333 0) scale(0.996264)"/>
       <use xlink:href="#CMTT12-72" transform="translate(205.064443 0) scale(0.996264)"/>
       <use xlink:href="#CMTT12-69" transform="translate(256.330554 0) scale(0.996264)"/>
       <use xlink:href="#CMTT12-63" transform="translate(307.596665 0) scale(0.996264)"/>
       <use xlink:href="#CMTT12-2d" transform="translate(358.862776 0) scale(0.996264)"/>
       <use xlink:href="#CMTT12-6d" transform="translate(410.128887 0) scale(0.996264)"/>
       <use xlink:href="#CMTT12-69" transform="translate(461.394998 0) scale(0.996264)"/>
       <use xlink:href="#CMTT12-70" transform="translate(512.661108 0) scale(0.996264)"/>
      </g>
     </g>
    </g>
    <g id="xtick_3">
     <g id="text_3">
      <!-- \texttt{compbnd} -->
      <g style="fill: #262626" transform="translate(191.725925 290.126233) rotate(-45) scale(0.165 -0.165)">
       <defs>
        <path id="CMTT12-6f" d="M 2918 1385 
C 2918 2183 2336 2816 1645 2816 
C 954 2816 371 2183 371 1385 
C 371 581 960 -32 1645 -32 
C 2330 -32 2918 581 2918 1385 
z
M 1645 339 
C 1184 339 787 824 787 1430 
C 787 2023 1197 2445 1645 2445 
C 2093 2445 2502 2023 2502 1430 
C 2502 818 2106 339 1645 339 
z
" transform="scale(0.015625)"/>
        <path id="CMTT12-62" d="M 1030 3644 
C 1030 3841 992 3904 774 3904 
L 352 3904 
C 262 3904 96 3904 96 3719 
C 96 3533 262 3533 352 3533 
L 614 3533 
L 614 262 
C 614 147 614 0 826 0 
C 1030 0 1030 137 1030 326 
C 1184 153 1421 -32 1779 -32 
C 2458 -32 3053 576 3053 1388 
C 3053 2176 2515 2803 1850 2803 
C 1382 2803 1088 2522 1030 2458 
L 1030 3644 
z
M 1030 1708 
C 1030 2073 1389 2432 1805 2432 
C 2266 2432 2637 1964 2637 1388 
C 2637 774 2202 339 1747 339 
C 1267 339 1030 883 1030 1203 
L 1030 1708 
z
" transform="scale(0.015625)"/>
        <path id="CMTT12-64" d="M 2675 3642 
C 2675 3840 2637 3904 2419 3904 
L 1997 3904 
C 1907 3904 1741 3904 1741 3719 
C 1741 3533 1907 3533 1997 3533 
L 2259 3533 
L 2259 2483 
C 2157 2585 1894 2803 1504 2803 
C 826 2803 237 2188 237 1382 
C 237 595 787 -32 1446 -32 
C 1862 -32 2138 215 2259 355 
C 2259 84 2259 0 2515 0 
L 2938 0 
C 3027 0 3194 0 3194 186 
C 3194 371 3027 371 2938 371 
L 2675 371 
L 2675 3642 
z
M 2259 1222 
C 2259 864 1965 339 1485 339 
C 1024 339 653 806 653 1382 
C 653 1996 1088 2432 1542 2432 
C 1958 2432 2259 2054 2259 1721 
L 2259 1222 
z
" transform="scale(0.015625)"/>
       </defs>
       <use xlink:href="#CMTT12-63" transform="scale(0.996264)"/>
       <use xlink:href="#CMTT12-6f" transform="translate(51.266111 0) scale(0.996264)"/>
       <use xlink:href="#CMTT12-6d" transform="translate(102.532222 0) scale(0.996264)"/>
       <use xlink:href="#CMTT12-70" transform="translate(153.798333 0) scale(0.996264)"/>
       <use xlink:href="#CMTT12-62" transform="translate(205.064443 0) scale(0.996264)"/>
       <use xlink:href="#CMTT12-6e" transform="translate(256.330554 0) scale(0.996264)"/>
       <use xlink:href="#CMTT12-64" transform="translate(307.596665 0) scale(0.996264)"/>
      </g>
     </g>
    </g>
    <g id="xtick_4">
     <g id="text_4">
      <!-- \texttt{compbnd+dvs} -->
      <g style="fill: #262626" transform="translate(233.384307 314.051601) rotate(-45) scale(0.165 -0.165)">
       <defs>
        <path id="CMTT12-2b" d="M 1856 1792 
L 2765 1792 
C 2848 1792 3053 1792 3053 1997 
C 3053 2208 2854 2208 2765 2208 
L 1856 2208 
L 1856 3113 
C 1856 3196 1856 3398 1651 3398 
C 1440 3398 1440 3202 1440 3113 
L 1440 2208 
L 525 2208 
C 442 2208 237 2208 237 2003 
C 237 1792 435 1792 525 1792 
L 1440 1792 
L 1440 867 
C 1440 783 1440 576 1645 576 
C 1856 576 1856 776 1856 867 
L 1856 1792 
z
" transform="scale(0.015625)"/>
        <path id="CMTT12-76" d="M 2714 2381 
L 2880 2381 
C 2970 2381 3142 2381 3142 2567 
C 3142 2752 2970 2752 2880 2752 
L 2176 2752 
C 2086 2752 1914 2752 1914 2567 
C 1914 2381 2086 2381 2176 2381 
L 2336 2381 
L 1645 325 
L 954 2381 
L 1114 2381 
C 1203 2381 1376 2381 1376 2567 
C 1376 2752 1203 2752 1114 2752 
L 410 2752 
C 320 2752 147 2752 147 2567 
C 147 2381 320 2381 410 2381 
L 576 2381 
L 1312 185 
C 1382 -32 1523 -32 1645 -32 
C 1766 -32 1907 -32 1978 185 
L 2714 2381 
z
" transform="scale(0.015625)"/>
        <path id="CMTT12-73" d="M 2688 2573 
C 2688 2675 2688 2816 2509 2816 
C 2355 2816 2317 2669 2317 2662 
C 2061 2816 1766 2816 1638 2816 
C 595 2816 454 2286 454 2069 
C 454 1807 608 1629 826 1507 
C 1030 1392 1216 1361 1741 1278 
C 1990 1233 2502 1150 2502 799 
C 2502 562 2285 339 1690 339 
C 1280 339 1011 499 877 960 
C 845 1049 826 1120 666 1120 
C 454 1120 454 998 454 870 
L 454 211 
C 454 108 454 -32 634 -32 
C 710 -32 768 -32 864 230 
C 1158 -32 1491 -32 1690 -32 
C 2874 -32 2874 734 2874 798 
C 2874 1461 2080 1596 1773 1640 
C 1210 1736 826 1800 826 2068 
C 826 2241 1024 2445 1626 2445 
C 2234 2445 2259 2157 2272 1990 
C 2285 1862 2400 1843 2477 1843 
C 2688 1843 2688 1958 2688 2086 
L 2688 2573 
z
" transform="scale(0.015625)"/>
       </defs>
       <use xlink:href="#CMTT12-63" transform="scale(0.996264)"/>
       <use xlink:href="#CMTT12-6f" transform="translate(51.266111 0) scale(0.996264)"/>
       <use xlink:href="#CMTT12-6d" transform="translate(102.532222 0) scale(0.996264)"/>
       <use xlink:href="#CMTT12-70" transform="translate(153.798333 0) scale(0.996264)"/>
       <use xlink:href="#CMTT12-62" transform="translate(205.064443 0) scale(0.996264)"/>
       <use xlink:href="#CMTT12-6e" transform="translate(256.330554 0) scale(0.996264)"/>
       <use xlink:href="#CMTT12-64" transform="translate(307.596665 0) scale(0.996264)"/>
       <use xlink:href="#CMTT12-2b" transform="translate(358.862776 0) scale(0.996264)"/>
       <use xlink:href="#CMTT12-64" transform="translate(410.128887 0) scale(0.996264)"/>
       <use xlink:href="#CMTT12-76" transform="translate(461.394998 0) scale(0.996264)"/>
       <use xlink:href="#CMTT12-73" transform="translate(512.661108 0) scale(0.996264)"/>
      </g>
     </g>
    </g>
    <g id="xtick_5">
     <g id="text_5">
      <!-- \texttt{compbnd-mdm} -->
      <g style="fill: #262626" transform="translate(287.005373 314.051601) rotate(-45) scale(0.165 -0.165)">
       <use xlink:href="#CMTT12-63" transform="scale(0.996264)"/>
       <use xlink:href="#CMTT12-6f" transform="translate(51.266111 0) scale(0.996264)"/>
       <use xlink:href="#CMTT12-6d" transform="translate(102.532222 0) scale(0.996264)"/>
       <use xlink:href="#CMTT12-70" transform="translate(153.798333 0) scale(0.996264)"/>
       <use xlink:href="#CMTT12-62" transform="translate(205.064443 0) scale(0.996264)"/>
       <use xlink:href="#CMTT12-6e" transform="translate(256.330554 0) scale(0.996264)"/>
       <use xlink:href="#CMTT12-64" transform="translate(307.596665 0) scale(0.996264)"/>
       <use xlink:href="#CMTT12-2d" transform="translate(358.862776 0) scale(0.996264)"/>
       <use xlink:href="#CMTT12-6d" transform="translate(410.128887 0) scale(0.996264)"/>
       <use xlink:href="#CMTT12-64" transform="translate(461.394998 0) scale(0.996264)"/>
       <use xlink:href="#CMTT12-6d" transform="translate(512.661108 0) scale(0.996264)"/>
      </g>
     </g>
    </g>
    <g id="xtick_6">
     <g id="text_6">
      <!-- \texttt{compbnd-mdm+dvs} -->
      <g style="fill: #262626" transform="translate(328.663755 337.976969) rotate(-45) scale(0.165 -0.165)">
       <use xlink:href="#CMTT12-63" transform="scale(0.996264)"/>
       <use xlink:href="#CMTT12-6f" transform="translate(51.266111 0) scale(0.996264)"/>
       <use xlink:href="#CMTT12-6d" transform="translate(102.532222 0) scale(0.996264)"/>
       <use xlink:href="#CMTT12-70" transform="translate(153.798333 0) scale(0.996264)"/>
       <use xlink:href="#CMTT12-62" transform="translate(205.064443 0) scale(0.996264)"/>
       <use xlink:href="#CMTT12-6e" transform="translate(256.330554 0) scale(0.996264)"/>
       <use xlink:href="#CMTT12-64" transform="translate(307.596665 0) scale(0.996264)"/>
       <use xlink:href="#CMTT12-2d" transform="translate(358.862776 0) scale(0.996264)"/>
       <use xlink:href="#CMTT12-6d" transform="translate(410.128887 0) scale(0.996264)"/>
       <use xlink:href="#CMTT12-64" transform="translate(461.394998 0) scale(0.996264)"/>
       <use xlink:href="#CMTT12-6d" transform="translate(512.661108 0) scale(0.996264)"/>
       <use xlink:href="#CMTT12-2b" transform="translate(563.927219 0) scale(0.996264)"/>
       <use xlink:href="#CMTT12-64" transform="translate(615.19333 0) scale(0.996264)"/>
       <use xlink:href="#CMTT12-76" transform="translate(666.459441 0) scale(0.996264)"/>
       <use xlink:href="#CMTT12-73" transform="translate(717.725552 0) scale(0.996264)"/>
      </g>
     </g>
    </g>
    <g id="xtick_7">
     <g id="text_7">
      <!-- \texttt{compbnd-mrm} -->
      <g style="fill: #262626" transform="translate(394.247505 314.051601) rotate(-45) scale(0.165 -0.165)">
       <use xlink:href="#CMTT12-63" transform="scale(0.996264)"/>
       <use xlink:href="#CMTT12-6f" transform="translate(51.266111 0) scale(0.996264)"/>
       <use xlink:href="#CMTT12-6d" transform="translate(102.532222 0) scale(0.996264)"/>
       <use xlink:href="#CMTT12-70" transform="translate(153.798333 0) scale(0.996264)"/>
       <use xlink:href="#CMTT12-62" transform="translate(205.064443 0) scale(0.996264)"/>
       <use xlink:href="#CMTT12-6e" transform="translate(256.330554 0) scale(0.996264)"/>
       <use xlink:href="#CMTT12-64" transform="translate(307.596665 0) scale(0.996264)"/>
       <use xlink:href="#CMTT12-2d" transform="translate(358.862776 0) scale(0.996264)"/>
       <use xlink:href="#CMTT12-6d" transform="translate(410.128887 0) scale(0.996264)"/>
       <use xlink:href="#CMTT12-72" transform="translate(461.394998 0) scale(0.996264)"/>
       <use xlink:href="#CMTT12-6d" transform="translate(512.661108 0) scale(0.996264)"/>
      </g>
     </g>
    </g>
    <g id="xtick_8">
     <g id="text_8">
      <!-- \texttt{compbnd-mrm+dvs} -->
      <g style="fill: #262626" transform="translate(435.905887 337.976969) rotate(-45) scale(0.165 -0.165)">
       <use xlink:href="#CMTT12-63" transform="scale(0.996264)"/>
       <use xlink:href="#CMTT12-6f" transform="translate(51.266111 0) scale(0.996264)"/>
       <use xlink:href="#CMTT12-6d" transform="translate(102.532222 0) scale(0.996264)"/>
       <use xlink:href="#CMTT12-70" transform="translate(153.798333 0) scale(0.996264)"/>
       <use xlink:href="#CMTT12-62" transform="translate(205.064443 0) scale(0.996264)"/>
       <use xlink:href="#CMTT12-6e" transform="translate(256.330554 0) scale(0.996264)"/>
       <use xlink:href="#CMTT12-64" transform="translate(307.596665 0) scale(0.996264)"/>
       <use xlink:href="#CMTT12-2d" transform="translate(358.862776 0) scale(0.996264)"/>
       <use xlink:href="#CMTT12-6d" transform="translate(410.128887 0) scale(0.996264)"/>
       <use xlink:href="#CMTT12-72" transform="translate(461.394998 0) scale(0.996264)"/>
       <use xlink:href="#CMTT12-6d" transform="translate(512.661108 0) scale(0.996264)"/>
       <use xlink:href="#CMTT12-2b" transform="translate(563.927219 0) scale(0.996264)"/>
       <use xlink:href="#CMTT12-64" transform="translate(615.19333 0) scale(0.996264)"/>
       <use xlink:href="#CMTT12-76" transform="translate(666.459441 0) scale(0.996264)"/>
       <use xlink:href="#CMTT12-73" transform="translate(717.725552 0) scale(0.996264)"/>
      </g>
     </g>
    </g>
   </g>
   <g id="matplotlib.axis_2">
    <g id="ytick_1">
     <g id="text_9">
      <!-- $\mathdefault{0}$ -->
      <g style="fill: #262626" transform="translate(55.477072 224.451098) scale(0.165 -0.165)">
       <defs>
        <path id="CMR17-30" d="M 2688 2025 
C 2688 2416 2682 3080 2413 3591 
C 2176 4039 1798 4198 1466 4198 
C 1158 4198 768 4058 525 3597 
C 269 3118 243 2524 243 2025 
C 243 1661 250 1106 448 619 
C 723 -39 1216 -128 1466 -128 
C 1760 -128 2208 -7 2470 600 
C 2662 1042 2688 1559 2688 2025 
z
M 1466 -26 
C 1056 -26 813 325 723 812 
C 653 1188 653 1738 653 2096 
C 653 2588 653 2997 736 3387 
C 858 3929 1216 4096 1466 4096 
C 1728 4096 2067 3923 2189 3400 
C 2272 3036 2278 2607 2278 2096 
C 2278 1680 2278 1169 2202 792 
C 2067 95 1690 -26 1466 -26 
z
" transform="scale(0.015625)"/>
       </defs>
       <use xlink:href="#CMR17-30" transform="scale(0.996264)"/>
      </g>
     </g>
    </g>
    <g id="ytick_2">
     <g id="text_10">
      <!-- $\mathdefault{200}$ -->
      <g style="fill: #262626" transform="translate(39.381364 181.260429) scale(0.165 -0.165)">
       <defs>
        <path id="CMR17-32" d="M 2669 989 
L 2554 989 
C 2490 536 2438 459 2413 420 
C 2381 369 1920 369 1830 369 
L 602 369 
C 832 619 1280 1072 1824 1597 
C 2214 1967 2669 2402 2669 3035 
C 2669 3790 2067 4224 1395 4224 
C 691 4224 262 3604 262 3030 
C 262 2780 448 2748 525 2748 
C 589 2748 781 2787 781 3010 
C 781 3207 614 3264 525 3264 
C 486 3264 448 3258 422 3245 
C 544 3790 915 4058 1306 4058 
C 1862 4058 2227 3617 2227 3035 
C 2227 2479 1901 2000 1536 1584 
L 262 146 
L 262 0 
L 2515 0 
L 2669 989 
z
" transform="scale(0.015625)"/>
       </defs>
       <use xlink:href="#CMR17-32" transform="scale(0.996264)"/>
       <use xlink:href="#CMR17-30" transform="translate(45.690477 0) scale(0.996264)"/>
       <use xlink:href="#CMR17-30" transform="translate(91.380954 0) scale(0.996264)"/>
      </g>
     </g>
    </g>
    <g id="ytick_3">
     <g id="text_11">
      <!-- $\mathdefault{400}$ -->
      <g style="fill: #262626" transform="translate(39.381364 138.069759) scale(0.165 -0.165)">
       <defs>
        <path id="CMR17-34" d="M 2150 4122 
C 2150 4256 2144 4256 2029 4256 
L 128 1254 
L 128 1088 
L 1779 1088 
L 1779 457 
C 1779 224 1766 160 1318 160 
L 1197 160 
L 1197 0 
C 1402 0 1747 0 1965 0 
C 2182 0 2528 0 2733 0 
L 2733 160 
L 2611 160 
C 2163 160 2150 224 2150 457 
L 2150 1088 
L 2803 1088 
L 2803 1254 
L 2150 1254 
L 2150 4122 
z
M 1798 3703 
L 1798 1254 
L 256 1254 
L 1798 3703 
z
" transform="scale(0.015625)"/>
       </defs>
       <use xlink:href="#CMR17-34" transform="scale(0.996264)"/>
       <use xlink:href="#CMR17-30" transform="translate(45.690477 0) scale(0.996264)"/>
       <use xlink:href="#CMR17-30" transform="translate(91.380954 0) scale(0.996264)"/>
      </g>
     </g>
    </g>
    <g id="ytick_4">
     <g id="text_12">
      <!-- $\mathdefault{600}$ -->
      <g style="fill: #262626" transform="translate(39.381364 94.879089) scale(0.165 -0.165)">
       <defs>
        <path id="CMR17-36" d="M 678 2176 
C 678 3690 1395 4032 1811 4032 
C 1946 4032 2272 4009 2400 3776 
C 2298 3776 2106 3776 2106 3553 
C 2106 3381 2246 3323 2336 3323 
C 2394 3323 2566 3348 2566 3560 
C 2566 3954 2246 4179 1805 4179 
C 1043 4179 243 3390 243 1984 
C 243 253 966 -128 1478 -128 
C 2099 -128 2688 427 2688 1283 
C 2688 2081 2170 2662 1517 2662 
C 1126 2662 838 2407 678 1960 
L 678 2176 
z
M 1478 25 
C 691 25 691 1200 691 1436 
C 691 1896 909 2560 1504 2560 
C 1613 2560 1926 2560 2138 2120 
C 2253 1870 2253 1609 2253 1289 
C 2253 944 2253 690 2118 434 
C 1978 171 1773 25 1478 25 
z
" transform="scale(0.015625)"/>
       </defs>
       <use xlink:href="#CMR17-36" transform="scale(0.996264)"/>
       <use xlink:href="#CMR17-30" transform="translate(45.690477 0) scale(0.996264)"/>
       <use xlink:href="#CMR17-30" transform="translate(91.380954 0) scale(0.996264)"/>
      </g>
     </g>
    </g>
    <g id="ytick_5">
     <g id="text_13">
      <!-- $\mathdefault{800}$ -->
      <g style="fill: #262626" transform="translate(39.381364 51.688419) scale(0.165 -0.165)">
       <defs>
        <path id="CMR17-38" d="M 1741 2264 
C 2144 2467 2554 2773 2554 3263 
C 2554 3841 1990 4179 1472 4179 
C 890 4179 378 3759 378 3180 
C 378 3021 416 2747 666 2505 
C 730 2442 998 2251 1171 2130 
C 883 1983 211 1634 211 934 
C 211 279 838 -128 1459 -128 
C 2144 -128 2720 362 2720 1010 
C 2720 1590 2330 1857 2074 2029 
L 1741 2264 
z
M 902 2822 
C 851 2854 595 3051 595 3351 
C 595 3739 998 4032 1459 4032 
C 1965 4032 2336 3676 2336 3262 
C 2336 2669 1670 2331 1638 2331 
C 1632 2331 1626 2331 1574 2370 
L 902 2822 
z
M 2080 1519 
C 2176 1449 2483 1240 2483 851 
C 2483 381 2010 25 1472 25 
C 890 25 448 438 448 940 
C 448 1443 838 1862 1280 2060 
L 2080 1519 
z
" transform="scale(0.015625)"/>
       </defs>
       <use xlink:href="#CMR17-38" transform="scale(0.996264)"/>
       <use xlink:href="#CMR17-30" transform="translate(45.690477 0) scale(0.996264)"/>
       <use xlink:href="#CMR17-30" transform="translate(91.380954 0) scale(0.996264)"/>
      </g>
     </g>
    </g>
    <g id="text_14">
     <!-- Nodes -->
     <g style="fill: #262626" transform="translate(31.8933 145.437695) rotate(-90) scale(0.18 -0.18)">
      <defs>
       <path id="CMSS17-4e" d="M 1466 4180 
L 1350 4416 
L 563 4416 
L 563 0 
L 1062 0 
L 1062 3926 
L 1069 3932 
C 1114 3817 1139 3760 1402 3194 
L 2771 236 
L 2886 0 
L 3674 0 
L 3674 4416 
L 3174 4416 
L 3174 490 
L 3168 483 
C 3123 598 3098 655 2835 1221 
L 1466 4180 
z
" transform="scale(0.015625)"/>
       <path id="CMSS17-6f" d="M 2829 1356 
C 2829 2176 2221 2816 1504 2816 
C 768 2816 173 2157 173 1356 
C 173 544 787 -64 1498 -64 
C 2227 -64 2829 563 2829 1356 
z
M 1504 337 
C 1050 337 659 709 659 1408 
C 659 2151 1114 2427 1498 2427 
C 1914 2427 2342 2126 2342 1408 
C 2342 683 1926 337 1504 337 
z
" transform="scale(0.015625)"/>
       <path id="CMSS17-64" d="M 2611 4416 
L 2138 4416 
L 2138 2438 
C 1939 2603 1613 2756 1254 2756 
C 672 2756 211 2131 211 1347 
C 211 562 666 -64 1235 -64 
C 1677 -64 1971 172 2125 306 
L 2125 -13 
L 2611 -13 
L 2611 4416 
z
M 2125 836 
C 2125 747 2125 653 1926 482 
C 1798 375 1645 325 1498 325 
C 1152 325 698 576 698 1340 
C 698 2134 1210 2368 1562 2368 
C 1798 2368 1990 2254 2125 2065 
L 2125 836 
z
" transform="scale(0.015625)"/>
       <path id="CMSS17-65" d="M 2502 1377 
C 2502 1590 2490 2003 2285 2345 
C 2061 2713 1696 2816 1421 2816 
C 755 2816 192 2188 192 1375 
C 192 582 774 -64 1510 -64 
C 1798 -64 2150 19 2470 248 
C 2470 274 2458 414 2451 420 
C 2451 433 2432 630 2432 656 
C 2125 407 1773 325 1517 325 
C 1107 325 666 667 646 1377 
L 2502 1377 
z
M 698 1728 
C 781 2084 1062 2421 1421 2421 
C 1517 2421 1965 2421 2080 1728 
L 698 1728 
z
" transform="scale(0.015625)"/>
       <path id="CMSS17-73" d="M 2061 2627 
C 1683 2807 1389 2807 1197 2807 
C 742 2807 198 2648 198 2003 
C 198 1359 902 1218 1094 1179 
C 1389 1122 1715 1058 1715 740 
C 1715 337 1254 337 1171 337 
C 915 337 563 407 243 638 
L 166 210 
C 531 0 883 -64 1178 -64 
C 1965 -64 2163 416 2163 781 
C 2163 1094 1984 1305 1862 1401 
C 1651 1568 1574 1587 1050 1696 
C 960 1709 646 1779 646 2066 
C 646 2432 1050 2432 1139 2432 
C 1555 2432 1811 2303 1984 2208 
L 2061 2627 
z
" transform="scale(0.015625)"/>
      </defs>
      <use xlink:href="#CMSS17-4e" transform="scale(0.996264)"/>
      <use xlink:href="#CMSS17-6f" transform="translate(66.061519 0) scale(0.996264)"/>
      <use xlink:href="#CMSS17-64" transform="translate(115.507581 0) scale(0.996264)"/>
      <use xlink:href="#CMSS17-65" transform="translate(163.712525 0) scale(0.996264)"/>
      <use xlink:href="#CMSS17-73" transform="translate(205.351347 0) scale(0.996264)"/>
     </g>
    </g>
   </g>
   <g id="patch_3">
    <path d="M 81.387033 201.251125 
L 124.283886 201.251125 
L 124.283886 132.146053 
L 81.387033 132.146053 
L 81.387033 201.251125 
z
" clip-path="url(#p7dfd52b341)" style="fill: #5875a4; stroke: #4c4c4c; stroke-linejoin: miter"/>
   </g>
   <g id="line2d_1">
    <path d="M 102.835459 201.251125 
L 102.835459 218.527393 
" clip-path="url(#p7dfd52b341)" style="fill: none; stroke: #4c4c4c"/>
   </g>
   <g id="line2d_2">
    <path d="M 102.835459 132.146053 
L 102.835459 28.920352 
" clip-path="url(#p7dfd52b341)" style="fill: none; stroke: #4c4c4c"/>
   </g>
   <g id="line2d_3">
    <path d="M 92.111246 218.527393 
L 113.559672 218.527393 
" clip-path="url(#p7dfd52b341)" style="fill: none; stroke: #4c4c4c; stroke-linecap: round"/>
   </g>
   <g id="line2d_4">
    <path d="M 92.111246 28.920352 
L 113.559672 28.920352 
" clip-path="url(#p7dfd52b341)" style="fill: none; stroke: #4c4c4c; stroke-linecap: round"/>
   </g>
   <g id="patch_4">
    <path d="M 135.008099 200.549276 
L 177.904951 200.549276 
L 177.904951 137.76084 
L 135.008099 137.76084 
L 135.008099 200.549276 
z
" clip-path="url(#p7dfd52b341)" style="fill: #5875a4; stroke: #4c4c4c; stroke-linejoin: miter"/>
   </g>
   <g id="line2d_5">
    <path d="M 156.456525 200.549276 
L 156.456525 218.527393 
" clip-path="url(#p7dfd52b341)" style="fill: none; stroke: #4c4c4c"/>
   </g>
   <g id="line2d_6">
    <path d="M 156.456525 137.76084 
L 156.456525 43.60518 
" clip-path="url(#p7dfd52b341)" style="fill: none; stroke: #4c4c4c"/>
   </g>
   <g id="line2d_7">
    <path d="M 145.732312 218.527393 
L 167.180738 218.527393 
" clip-path="url(#p7dfd52b341)" style="fill: none; stroke: #4c4c4c; stroke-linecap: round"/>
   </g>
   <g id="line2d_8">
    <path d="M 145.732312 43.60518 
L 167.180738 43.60518 
" clip-path="url(#p7dfd52b341)" style="fill: none; stroke: #4c4c4c; stroke-linecap: round"/>
   </g>
   <g id="patch_5">
    <path d="M 188.629165 206.59597 
L 231.526017 206.59597 
L 231.526017 157.682536 
L 188.629165 157.682536 
L 188.629165 206.59597 
z
" clip-path="url(#p7dfd52b341)" style="fill: #5875a4; stroke: #4c4c4c; stroke-linejoin: miter"/>
   </g>
   <g id="line2d_9">
    <path d="M 210.077591 206.59597 
L 210.077591 218.527393 
" clip-path="url(#p7dfd52b341)" style="fill: none; stroke: #4c4c4c"/>
   </g>
   <g id="line2d_10">
    <path d="M 210.077591 157.682536 
L 210.077591 86.579896 
" clip-path="url(#p7dfd52b341)" style="fill: none; stroke: #4c4c4c"/>
   </g>
   <g id="line2d_11">
    <path d="M 199.353378 218.527393 
L 220.801804 218.527393 
" clip-path="url(#p7dfd52b341)" style="fill: none; stroke: #4c4c4c; stroke-linecap: round"/>
   </g>
   <g id="line2d_12">
    <path d="M 199.353378 86.579896 
L 220.801804 86.579896 
" clip-path="url(#p7dfd52b341)" style="fill: none; stroke: #4c4c4c; stroke-linecap: round"/>
   </g>
   <g id="patch_6">
    <path d="M 242.250231 207.513772 
L 285.147083 207.513772 
L 285.147083 162.811429 
L 242.250231 162.811429 
L 242.250231 207.513772 
z
" clip-path="url(#p7dfd52b341)" style="fill: #5875a4; stroke: #4c4c4c; stroke-linejoin: miter"/>
   </g>
   <g id="line2d_13">
    <path d="M 263.698657 207.513772 
L 263.698657 218.527393 
" clip-path="url(#p7dfd52b341)" style="fill: none; stroke: #4c4c4c"/>
   </g>
   <g id="line2d_14">
    <path d="M 263.698657 162.811429 
L 263.698657 96.297797 
" clip-path="url(#p7dfd52b341)" style="fill: none; stroke: #4c4c4c"/>
   </g>
   <g id="line2d_15">
    <path d="M 252.974444 218.527393 
L 274.42287 218.527393 
" clip-path="url(#p7dfd52b341)" style="fill: none; stroke: #4c4c4c; stroke-linecap: round"/>
   </g>
   <g id="line2d_16">
    <path d="M 252.974444 96.297797 
L 274.42287 96.297797 
" clip-path="url(#p7dfd52b341)" style="fill: none; stroke: #4c4c4c; stroke-linecap: round"/>
   </g>
   <g id="patch_7">
    <path d="M 295.871296 206.056087 
L 338.768149 206.056087 
L 338.768149 158.492362 
L 295.871296 158.492362 
L 295.871296 206.056087 
z
" clip-path="url(#p7dfd52b341)" style="fill: #5875a4; stroke: #4c4c4c; stroke-linejoin: miter"/>
   </g>
   <g id="line2d_17">
    <path d="M 317.319723 206.056087 
L 317.319723 218.527393 
" clip-path="url(#p7dfd52b341)" style="fill: none; stroke: #4c4c4c"/>
   </g>
   <g id="line2d_18">
    <path d="M 317.319723 158.492362 
L 317.319723 87.44371 
" clip-path="url(#p7dfd52b341)" style="fill: none; stroke: #4c4c4c"/>
   </g>
   <g id="line2d_19">
    <path d="M 306.59551 218.527393 
L 328.043936 218.527393 
" clip-path="url(#p7dfd52b341)" style="fill: none; stroke: #4c4c4c; stroke-linecap: round"/>
   </g>
   <g id="line2d_20">
    <path d="M 306.59551 87.44371 
L 328.043936 87.44371 
" clip-path="url(#p7dfd52b341)" style="fill: none; stroke: #4c4c4c; stroke-linecap: round"/>
   </g>
   <g id="patch_8">
    <path d="M 349.492362 207.675737 
L 392.389215 207.675737 
L 392.389215 164.323102 
L 349.492362 164.323102 
L 349.492362 207.675737 
z
" clip-path="url(#p7dfd52b341)" style="fill: #5875a4; stroke: #4c4c4c; stroke-linejoin: miter"/>
   </g>
   <g id="line2d_21">
    <path d="M 370.940789 207.675737 
L 370.940789 218.527393 
" clip-path="url(#p7dfd52b341)" style="fill: none; stroke: #4c4c4c"/>
   </g>
   <g id="line2d_22">
    <path d="M 370.940789 164.323102 
L 370.940789 101.480677 
" clip-path="url(#p7dfd52b341)" style="fill: none; stroke: #4c4c4c"/>
   </g>
   <g id="line2d_23">
    <path d="M 360.216575 218.527393 
L 381.665002 218.527393 
" clip-path="url(#p7dfd52b341)" style="fill: none; stroke: #4c4c4c; stroke-linecap: round"/>
   </g>
   <g id="line2d_24">
    <path d="M 360.216575 101.480677 
L 381.665002 101.480677 
" clip-path="url(#p7dfd52b341)" style="fill: none; stroke: #4c4c4c; stroke-linecap: round"/>
   </g>
   <g id="patch_9">
    <path d="M 403.113428 208.593539 
L 446.010281 208.593539 
L 446.010281 152.229714 
L 403.113428 152.229714 
L 403.113428 208.593539 
z
" clip-path="url(#p7dfd52b341)" style="fill: #5875a4; stroke: #4c4c4c; stroke-linejoin: miter"/>
   </g>
   <g id="line2d_25">
    <path d="M 424.561855 208.593539 
L 424.561855 218.527393 
" clip-path="url(#p7dfd52b341)" style="fill: none; stroke: #4c4c4c"/>
   </g>
   <g id="line2d_26">
    <path d="M 424.561855 152.229714 
L 424.561855 68.655768 
" clip-path="url(#p7dfd52b341)" style="fill: none; stroke: #4c4c4c"/>
   </g>
   <g id="line2d_27">
    <path d="M 413.837641 218.527393 
L 435.286068 218.527393 
" clip-path="url(#p7dfd52b341)" style="fill: none; stroke: #4c4c4c; stroke-linecap: round"/>
   </g>
   <g id="line2d_28">
    <path d="M 413.837641 68.655768 
L 435.286068 68.655768 
" clip-path="url(#p7dfd52b341)" style="fill: none; stroke: #4c4c4c; stroke-linecap: round"/>
   </g>
   <g id="patch_10">
    <path d="M 456.734494 208.809492 
L 499.631347 208.809492 
L 499.631347 155.091096 
L 456.734494 155.091096 
L 456.734494 208.809492 
z
" clip-path="url(#p7dfd52b341)" style="fill: #5875a4; stroke: #4c4c4c; stroke-linejoin: miter"/>
   </g>
   <g id="line2d_29">
    <path d="M 478.18292 208.809492 
L 478.18292 218.527393 
" clip-path="url(#p7dfd52b341)" style="fill: none; stroke: #4c4c4c"/>
   </g>
   <g id="line2d_30">
    <path d="M 478.18292 155.091096 
L 478.18292 74.918415 
" clip-path="url(#p7dfd52b341)" style="fill: none; stroke: #4c4c4c"/>
   </g>
   <g id="line2d_31">
    <path d="M 467.458707 218.527393 
L 488.907134 218.527393 
" clip-path="url(#p7dfd52b341)" style="fill: none; stroke: #4c4c4c; stroke-linecap: round"/>
   </g>
   <g id="line2d_32">
    <path d="M 467.458707 74.918415 
L 488.907134 74.918415 
" clip-path="url(#p7dfd52b341)" style="fill: none; stroke: #4c4c4c; stroke-linecap: round"/>
   </g>
   <g id="line2d_33">
    <path d="M 81.387033 179.65579 
L 124.283886 179.65579 
" clip-path="url(#p7dfd52b341)" style="fill: none; stroke: #4c4c4c"/>
   </g>
   <g id="line2d_34">
    <defs>
     <path id="m8de0aec808" d="M 0 4 
C 1.060812 4 2.078319 3.578535 2.828427 2.828427 
C 3.578535 2.078319 4 1.060812 4 0 
C 4 -1.060812 3.578535 -2.078319 2.828427 -2.828427 
C 2.078319 -3.578535 1.060812 -4 0 -4 
C -1.060812 -4 -2.078319 -3.578535 -2.828427 -2.828427 
C -3.578535 -2.078319 -4 -1.060812 -4 0 
C -4 1.060812 -3.578535 2.078319 -2.828427 2.828427 
C -2.078319 3.578535 -1.060812 4 0 4 
z
" style="stroke: #000000"/>
    </defs>
    <g clip-path="url(#p7dfd52b341)">
     <use xlink:href="#m8de0aec808" x="102.835459" y="105.932522" style="fill: #ffffff; stroke: #000000"/>
    </g>
   </g>
   <g id="line2d_35">
    <path d="M 135.008099 181.383417 
L 177.904951 181.383417 
" clip-path="url(#p7dfd52b341)" style="fill: none; stroke: #4c4c4c"/>
   </g>
   <g id="line2d_36">
    <g clip-path="url(#p7dfd52b341)">
     <use xlink:href="#m8de0aec808" x="156.456525" y="115.969211" style="fill: #ffffff; stroke: #000000"/>
    </g>
   </g>
   <g id="line2d_37">
    <path d="M 188.629165 190.885364 
L 231.526017 190.885364 
" clip-path="url(#p7dfd52b341)" style="fill: none; stroke: #4c4c4c"/>
   </g>
   <g id="line2d_38">
    <g clip-path="url(#p7dfd52b341)">
     <use xlink:href="#m8de0aec808" x="210.077591" y="147.901465" style="fill: #ffffff; stroke: #000000"/>
    </g>
   </g>
   <g id="line2d_39">
    <path d="M 242.250231 193.044897 
L 285.147083 193.044897 
" clip-path="url(#p7dfd52b341)" style="fill: none; stroke: #4c4c4c"/>
   </g>
   <g id="line2d_40">
    <g clip-path="url(#p7dfd52b341)">
     <use xlink:href="#m8de0aec808" x="263.698657" y="152.519245" style="fill: #ffffff; stroke: #000000"/>
    </g>
   </g>
   <g id="line2d_41">
    <path d="M 295.871296 192.720967 
L 338.768149 192.720967 
" clip-path="url(#p7dfd52b341)" style="fill: none; stroke: #4c4c4c"/>
   </g>
   <g id="line2d_42">
    <g clip-path="url(#p7dfd52b341)">
     <use xlink:href="#m8de0aec808" x="317.319723" y="150.060278" style="fill: #ffffff; stroke: #000000"/>
    </g>
   </g>
   <g id="line2d_43">
    <path d="M 349.492362 195.852291 
L 392.389215 195.852291 
" clip-path="url(#p7dfd52b341)" style="fill: none; stroke: #4c4c4c"/>
   </g>
   <g id="line2d_44">
    <g clip-path="url(#p7dfd52b341)">
     <use xlink:href="#m8de0aec808" x="370.940789" y="154.866446" style="fill: #ffffff; stroke: #000000"/>
    </g>
   </g>
   <g id="line2d_45">
    <path d="M 403.113428 184.19081 
L 446.010281 184.19081 
" clip-path="url(#p7dfd52b341)" style="fill: none; stroke: #4c4c4c"/>
   </g>
   <g id="line2d_46">
    <g clip-path="url(#p7dfd52b341)">
     <use xlink:href="#m8de0aec808" x="424.561855" y="138.553303" style="fill: #ffffff; stroke: #000000"/>
    </g>
   </g>
   <g id="line2d_47">
    <path d="M 456.734494 190.021551 
L 499.631347 190.021551 
" clip-path="url(#p7dfd52b341)" style="fill: none; stroke: #4c4c4c"/>
   </g>
   <g id="line2d_48">
    <g clip-path="url(#p7dfd52b341)">
     <use xlink:href="#m8de0aec808" x="478.18292" y="144.757923" style="fill: #ffffff; stroke: #000000"/>
    </g>
   </g>
   <g id="patch_11">
    <path d="M 76.024926 228.007745 
L 76.024926 19.44 
" style="fill: none; stroke: #262626; stroke-width: 1.875; stroke-linejoin: miter; stroke-linecap: square"/>
   </g>
   <g id="patch_12">
    <path d="M 504.993453 228.007745 
L 504.993453 19.44 
" style="fill: none; stroke: #262626; stroke-width: 1.875; stroke-linejoin: miter; stroke-linecap: square"/>
   </g>
   <g id="patch_13">
    <path d="M 76.024926 228.007745 
L 504.993453 228.007745 
" style="fill: none; stroke: #262626; stroke-width: 1.875; stroke-linejoin: miter; stroke-linecap: square"/>
   </g>
   <g id="patch_14">
    <path d="M 76.024926 19.44 
L 504.993453 19.44 
" style="fill: none; stroke: #262626; stroke-width: 1.875; stroke-linejoin: miter; stroke-linecap: square"/>
   </g>
  </g>
 </g>
 <defs>
  <clipPath id="p7dfd52b341">
   <rect x="76.024926" y="19.44" width="428.968527" height="208.567745"/>
  </clipPath>
 </defs>
</svg>
