<?xml version="1.0" encoding="utf-8" standalone="no"?>
<!DOCTYPE svg PUBLIC "-//W3C//DTD SVG 1.1//EN"
  "http://www.w3.org/Graphics/SVG/1.1/DTD/svg11.dtd">
<svg xmlns:xlink="http://www.w3.org/1999/xlink" width="545.76pt" height="360pt" viewBox="0 0 545.76 360" xmlns="http://www.w3.org/2000/svg" version="1.1">
 <metadata>
  <rdf:RDF xmlns:dc="http://purl.org/dc/elements/1.1/" xmlns:cc="http://creativecommons.org/ns#" xmlns:rdf="http://www.w3.org/1999/02/22-rdf-syntax-ns#">
   <cc:Work>
    <dc:type rdf:resource="http://purl.org/dc/dcmitype/StillImage"/>
    <dc:date>2024-09-03T21:18:05.003544</dc:date>
    <dc:format>image/svg+xml</dc:format>
    <dc:creator>
     <cc:Agent>
      <dc:title>Matplotlib v3.9.2, https://matplotlib.org/</dc:title>
     </cc:Agent>
    </dc:creator>
   </cc:Work>
  </rdf:RDF>
 </metadata>
 <defs>
  <style type="text/css">*{stroke-linejoin: round; stroke-linecap: butt}</style>
 </defs>
 <g id="figure_1">
  <g id="patch_1">
   <path d="M 0 360 
L 545.76 360 
L 545.76 0 
L 0 0 
L 0 360 
z
" style="fill: none"/>
  </g>
  <g id="axes_1">
   <g id="patch_2">
    <path d="M 84.07278 228.007745 
L 502.861652 228.007745 
L 502.861652 22.384368 
L 84.07278 22.384368 
L 84.07278 228.007745 
z
" style="fill: none"/>
   </g>
   <g id="matplotlib.axis_1">
    <g id="xtick_1">
     <g id="text_1">
      <!-- \texttt{generic} -->
      <g style="fill: #262626" transform="translate(91.895419 290.126233) rotate(-45) scale(0.165 -0.165)">
       <defs>
        <path id="CMTT12-67" d="M 1216 422 
C 1139 422 845 422 845 769 
C 845 891 864 916 890 967 
C 1018 877 1229 794 1459 794 
C 2042 794 2490 1261 2490 1810 
C 2490 1970 2451 2169 2317 2380 
C 2483 2459 2637 2477 2733 2477 
C 2771 2304 2957 2304 2963 2304 
C 3040 2304 3200 2355 3200 2547 
C 3200 2669 3104 2880 2746 2880 
C 2630 2880 2342 2852 2074 2618 
C 1862 2765 1645 2816 1466 2816 
C 883 2816 435 2353 435 1806 
C 435 1666 467 1425 646 1197 
C 525 1018 506 826 506 749 
C 506 525 614 346 666 288 
C 314 95 186 -252 186 -502 
C 186 -1035 832 -1440 1645 -1440 
C 2458 -1440 3104 -1042 3104 -502 
C 3104 422 1971 422 1760 422 
L 1216 422 
z
M 1459 1152 
C 1139 1152 851 1431 851 1805 
C 851 2179 1146 2457 1459 2457 
C 1798 2457 2074 2166 2074 1805 
C 2074 1443 1798 1152 1459 1152 
z
M 1645 -1081 
C 1018 -1081 550 -799 550 -502 
C 550 -405 582 -180 819 -33 
C 966 64 1030 64 1472 64 
C 2035 64 2739 64 2739 -502 
C 2739 -799 2272 -1081 1645 -1081 
z
" transform="scale(0.015625)"/>
        <path id="CMTT12-65" d="M 2662 1248 
C 2797 1248 2918 1248 2918 1482 
C 2918 2221 2496 2816 1696 2816 
C 954 2816 358 2177 358 1398 
C 358 594 1005 -32 1792 -32 
C 2618 -32 2918 541 2918 709 
C 2918 748 2906 891 2707 891 
C 2586 891 2547 845 2509 748 
C 2349 371 1933 339 1811 339 
C 1280 339 858 748 787 1248 
L 2662 1248 
z
M 794 1600 
C 877 2132 1293 2445 1696 2445 
C 2336 2445 2470 1913 2496 1600 
L 794 1600 
z
" transform="scale(0.015625)"/>
        <path id="CMTT12-6e" d="M 2675 1879 
C 2675 2507 2381 2803 1856 2803 
C 1421 2803 1139 2560 1030 2438 
C 1030 2666 1030 2752 774 2752 
L 352 2752 
C 262 2752 96 2752 96 2567 
C 96 2381 262 2381 352 2381 
L 614 2381 
L 614 371 
L 352 371 
C 262 371 96 371 96 186 
C 96 0 262 0 352 0 
L 1293 0 
C 1382 0 1549 0 1549 186 
C 1549 371 1382 371 1293 371 
L 1030 371 
L 1030 1533 
C 1030 2155 1466 2432 1811 2432 
C 2182 2432 2259 2219 2259 1854 
L 2259 371 
L 1997 371 
C 1907 371 1741 371 1741 186 
C 1741 0 1907 0 1997 0 
L 2938 0 
C 3027 0 3194 0 3194 186 
C 3194 371 3027 371 2938 371 
L 2675 371 
L 2675 1879 
z
" transform="scale(0.015625)"/>
        <path id="CMTT12-72" d="M 1382 1212 
C 1382 1976 1920 2432 2464 2432 
C 2496 2432 2534 2432 2566 2425 
C 2586 2185 2765 2165 2810 2165 
C 2957 2165 3059 2275 3059 2418 
C 3059 2698 2790 2803 2470 2803 
C 2042 2803 1677 2607 1382 2241 
L 1382 2491 
C 1382 2688 1344 2752 1126 2752 
L 480 2752 
C 390 2752 224 2752 224 2567 
C 224 2381 390 2381 480 2381 
L 966 2381 
L 966 371 
L 480 371 
C 390 371 224 371 224 186 
C 224 0 390 0 480 0 
L 2054 0 
C 2144 0 2310 0 2310 186 
C 2310 371 2144 371 2054 371 
L 1382 371 
L 1382 1212 
z
" transform="scale(0.015625)"/>
        <path id="CMTT12-69" d="M 1933 3616 
C 1933 3776 1805 3904 1645 3904 
C 1485 3904 1357 3776 1357 3616 
C 1357 3456 1485 3328 1645 3328 
C 1805 3328 1933 3456 1933 3616 
z
M 832 2752 
C 742 2752 576 2752 576 2567 
C 576 2381 742 2381 832 2381 
L 1517 2381 
L 1517 371 
L 787 371 
C 698 371 525 371 525 186 
C 525 0 698 0 787 0 
L 2566 0 
C 2656 0 2822 0 2822 186 
C 2822 371 2656 371 2566 371 
L 1933 371 
L 1933 2491 
C 1933 2688 1894 2752 1677 2752 
L 832 2752 
z
" transform="scale(0.015625)"/>
        <path id="CMTT12-63" d="M 2918 702 
C 2918 868 2758 868 2707 868 
C 2560 868 2534 817 2502 728 
C 2362 377 2048 339 1894 339 
C 1350 339 890 792 890 1385 
C 890 1711 1075 2445 1914 2445 
C 2086 2445 2221 2432 2278 2426 
C 2323 2413 2330 2405 2330 2373 
C 2349 2107 2547 2107 2586 2107 
C 2726 2107 2848 2203 2848 2375 
C 2848 2816 2202 2816 1920 2816 
C 826 2816 474 1922 474 1385 
C 474 607 1069 -32 1837 -32 
C 2694 -32 2918 600 2918 702 
z
" transform="scale(0.015625)"/>
       </defs>
       <use xlink:href="#CMTT12-67" transform="scale(0.996264)"/>
       <use xlink:href="#CMTT12-65" transform="translate(51.266111 0) scale(0.996264)"/>
       <use xlink:href="#CMTT12-6e" transform="translate(102.532222 0) scale(0.996264)"/>
       <use xlink:href="#CMTT12-65" transform="translate(153.798333 0) scale(0.996264)"/>
       <use xlink:href="#CMTT12-72" transform="translate(205.064443 0) scale(0.996264)"/>
       <use xlink:href="#CMTT12-69" transform="translate(256.330554 0) scale(0.996264)"/>
       <use xlink:href="#CMTT12-63" transform="translate(307.596665 0) scale(0.996264)"/>
      </g>
     </g>
    </g>
    <g id="xtick_2">
     <g id="text_2">
      <!-- \texttt{generic-mip} -->
      <g style="fill: #262626" transform="translate(132.281344 314.051601) rotate(-45) scale(0.165 -0.165)">
       <defs>
        <path id="CMTT12-2d" d="M 2650 1728 
C 2733 1728 2938 1728 2938 1933 
C 2938 2144 2739 2144 2650 2144 
L 640 2144 
C 557 2144 352 2144 352 1939 
C 352 1728 550 1728 640 1728 
L 2650 1728 
z
" transform="scale(0.015625)"/>
        <path id="CMTT12-6d" d="M 2899 1943 
C 2899 2084 2899 2803 2336 2803 
C 2112 2803 1894 2700 1722 2463 
C 1683 2559 1542 2803 1235 2803 
C 947 2803 749 2613 698 2555 
C 691 2752 557 2752 442 2752 
L 250 2752 
C 160 2752 -6 2752 -6 2567 
C -6 2381 141 2381 339 2381 
L 339 371 
C 134 371 -6 371 -6 186 
C -6 0 160 0 250 0 
L 787 0 
C 877 0 1043 0 1043 186 
C 1043 371 896 371 698 371 
L 698 1552 
C 698 2091 928 2432 1210 2432 
C 1389 2432 1440 2207 1440 1905 
L 1440 371 
C 1331 371 1158 371 1158 186 
C 1158 0 1331 0 1421 0 
L 1888 0 
C 1978 0 2144 0 2144 186 
C 2144 371 1997 371 1798 371 
L 1798 1552 
C 1798 2091 2029 2432 2310 2432 
C 2490 2432 2541 2207 2541 1905 
L 2541 371 
C 2432 371 2259 371 2259 186 
C 2259 0 2432 0 2522 0 
L 2989 0 
C 3078 0 3245 0 3245 186 
C 3245 371 3098 371 2899 371 
L 2899 1943 
z
" transform="scale(0.015625)"/>
        <path id="CMTT12-70" d="M 1293 -1408 
C 1382 -1408 1549 -1408 1549 -1222 
C 1549 -1037 1382 -1037 1293 -1037 
L 1030 -1037 
L 1030 326 
C 1184 153 1421 -32 1779 -32 
C 2458 -32 3053 579 3053 1395 
C 3053 2186 2515 2816 1850 2816 
C 1382 2816 1088 2533 1030 2469 
C 1030 2664 1030 2752 774 2752 
L 352 2752 
C 262 2752 96 2752 96 2567 
C 96 2381 262 2381 352 2381 
L 614 2381 
L 614 -1037 
L 352 -1037 
C 262 -1037 96 -1037 96 -1222 
C 96 -1408 262 -1408 352 -1408 
L 1293 -1408 
z
M 1030 1717 
C 1030 2084 1389 2445 1805 2445 
C 2266 2445 2637 1974 2637 1395 
C 2637 777 2202 339 1747 339 
C 1267 339 1030 886 1030 1208 
L 1030 1717 
z
" transform="scale(0.015625)"/>
       </defs>
       <use xlink:href="#CMTT12-67" transform="scale(0.996264)"/>
       <use xlink:href="#CMTT12-65" transform="translate(51.266111 0) scale(0.996264)"/>
       <use xlink:href="#CMTT12-6e" transform="translate(102.532222 0) scale(0.996264)"/>
       <use xlink:href="#CMTT12-65" transform="translate(153.798333 0) scale(0.996264)"/>
       <use xlink:href="#CMTT12-72" transform="translate(205.064443 0) scale(0.996264)"/>
       <use xlink:href="#CMTT12-69" transform="translate(256.330554 0) scale(0.996264)"/>
       <use xlink:href="#CMTT12-63" transform="translate(307.596665 0) scale(0.996264)"/>
       <use xlink:href="#CMTT12-2d" transform="translate(358.862776 0) scale(0.996264)"/>
       <use xlink:href="#CMTT12-6d" transform="translate(410.128887 0) scale(0.996264)"/>
       <use xlink:href="#CMTT12-69" transform="translate(461.394998 0) scale(0.996264)"/>
       <use xlink:href="#CMTT12-70" transform="translate(512.661108 0) scale(0.996264)"/>
      </g>
     </g>
    </g>
    <g id="xtick_3">
     <g id="text_3">
      <!-- \texttt{compbnd} -->
      <g style="fill: #262626" transform="translate(196.592637 290.126233) rotate(-45) scale(0.165 -0.165)">
       <defs>
        <path id="CMTT12-6f" d="M 2918 1385 
C 2918 2183 2336 2816 1645 2816 
C 954 2816 371 2183 371 1385 
C 371 581 960 -32 1645 -32 
C 2330 -32 2918 581 2918 1385 
z
M 1645 339 
C 1184 339 787 824 787 1430 
C 787 2023 1197 2445 1645 2445 
C 2093 2445 2502 2023 2502 1430 
C 2502 818 2106 339 1645 339 
z
" transform="scale(0.015625)"/>
        <path id="CMTT12-62" d="M 1030 3644 
C 1030 3841 992 3904 774 3904 
L 352 3904 
C 262 3904 96 3904 96 3719 
C 96 3533 262 3533 352 3533 
L 614 3533 
L 614 262 
C 614 147 614 0 826 0 
C 1030 0 1030 137 1030 326 
C 1184 153 1421 -32 1779 -32 
C 2458 -32 3053 576 3053 1388 
C 3053 2176 2515 2803 1850 2803 
C 1382 2803 1088 2522 1030 2458 
L 1030 3644 
z
M 1030 1708 
C 1030 2073 1389 2432 1805 2432 
C 2266 2432 2637 1964 2637 1388 
C 2637 774 2202 339 1747 339 
C 1267 339 1030 883 1030 1203 
L 1030 1708 
z
" transform="scale(0.015625)"/>
        <path id="CMTT12-64" d="M 2675 3642 
C 2675 3840 2637 3904 2419 3904 
L 1997 3904 
C 1907 3904 1741 3904 1741 3719 
C 1741 3533 1907 3533 1997 3533 
L 2259 3533 
L 2259 2483 
C 2157 2585 1894 2803 1504 2803 
C 826 2803 237 2188 237 1382 
C 237 595 787 -32 1446 -32 
C 1862 -32 2138 215 2259 355 
C 2259 84 2259 0 2515 0 
L 2938 0 
C 3027 0 3194 0 3194 186 
C 3194 371 3027 371 2938 371 
L 2675 371 
L 2675 3642 
z
M 2259 1222 
C 2259 864 1965 339 1485 339 
C 1024 339 653 806 653 1382 
C 653 1996 1088 2432 1542 2432 
C 1958 2432 2259 2054 2259 1721 
L 2259 1222 
z
" transform="scale(0.015625)"/>
       </defs>
       <use xlink:href="#CMTT12-63" transform="scale(0.996264)"/>
       <use xlink:href="#CMTT12-6f" transform="translate(51.266111 0) scale(0.996264)"/>
       <use xlink:href="#CMTT12-6d" transform="translate(102.532222 0) scale(0.996264)"/>
       <use xlink:href="#CMTT12-70" transform="translate(153.798333 0) scale(0.996264)"/>
       <use xlink:href="#CMTT12-62" transform="translate(205.064443 0) scale(0.996264)"/>
       <use xlink:href="#CMTT12-6e" transform="translate(256.330554 0) scale(0.996264)"/>
       <use xlink:href="#CMTT12-64" transform="translate(307.596665 0) scale(0.996264)"/>
      </g>
     </g>
    </g>
    <g id="xtick_4">
     <g id="text_4">
      <!-- \texttt{compbnd+dvs} -->
      <g style="fill: #262626" transform="translate(236.978562 314.051601) rotate(-45) scale(0.165 -0.165)">
       <defs>
        <path id="CMTT12-2b" d="M 1856 1792 
L 2765 1792 
C 2848 1792 3053 1792 3053 1997 
C 3053 2208 2854 2208 2765 2208 
L 1856 2208 
L 1856 3113 
C 1856 3196 1856 3398 1651 3398 
C 1440 3398 1440 3202 1440 3113 
L 1440 2208 
L 525 2208 
C 442 2208 237 2208 237 2003 
C 237 1792 435 1792 525 1792 
L 1440 1792 
L 1440 867 
C 1440 783 1440 576 1645 576 
C 1856 576 1856 776 1856 867 
L 1856 1792 
z
" transform="scale(0.015625)"/>
        <path id="CMTT12-76" d="M 2714 2381 
L 2880 2381 
C 2970 2381 3142 2381 3142 2567 
C 3142 2752 2970 2752 2880 2752 
L 2176 2752 
C 2086 2752 1914 2752 1914 2567 
C 1914 2381 2086 2381 2176 2381 
L 2336 2381 
L 1645 325 
L 954 2381 
L 1114 2381 
C 1203 2381 1376 2381 1376 2567 
C 1376 2752 1203 2752 1114 2752 
L 410 2752 
C 320 2752 147 2752 147 2567 
C 147 2381 320 2381 410 2381 
L 576 2381 
L 1312 185 
C 1382 -32 1523 -32 1645 -32 
C 1766 -32 1907 -32 1978 185 
L 2714 2381 
z
" transform="scale(0.015625)"/>
        <path id="CMTT12-73" d="M 2688 2573 
C 2688 2675 2688 2816 2509 2816 
C 2355 2816 2317 2669 2317 2662 
C 2061 2816 1766 2816 1638 2816 
C 595 2816 454 2286 454 2069 
C 454 1807 608 1629 826 1507 
C 1030 1392 1216 1361 1741 1278 
C 1990 1233 2502 1150 2502 799 
C 2502 562 2285 339 1690 339 
C 1280 339 1011 499 877 960 
C 845 1049 826 1120 666 1120 
C 454 1120 454 998 454 870 
L 454 211 
C 454 108 454 -32 634 -32 
C 710 -32 768 -32 864 230 
C 1158 -32 1491 -32 1690 -32 
C 2874 -32 2874 734 2874 798 
C 2874 1461 2080 1596 1773 1640 
C 1210 1736 826 1800 826 2068 
C 826 2241 1024 2445 1626 2445 
C 2234 2445 2259 2157 2272 1990 
C 2285 1862 2400 1843 2477 1843 
C 2688 1843 2688 1958 2688 2086 
L 2688 2573 
z
" transform="scale(0.015625)"/>
       </defs>
       <use xlink:href="#CMTT12-63" transform="scale(0.996264)"/>
       <use xlink:href="#CMTT12-6f" transform="translate(51.266111 0) scale(0.996264)"/>
       <use xlink:href="#CMTT12-6d" transform="translate(102.532222 0) scale(0.996264)"/>
       <use xlink:href="#CMTT12-70" transform="translate(153.798333 0) scale(0.996264)"/>
       <use xlink:href="#CMTT12-62" transform="translate(205.064443 0) scale(0.996264)"/>
       <use xlink:href="#CMTT12-6e" transform="translate(256.330554 0) scale(0.996264)"/>
       <use xlink:href="#CMTT12-64" transform="translate(307.596665 0) scale(0.996264)"/>
       <use xlink:href="#CMTT12-2b" transform="translate(358.862776 0) scale(0.996264)"/>
       <use xlink:href="#CMTT12-64" transform="translate(410.128887 0) scale(0.996264)"/>
       <use xlink:href="#CMTT12-76" transform="translate(461.394998 0) scale(0.996264)"/>
       <use xlink:href="#CMTT12-73" transform="translate(512.661108 0) scale(0.996264)"/>
      </g>
     </g>
    </g>
    <g id="xtick_5">
     <g id="text_5">
      <!-- \texttt{compbnd-mdm} -->
      <g style="fill: #262626" transform="translate(289.327171 314.051601) rotate(-45) scale(0.165 -0.165)">
       <use xlink:href="#CMTT12-63" transform="scale(0.996264)"/>
       <use xlink:href="#CMTT12-6f" transform="translate(51.266111 0) scale(0.996264)"/>
       <use xlink:href="#CMTT12-6d" transform="translate(102.532222 0) scale(0.996264)"/>
       <use xlink:href="#CMTT12-70" transform="translate(153.798333 0) scale(0.996264)"/>
       <use xlink:href="#CMTT12-62" transform="translate(205.064443 0) scale(0.996264)"/>
       <use xlink:href="#CMTT12-6e" transform="translate(256.330554 0) scale(0.996264)"/>
       <use xlink:href="#CMTT12-64" transform="translate(307.596665 0) scale(0.996264)"/>
       <use xlink:href="#CMTT12-2d" transform="translate(358.862776 0) scale(0.996264)"/>
       <use xlink:href="#CMTT12-6d" transform="translate(410.128887 0) scale(0.996264)"/>
       <use xlink:href="#CMTT12-64" transform="translate(461.394998 0) scale(0.996264)"/>
       <use xlink:href="#CMTT12-6d" transform="translate(512.661108 0) scale(0.996264)"/>
      </g>
     </g>
    </g>
    <g id="xtick_6">
     <g id="text_6">
      <!-- \texttt{compbnd-mdm+dvs} -->
      <g style="fill: #262626" transform="translate(329.713096 337.976969) rotate(-45) scale(0.165 -0.165)">
       <use xlink:href="#CMTT12-63" transform="scale(0.996264)"/>
       <use xlink:href="#CMTT12-6f" transform="translate(51.266111 0) scale(0.996264)"/>
       <use xlink:href="#CMTT12-6d" transform="translate(102.532222 0) scale(0.996264)"/>
       <use xlink:href="#CMTT12-70" transform="translate(153.798333 0) scale(0.996264)"/>
       <use xlink:href="#CMTT12-62" transform="translate(205.064443 0) scale(0.996264)"/>
       <use xlink:href="#CMTT12-6e" transform="translate(256.330554 0) scale(0.996264)"/>
       <use xlink:href="#CMTT12-64" transform="translate(307.596665 0) scale(0.996264)"/>
       <use xlink:href="#CMTT12-2d" transform="translate(358.862776 0) scale(0.996264)"/>
       <use xlink:href="#CMTT12-6d" transform="translate(410.128887 0) scale(0.996264)"/>
       <use xlink:href="#CMTT12-64" transform="translate(461.394998 0) scale(0.996264)"/>
       <use xlink:href="#CMTT12-6d" transform="translate(512.661108 0) scale(0.996264)"/>
       <use xlink:href="#CMTT12-2b" transform="translate(563.927219 0) scale(0.996264)"/>
       <use xlink:href="#CMTT12-64" transform="translate(615.19333 0) scale(0.996264)"/>
       <use xlink:href="#CMTT12-76" transform="translate(666.459441 0) scale(0.996264)"/>
       <use xlink:href="#CMTT12-73" transform="translate(717.725552 0) scale(0.996264)"/>
      </g>
     </g>
    </g>
    <g id="xtick_7">
     <g id="text_7">
      <!-- \texttt{compbnd-mrm} -->
      <g style="fill: #262626" transform="translate(394.024389 314.051601) rotate(-45) scale(0.165 -0.165)">
       <use xlink:href="#CMTT12-63" transform="scale(0.996264)"/>
       <use xlink:href="#CMTT12-6f" transform="translate(51.266111 0) scale(0.996264)"/>
       <use xlink:href="#CMTT12-6d" transform="translate(102.532222 0) scale(0.996264)"/>
       <use xlink:href="#CMTT12-70" transform="translate(153.798333 0) scale(0.996264)"/>
       <use xlink:href="#CMTT12-62" transform="translate(205.064443 0) scale(0.996264)"/>
       <use xlink:href="#CMTT12-6e" transform="translate(256.330554 0) scale(0.996264)"/>
       <use xlink:href="#CMTT12-64" transform="translate(307.596665 0) scale(0.996264)"/>
       <use xlink:href="#CMTT12-2d" transform="translate(358.862776 0) scale(0.996264)"/>
       <use xlink:href="#CMTT12-6d" transform="translate(410.128887 0) scale(0.996264)"/>
       <use xlink:href="#CMTT12-72" transform="translate(461.394998 0) scale(0.996264)"/>
       <use xlink:href="#CMTT12-6d" transform="translate(512.661108 0) scale(0.996264)"/>
      </g>
     </g>
    </g>
    <g id="xtick_8">
     <g id="text_8">
      <!-- \texttt{compbnd-mrm+dvs} -->
      <g style="fill: #262626" transform="translate(434.410314 337.976969) rotate(-45) scale(0.165 -0.165)">
       <use xlink:href="#CMTT12-63" transform="scale(0.996264)"/>
       <use xlink:href="#CMTT12-6f" transform="translate(51.266111 0) scale(0.996264)"/>
       <use xlink:href="#CMTT12-6d" transform="translate(102.532222 0) scale(0.996264)"/>
       <use xlink:href="#CMTT12-70" transform="translate(153.798333 0) scale(0.996264)"/>
       <use xlink:href="#CMTT12-62" transform="translate(205.064443 0) scale(0.996264)"/>
       <use xlink:href="#CMTT12-6e" transform="translate(256.330554 0) scale(0.996264)"/>
       <use xlink:href="#CMTT12-64" transform="translate(307.596665 0) scale(0.996264)"/>
       <use xlink:href="#CMTT12-2d" transform="translate(358.862776 0) scale(0.996264)"/>
       <use xlink:href="#CMTT12-6d" transform="translate(410.128887 0) scale(0.996264)"/>
       <use xlink:href="#CMTT12-72" transform="translate(461.394998 0) scale(0.996264)"/>
       <use xlink:href="#CMTT12-6d" transform="translate(512.661108 0) scale(0.996264)"/>
       <use xlink:href="#CMTT12-2b" transform="translate(563.927219 0) scale(0.996264)"/>
       <use xlink:href="#CMTT12-64" transform="translate(615.19333 0) scale(0.996264)"/>
       <use xlink:href="#CMTT12-76" transform="translate(666.459441 0) scale(0.996264)"/>
       <use xlink:href="#CMTT12-73" transform="translate(717.725552 0) scale(0.996264)"/>
      </g>
     </g>
    </g>
   </g>
   <g id="matplotlib.axis_2">
    <g id="ytick_1">
     <g id="text_9">
      <!-- $\mathdefault{0}$ -->
      <g style="fill: #262626" transform="translate(63.524926 224.446432) scale(0.165 -0.165)">
       <defs>
        <path id="CMR17-30" d="M 2688 2025 
C 2688 2416 2682 3080 2413 3591 
C 2176 4039 1798 4198 1466 4198 
C 1158 4198 768 4058 525 3597 
C 269 3118 243 2524 243 2025 
C 243 1661 250 1106 448 619 
C 723 -39 1216 -128 1466 -128 
C 1760 -128 2208 -7 2470 600 
C 2662 1042 2688 1559 2688 2025 
z
M 1466 -26 
C 1056 -26 813 325 723 812 
C 653 1188 653 1738 653 2096 
C 653 2588 653 2997 736 3387 
C 858 3929 1216 4096 1466 4096 
C 1728 4096 2067 3923 2189 3400 
C 2272 3036 2278 2607 2278 2096 
C 2278 1680 2278 1169 2202 792 
C 2067 95 1690 -26 1466 -26 
z
" transform="scale(0.015625)"/>
       </defs>
       <use xlink:href="#CMR17-30" transform="scale(0.996264)"/>
      </g>
     </g>
    </g>
    <g id="ytick_2">
     <g id="text_10">
      <!-- $\mathdefault{1000}$ -->
      <g style="fill: #262626" transform="translate(39.381364 185.720444) scale(0.165 -0.165)">
       <defs>
        <path id="CMR17-31" d="M 1702 4058 
C 1702 4192 1696 4192 1606 4192 
C 1357 3916 979 3827 621 3827 
C 602 3827 570 3827 563 3808 
C 557 3795 557 3782 557 3648 
C 755 3648 1088 3686 1344 3839 
L 1344 461 
C 1344 236 1331 160 781 160 
L 589 160 
L 589 0 
C 896 0 1216 0 1523 0 
C 1830 0 2150 0 2458 0 
L 2458 160 
L 2266 160 
C 1715 160 1702 230 1702 458 
L 1702 4058 
z
" transform="scale(0.015625)"/>
       </defs>
       <use xlink:href="#CMR17-31" transform="scale(0.996264)"/>
       <use xlink:href="#CMR17-30" transform="translate(45.690477 0) scale(0.996264)"/>
       <use xlink:href="#CMR17-30" transform="translate(91.380954 0) scale(0.996264)"/>
       <use xlink:href="#CMR17-30" transform="translate(137.071431 0) scale(0.996264)"/>
      </g>
     </g>
    </g>
    <g id="ytick_3">
     <g id="text_11">
      <!-- $\mathdefault{2000}$ -->
      <g style="fill: #262626" transform="translate(39.381364 146.994457) scale(0.165 -0.165)">
       <defs>
        <path id="CMR17-32" d="M 2669 989 
L 2554 989 
C 2490 536 2438 459 2413 420 
C 2381 369 1920 369 1830 369 
L 602 369 
C 832 619 1280 1072 1824 1597 
C 2214 1967 2669 2402 2669 3035 
C 2669 3790 2067 4224 1395 4224 
C 691 4224 262 3604 262 3030 
C 262 2780 448 2748 525 2748 
C 589 2748 781 2787 781 3010 
C 781 3207 614 3264 525 3264 
C 486 3264 448 3258 422 3245 
C 544 3790 915 4058 1306 4058 
C 1862 4058 2227 3617 2227 3035 
C 2227 2479 1901 2000 1536 1584 
L 262 146 
L 262 0 
L 2515 0 
L 2669 989 
z
" transform="scale(0.015625)"/>
       </defs>
       <use xlink:href="#CMR17-32" transform="scale(0.996264)"/>
       <use xlink:href="#CMR17-30" transform="translate(45.690477 0) scale(0.996264)"/>
       <use xlink:href="#CMR17-30" transform="translate(91.380954 0) scale(0.996264)"/>
       <use xlink:href="#CMR17-30" transform="translate(137.071431 0) scale(0.996264)"/>
      </g>
     </g>
    </g>
    <g id="ytick_4">
     <g id="text_12">
      <!-- $\mathdefault{3000}$ -->
      <g style="fill: #262626" transform="translate(39.381364 108.268469) scale(0.165 -0.165)">
       <defs>
        <path id="CMR17-33" d="M 1414 2157 
C 1984 2157 2234 1662 2234 1090 
C 2234 320 1824 25 1453 25 
C 1114 25 563 194 390 693 
C 422 680 454 680 486 680 
C 640 680 755 782 755 948 
C 755 1133 614 1216 486 1216 
C 378 1216 211 1165 211 926 
C 211 335 787 -128 1466 -128 
C 2176 -128 2720 430 2720 1085 
C 2720 1707 2208 2157 1600 2227 
C 2086 2328 2554 2756 2554 3329 
C 2554 3820 2048 4179 1472 4179 
C 890 4179 378 3829 378 3329 
C 378 3110 544 3072 627 3072 
C 762 3072 877 3155 877 3321 
C 877 3486 762 3569 627 3569 
C 602 3569 570 3569 544 3557 
C 730 3959 1235 4032 1459 4032 
C 1683 4032 2106 3925 2106 3320 
C 2106 3143 2080 2828 1862 2550 
C 1670 2304 1453 2304 1242 2284 
C 1210 2284 1062 2269 1037 2269 
C 992 2263 966 2257 966 2208 
C 966 2163 973 2157 1101 2157 
L 1414 2157 
z
" transform="scale(0.015625)"/>
       </defs>
       <use xlink:href="#CMR17-33" transform="scale(0.996264)"/>
       <use xlink:href="#CMR17-30" transform="translate(45.690477 0) scale(0.996264)"/>
       <use xlink:href="#CMR17-30" transform="translate(91.380954 0) scale(0.996264)"/>
       <use xlink:href="#CMR17-30" transform="translate(137.071431 0) scale(0.996264)"/>
      </g>
     </g>
    </g>
    <g id="ytick_5">
     <g id="text_13">
      <!-- $\mathdefault{4000}$ -->
      <g style="fill: #262626" transform="translate(39.381364 69.542482) scale(0.165 -0.165)">
       <defs>
        <path id="CMR17-34" d="M 2150 4122 
C 2150 4256 2144 4256 2029 4256 
L 128 1254 
L 128 1088 
L 1779 1088 
L 1779 457 
C 1779 224 1766 160 1318 160 
L 1197 160 
L 1197 0 
C 1402 0 1747 0 1965 0 
C 2182 0 2528 0 2733 0 
L 2733 160 
L 2611 160 
C 2163 160 2150 224 2150 457 
L 2150 1088 
L 2803 1088 
L 2803 1254 
L 2150 1254 
L 2150 4122 
z
M 1798 3703 
L 1798 1254 
L 256 1254 
L 1798 3703 
z
" transform="scale(0.015625)"/>
       </defs>
       <use xlink:href="#CMR17-34" transform="scale(0.996264)"/>
       <use xlink:href="#CMR17-30" transform="translate(45.690477 0) scale(0.996264)"/>
       <use xlink:href="#CMR17-30" transform="translate(91.380954 0) scale(0.996264)"/>
       <use xlink:href="#CMR17-30" transform="translate(137.071431 0) scale(0.996264)"/>
      </g>
     </g>
    </g>
    <g id="ytick_6">
     <g id="text_14">
      <!-- $\mathdefault{5000}$ -->
      <g style="fill: #262626" transform="translate(39.381364 30.816494) scale(0.165 -0.165)">
       <defs>
        <path id="CMR17-35" d="M 730 3692 
C 794 3666 1056 3584 1325 3584 
C 1920 3584 2246 3911 2432 4100 
C 2432 4157 2432 4192 2394 4192 
C 2387 4192 2374 4192 2323 4163 
C 2099 4058 1837 3973 1517 3973 
C 1325 3973 1037 3999 723 4139 
C 653 4171 640 4171 634 4171 
C 602 4171 595 4164 595 4037 
L 595 2203 
C 595 2089 595 2057 659 2057 
C 691 2057 704 2070 736 2114 
C 941 2401 1222 2522 1542 2522 
C 1766 2522 2246 2382 2246 1289 
C 2246 1085 2246 715 2054 421 
C 1894 159 1645 25 1370 25 
C 947 25 518 320 403 814 
C 429 807 480 795 506 795 
C 589 795 749 840 749 1038 
C 749 1210 627 1280 506 1280 
C 358 1280 262 1190 262 1011 
C 262 454 704 -128 1382 -128 
C 2042 -128 2669 440 2669 1264 
C 2669 2030 2170 2624 1549 2624 
C 1222 2624 947 2503 730 2274 
L 730 3692 
z
" transform="scale(0.015625)"/>
       </defs>
       <use xlink:href="#CMR17-35" transform="scale(0.996264)"/>
       <use xlink:href="#CMR17-30" transform="translate(45.690477 0) scale(0.996264)"/>
       <use xlink:href="#CMR17-30" transform="translate(91.380954 0) scale(0.996264)"/>
       <use xlink:href="#CMR17-30" transform="translate(137.071431 0) scale(0.996264)"/>
      </g>
     </g>
    </g>
    <g id="text_15">
     <!-- Pricing Calls -->
     <g style="fill: #262626" transform="translate(31.8933 169.203856) rotate(-90) scale(0.18 -0.18)">
      <defs>
       <path id="CMSS17-50" d="M 2106 1856 
C 2874 1856 3501 2453 3501 3158 
C 3501 3850 2899 4453 2067 4453 
L 570 4453 
L 570 0 
L 1107 0 
L 1107 1856 
L 2106 1856 
z
M 1926 4096 
C 2669 4096 2995 3627 2995 3157 
C 2995 2720 2694 2226 1926 2226 
L 1094 2226 
L 1094 4096 
L 1926 4096 
z
" transform="scale(0.015625)"/>
       <path id="CMSS17-72" d="M 954 1363 
C 954 1965 1395 2368 1958 2368 
L 1958 2789 
C 1549 2789 1165 2585 934 2253 
L 934 2758 
L 480 2758 
L 480 0 
L 954 0 
L 954 1363 
z
" transform="scale(0.015625)"/>
       <path id="CMSS17-69" d="M 979 4183 
L 442 4183 
L 442 3648 
L 979 3648 
L 979 4183 
z
M 947 2739 
L 474 2739 
L 474 0 
L 947 0 
L 947 2739 
z
" transform="scale(0.015625)"/>
       <path id="CMSS17-63" d="M 2464 2541 
C 2464 2585 2170 2714 2093 2739 
C 1882 2816 1613 2816 1542 2816 
C 710 2816 211 2093 211 1363 
C 211 595 768 -64 1517 -64 
C 1946 -64 2253 76 2502 242 
L 2464 664 
C 2189 453 1869 337 1523 337 
C 1024 337 698 774 698 1369 
C 698 1831 909 2414 1549 2414 
C 1901 2414 2099 2343 2394 2145 
L 2464 2541 
z
" transform="scale(0.015625)"/>
       <path id="CMSS17-6e" d="M 2618 1877 
C 2618 2283 2522 2816 1798 2816 
C 1389 2816 1120 2606 941 2389 
L 941 2758 
L 474 2758 
L 474 0 
L 960 0 
L 960 1559 
C 960 1964 1114 2428 1549 2428 
C 2112 2428 2131 2048 2131 1829 
L 2131 0 
L 2618 0 
L 2618 1877 
z
" transform="scale(0.015625)"/>
       <path id="CMSS17-67" d="M 2848 2808 
C 2483 2808 2170 2738 1914 2617 
C 1702 2777 1485 2808 1338 2808 
C 781 2808 358 2349 358 1814 
C 358 1468 550 1207 563 1195 
C 448 1035 384 863 384 672 
C 384 448 474 289 544 200 
C 211 -3 166 -314 166 -435 
C 166 -898 749 -1280 1498 -1280 
C 2253 -1280 2835 -898 2835 -428 
C 2835 448 1856 448 1587 448 
L 1069 448 
C 973 448 717 448 717 791 
C 717 921 774 1004 781 1010 
C 877 940 1075 832 1338 832 
C 1869 832 2310 1278 2310 1827 
C 2310 2132 2170 2355 2112 2432 
L 2131 2432 
C 2150 2432 2419 2432 2515 2432 
C 2720 2432 2739 2429 2918 2419 
L 2848 2808 
z
M 1338 1182 
C 1120 1182 813 1315 813 1823 
C 813 2375 1165 2464 1331 2464 
C 1549 2464 1856 2331 1856 1823 
C 1856 1271 1504 1182 1338 1182 
z
M 1581 -10 
C 1734 -10 2381 -10 2381 -442 
C 2381 -714 1984 -929 1504 -929 
C 1018 -929 621 -720 621 -435 
C 621 -403 621 -10 1062 -10 
L 1581 -10 
z
" transform="scale(0.015625)"/>
       <path id="CMSS17-43" d="M 3501 714 
C 3072 427 2874 344 2355 344 
C 1459 344 934 1303 934 2179 
C 934 3112 1472 4032 2381 4032 
C 2790 4032 3059 3918 3386 3715 
L 3475 4217 
C 3168 4370 2778 4440 2387 4440 
C 1158 4440 397 3316 397 2179 
C 397 927 1299 -64 2323 -64 
C 2874 -64 3066 -19 3539 280 
L 3501 714 
z
" transform="scale(0.015625)"/>
       <path id="CMSS17-61" d="M 2406 1791 
C 2406 2392 1978 2808 1402 2808 
C 1120 2808 813 2757 461 2553 
L 499 2135 
C 659 2248 934 2432 1395 2432 
C 1722 2432 1920 2180 1920 1782 
L 1920 1536 
C 896 1536 256 1238 256 726 
C 256 461 416 -64 947 -64 
C 1043 -64 1562 -64 1933 217 
L 1933 -19 
L 2406 -19 
L 2406 1791 
z
M 1920 816 
C 1920 701 1920 548 1728 434 
C 1562 325 1350 325 1261 325 
C 941 325 723 511 723 744 
C 723 1211 1722 1211 1920 1211 
L 1920 816 
z
" transform="scale(0.015625)"/>
       <path id="CMSS17-6c" d="M 947 4416 
L 474 4416 
L 474 0 
L 947 0 
L 947 4416 
z
" transform="scale(0.015625)"/>
       <path id="CMSS17-73" d="M 2061 2627 
C 1683 2807 1389 2807 1197 2807 
C 742 2807 198 2648 198 2003 
C 198 1359 902 1218 1094 1179 
C 1389 1122 1715 1058 1715 740 
C 1715 337 1254 337 1171 337 
C 915 337 563 407 243 638 
L 166 210 
C 531 0 883 -64 1178 -64 
C 1965 -64 2163 416 2163 781 
C 2163 1094 1984 1305 1862 1401 
C 1651 1568 1574 1587 1050 1696 
C 960 1709 646 1779 646 2066 
C 646 2432 1050 2432 1139 2432 
C 1555 2432 1811 2303 1984 2208 
L 2061 2627 
z
" transform="scale(0.015625)"/>
      </defs>
      <use xlink:href="#CMSS17-50" transform="scale(0.996264)"/>
      <use xlink:href="#CMSS17-72" transform="translate(59.735586 0) scale(0.996264)"/>
      <use xlink:href="#CMSS17-69" transform="translate(91.645359 0) scale(0.996264)"/>
      <use xlink:href="#CMSS17-63" transform="translate(113.826082 0) scale(0.996264)"/>
      <use xlink:href="#CMSS17-69" transform="translate(155.464904 0) scale(0.996264)"/>
      <use xlink:href="#CMSS17-6e" transform="translate(177.645627 0) scale(0.996264)"/>
      <use xlink:href="#CMSS17-67" transform="translate(225.85057 0) scale(0.996264)"/>
      <use xlink:href="#CMSS17-43" transform="translate(303.923306 0) scale(0.996264)"/>
      <use xlink:href="#CMSS17-61" transform="translate(363.779078 0) scale(0.996264)"/>
      <use xlink:href="#CMSS17-6c" transform="translate(408.700999 0) scale(0.996264)"/>
      <use xlink:href="#CMSS17-6c" transform="translate(430.881722 0) scale(0.996264)"/>
      <use xlink:href="#CMSS17-73" transform="translate(453.062445 0) scale(0.996264)"/>
     </g>
    </g>
   </g>
   <g id="patch_3">
    <path d="M 89.307641 211.390423 
L 131.186528 211.390423 
L 131.186528 139.369768 
L 89.307641 139.369768 
L 89.307641 211.390423 
z
" clip-path="url(#p65f7113cc6)" style="fill: #5875a4; stroke: #4c4c4c; stroke-linejoin: miter"/>
   </g>
   <g id="line2d_1">
    <path d="M 110.247085 211.390423 
L 110.247085 218.661228 
" clip-path="url(#p65f7113cc6)" style="fill: none; stroke: #4c4c4c"/>
   </g>
   <g id="line2d_2">
    <path d="M 110.247085 139.369768 
L 110.247085 31.730885 
" clip-path="url(#p65f7113cc6)" style="fill: none; stroke: #4c4c4c"/>
   </g>
   <g id="line2d_3">
    <path d="M 99.777363 218.661228 
L 120.716807 218.661228 
" clip-path="url(#p65f7113cc6)" style="fill: none; stroke: #4c4c4c; stroke-linecap: round"/>
   </g>
   <g id="line2d_4">
    <path d="M 99.777363 31.730885 
L 120.716807 31.730885 
" clip-path="url(#p65f7113cc6)" style="fill: none; stroke: #4c4c4c; stroke-linecap: round"/>
   </g>
   <g id="patch_4">
    <path d="M 141.65625 211.903543 
L 183.535137 211.903543 
L 183.535137 164.725608 
L 141.65625 164.725608 
L 141.65625 211.903543 
z
" clip-path="url(#p65f7113cc6)" style="fill: #5875a4; stroke: #4c4c4c; stroke-linejoin: miter"/>
   </g>
   <g id="line2d_5">
    <path d="M 162.595694 211.903543 
L 162.595694 218.661228 
" clip-path="url(#p65f7113cc6)" style="fill: none; stroke: #4c4c4c"/>
   </g>
   <g id="line2d_6">
    <path d="M 162.595694 164.725608 
L 162.595694 96.403285 
" clip-path="url(#p65f7113cc6)" style="fill: none; stroke: #4c4c4c"/>
   </g>
   <g id="line2d_7">
    <path d="M 152.125972 218.661228 
L 173.065416 218.661228 
" clip-path="url(#p65f7113cc6)" style="fill: none; stroke: #4c4c4c; stroke-linecap: round"/>
   </g>
   <g id="line2d_8">
    <path d="M 152.125972 96.403285 
L 173.065416 96.403285 
" clip-path="url(#p65f7113cc6)" style="fill: none; stroke: #4c4c4c; stroke-linecap: round"/>
   </g>
   <g id="patch_5">
    <path d="M 194.004859 214.391687 
L 235.883746 214.391687 
L 235.883746 192.685771 
L 194.004859 192.685771 
L 194.004859 214.391687 
z
" clip-path="url(#p65f7113cc6)" style="fill: #5875a4; stroke: #4c4c4c; stroke-linejoin: miter"/>
   </g>
   <g id="line2d_9">
    <path d="M 214.944303 214.391687 
L 214.944303 218.661228 
" clip-path="url(#p65f7113cc6)" style="fill: none; stroke: #4c4c4c"/>
   </g>
   <g id="line2d_10">
    <path d="M 214.944303 192.685771 
L 214.944303 162.663449 
" clip-path="url(#p65f7113cc6)" style="fill: none; stroke: #4c4c4c"/>
   </g>
   <g id="line2d_11">
    <path d="M 204.474581 218.661228 
L 225.414025 218.661228 
" clip-path="url(#p65f7113cc6)" style="fill: none; stroke: #4c4c4c; stroke-linecap: round"/>
   </g>
   <g id="line2d_12">
    <path d="M 204.474581 162.663449 
L 225.414025 162.663449 
" clip-path="url(#p65f7113cc6)" style="fill: none; stroke: #4c4c4c; stroke-linecap: round"/>
   </g>
   <g id="patch_6">
    <path d="M 246.353468 214.769266 
L 288.232355 214.769266 
L 288.232355 195.541813 
L 246.353468 195.541813 
L 246.353468 214.769266 
z
" clip-path="url(#p65f7113cc6)" style="fill: #5875a4; stroke: #4c4c4c; stroke-linejoin: miter"/>
   </g>
   <g id="line2d_13">
    <path d="M 267.292912 214.769266 
L 267.292912 218.661228 
" clip-path="url(#p65f7113cc6)" style="fill: none; stroke: #4c4c4c"/>
   </g>
   <g id="line2d_14">
    <path d="M 267.292912 195.541813 
L 267.292912 166.729678 
" clip-path="url(#p65f7113cc6)" style="fill: none; stroke: #4c4c4c"/>
   </g>
   <g id="line2d_15">
    <path d="M 256.82319 218.661228 
L 277.762634 218.661228 
" clip-path="url(#p65f7113cc6)" style="fill: none; stroke: #4c4c4c; stroke-linecap: round"/>
   </g>
   <g id="line2d_16">
    <path d="M 256.82319 166.729678 
L 277.762634 166.729678 
" clip-path="url(#p65f7113cc6)" style="fill: none; stroke: #4c4c4c; stroke-linecap: round"/>
   </g>
   <g id="patch_7">
    <path d="M 298.702077 214.052835 
L 340.580964 214.052835 
L 340.580964 193.71201 
L 298.702077 193.71201 
L 298.702077 214.052835 
z
" clip-path="url(#p65f7113cc6)" style="fill: #5875a4; stroke: #4c4c4c; stroke-linejoin: miter"/>
   </g>
   <g id="line2d_17">
    <path d="M 319.641521 214.052835 
L 319.641521 218.661228 
" clip-path="url(#p65f7113cc6)" style="fill: none; stroke: #4c4c4c"/>
   </g>
   <g id="line2d_18">
    <path d="M 319.641521 193.71201 
L 319.641521 164.987009 
" clip-path="url(#p65f7113cc6)" style="fill: none; stroke: #4c4c4c"/>
   </g>
   <g id="line2d_19">
    <path d="M 309.171799 218.661228 
L 330.111243 218.661228 
" clip-path="url(#p65f7113cc6)" style="fill: none; stroke: #4c4c4c; stroke-linecap: round"/>
   </g>
   <g id="line2d_20">
    <path d="M 309.171799 164.987009 
L 330.111243 164.987009 
" clip-path="url(#p65f7113cc6)" style="fill: none; stroke: #4c4c4c; stroke-linecap: round"/>
   </g>
   <g id="patch_8">
    <path d="M 351.050686 214.14965 
L 392.929573 214.14965 
L 392.929573 194.931879 
L 351.050686 194.931879 
L 351.050686 214.14965 
z
" clip-path="url(#p65f7113cc6)" style="fill: #5875a4; stroke: #4c4c4c; stroke-linejoin: miter"/>
   </g>
   <g id="line2d_21">
    <path d="M 371.99013 214.14965 
L 371.99013 218.661228 
" clip-path="url(#p65f7113cc6)" style="fill: none; stroke: #4c4c4c"/>
   </g>
   <g id="line2d_22">
    <path d="M 371.99013 194.931879 
L 371.99013 166.729678 
" clip-path="url(#p65f7113cc6)" style="fill: none; stroke: #4c4c4c"/>
   </g>
   <g id="line2d_23">
    <path d="M 361.520408 218.661228 
L 382.459852 218.661228 
" clip-path="url(#p65f7113cc6)" style="fill: none; stroke: #4c4c4c; stroke-linecap: round"/>
   </g>
   <g id="line2d_24">
    <path d="M 361.520408 166.729678 
L 382.459852 166.729678 
" clip-path="url(#p65f7113cc6)" style="fill: none; stroke: #4c4c4c; stroke-linecap: round"/>
   </g>
   <g id="patch_9">
    <path d="M 403.399295 215.253341 
L 445.278182 215.253341 
L 445.278182 186.557384 
L 403.399295 186.557384 
L 403.399295 215.253341 
z
" clip-path="url(#p65f7113cc6)" style="fill: #5875a4; stroke: #4c4c4c; stroke-linejoin: miter"/>
   </g>
   <g id="line2d_25">
    <path d="M 424.338739 215.253341 
L 424.338739 218.661228 
" clip-path="url(#p65f7113cc6)" style="fill: none; stroke: #4c4c4c"/>
   </g>
   <g id="line2d_26">
    <path d="M 424.338739 186.557384 
L 424.338739 145.507837 
" clip-path="url(#p65f7113cc6)" style="fill: none; stroke: #4c4c4c"/>
   </g>
   <g id="line2d_27">
    <path d="M 413.869017 218.661228 
L 434.808461 218.661228 
" clip-path="url(#p65f7113cc6)" style="fill: none; stroke: #4c4c4c; stroke-linecap: round"/>
   </g>
   <g id="line2d_28">
    <path d="M 413.869017 145.507837 
L 434.808461 145.507837 
" clip-path="url(#p65f7113cc6)" style="fill: none; stroke: #4c4c4c; stroke-linecap: round"/>
   </g>
   <g id="patch_10">
    <path d="M 455.747904 214.982259 
L 497.626791 214.982259 
L 497.626791 189.51024 
L 455.747904 189.51024 
L 455.747904 214.982259 
z
" clip-path="url(#p65f7113cc6)" style="fill: #5875a4; stroke: #4c4c4c; stroke-linejoin: miter"/>
   </g>
   <g id="line2d_29">
    <path d="M 476.687348 214.982259 
L 476.687348 218.661228 
" clip-path="url(#p65f7113cc6)" style="fill: none; stroke: #4c4c4c"/>
   </g>
   <g id="line2d_30">
    <path d="M 476.687348 189.51024 
L 476.687348 151.626543 
" clip-path="url(#p65f7113cc6)" style="fill: none; stroke: #4c4c4c"/>
   </g>
   <g id="line2d_31">
    <path d="M 466.217626 218.661228 
L 487.15707 218.661228 
" clip-path="url(#p65f7113cc6)" style="fill: none; stroke: #4c4c4c; stroke-linecap: round"/>
   </g>
   <g id="line2d_32">
    <path d="M 466.217626 151.626543 
L 487.15707 151.626543 
" clip-path="url(#p65f7113cc6)" style="fill: none; stroke: #4c4c4c; stroke-linecap: round"/>
   </g>
   <g id="line2d_33">
    <path d="M 89.307641 178.889638 
L 131.186528 178.889638 
" clip-path="url(#p65f7113cc6)" style="fill: none; stroke: #4c4c4c"/>
   </g>
   <g id="line2d_34">
    <defs>
     <path id="m28d03b187e" d="M 0 4 
C 1.060812 4 2.078319 3.578535 2.828427 2.828427 
C 3.578535 2.078319 4 1.060812 4 0 
C 4 -1.060812 3.578535 -2.078319 2.828427 -2.828427 
C 2.078319 -3.578535 1.060812 -4 0 -4 
C -1.060812 -4 -2.078319 -3.578535 -2.828427 -2.828427 
C -3.578535 -2.078319 -4 -1.060812 -4 0 
C -4 1.060812 -3.578535 2.078319 -2.828427 2.828427 
C -2.078319 3.578535 -1.060812 4 0 4 
z
" style="stroke: #000000"/>
    </defs>
    <g clip-path="url(#p65f7113cc6)">
     <use xlink:href="#m28d03b187e" x="110.247085" y="163.352815" style="fill: #ffffff; stroke: #000000"/>
    </g>
   </g>
   <g id="line2d_35">
    <path d="M 141.65625 189.616737 
L 183.535137 189.616737 
" clip-path="url(#p65f7113cc6)" style="fill: none; stroke: #4c4c4c"/>
   </g>
   <g id="line2d_36">
    <g clip-path="url(#p65f7113cc6)">
     <use xlink:href="#m28d03b187e" x="162.595694" y="178.977287" style="fill: #ffffff; stroke: #000000"/>
    </g>
   </g>
   <g id="line2d_37">
    <path d="M 194.004859 204.138982 
L 235.883746 204.138982 
" clip-path="url(#p65f7113cc6)" style="fill: none; stroke: #4c4c4c"/>
   </g>
   <g id="line2d_38">
    <g clip-path="url(#p65f7113cc6)">
     <use xlink:href="#m28d03b187e" x="214.944303" y="195.76338" style="fill: #ffffff; stroke: #000000"/>
    </g>
   </g>
   <g id="line2d_39">
    <path d="M 246.353468 204.971591 
L 288.232355 204.971591 
" clip-path="url(#p65f7113cc6)" style="fill: none; stroke: #4c4c4c"/>
   </g>
   <g id="line2d_40">
    <g clip-path="url(#p65f7113cc6)">
     <use xlink:href="#m28d03b187e" x="267.292912" y="197.543855" style="fill: #ffffff; stroke: #000000"/>
    </g>
   </g>
   <g id="line2d_41">
    <path d="M 298.702077 203.771085 
L 340.580964 203.771085 
" clip-path="url(#p65f7113cc6)" style="fill: none; stroke: #4c4c4c"/>
   </g>
   <g id="line2d_42">
    <g clip-path="url(#p65f7113cc6)">
     <use xlink:href="#m28d03b187e" x="319.641521" y="196.396592" style="fill: #ffffff; stroke: #000000"/>
    </g>
   </g>
   <g id="line2d_43">
    <path d="M 351.050686 204.739235 
L 392.929573 204.739235 
" clip-path="url(#p65f7113cc6)" style="fill: none; stroke: #4c4c4c"/>
   </g>
   <g id="line2d_44">
    <g clip-path="url(#p65f7113cc6)">
     <use xlink:href="#m28d03b187e" x="371.99013" y="197.704347" style="fill: #ffffff; stroke: #000000"/>
    </g>
   </g>
   <g id="line2d_45">
    <path d="M 403.399295 204.64242 
L 445.278182 204.64242 
" clip-path="url(#p65f7113cc6)" style="fill: none; stroke: #4c4c4c"/>
   </g>
   <g id="line2d_46">
    <g clip-path="url(#p65f7113cc6)">
     <use xlink:href="#m28d03b187e" x="424.338739" y="193.372873" style="fill: #ffffff; stroke: #000000"/>
    </g>
   </g>
   <g id="line2d_47">
    <path d="M 455.747904 204.623057 
L 497.626791 204.623057 
" clip-path="url(#p65f7113cc6)" style="fill: none; stroke: #4c4c4c"/>
   </g>
   <g id="line2d_48">
    <g clip-path="url(#p65f7113cc6)">
     <use xlink:href="#m28d03b187e" x="476.687348" y="194.877831" style="fill: #ffffff; stroke: #000000"/>
    </g>
   </g>
   <g id="patch_11">
    <path d="M 84.07278 228.007745 
L 84.07278 22.384368 
" style="fill: none; stroke: #262626; stroke-width: 1.875; stroke-linejoin: miter; stroke-linecap: square"/>
   </g>
   <g id="patch_12">
    <path d="M 502.861652 228.007745 
L 502.861652 22.384368 
" style="fill: none; stroke: #262626; stroke-width: 1.875; stroke-linejoin: miter; stroke-linecap: square"/>
   </g>
   <g id="patch_13">
    <path d="M 84.07278 228.007745 
L 502.861652 228.007745 
" style="fill: none; stroke: #262626; stroke-width: 1.875; stroke-linejoin: miter; stroke-linecap: square"/>
   </g>
   <g id="patch_14">
    <path d="M 84.07278 22.384368 
L 502.861652 22.384368 
" style="fill: none; stroke: #262626; stroke-width: 1.875; stroke-linejoin: miter; stroke-linecap: square"/>
   </g>
  </g>
 </g>
 <defs>
  <clipPath id="p65f7113cc6">
   <rect x="84.07278" y="22.384368" width="418.788872" height="205.623376"/>
  </clipPath>
 </defs>
</svg>
