<?xml version="1.0" encoding="utf-8" standalone="no"?>
<!DOCTYPE svg PUBLIC "-//W3C//DTD SVG 1.1//EN"
  "http://www.w3.org/Graphics/SVG/1.1/DTD/svg11.dtd">
<svg xmlns:xlink="http://www.w3.org/1999/xlink" width="546.283425pt" height="360pt" viewBox="0 0 546.283425 360" xmlns="http://www.w3.org/2000/svg" version="1.1">
 <metadata>
  <rdf:RDF xmlns:dc="http://purl.org/dc/elements/1.1/" xmlns:cc="http://creativecommons.org/ns#" xmlns:rdf="http://www.w3.org/1999/02/22-rdf-syntax-ns#">
   <cc:Work>
    <dc:type rdf:resource="http://purl.org/dc/dcmitype/StillImage"/>
    <dc:date>2024-08-19T21:17:34.699760</dc:date>
    <dc:format>image/svg+xml</dc:format>
    <dc:creator>
     <cc:Agent>
      <dc:title>Matplotlib v3.9.0, https://matplotlib.org/</dc:title>
     </cc:Agent>
    </dc:creator>
   </cc:Work>
  </rdf:RDF>
 </metadata>
 <defs>
  <style type="text/css">*{stroke-linejoin: round; stroke-linecap: butt}</style>
 </defs>
 <g id="figure_1">
  <g id="patch_1">
   <path d="M 0 360 
L 546.283425 360 
L 546.283425 0 
L 0 0 
L 0 360 
z
" style="fill: none"/>
  </g>
  <g id="axes_1">
   <g id="patch_2">
    <path d="M 72.448099 293.506804 
L 526.843425 293.506804 
L 526.843425 19.44 
L 72.448099 19.44 
L 72.448099 293.506804 
z
" style="fill: none"/>
   </g>
   <g id="matplotlib.axis_1">
    <g id="xtick_1">
     <g id="text_1">
      <!-- $\mathdefault{0}$ -->
      <g style="fill: #262626" transform="translate(89.078505 317.422309) scale(0.165 -0.165)">
       <defs>
        <path id="CMR17-30" d="M 2688 2025 
C 2688 2416 2682 3080 2413 3591 
C 2176 4039 1798 4198 1466 4198 
C 1158 4198 768 4058 525 3597 
C 269 3118 243 2524 243 2025 
C 243 1661 250 1106 448 619 
C 723 -39 1216 -128 1466 -128 
C 1760 -128 2208 -7 2470 600 
C 2662 1042 2688 1559 2688 2025 
z
M 1466 -26 
C 1056 -26 813 325 723 812 
C 653 1188 653 1738 653 2096 
C 653 2588 653 2997 736 3387 
C 858 3929 1216 4096 1466 4096 
C 1728 4096 2067 3923 2189 3400 
C 2272 3036 2278 2607 2278 2096 
C 2278 1680 2278 1169 2202 792 
C 2067 95 1690 -26 1466 -26 
z
" transform="scale(0.015625)"/>
       </defs>
       <use xlink:href="#CMR17-30" transform="scale(0.996264)"/>
      </g>
     </g>
    </g>
    <g id="xtick_2">
     <g id="text_2">
      <!-- $\mathdefault{100}$ -->
      <g style="fill: #262626" transform="translate(163.647983 317.422309) scale(0.165 -0.165)">
       <defs>
        <path id="CMR17-31" d="M 1702 4058 
C 1702 4192 1696 4192 1606 4192 
C 1357 3916 979 3827 621 3827 
C 602 3827 570 3827 563 3808 
C 557 3795 557 3782 557 3648 
C 755 3648 1088 3686 1344 3839 
L 1344 461 
C 1344 236 1331 160 781 160 
L 589 160 
L 589 0 
C 896 0 1216 0 1523 0 
C 1830 0 2150 0 2458 0 
L 2458 160 
L 2266 160 
C 1715 160 1702 230 1702 458 
L 1702 4058 
z
" transform="scale(0.015625)"/>
       </defs>
       <use xlink:href="#CMR17-31" transform="scale(0.996264)"/>
       <use xlink:href="#CMR17-30" transform="translate(45.690477 0) scale(0.996264)"/>
       <use xlink:href="#CMR17-30" transform="translate(91.380954 0) scale(0.996264)"/>
      </g>
     </g>
    </g>
    <g id="xtick_3">
     <g id="text_3">
      <!-- $\mathdefault{200}$ -->
      <g style="fill: #262626" transform="translate(246.265315 317.422309) scale(0.165 -0.165)">
       <defs>
        <path id="CMR17-32" d="M 2669 989 
L 2554 989 
C 2490 536 2438 459 2413 420 
C 2381 369 1920 369 1830 369 
L 602 369 
C 832 619 1280 1072 1824 1597 
C 2214 1967 2669 2402 2669 3035 
C 2669 3790 2067 4224 1395 4224 
C 691 4224 262 3604 262 3030 
C 262 2780 448 2748 525 2748 
C 589 2748 781 2787 781 3010 
C 781 3207 614 3264 525 3264 
C 486 3264 448 3258 422 3245 
C 544 3790 915 4058 1306 4058 
C 1862 4058 2227 3617 2227 3035 
C 2227 2479 1901 2000 1536 1584 
L 262 146 
L 262 0 
L 2515 0 
L 2669 989 
z
" transform="scale(0.015625)"/>
       </defs>
       <use xlink:href="#CMR17-32" transform="scale(0.996264)"/>
       <use xlink:href="#CMR17-30" transform="translate(45.690477 0) scale(0.996264)"/>
       <use xlink:href="#CMR17-30" transform="translate(91.380954 0) scale(0.996264)"/>
      </g>
     </g>
    </g>
    <g id="xtick_4">
     <g id="text_4">
      <!-- $\mathdefault{300}$ -->
      <g style="fill: #262626" transform="translate(328.882647 317.422309) scale(0.165 -0.165)">
       <defs>
        <path id="CMR17-33" d="M 1414 2157 
C 1984 2157 2234 1662 2234 1090 
C 2234 320 1824 25 1453 25 
C 1114 25 563 194 390 693 
C 422 680 454 680 486 680 
C 640 680 755 782 755 948 
C 755 1133 614 1216 486 1216 
C 378 1216 211 1165 211 926 
C 211 335 787 -128 1466 -128 
C 2176 -128 2720 430 2720 1085 
C 2720 1707 2208 2157 1600 2227 
C 2086 2328 2554 2756 2554 3329 
C 2554 3820 2048 4179 1472 4179 
C 890 4179 378 3829 378 3329 
C 378 3110 544 3072 627 3072 
C 762 3072 877 3155 877 3321 
C 877 3486 762 3569 627 3569 
C 602 3569 570 3569 544 3557 
C 730 3959 1235 4032 1459 4032 
C 1683 4032 2106 3925 2106 3320 
C 2106 3143 2080 2828 1862 2550 
C 1670 2304 1453 2304 1242 2284 
C 1210 2284 1062 2269 1037 2269 
C 992 2263 966 2257 966 2208 
C 966 2163 973 2157 1101 2157 
L 1414 2157 
z
" transform="scale(0.015625)"/>
       </defs>
       <use xlink:href="#CMR17-33" transform="scale(0.996264)"/>
       <use xlink:href="#CMR17-30" transform="translate(45.690477 0) scale(0.996264)"/>
       <use xlink:href="#CMR17-30" transform="translate(91.380954 0) scale(0.996264)"/>
      </g>
     </g>
    </g>
    <g id="xtick_5">
     <g id="text_5">
      <!-- $\mathdefault{400}$ -->
      <g style="fill: #262626" transform="translate(411.499979 317.422309) scale(0.165 -0.165)">
       <defs>
        <path id="CMR17-34" d="M 2150 4122 
C 2150 4256 2144 4256 2029 4256 
L 128 1254 
L 128 1088 
L 1779 1088 
L 1779 457 
C 1779 224 1766 160 1318 160 
L 1197 160 
L 1197 0 
C 1402 0 1747 0 1965 0 
C 2182 0 2528 0 2733 0 
L 2733 160 
L 2611 160 
C 2163 160 2150 224 2150 457 
L 2150 1088 
L 2803 1088 
L 2803 1254 
L 2150 1254 
L 2150 4122 
z
M 1798 3703 
L 1798 1254 
L 256 1254 
L 1798 3703 
z
" transform="scale(0.015625)"/>
       </defs>
       <use xlink:href="#CMR17-34" transform="scale(0.996264)"/>
       <use xlink:href="#CMR17-30" transform="translate(45.690477 0) scale(0.996264)"/>
       <use xlink:href="#CMR17-30" transform="translate(91.380954 0) scale(0.996264)"/>
      </g>
     </g>
    </g>
    <g id="xtick_6">
     <g id="text_6">
      <!-- $\mathdefault{500}$ -->
      <g style="fill: #262626" transform="translate(494.117311 317.422309) scale(0.165 -0.165)">
       <defs>
        <path id="CMR17-35" d="M 730 3692 
C 794 3666 1056 3584 1325 3584 
C 1920 3584 2246 3911 2432 4100 
C 2432 4157 2432 4192 2394 4192 
C 2387 4192 2374 4192 2323 4163 
C 2099 4058 1837 3973 1517 3973 
C 1325 3973 1037 3999 723 4139 
C 653 4171 640 4171 634 4171 
C 602 4171 595 4164 595 4037 
L 595 2203 
C 595 2089 595 2057 659 2057 
C 691 2057 704 2070 736 2114 
C 941 2401 1222 2522 1542 2522 
C 1766 2522 2246 2382 2246 1289 
C 2246 1085 2246 715 2054 421 
C 1894 159 1645 25 1370 25 
C 947 25 518 320 403 814 
C 429 807 480 795 506 795 
C 589 795 749 840 749 1038 
C 749 1210 627 1280 506 1280 
C 358 1280 262 1190 262 1011 
C 262 454 704 -128 1382 -128 
C 2042 -128 2669 440 2669 1264 
C 2669 2030 2170 2624 1549 2624 
C 1222 2624 947 2503 730 2274 
L 730 3692 
z
" transform="scale(0.015625)"/>
       </defs>
       <use xlink:href="#CMR17-35" transform="scale(0.996264)"/>
       <use xlink:href="#CMR17-30" transform="translate(45.690477 0) scale(0.996264)"/>
       <use xlink:href="#CMR17-30" transform="translate(91.380954 0) scale(0.996264)"/>
      </g>
     </g>
    </g>
    <g id="text_7">
     <!-- Depth -->
     <g style="fill: #262626" transform="translate(278.097691 337.071936) scale(0.18 -0.18)">
      <defs>
       <path id="CMSS17-44" d="M 570 4416 
L 570 0 
L 2144 0 
C 3194 0 4000 980 4000 2170 
C 4000 3398 3194 4416 2144 4416 
L 570 4416 
z
M 1094 357 
L 1094 4059 
L 2003 4059 
C 2861 4059 3475 3277 3475 2170 
C 3475 1107 2867 357 2003 357 
L 1094 357 
z
" transform="scale(0.015625)"/>
       <path id="CMSS17-65" d="M 2502 1377 
C 2502 1590 2490 2003 2285 2345 
C 2061 2713 1696 2816 1421 2816 
C 755 2816 192 2188 192 1375 
C 192 582 774 -64 1510 -64 
C 1798 -64 2150 19 2470 248 
C 2470 274 2458 414 2451 420 
C 2451 433 2432 630 2432 656 
C 2125 407 1773 325 1517 325 
C 1107 325 666 667 646 1377 
L 2502 1377 
z
M 698 1728 
C 781 2084 1062 2421 1421 2421 
C 1517 2421 1965 2421 2080 1728 
L 698 1728 
z
" transform="scale(0.015625)"/>
       <path id="CMSS17-70" d="M 966 333 
C 1178 129 1466 -5 1773 -5 
C 2368 -5 2880 603 2880 1412 
C 2880 2159 2496 2816 1946 2816 
C 1626 2816 1242 2702 954 2472 
L 954 2765 
L 480 2765 
L 480 -1216 
L 966 -1216 
L 966 333 
z
M 966 2100 
C 1018 2176 1235 2415 1587 2415 
C 2035 2415 2394 1960 2394 1412 
C 2394 787 1958 384 1530 384 
C 1402 384 1267 415 1139 523 
C 966 674 966 768 966 857 
L 966 2100 
z
" transform="scale(0.015625)"/>
       <path id="CMSS17-74" d="M 1069 2368 
L 1901 2368 
L 1901 2737 
L 1069 2737 
L 1069 3520 
L 614 3520 
L 614 2737 
L 109 2737 
L 109 2368 
L 602 2368 
L 602 749 
C 602 384 685 -64 1107 -64 
C 1427 -64 1722 25 2003 172 
L 1901 548 
C 1747 414 1562 337 1363 337 
C 1082 337 1069 696 1069 856 
L 1069 2368 
z
" transform="scale(0.015625)"/>
       <path id="CMSS17-68" d="M 2618 1891 
C 2618 2292 2522 2820 1798 2820 
C 1395 2820 1133 2623 947 2407 
L 947 4448 
L 474 4448 
L 474 32 
L 960 32 
L 960 1573 
C 960 1973 1114 2432 1549 2432 
C 2112 2432 2131 2056 2131 1839 
L 2131 32 
L 2618 32 
L 2618 1891 
z
" transform="scale(0.015625)"/>
      </defs>
      <use xlink:href="#CMSS17-44" transform="scale(0.996264)"/>
      <use xlink:href="#CMSS17-65" transform="translate(67.542842 0) scale(0.996264)"/>
      <use xlink:href="#CMSS17-70" transform="translate(109.181664 0) scale(0.996264)"/>
      <use xlink:href="#CMSS17-74" transform="translate(157.386607 0) scale(0.996264)"/>
      <use xlink:href="#CMSS17-68" transform="translate(191.218174 0) scale(0.996264)"/>
     </g>
    </g>
   </g>
   <g id="matplotlib.axis_2">
    <g id="ytick_1">
     <g id="text_8">
      <!-- $\mathdefault{1.0}$ -->
      <g style="fill: #262626" transform="translate(39.381364 266.551483) scale(0.165 -0.165)">
       <defs>
        <path id="CMMI12-3a" d="M 1178 307 
C 1178 492 1024 619 870 619 
C 685 619 557 466 557 313 
C 557 128 710 0 864 0 
C 1050 0 1178 153 1178 307 
z
" transform="scale(0.015625)"/>
       </defs>
       <use xlink:href="#CMR17-31" transform="scale(0.996264)"/>
       <use xlink:href="#CMMI12-3a" transform="translate(45.690477 0) scale(0.996264)"/>
       <use xlink:href="#CMR17-30" transform="translate(72.787654 0) scale(0.996264)"/>
      </g>
     </g>
    </g>
    <g id="ytick_2">
     <g id="text_9">
      <!-- $\mathdefault{1.2}$ -->
      <g style="fill: #262626" transform="translate(39.381364 214.670563) scale(0.165 -0.165)">
       <use xlink:href="#CMR17-31" transform="scale(0.996264)"/>
       <use xlink:href="#CMMI12-3a" transform="translate(45.690477 0) scale(0.996264)"/>
       <use xlink:href="#CMR17-32" transform="translate(72.787654 0) scale(0.996264)"/>
      </g>
     </g>
    </g>
    <g id="ytick_3">
     <g id="text_10">
      <!-- $\mathdefault{1.4}$ -->
      <g style="fill: #262626" transform="translate(39.381364 162.789644) scale(0.165 -0.165)">
       <use xlink:href="#CMR17-31" transform="scale(0.996264)"/>
       <use xlink:href="#CMMI12-3a" transform="translate(45.690477 0) scale(0.996264)"/>
       <use xlink:href="#CMR17-34" transform="translate(72.787654 0) scale(0.996264)"/>
      </g>
     </g>
    </g>
    <g id="ytick_4">
     <g id="text_11">
      <!-- $\mathdefault{1.6}$ -->
      <g style="fill: #262626" transform="translate(39.381364 110.908724) scale(0.165 -0.165)">
       <defs>
        <path id="CMR17-36" d="M 678 2176 
C 678 3690 1395 4032 1811 4032 
C 1946 4032 2272 4009 2400 3776 
C 2298 3776 2106 3776 2106 3553 
C 2106 3381 2246 3323 2336 3323 
C 2394 3323 2566 3348 2566 3560 
C 2566 3954 2246 4179 1805 4179 
C 1043 4179 243 3390 243 1984 
C 243 253 966 -128 1478 -128 
C 2099 -128 2688 427 2688 1283 
C 2688 2081 2170 2662 1517 2662 
C 1126 2662 838 2407 678 1960 
L 678 2176 
z
M 1478 25 
C 691 25 691 1200 691 1436 
C 691 1896 909 2560 1504 2560 
C 1613 2560 1926 2560 2138 2120 
C 2253 1870 2253 1609 2253 1289 
C 2253 944 2253 690 2118 434 
C 1978 171 1773 25 1478 25 
z
" transform="scale(0.015625)"/>
       </defs>
       <use xlink:href="#CMR17-31" transform="scale(0.996264)"/>
       <use xlink:href="#CMMI12-3a" transform="translate(45.690477 0) scale(0.996264)"/>
       <use xlink:href="#CMR17-36" transform="translate(72.787654 0) scale(0.996264)"/>
      </g>
     </g>
    </g>
    <g id="ytick_5">
     <g id="text_12">
      <!-- $\mathdefault{1.8}$ -->
      <g style="fill: #262626" transform="translate(39.381364 59.027805) scale(0.165 -0.165)">
       <defs>
        <path id="CMR17-38" d="M 1741 2264 
C 2144 2467 2554 2773 2554 3263 
C 2554 3841 1990 4179 1472 4179 
C 890 4179 378 3759 378 3180 
C 378 3021 416 2747 666 2505 
C 730 2442 998 2251 1171 2130 
C 883 1983 211 1634 211 934 
C 211 279 838 -128 1459 -128 
C 2144 -128 2720 362 2720 1010 
C 2720 1590 2330 1857 2074 2029 
L 1741 2264 
z
M 902 2822 
C 851 2854 595 3051 595 3351 
C 595 3739 998 4032 1459 4032 
C 1965 4032 2336 3676 2336 3262 
C 2336 2669 1670 2331 1638 2331 
C 1632 2331 1626 2331 1574 2370 
L 902 2822 
z
M 2080 1519 
C 2176 1449 2483 1240 2483 851 
C 2483 381 2010 25 1472 25 
C 890 25 448 438 448 940 
C 448 1443 838 1862 1280 2060 
L 2080 1519 
z
" transform="scale(0.015625)"/>
       </defs>
       <use xlink:href="#CMR17-31" transform="scale(0.996264)"/>
       <use xlink:href="#CMMI12-3a" transform="translate(45.690477 0) scale(0.996264)"/>
       <use xlink:href="#CMR17-38" transform="translate(72.787654 0) scale(0.996264)"/>
      </g>
     </g>
    </g>
    <g id="text_13">
     <!-- Average Number of Bounds -->
     <g style="fill: #262626" transform="translate(31.8933 254.023475) rotate(-90) scale(0.18 -0.18)">
      <defs>
       <path id="CMSS17-41" d="M 2272 4416 
L 1722 4416 
L 166 0 
L 653 0 
L 1101 1280 
L 2816 1280 
L 3270 0 
L 3827 0 
L 2272 4416 
z
M 2694 1637 
L 1222 1637 
C 1530 2528 1914 3638 1958 3925 
L 1965 3925 
C 2010 3663 2138 3281 2246 2956 
L 2694 1637 
z
" transform="scale(0.015625)"/>
       <path id="CMSS17-76" d="M 2675 2752 
L 2176 2752 
L 1747 1556 
C 1613 1165 1421 627 1389 352 
L 1382 352 
C 1370 468 1318 634 1286 749 
C 1248 890 1197 1056 1158 1172 
L 595 2752 
L 83 2752 
L 1094 0 
L 1664 0 
L 2675 2752 
z
" transform="scale(0.015625)"/>
       <path id="CMSS17-72" d="M 954 1363 
C 954 1965 1395 2368 1958 2368 
L 1958 2789 
C 1549 2789 1165 2585 934 2253 
L 934 2758 
L 480 2758 
L 480 0 
L 954 0 
L 954 1363 
z
" transform="scale(0.015625)"/>
       <path id="CMSS17-61" d="M 2406 1791 
C 2406 2392 1978 2808 1402 2808 
C 1120 2808 813 2757 461 2553 
L 499 2135 
C 659 2248 934 2432 1395 2432 
C 1722 2432 1920 2180 1920 1782 
L 1920 1536 
C 896 1536 256 1238 256 726 
C 256 461 416 -64 947 -64 
C 1043 -64 1562 -64 1933 217 
L 1933 -19 
L 2406 -19 
L 2406 1791 
z
M 1920 816 
C 1920 701 1920 548 1728 434 
C 1562 325 1350 325 1261 325 
C 941 325 723 511 723 744 
C 723 1211 1722 1211 1920 1211 
L 1920 816 
z
" transform="scale(0.015625)"/>
       <path id="CMSS17-67" d="M 2848 2808 
C 2483 2808 2170 2738 1914 2617 
C 1702 2777 1485 2808 1338 2808 
C 781 2808 358 2349 358 1814 
C 358 1468 550 1207 563 1195 
C 448 1035 384 863 384 672 
C 384 448 474 289 544 200 
C 211 -3 166 -314 166 -435 
C 166 -898 749 -1280 1498 -1280 
C 2253 -1280 2835 -898 2835 -428 
C 2835 448 1856 448 1587 448 
L 1069 448 
C 973 448 717 448 717 791 
C 717 921 774 1004 781 1010 
C 877 940 1075 832 1338 832 
C 1869 832 2310 1278 2310 1827 
C 2310 2132 2170 2355 2112 2432 
L 2131 2432 
C 2150 2432 2419 2432 2515 2432 
C 2720 2432 2739 2429 2918 2419 
L 2848 2808 
z
M 1338 1182 
C 1120 1182 813 1315 813 1823 
C 813 2375 1165 2464 1331 2464 
C 1549 2464 1856 2331 1856 1823 
C 1856 1271 1504 1182 1338 1182 
z
M 1581 -10 
C 1734 -10 2381 -10 2381 -442 
C 2381 -714 1984 -929 1504 -929 
C 1018 -929 621 -720 621 -435 
C 621 -403 621 -10 1062 -10 
L 1581 -10 
z
" transform="scale(0.015625)"/>
       <path id="CMSS17-4e" d="M 1466 4180 
L 1350 4416 
L 563 4416 
L 563 0 
L 1062 0 
L 1062 3926 
L 1069 3932 
C 1114 3817 1139 3760 1402 3194 
L 2771 236 
L 2886 0 
L 3674 0 
L 3674 4416 
L 3174 4416 
L 3174 490 
L 3168 483 
C 3123 598 3098 655 2835 1221 
L 1466 4180 
z
" transform="scale(0.015625)"/>
       <path id="CMSS17-75" d="M 2618 2739 
L 2131 2739 
L 2131 972 
C 2131 498 1786 306 1421 306 
C 998 306 960 447 960 709 
L 960 2739 
L 474 2739 
L 474 678 
C 474 179 646 -64 1088 -64 
C 1306 -64 1798 -13 2144 306 
L 2144 0 
L 2618 0 
L 2618 2739 
z
" transform="scale(0.015625)"/>
       <path id="CMSS17-6d" d="M 4288 1877 
C 4288 2308 4179 2816 3462 2816 
C 2982 2816 2694 2516 2566 2331 
C 2451 2670 2182 2816 1798 2816 
C 1363 2816 1088 2568 941 2389 
L 941 2758 
L 474 2758 
L 474 0 
L 960 0 
L 960 1559 
C 960 1939 1101 2428 1555 2428 
C 2138 2428 2138 2016 2138 1829 
L 2138 0 
L 2624 0 
L 2624 1559 
C 2624 1939 2765 2428 3219 2428 
C 3802 2428 3802 2016 3802 1829 
L 3802 0 
L 4288 0 
L 4288 1877 
z
" transform="scale(0.015625)"/>
       <path id="CMSS17-62" d="M 954 4416 
L 480 4416 
L 480 -13 
L 966 -13 
L 966 274 
C 1210 38 1504 -64 1766 -64 
C 2381 -64 2880 549 2880 1352 
C 2880 2086 2496 2756 1926 2756 
C 1523 2756 1165 2591 954 2419 
L 954 4416 
z
M 966 2046 
C 1107 2222 1306 2368 1587 2368 
C 1965 2368 2394 2097 2394 1352 
C 2394 558 1882 325 1530 325 
C 1402 325 1267 356 1139 464 
C 966 615 966 709 966 797 
L 966 2046 
z
" transform="scale(0.015625)"/>
       <path id="CMSS17-6f" d="M 2829 1356 
C 2829 2176 2221 2816 1504 2816 
C 768 2816 173 2157 173 1356 
C 173 544 787 -64 1498 -64 
C 2227 -64 2829 563 2829 1356 
z
M 1504 337 
C 1050 337 659 709 659 1408 
C 659 2151 1114 2427 1498 2427 
C 1914 2427 2342 2126 2342 1408 
C 2342 683 1926 337 1504 337 
z
" transform="scale(0.015625)"/>
       <path id="CMSS17-66" d="M 1075 2368 
L 1722 2368 
L 1722 2737 
L 1062 2737 
L 1062 3559 
C 1062 4014 1408 4092 1606 4092 
C 1670 4092 1850 4092 2080 4009 
L 2080 4429 
C 1933 4461 1754 4480 1613 4480 
C 1018 4480 602 3993 602 3359 
L 602 2737 
L 160 2737 
L 160 2368 
L 602 2368 
L 602 0 
L 1075 0 
L 1075 2368 
z
" transform="scale(0.015625)"/>
       <path id="CMSS17-42" d="M 570 4416 
L 570 0 
L 2163 0 
C 3034 0 3667 574 3667 1200 
C 3667 1685 3251 2176 2502 2317 
C 3334 2558 3501 3040 3501 3313 
C 3501 3883 2874 4416 1997 4416 
L 570 4416 
z
M 1088 2496 
L 1088 4059 
L 1824 4059 
C 2483 4059 3002 3724 3002 3306 
C 3002 2926 2592 2496 1766 2496 
L 1088 2496 
z
M 1088 357 
L 1088 2107 
L 1939 2107 
C 2630 2107 3162 1679 3162 1206 
C 3162 772 2694 357 1984 357 
L 1088 357 
z
" transform="scale(0.015625)"/>
       <path id="CMSS17-6e" d="M 2618 1877 
C 2618 2283 2522 2816 1798 2816 
C 1389 2816 1120 2606 941 2389 
L 941 2758 
L 474 2758 
L 474 0 
L 960 0 
L 960 1559 
C 960 1964 1114 2428 1549 2428 
C 2112 2428 2131 2048 2131 1829 
L 2131 0 
L 2618 0 
L 2618 1877 
z
" transform="scale(0.015625)"/>
       <path id="CMSS17-64" d="M 2611 4416 
L 2138 4416 
L 2138 2438 
C 1939 2603 1613 2756 1254 2756 
C 672 2756 211 2131 211 1347 
C 211 562 666 -64 1235 -64 
C 1677 -64 1971 172 2125 306 
L 2125 -13 
L 2611 -13 
L 2611 4416 
z
M 2125 836 
C 2125 747 2125 653 1926 482 
C 1798 375 1645 325 1498 325 
C 1152 325 698 576 698 1340 
C 698 2134 1210 2368 1562 2368 
C 1798 2368 1990 2254 2125 2065 
L 2125 836 
z
" transform="scale(0.015625)"/>
       <path id="CMSS17-73" d="M 2061 2627 
C 1683 2807 1389 2807 1197 2807 
C 742 2807 198 2648 198 2003 
C 198 1359 902 1218 1094 1179 
C 1389 1122 1715 1058 1715 740 
C 1715 337 1254 337 1171 337 
C 915 337 563 407 243 638 
L 166 210 
C 531 0 883 -64 1178 -64 
C 1965 -64 2163 416 2163 781 
C 2163 1094 1984 1305 1862 1401 
C 1651 1568 1574 1587 1050 1696 
C 960 1709 646 1779 646 2066 
C 646 2432 1050 2432 1139 2432 
C 1555 2432 1811 2303 1984 2208 
L 2061 2627 
z
" transform="scale(0.015625)"/>
      </defs>
      <use xlink:href="#CMSS17-41" transform="scale(0.996264)"/>
      <use xlink:href="#CMSS17-76" transform="translate(62.217855 0) scale(0.996264)"/>
      <use xlink:href="#CMSS17-65" transform="translate(105.217997 0) scale(0.996264)"/>
      <use xlink:href="#CMSS17-72" transform="translate(146.856819 0) scale(0.996264)"/>
      <use xlink:href="#CMSS17-61" transform="translate(178.766591 0) scale(0.996264)"/>
      <use xlink:href="#CMSS17-67" transform="translate(223.688512 0) scale(0.996264)"/>
      <use xlink:href="#CMSS17-65" transform="translate(270.532135 0) scale(0.996264)"/>
      <use xlink:href="#CMSS17-4e" transform="translate(343.40007 0) scale(0.996264)"/>
      <use xlink:href="#CMSS17-75" transform="translate(409.461589 0) scale(0.996264)"/>
      <use xlink:href="#CMSS17-6d" transform="translate(457.666532 0) scale(0.996264)"/>
      <use xlink:href="#CMSS17-62" transform="translate(531.895787 0) scale(0.996264)"/>
      <use xlink:href="#CMSS17-65" transform="translate(582.703169 0) scale(0.996264)"/>
      <use xlink:href="#CMSS17-72" transform="translate(624.341991 0) scale(0.996264)"/>
      <use xlink:href="#CMSS17-6f" transform="translate(687.480876 0) scale(0.996264)"/>
      <use xlink:href="#CMSS17-66" transform="translate(734.3245 0) scale(0.996264)"/>
      <use xlink:href="#CMSS17-42" transform="translate(794.180271 0) scale(0.996264)"/>
      <use xlink:href="#CMSS17-6f" transform="translate(856.518311 0) scale(0.996264)"/>
      <use xlink:href="#CMSS17-75" transform="translate(903.361935 0) scale(0.996264)"/>
      <use xlink:href="#CMSS17-6e" transform="translate(951.566878 0) scale(0.996264)"/>
      <use xlink:href="#CMSS17-64" transform="translate(999.771821 0) scale(0.996264)"/>
      <use xlink:href="#CMSS17-73" transform="translate(1047.976764 0) scale(0.996264)"/>
     </g>
    </g>
   </g>
   <g id="PolyCollection_1">
    <defs>
     <path id="m3217719a1d" d="M 93.102432 -143.806776 
L 93.102432 -114.736166 
L 95.178244 -177.600896 
L 97.254057 -212.241312 
L 99.329869 -221.200934 
L 101.405681 -214.70186 
L 103.481494 -201.805386 
L 105.557306 -194.830276 
L 107.633118 -199.092245 
L 109.708931 -211.657581 
L 111.784743 -221.905149 
L 113.860556 -225.155893 
L 115.936368 -224.784687 
L 118.01218 -225.042159 
L 120.087993 -227.076845 
L 122.163805 -228.670059 
L 124.239617 -230.572251 
L 126.31543 -233.821067 
L 128.391242 -238.444493 
L 130.467054 -241.266823 
L 132.542867 -243.996952 
L 134.618679 -248.256011 
L 136.694491 -254.484645 
L 138.770304 -258.623629 
L 140.846116 -261.475421 
L 142.921929 -265.292536 
L 144.997741 -270.474259 
L 147.073553 -275.734624 
L 149.149366 -280.552948 
L 151.225178 -285.926198 
L 153.30099 -291.542653 
L 155.376803 -294.66367 
L 157.452615 -295.609267 
L 159.528427 -299.813149 
L 161.60424 -302.958929 
L 163.680052 -303.932097 
L 165.755865 -305.498809 
L 167.831677 -306.330267 
L 169.907489 -304.394946 
L 171.983302 -302.371668 
L 174.059114 -303.784793 
L 176.134926 -304.842587 
L 178.210739 -303.746013 
L 180.286551 -302.363493 
L 182.362363 -299.588745 
L 184.438176 -294.564175 
L 186.513988 -294.27176 
L 188.589801 -296.898814 
L 190.665613 -295.825734 
L 192.741425 -291.82315 
L 194.817238 -287.657805 
L 196.89305 -289.153175 
L 198.968862 -291.470846 
L 201.044675 -293.02578 
L 203.120487 -291.312116 
L 205.196299 -289.808859 
L 207.272112 -290.45709 
L 209.347924 -292.032654 
L 211.423737 -289.301103 
L 213.499549 -288.418312 
L 215.575361 -289.209619 
L 217.651174 -290.871749 
L 219.726986 -289.266372 
L 221.802798 -285.234996 
L 223.878611 -283.585587 
L 225.954423 -283.4698 
L 228.030235 -280.922589 
L 230.106048 -280.613762 
L 232.18186 -279.990787 
L 234.257672 -280.304576 
L 236.333485 -281.158491 
L 238.409297 -281.428419 
L 240.48511 -278.719498 
L 242.560922 -278.156171 
L 244.636734 -272.936318 
L 246.712547 -268.018789 
L 248.788359 -266.344213 
L 250.864171 -271.113107 
L 252.939984 -275.790851 
L 255.015796 -272.16197 
L 257.091608 -266.366736 
L 259.167421 -269.500974 
L 261.243233 -271.53844 
L 263.319046 -264.491357 
L 265.394858 -256.154341 
L 267.47067 -256.585607 
L 269.546483 -257.922503 
L 271.622295 -252.592261 
L 273.698107 -246.618978 
L 275.77392 -242.109323 
L 277.849732 -242.209736 
L 279.925544 -242.541139 
L 282.001357 -236.590024 
L 284.077169 -231.515764 
L 286.152982 -227.36094 
L 288.228794 -220.842418 
L 290.304606 -215.701817 
L 292.380419 -215.888377 
L 294.456231 -216.620282 
L 296.532043 -218.251614 
L 298.607856 -219.068695 
L 300.683668 -213.011393 
L 302.75948 -207.433603 
L 304.835293 -202.178531 
L 306.911105 -200.254811 
L 308.986917 -197.289449 
L 311.06273 -191.965062 
L 313.138542 -183.581055 
L 315.214355 -180.798422 
L 317.290167 -179.820695 
L 319.365979 -173.938393 
L 321.441792 -168.713951 
L 323.517604 -167.650735 
L 325.593416 -166.199843 
L 327.669229 -164.167736 
L 329.745041 -162.684288 
L 331.820853 -158.599342 
L 333.896666 -150.217546 
L 335.972478 -143.752743 
L 338.048291 -141.082607 
L 340.124103 -138.78931 
L 342.199915 -134.018527 
L 344.275728 -128.935466 
L 346.35154 -126.250785 
L 348.427352 -123.441751 
L 350.503165 -122.648258 
L 352.578977 -120.390934 
L 354.654789 -115.71963 
L 356.730602 -116.405775 
L 358.806414 -118.528093 
L 360.882227 -114.617875 
L 362.958039 -108.649437 
L 365.033851 -107.114354 
L 367.109664 -106.174918 
L 369.185476 -103.5261 
L 371.261288 -101.095525 
L 373.337101 -99.647071 
L 375.412913 -98.990265 
L 377.488725 -97.252929 
L 379.564538 -97.870682 
L 381.64035 -100.343567 
L 383.716163 -99.395967 
L 385.791975 -99.027244 
L 387.867787 -98.267829 
L 389.9436 -97.267402 
L 392.019412 -97.168203 
L 394.095224 -98.095363 
L 396.171037 -100.507624 
L 398.246849 -99.92224 
L 400.322661 -99.907875 
L 402.398474 -97.335401 
L 404.474286 -96.611222 
L 406.550098 -97.988553 
L 408.625911 -96.82223 
L 410.701723 -96.920014 
L 412.777536 -96.820442 
L 414.853348 -96.366376 
L 416.92916 -96.551868 
L 419.004973 -95.665759 
L 421.080785 -94.397443 
L 423.156597 -95.162669 
L 425.23241 -96.223815 
L 427.308222 -96.206617 
L 429.384034 -97.473862 
L 431.459847 -97.497005 
L 433.535659 -96.901246 
L 435.611472 -98.165062 
L 437.687284 -96.048772 
L 439.763096 -92.670516 
L 441.838909 -91.452621 
L 443.914721 -91.034947 
L 445.990533 -92.777866 
L 448.066346 -96.79633 
L 450.142158 -95.944188 
L 452.21797 -92.036639 
L 454.293783 -91.674056 
L 456.369595 -92.979412 
L 458.445408 -91.966089 
L 460.52122 -90.473642 
L 462.597032 -88.036744 
L 464.672845 -87.842039 
L 466.748657 -86.285543 
L 468.824469 -87.864976 
L 470.900282 -95.328632 
L 472.976094 -95.007795 
L 475.051906 -89.494991 
L 477.127719 -90.92462 
L 479.203531 -89.251143 
L 481.279343 -82.417559 
L 483.355156 -83.034513 
L 485.430968 -90.957643 
L 487.506781 -89.579203 
L 489.582593 -84.812887 
L 491.658405 -83.856786 
L 493.734218 -87.711476 
L 495.81003 -87.709902 
L 497.885842 -82.330223 
L 499.961655 -85.220802 
L 502.037467 -91.729497 
L 504.113279 -92.705802 
L 506.189092 -97.383072 
L 506.189092 -126.347983 
L 506.189092 -126.347983 
L 504.113279 -150.493839 
L 502.037467 -165.248391 
L 499.961655 -171.482651 
L 497.885842 -168.341368 
L 495.81003 -159.28628 
L 493.734218 -156.394158 
L 491.658405 -159.511046 
L 489.582593 -164.066659 
L 487.506781 -173.534754 
L 485.430968 -178.672048 
L 483.355156 -170.931305 
L 481.279343 -160.923812 
L 479.203531 -159.63999 
L 477.127719 -167.884518 
L 475.051906 -174.078994 
L 472.976094 -174.980045 
L 470.900282 -174.96379 
L 468.824469 -174.570097 
L 466.748657 -171.951802 
L 464.672845 -165.391181 
L 462.597032 -154.328497 
L 460.52122 -141.900013 
L 458.445408 -134.732044 
L 456.369595 -135.501174 
L 454.293783 -139.479553 
L 452.21797 -143.533508 
L 450.142158 -147.199675 
L 448.066346 -146.52821 
L 445.990533 -140.803401 
L 443.914721 -135.912831 
L 441.838909 -133.467244 
L 439.763096 -131.755775 
L 437.687284 -130.220601 
L 435.611472 -127.494521 
L 433.535659 -120.846795 
L 431.459847 -114.66333 
L 429.384034 -113.732044 
L 427.308222 -116.454518 
L 425.23241 -118.180562 
L 423.156597 -121.460605 
L 421.080785 -124.898699 
L 419.004973 -126.424687 
L 416.92916 -125.073822 
L 414.853348 -123.5414 
L 412.777536 -123.14797 
L 410.701723 -123.869371 
L 408.625911 -124.146384 
L 406.550098 -124.74965 
L 404.474286 -126.268922 
L 402.398474 -129.260747 
L 400.322661 -133.035641 
L 398.246849 -134.596539 
L 396.171037 -134.201769 
L 394.095224 -131.596126 
L 392.019412 -129.206038 
L 389.9436 -128.374003 
L 387.867787 -129.688864 
L 385.791975 -131.913492 
L 383.716163 -134.160983 
L 381.64035 -136.610444 
L 379.564538 -138.462385 
L 377.488725 -140.37149 
L 375.412913 -142.133625 
L 373.337101 -143.469714 
L 371.261288 -145.546003 
L 369.185476 -148.224475 
L 367.109664 -151.314311 
L 365.033851 -154.015029 
L 362.958039 -158.352852 
L 360.882227 -164.236689 
L 358.806414 -167.292136 
L 356.730602 -166.862249 
L 354.654789 -166.680714 
L 352.578977 -168.598634 
L 350.503165 -170.694996 
L 348.427352 -173.194629 
L 346.35154 -176.678665 
L 344.275728 -180.97333 
L 342.199915 -186.239427 
L 340.124103 -191.499297 
L 338.048291 -196.118036 
L 335.972478 -200.998934 
L 333.896666 -206.999971 
L 331.820853 -213.060811 
L 329.745041 -217.080831 
L 327.669229 -218.834069 
L 325.593416 -219.602311 
L 323.517604 -220.375649 
L 321.441792 -222.299603 
L 319.365979 -226.160597 
L 317.290167 -230.400841 
L 315.214355 -233.848197 
L 313.138542 -238.384631 
L 311.06273 -244.755956 
L 308.986917 -250.391599 
L 306.911105 -254.379875 
L 304.835293 -257.645873 
L 302.75948 -261.84715 
L 300.683668 -266.227455 
L 298.607856 -269.393273 
L 296.532043 -269.736563 
L 294.456231 -268.50838 
L 292.380419 -267.261927 
L 290.304606 -267.649206 
L 288.228794 -271.181436 
L 286.152982 -276.478167 
L 284.077169 -281.468364 
L 282.001357 -285.69584 
L 279.925544 -288.747308 
L 277.849732 -290.011759 
L 275.77392 -291.329553 
L 273.698107 -294.148924 
L 271.622295 -297.631041 
L 269.546483 -300.379641 
L 267.47067 -301.625152 
L 265.394858 -303.524412 
L 263.319046 -307.63418 
L 261.243233 -311.424995 
L 259.167421 -312.870926 
L 257.091608 -313.487045 
L 255.015796 -314.91769 
L 252.939984 -315.092034 
L 250.864171 -312.920595 
L 248.788359 -310.76673 
L 246.712547 -311.116081 
L 244.636734 -313.802517 
L 242.560922 -317.037481 
L 240.48511 -319.092782 
L 238.409297 -320.300942 
L 236.333485 -320.267886 
L 234.257672 -319.657367 
L 232.18186 -319.020121 
L 230.106048 -318.793085 
L 228.030235 -319.220308 
L 225.954423 -320.537463 
L 223.878611 -321.936461 
L 221.802798 -323.660534 
L 219.726986 -325.444301 
L 217.651174 -326.212574 
L 215.575361 -325.781433 
L 213.499549 -325.179193 
L 211.423737 -325.080367 
L 209.347924 -325.434291 
L 207.272112 -325.21083 
L 205.196299 -324.917741 
L 203.120487 -324.847418 
L 201.044675 -324.474363 
L 198.968862 -323.241245 
L 196.89305 -321.87519 
L 194.817238 -321.463248 
L 192.741425 -322.71915 
L 190.665613 -324.217854 
L 188.589801 -324.643244 
L 186.513988 -324.09682 
L 184.438176 -324.292528 
L 182.362363 -325.83864 
L 180.286551 -327.370273 
L 178.210739 -328.102418 
L 176.134926 -327.869679 
L 174.059114 -326.838722 
L 171.983302 -325.860223 
L 169.907489 -325.698247 
L 167.831677 -325.651601 
L 165.755865 -324.801844 
L 163.680052 -323.062784 
L 161.60424 -320.635695 
L 159.528427 -317.439759 
L 157.452615 -313.899203 
L 155.376803 -310.490823 
L 153.30099 -306.341143 
L 151.225178 -301.171318 
L 149.149366 -295.511358 
L 147.073553 -289.781135 
L 144.997741 -284.198746 
L 142.921929 -279.031014 
L 140.846116 -274.464135 
L 138.770304 -270.16643 
L 136.694491 -265.498986 
L 134.618679 -260.450844 
L 132.542867 -255.857994 
L 130.467054 -251.84403 
L 128.391242 -248.023712 
L 126.31543 -244.158139 
L 124.239617 -240.848027 
L 122.163805 -238.384263 
L 120.087993 -236.618612 
L 118.01218 -235.234101 
L 115.936368 -233.869488 
L 113.860556 -231.250624 
L 111.784743 -225.819978 
L 109.708931 -217.767435 
L 107.633118 -210.530825 
L 105.557306 -208.758015 
L 103.481494 -213.581038 
L 101.405681 -220.654957 
L 99.329869 -221.786472 
L 97.254057 -209.739352 
L 95.178244 -182.055845 
L 93.102432 -143.806776 
z
" style="stroke: #ffffff; stroke-opacity: 0.2; stroke-width: 1.5"/>
    </defs>
    <g clip-path="url(#p1615abb7bb)">
     <use xlink:href="#m3217719a1d" x="0" y="360" style="fill: #4c72b0; fill-opacity: 0.2; stroke: #ffffff; stroke-opacity: 0.2; stroke-width: 1.5"/>
    </g>
   </g>
   <g id="PolyCollection_2">
    <defs>
     <path id="m853c52e994" d="M 93.102432 -145.497735 
L 93.102432 -114.718394 
L 95.178244 -178.519143 
L 97.254057 -212.629999 
L 99.329869 -218.807221 
L 101.405681 -210.445962 
L 103.481494 -197.910631 
L 105.557306 -192.041039 
L 107.633118 -196.681876 
L 109.708931 -208.350226 
L 111.784743 -218.003386 
L 113.860556 -221.43408 
L 115.936368 -221.502589 
L 118.01218 -222.076912 
L 120.087993 -224.745975 
L 122.163805 -227.305533 
L 124.239617 -230.526601 
L 126.31543 -235.042757 
L 128.391242 -239.648842 
L 130.467054 -243.602002 
L 132.542867 -248.39666 
L 134.618679 -252.48162 
L 136.694491 -256.151387 
L 138.770304 -260.102194 
L 140.846116 -265.889825 
L 142.921929 -271.64105 
L 144.997741 -275.480586 
L 147.073553 -277.787147 
L 149.149366 -281.884794 
L 151.225178 -286.648115 
L 153.30099 -290.090153 
L 155.376803 -292.138874 
L 157.452615 -294.964805 
L 159.528427 -297.684067 
L 161.60424 -299.513259 
L 163.680052 -299.274613 
L 165.755865 -300.034559 
L 167.831677 -299.753398 
L 169.907489 -298.836604 
L 171.983302 -298.881403 
L 174.059114 -300.356879 
L 176.134926 -299.858732 
L 178.210739 -298.62468 
L 180.286551 -298.006594 
L 182.362363 -294.384719 
L 184.438176 -292.567699 
L 186.513988 -291.739935 
L 188.589801 -292.358746 
L 190.665613 -290.892465 
L 192.741425 -287.523947 
L 194.817238 -285.881906 
L 196.89305 -286.847535 
L 198.968862 -286.994264 
L 201.044675 -285.136058 
L 203.120487 -282.938961 
L 205.196299 -282.833326 
L 207.272112 -283.854257 
L 209.347924 -286.455257 
L 211.423737 -286.154378 
L 213.499549 -282.024566 
L 215.575361 -277.170731 
L 217.651174 -273.454263 
L 219.726986 -273.682202 
L 221.802798 -277.01243 
L 223.878611 -281.381813 
L 225.954423 -279.917667 
L 228.030235 -273.314617 
L 230.106048 -270.967174 
L 232.18186 -266.015606 
L 234.257672 -265.426892 
L 236.333485 -272.24163 
L 238.409297 -272.49218 
L 240.48511 -270.713532 
L 242.560922 -271.321772 
L 244.636734 -268.591226 
L 246.712547 -267.498889 
L 248.788359 -269.030355 
L 250.864171 -269.489578 
L 252.939984 -266.975932 
L 255.015796 -266.655012 
L 257.091608 -267.115601 
L 259.167421 -266.320489 
L 261.243233 -264.243747 
L 263.319046 -268.775427 
L 265.394858 -270.422678 
L 267.47067 -260.010367 
L 269.546483 -249.424418 
L 271.622295 -240.63756 
L 273.698107 -233.59378 
L 275.77392 -233.498034 
L 277.849732 -235.257209 
L 279.925544 -230.809917 
L 282.001357 -227.278893 
L 284.077169 -225.409725 
L 286.152982 -219.903735 
L 288.228794 -213.098427 
L 290.304606 -212.357872 
L 292.380419 -211.024574 
L 294.456231 -202.161806 
L 296.532043 -194.309526 
L 298.607856 -191.826049 
L 300.683668 -188.97748 
L 302.75948 -185.447072 
L 304.835293 -180.001274 
L 306.911105 -176.203479 
L 308.986917 -167.373078 
L 311.06273 -162.778311 
L 313.138542 -159.750847 
L 315.214355 -158.477834 
L 317.290167 -157.322748 
L 319.365979 -156.414911 
L 321.441792 -153.321933 
L 323.517604 -147.758906 
L 325.593416 -142.720601 
L 327.669229 -140.232199 
L 329.745041 -141.118254 
L 331.820853 -139.547029 
L 333.896666 -132.694213 
L 335.972478 -129.512336 
L 338.048291 -129.021916 
L 340.124103 -128.38206 
L 342.199915 -127.175076 
L 344.275728 -124.757463 
L 346.35154 -121.233291 
L 348.427352 -115.84533 
L 350.503165 -112.242925 
L 352.578977 -109.745944 
L 354.654789 -106.326579 
L 356.730602 -106.621807 
L 358.806414 -109.882962 
L 360.882227 -110.170635 
L 362.958039 -109.44938 
L 365.033851 -110.220794 
L 367.109664 -108.1952 
L 369.185476 -105.769634 
L 371.261288 -103.330279 
L 373.337101 -102.771237 
L 375.412913 -102.695174 
L 377.488725 -100.827678 
L 379.564538 -100.893313 
L 381.64035 -102.055914 
L 383.716163 -100.663549 
L 385.791975 -101.219005 
L 387.867787 -99.960815 
L 389.9436 -97.928979 
L 392.019412 -97.106971 
L 394.095224 -98.380755 
L 396.171037 -100.454612 
L 398.246849 -100.255418 
L 400.322661 -100.696294 
L 402.398474 -97.946441 
L 404.474286 -96.325008 
L 406.550098 -97.152438 
L 408.625911 -96.358851 
L 410.701723 -96.674793 
L 412.777536 -96.116448 
L 414.853348 -95.145549 
L 416.92916 -95.365407 
L 419.004973 -94.776096 
L 421.080785 -93.869555 
L 423.156597 -94.64556 
L 425.23241 -95.782723 
L 427.308222 -95.305171 
L 429.384034 -97.075695 
L 431.459847 -97.45689 
L 433.535659 -96.17613 
L 435.611472 -96.453843 
L 437.687284 -94.803564 
L 439.763096 -91.963934 
L 441.838909 -91.159696 
L 443.914721 -90.835173 
L 445.990533 -91.556319 
L 448.066346 -93.454793 
L 450.142158 -92.818367 
L 452.21797 -90.822438 
L 454.293783 -91.405355 
L 456.369595 -92.813413 
L 458.445408 -91.606409 
L 460.52122 -89.982918 
L 462.597032 -87.308813 
L 464.672845 -87.097573 
L 466.748657 -85.308937 
L 468.824469 -86.927697 
L 470.900282 -95.145299 
L 472.976094 -94.741596 
L 475.051906 -88.60886 
L 477.127719 -90.277721 
L 479.203531 -88.470832 
L 481.279343 -80.908946 
L 483.355156 -81.599512 
L 485.430968 -90.428976 
L 487.506781 -88.821518 
L 489.582593 -83.555002 
L 491.658405 -82.566251 
L 493.734218 -86.787387 
L 495.81003 -86.100635 
L 497.885842 -78.950778 
L 499.961655 -82.30485 
L 502.037467 -90.320523 
L 504.113279 -91.387788 
L 506.189092 -97.048509 
L 506.189092 -131.56263 
L 506.189092 -131.56263 
L 504.113279 -159.408091 
L 502.037467 -176.484034 
L 499.961655 -183.426102 
L 497.885842 -178.935766 
L 495.81003 -167.054407 
L 493.734218 -161.955061 
L 491.658405 -164.1689 
L 489.582593 -168.693238 
L 487.506781 -178.605328 
L 485.430968 -184.055392 
L 483.355156 -176.124715 
L 481.279343 -165.748757 
L 479.203531 -164.369125 
L 477.127719 -172.886444 
L 475.051906 -179.319095 
L 472.976094 -180.227092 
L 470.900282 -180.138395 
L 468.824469 -179.606292 
L 466.748657 -176.657596 
L 464.672845 -169.540108 
L 462.597032 -157.774205 
L 460.52122 -144.627675 
L 458.445408 -136.734153 
L 456.369595 -136.462254 
L 454.293783 -138.590039 
L 452.21797 -139.949699 
L 450.142158 -141.548593 
L 448.066346 -141.184734 
L 445.990533 -137.881693 
L 443.914721 -134.854437 
L 441.838909 -132.59891 
L 439.763096 -130.1248 
L 437.687284 -128.063881 
L 435.611472 -125.382731 
L 433.535659 -119.59657 
L 431.459847 -114.074797 
L 429.384034 -113.012837 
L 427.308222 -115.127988 
L 425.23241 -116.217525 
L 423.156597 -118.659084 
L 421.080785 -121.538523 
L 419.004973 -122.333325 
L 416.92916 -120.184054 
L 414.853348 -118.105296 
L 412.777536 -118.41131 
L 410.701723 -121.251759 
L 408.625911 -124.758492 
L 406.550098 -130.097682 
L 404.474286 -136.373663 
L 402.398474 -140.588429 
L 400.322661 -142.414282 
L 398.246849 -140.422024 
L 396.171037 -137.785233 
L 394.095224 -135.779605 
L 392.019412 -135.752237 
L 389.9436 -137.445693 
L 387.867787 -139.398417 
L 385.791975 -140.52883 
L 383.716163 -141.023819 
L 381.64035 -141.549034 
L 379.564538 -141.881186 
L 377.488725 -142.54763 
L 375.412913 -143.079628 
L 373.337101 -143.728524 
L 371.261288 -146.217772 
L 369.185476 -150.113801 
L 367.109664 -153.20475 
L 365.033851 -155.16211 
L 362.958039 -154.891886 
L 360.882227 -152.744265 
L 358.806414 -149.74206 
L 356.730602 -147.629658 
L 354.654789 -147.710196 
L 352.578977 -150.351246 
L 350.503165 -156.048876 
L 348.427352 -164.60865 
L 346.35154 -172.634795 
L 344.275728 -177.31325 
L 342.199915 -178.884613 
L 340.124103 -178.71987 
L 338.048291 -178.188641 
L 335.972478 -178.842432 
L 333.896666 -181.973456 
L 331.820853 -186.530574 
L 329.745041 -189.51266 
L 327.669229 -191.461276 
L 325.593416 -194.458314 
L 323.517604 -198.829787 
L 321.441792 -203.411646 
L 319.365979 -206.543071 
L 317.290167 -208.255579 
L 315.214355 -209.547979 
L 313.138542 -211.289808 
L 311.06273 -214.619939 
L 308.986917 -219.915865 
L 306.911105 -226.515861 
L 304.835293 -232.090924 
L 302.75948 -236.760137 
L 300.683668 -240.48659 
L 298.607856 -244.089783 
L 296.532043 -248.612848 
L 294.456231 -254.884211 
L 292.380419 -261.02086 
L 290.304606 -265.101314 
L 288.228794 -268.463889 
L 286.152982 -272.649902 
L 284.077169 -276.544286 
L 282.001357 -279.148207 
L 279.925544 -281.05304 
L 277.849732 -282.570181 
L 275.77392 -283.395541 
L 273.698107 -285.56767 
L 271.622295 -290.892282 
L 269.546483 -298.710609 
L 267.47067 -307.114716 
L 265.394858 -313.20959 
L 263.319046 -314.610892 
L 261.243233 -313.591406 
L 259.167421 -312.853715 
L 257.091608 -312.30831 
L 255.015796 -311.939558 
L 252.939984 -311.926347 
L 250.864171 -312.147728 
L 248.788359 -311.849476 
L 246.712547 -311.542625 
L 244.636734 -312.079689 
L 242.560922 -312.952496 
L 240.48511 -312.992222 
L 238.409297 -312.380137 
L 236.333485 -310.669765 
L 234.257672 -308.251188 
L 232.18186 -308.112071 
L 230.106048 -310.536618 
L 228.030235 -313.829935 
L 225.954423 -316.912938 
L 223.878611 -317.377184 
L 221.802798 -315.224456 
L 219.726986 -312.879862 
L 217.651174 -312.511853 
L 215.575361 -314.769127 
L 213.499549 -318.297455 
L 211.423737 -321.071421 
L 209.347924 -321.694132 
L 207.272112 -320.65617 
L 205.196299 -319.53984 
L 203.120487 -319.030078 
L 201.044675 -319.254164 
L 198.968862 -319.57022 
L 196.89305 -319.432444 
L 194.817238 -319.225303 
L 192.741425 -319.805713 
L 190.665613 -320.992617 
L 188.589801 -321.81023 
L 186.513988 -321.968559 
L 184.438176 -322.204175 
L 182.362363 -322.920858 
L 180.286551 -324.066062 
L 178.210739 -324.720491 
L 176.134926 -324.822574 
L 174.059114 -324.173138 
L 171.983302 -322.916088 
L 169.907489 -321.864926 
L 167.831677 -321.141688 
L 165.755865 -320.376254 
L 163.680052 -319.294522 
L 161.60424 -317.866967 
L 159.528427 -315.671554 
L 157.452615 -312.853807 
L 155.376803 -309.673417 
L 153.30099 -306.24637 
L 151.225178 -302.28522 
L 149.149366 -297.912261 
L 147.073553 -293.600378 
L 144.997741 -289.459633 
L 142.921929 -284.81205 
L 140.846116 -279.500925 
L 138.770304 -274.109406 
L 136.694491 -269.203803 
L 134.618679 -264.630654 
L 132.542867 -260.053801 
L 130.467054 -255.303036 
L 128.391242 -250.546245 
L 126.31543 -245.794772 
L 124.239617 -241.385569 
L 122.163805 -237.749925 
L 120.087993 -234.963518 
L 118.01218 -232.825046 
L 115.936368 -230.961122 
L 113.860556 -228.051013 
L 111.784743 -222.62618 
L 109.708931 -214.896787 
L 107.633118 -207.992603 
L 105.557306 -206.136843 
L 103.481494 -210.64009 
L 101.405681 -217.760932 
L 99.329869 -219.746655 
L 97.254057 -209.053102 
L 95.178244 -182.606036 
L 93.102432 -145.497735 
z
" style="stroke: #ffffff; stroke-opacity: 0.2; stroke-width: 1.5"/>
    </defs>
    <g clip-path="url(#p1615abb7bb)">
     <use xlink:href="#m853c52e994" x="0" y="360" style="fill: #dd8452; fill-opacity: 0.2; stroke: #ffffff; stroke-opacity: 0.2; stroke-width: 1.5"/>
    </g>
   </g>
   <g id="line2d_1">
    <path d="M 93.102432 234.297188 
L 95.178244 180.488583 
L 97.254057 146.559064 
L 99.329869 136.040921 
L 101.405681 141.78894 
L 103.481494 153.459653 
L 105.557306 159.958902 
L 107.633118 156.284938 
L 109.708931 145.363107 
L 111.784743 135.450877 
L 113.860556 131.031965 
L 115.936368 130.351328 
L 118.01218 129.954212 
L 120.087993 128.446624 
L 122.163805 126.669967 
L 124.239617 124.348837 
L 126.31543 120.931097 
L 128.391242 116.762877 
L 132.542867 110.107054 
L 134.618679 105.617668 
L 136.694491 99.999943 
L 138.770304 95.515736 
L 140.846116 91.984351 
L 142.921929 87.902213 
L 144.997741 82.795892 
L 153.30099 61.003102 
L 155.376803 57.472906 
L 157.452615 55.176206 
L 159.528427 51.525526 
L 161.60424 48.288997 
L 163.680052 46.318579 
L 165.755865 44.669874 
L 167.831677 44.037839 
L 169.907489 45.089944 
L 171.983302 45.985343 
L 176.134926 43.585258 
L 178.210739 43.73572 
L 180.286551 44.976844 
L 182.362363 47.558444 
L 184.438176 50.747406 
L 186.513988 50.84733 
L 188.589801 49.112399 
L 190.665613 49.732496 
L 192.741425 52.766255 
L 194.817238 55.55616 
L 196.89305 54.730983 
L 198.968862 52.599201 
L 201.044675 51.161549 
L 203.120487 51.801679 
L 205.196299 52.569458 
L 207.272112 52.09206 
L 209.347924 51.439117 
L 211.423737 52.865003 
L 213.499549 53.307225 
L 215.575361 52.44419 
L 217.651174 51.369477 
L 219.726986 52.548699 
L 221.802798 55.407182 
L 223.878611 57.219507 
L 225.954423 58.165172 
L 228.030235 59.96826 
L 230.106048 60.474574 
L 232.18186 60.528757 
L 234.257672 60.003587 
L 236.333485 59.264681 
L 238.409297 59.056211 
L 242.560922 62.28987 
L 246.712547 70.966124 
L 248.788359 71.751045 
L 250.864171 67.905129 
L 252.939984 64.397909 
L 255.015796 66.323786 
L 257.091608 69.836286 
L 259.167421 68.781347 
L 261.243233 68.518569 
L 263.319046 73.976736 
L 265.394858 80.30645 
L 267.47067 81.088174 
L 269.546483 80.759636 
L 271.622295 84.552353 
L 273.698107 89.741487 
L 275.77392 93.567258 
L 277.849732 94.032731 
L 279.925544 94.341734 
L 282.001357 98.394083 
L 286.152982 108.026742 
L 288.228794 114.348182 
L 290.304606 118.890513 
L 292.380419 118.863885 
L 294.456231 117.27892 
L 296.532043 115.528472 
L 298.607856 115.446291 
L 300.683668 120.131402 
L 302.75948 125.719087 
L 304.835293 130.440077 
L 306.911105 132.584509 
L 308.986917 135.699391 
L 311.06273 141.614791 
L 313.138542 149.267596 
L 315.214355 152.848429 
L 317.290167 154.749737 
L 321.441792 164.726442 
L 323.517604 166.458642 
L 325.593416 167.22226 
L 327.669229 168.181922 
L 329.745041 169.638881 
L 331.820853 173.986588 
L 333.896666 181.492379 
L 335.972478 187.895224 
L 338.048291 191.496942 
L 340.124103 194.728019 
L 342.199915 199.752975 
L 344.275728 205.071034 
L 346.35154 208.672398 
L 348.427352 211.627279 
L 350.503165 213.335469 
L 352.578977 215.656706 
L 354.654789 219.268961 
L 356.730602 218.525985 
L 358.806414 216.302456 
L 360.882227 219.703003 
L 362.958039 226.942134 
L 365.033851 230.150648 
L 367.109664 231.091521 
L 369.185476 234.028008 
L 371.261288 236.723831 
L 373.337101 238.658165 
L 375.412913 239.373619 
L 377.488725 240.932322 
L 379.564538 241.745667 
L 381.64035 241.623214 
L 383.716163 243.137144 
L 385.791975 244.27844 
L 389.9436 247.749784 
L 392.019412 247.275139 
L 394.095224 245.170471 
L 396.171037 242.20499 
L 398.246849 242.127683 
L 400.322661 243.074951 
L 402.398474 246.997847 
L 404.474286 249.019754 
L 410.701723 249.12362 
L 412.777536 250.441665 
L 414.853348 250.662885 
L 416.92916 249.443152 
L 419.004973 247.975782 
L 421.080785 249.568003 
L 423.156597 251.970646 
L 425.23241 253.290785 
L 427.308222 252.456091 
L 429.384034 255.449576 
L 431.459847 255.911291 
L 435.611472 245.527818 
L 437.687284 246.480216 
L 439.763096 247.79288 
L 441.838909 247.920254 
L 443.914721 247.692886 
L 445.990533 243.796905 
L 448.066346 237.109948 
L 450.142158 237.303225 
L 452.21797 241.804019 
L 454.293783 243.706307 
L 456.369595 246.323203 
L 458.445408 249.178554 
L 460.52122 245.509701 
L 462.597032 237.759702 
L 464.672845 231.837886 
L 466.748657 229.66661 
L 468.824469 228.474946 
L 470.900282 226.793068 
L 475.051906 224.693713 
L 477.127719 229.260838 
L 479.203531 240.125559 
L 481.279343 241.724424 
L 485.430968 220.547538 
L 487.506781 227.381403 
L 489.582593 237.408698 
L 491.658405 237.996838 
L 493.734218 240.55559 
L 495.81003 240.047174 
L 497.885842 232.36511 
L 499.961655 228.78058 
L 502.037467 230.168413 
L 504.113279 236.669129 
L 506.189092 253.896972 
L 506.189092 253.896972 
" clip-path="url(#p1615abb7bb)" style="fill: none; stroke: #4c72b0; stroke-width: 2.25; stroke-linecap: round"/>
   </g>
   <g id="line2d_2">
    <path d="M 93.102432 231.03847 
L 95.178244 180.326427 
L 97.254057 148.01456 
L 99.329869 138.868802 
L 101.405681 145.298846 
L 103.481494 156.326813 
L 105.557306 161.968825 
L 107.633118 158.389244 
L 109.708931 148.624513 
L 111.784743 139.436105 
L 113.860556 134.731046 
L 115.936368 133.388239 
L 118.01218 132.496521 
L 120.087993 130.439078 
L 122.163805 127.659072 
L 124.239617 124.0567 
L 130.467054 110.397453 
L 132.542867 105.761972 
L 138.770304 92.833727 
L 142.921929 81.814408 
L 144.997741 77.573098 
L 147.073553 74.191279 
L 149.149366 70.089318 
L 151.225178 65.631944 
L 153.30099 61.893969 
L 159.528427 53.332095 
L 161.60424 51.361365 
L 163.680052 50.544039 
L 165.755865 49.850145 
L 167.831677 49.66541 
L 169.907489 49.67514 
L 171.983302 49.06101 
L 174.059114 47.823365 
L 176.134926 47.537035 
L 178.210739 48.128831 
L 180.286551 49.196308 
L 182.362363 51.36671 
L 184.438176 52.661997 
L 186.513988 53.008724 
L 188.589801 52.936882 
L 190.665613 54.162337 
L 192.741425 56.310262 
L 194.817238 57.35346 
L 196.89305 56.879902 
L 198.968862 56.769327 
L 203.120487 59.048708 
L 205.196299 58.959818 
L 207.272112 57.655052 
L 209.347924 55.788338 
L 211.423737 56.136827 
L 213.499549 59.650993 
L 215.575361 64.281507 
L 217.651174 67.414137 
L 219.726986 66.972403 
L 223.878611 60.454705 
L 225.954423 61.290112 
L 228.030235 65.906964 
L 230.106048 69.82418 
L 232.18186 73.228269 
L 234.257672 72.978639 
L 236.333485 68.974153 
L 238.409297 67.399428 
L 242.560922 67.999728 
L 244.636734 69.669727 
L 246.712547 70.469385 
L 248.788359 69.678802 
L 250.864171 69.294139 
L 252.939984 70.290856 
L 255.015796 70.7006 
L 257.091608 70.634959 
L 259.167421 70.780121 
L 261.243233 70.626361 
L 263.319046 68.10908 
L 265.394858 68.25851 
L 267.47067 75.834943 
L 269.546483 85.937399 
L 271.622295 94.811125 
L 273.698107 100.51783 
L 275.77392 101.62232 
L 277.849732 101.459142 
L 279.925544 103.784254 
L 282.001357 106.369859 
L 284.077169 109.166938 
L 288.228794 118.895997 
L 290.304606 121.180996 
L 292.380419 124.227574 
L 296.532043 138.468497 
L 298.607856 142.412147 
L 300.683668 145.374873 
L 302.75948 148.757394 
L 304.835293 153.442037 
L 306.911105 158.781682 
L 308.986917 166.256748 
L 311.06273 171.656073 
L 313.138542 174.738481 
L 315.214355 176.048897 
L 317.290167 177.014046 
L 319.365979 178.310501 
L 321.441792 181.492742 
L 323.517604 186.800201 
L 325.593416 191.625269 
L 327.669229 194.098164 
L 329.745041 194.533372 
L 331.820853 196.878725 
L 333.896666 202.56181 
L 335.972478 206.237659 
L 338.048291 206.860388 
L 340.124103 206.590138 
L 342.199915 206.808714 
L 344.275728 208.323766 
L 346.35154 212.28727 
L 350.503165 226.594665 
L 352.578977 230.771019 
L 354.654789 232.904366 
L 356.730602 232.85061 
L 360.882227 228.422344 
L 362.958039 227.174001 
L 365.033851 227.099797 
L 367.109664 229.173944 
L 369.185476 231.880647 
L 371.261288 235.49052 
L 373.337101 237.291204 
L 375.412913 237.235122 
L 379.564538 238.54534 
L 381.64035 238.470455 
L 383.716163 239.027748 
L 385.791975 239.109082 
L 387.867787 240.061661 
L 389.9436 242.093455 
L 392.019412 243.749702 
L 394.095224 243.477278 
L 398.246849 239.607368 
L 400.322661 237.836992 
L 402.398474 240.045791 
L 404.474286 242.968217 
L 406.550098 246.971237 
L 408.625911 249.785502 
L 410.701723 251.000853 
L 412.777536 253.300993 
L 414.853348 253.944009 
L 416.92916 252.298653 
L 419.004973 250.481746 
L 421.080785 251.481671 
L 423.156597 253.628372 
L 425.23241 254.45998 
L 427.308222 253.828467 
L 429.384034 255.812469 
L 431.459847 255.730644 
L 433.535659 251.740531 
L 435.611472 247.993899 
L 439.763096 249.04181 
L 441.838909 248.203052 
L 443.914721 247.545205 
L 445.990533 245.504344 
L 448.066346 242.252533 
L 450.142158 242.444647 
L 452.21797 244.148656 
L 454.293783 244.035659 
L 456.369595 245.775485 
L 458.445408 248.004248 
L 460.52122 244.307857 
L 462.597032 236.633404 
L 464.672845 230.418099 
L 466.748657 227.688071 
L 468.824469 226.141978 
L 470.900282 224.342952 
L 472.976094 223.200902 
L 475.051906 222.713426 
L 477.127719 227.65027 
L 479.203531 237.849882 
L 481.279343 239.182307 
L 485.430968 219.235034 
L 487.506781 225.271502 
L 489.582593 234.959875 
L 491.658405 236.605908 
L 493.734218 238.8222 
L 495.81003 237.030421 
L 497.885842 228.2713 
L 499.961655 223.792896 
L 502.037467 225.334093 
L 504.113279 233.136214 
L 506.189092 251.523856 
L 506.189092 251.523856 
" clip-path="url(#p1615abb7bb)" style="fill: none; stroke: #dd8452; stroke-width: 2.25; stroke-linecap: round"/>
   </g>
   <g id="patch_3">
    <path d="M 72.448099 293.506804 
L 72.448099 19.44 
" style="fill: none; stroke: #262626; stroke-width: 1.875; stroke-linejoin: miter; stroke-linecap: square"/>
   </g>
   <g id="patch_4">
    <path d="M 526.843425 293.506804 
L 526.843425 19.44 
" style="fill: none; stroke: #262626; stroke-width: 1.875; stroke-linejoin: miter; stroke-linecap: square"/>
   </g>
   <g id="patch_5">
    <path d="M 72.448099 293.506804 
L 526.843425 293.506804 
" style="fill: none; stroke: #262626; stroke-width: 1.875; stroke-linejoin: miter; stroke-linecap: square"/>
   </g>
   <g id="patch_6">
    <path d="M 72.448099 19.44 
L 526.843425 19.44 
" style="fill: none; stroke: #262626; stroke-width: 1.875; stroke-linejoin: miter; stroke-linecap: square"/>
   </g>
   <g id="legend_1">
    <g id="patch_7">
     <path d="M 335.61 79.545916 
L 515.293425 79.545916 
Q 518.593425 79.545916 518.593425 76.245916 
L 518.593425 30.99 
Q 518.593425 27.69 515.293425 27.69 
L 335.61 27.69 
Q 332.31 27.69 332.31 30.99 
L 332.31 76.245916 
Q 332.31 79.545916 335.61 79.545916 
z
" style="fill: #ffffff; opacity: 0.8; stroke: #cccccc; stroke-width: 1.5; stroke-linejoin: miter"/>
    </g>
    <g id="line2d_3">
     <path d="M 338.91 40.065 
L 355.41 40.065 
L 371.91 40.065 
" style="fill: none; stroke: #4c72b0; stroke-width: 2.25; stroke-linecap: round"/>
    </g>
    <g id="text_14">
     <!-- \texttt{compbnd-mrm} -->
     <g style="fill: #262626" transform="translate(385.11 45.84) scale(0.165 -0.165)">
      <defs>
       <path id="CMTT12-63" d="M 2918 702 
C 2918 868 2758 868 2707 868 
C 2560 868 2534 817 2502 728 
C 2362 377 2048 339 1894 339 
C 1350 339 890 792 890 1385 
C 890 1711 1075 2445 1914 2445 
C 2086 2445 2221 2432 2278 2426 
C 2323 2413 2330 2405 2330 2373 
C 2349 2107 2547 2107 2586 2107 
C 2726 2107 2848 2203 2848 2375 
C 2848 2816 2202 2816 1920 2816 
C 826 2816 474 1922 474 1385 
C 474 607 1069 -32 1837 -32 
C 2694 -32 2918 600 2918 702 
z
" transform="scale(0.015625)"/>
       <path id="CMTT12-6f" d="M 2918 1385 
C 2918 2183 2336 2816 1645 2816 
C 954 2816 371 2183 371 1385 
C 371 581 960 -32 1645 -32 
C 2330 -32 2918 581 2918 1385 
z
M 1645 339 
C 1184 339 787 824 787 1430 
C 787 2023 1197 2445 1645 2445 
C 2093 2445 2502 2023 2502 1430 
C 2502 818 2106 339 1645 339 
z
" transform="scale(0.015625)"/>
       <path id="CMTT12-6d" d="M 2899 1943 
C 2899 2084 2899 2803 2336 2803 
C 2112 2803 1894 2700 1722 2463 
C 1683 2559 1542 2803 1235 2803 
C 947 2803 749 2613 698 2555 
C 691 2752 557 2752 442 2752 
L 250 2752 
C 160 2752 -6 2752 -6 2567 
C -6 2381 141 2381 339 2381 
L 339 371 
C 134 371 -6 371 -6 186 
C -6 0 160 0 250 0 
L 787 0 
C 877 0 1043 0 1043 186 
C 1043 371 896 371 698 371 
L 698 1552 
C 698 2091 928 2432 1210 2432 
C 1389 2432 1440 2207 1440 1905 
L 1440 371 
C 1331 371 1158 371 1158 186 
C 1158 0 1331 0 1421 0 
L 1888 0 
C 1978 0 2144 0 2144 186 
C 2144 371 1997 371 1798 371 
L 1798 1552 
C 1798 2091 2029 2432 2310 2432 
C 2490 2432 2541 2207 2541 1905 
L 2541 371 
C 2432 371 2259 371 2259 186 
C 2259 0 2432 0 2522 0 
L 2989 0 
C 3078 0 3245 0 3245 186 
C 3245 371 3098 371 2899 371 
L 2899 1943 
z
" transform="scale(0.015625)"/>
       <path id="CMTT12-70" d="M 1293 -1408 
C 1382 -1408 1549 -1408 1549 -1222 
C 1549 -1037 1382 -1037 1293 -1037 
L 1030 -1037 
L 1030 326 
C 1184 153 1421 -32 1779 -32 
C 2458 -32 3053 579 3053 1395 
C 3053 2186 2515 2816 1850 2816 
C 1382 2816 1088 2533 1030 2469 
C 1030 2664 1030 2752 774 2752 
L 352 2752 
C 262 2752 96 2752 96 2567 
C 96 2381 262 2381 352 2381 
L 614 2381 
L 614 -1037 
L 352 -1037 
C 262 -1037 96 -1037 96 -1222 
C 96 -1408 262 -1408 352 -1408 
L 1293 -1408 
z
M 1030 1717 
C 1030 2084 1389 2445 1805 2445 
C 2266 2445 2637 1974 2637 1395 
C 2637 777 2202 339 1747 339 
C 1267 339 1030 886 1030 1208 
L 1030 1717 
z
" transform="scale(0.015625)"/>
       <path id="CMTT12-62" d="M 1030 3644 
C 1030 3841 992 3904 774 3904 
L 352 3904 
C 262 3904 96 3904 96 3719 
C 96 3533 262 3533 352 3533 
L 614 3533 
L 614 262 
C 614 147 614 0 826 0 
C 1030 0 1030 137 1030 326 
C 1184 153 1421 -32 1779 -32 
C 2458 -32 3053 576 3053 1388 
C 3053 2176 2515 2803 1850 2803 
C 1382 2803 1088 2522 1030 2458 
L 1030 3644 
z
M 1030 1708 
C 1030 2073 1389 2432 1805 2432 
C 2266 2432 2637 1964 2637 1388 
C 2637 774 2202 339 1747 339 
C 1267 339 1030 883 1030 1203 
L 1030 1708 
z
" transform="scale(0.015625)"/>
       <path id="CMTT12-6e" d="M 2675 1879 
C 2675 2507 2381 2803 1856 2803 
C 1421 2803 1139 2560 1030 2438 
C 1030 2666 1030 2752 774 2752 
L 352 2752 
C 262 2752 96 2752 96 2567 
C 96 2381 262 2381 352 2381 
L 614 2381 
L 614 371 
L 352 371 
C 262 371 96 371 96 186 
C 96 0 262 0 352 0 
L 1293 0 
C 1382 0 1549 0 1549 186 
C 1549 371 1382 371 1293 371 
L 1030 371 
L 1030 1533 
C 1030 2155 1466 2432 1811 2432 
C 2182 2432 2259 2219 2259 1854 
L 2259 371 
L 1997 371 
C 1907 371 1741 371 1741 186 
C 1741 0 1907 0 1997 0 
L 2938 0 
C 3027 0 3194 0 3194 186 
C 3194 371 3027 371 2938 371 
L 2675 371 
L 2675 1879 
z
" transform="scale(0.015625)"/>
       <path id="CMTT12-64" d="M 2675 3642 
C 2675 3840 2637 3904 2419 3904 
L 1997 3904 
C 1907 3904 1741 3904 1741 3719 
C 1741 3533 1907 3533 1997 3533 
L 2259 3533 
L 2259 2483 
C 2157 2585 1894 2803 1504 2803 
C 826 2803 237 2188 237 1382 
C 237 595 787 -32 1446 -32 
C 1862 -32 2138 215 2259 355 
C 2259 84 2259 0 2515 0 
L 2938 0 
C 3027 0 3194 0 3194 186 
C 3194 371 3027 371 2938 371 
L 2675 371 
L 2675 3642 
z
M 2259 1222 
C 2259 864 1965 339 1485 339 
C 1024 339 653 806 653 1382 
C 653 1996 1088 2432 1542 2432 
C 1958 2432 2259 2054 2259 1721 
L 2259 1222 
z
" transform="scale(0.015625)"/>
       <path id="CMTT12-2d" d="M 2650 1728 
C 2733 1728 2938 1728 2938 1933 
C 2938 2144 2739 2144 2650 2144 
L 640 2144 
C 557 2144 352 2144 352 1939 
C 352 1728 550 1728 640 1728 
L 2650 1728 
z
" transform="scale(0.015625)"/>
       <path id="CMTT12-72" d="M 1382 1212 
C 1382 1976 1920 2432 2464 2432 
C 2496 2432 2534 2432 2566 2425 
C 2586 2185 2765 2165 2810 2165 
C 2957 2165 3059 2275 3059 2418 
C 3059 2698 2790 2803 2470 2803 
C 2042 2803 1677 2607 1382 2241 
L 1382 2491 
C 1382 2688 1344 2752 1126 2752 
L 480 2752 
C 390 2752 224 2752 224 2567 
C 224 2381 390 2381 480 2381 
L 966 2381 
L 966 371 
L 480 371 
C 390 371 224 371 224 186 
C 224 0 390 0 480 0 
L 2054 0 
C 2144 0 2310 0 2310 186 
C 2310 371 2144 371 2054 371 
L 1382 371 
L 1382 1212 
z
" transform="scale(0.015625)"/>
      </defs>
      <use xlink:href="#CMTT12-63" transform="scale(0.996264)"/>
      <use xlink:href="#CMTT12-6f" transform="translate(51.266111 0) scale(0.996264)"/>
      <use xlink:href="#CMTT12-6d" transform="translate(102.532222 0) scale(0.996264)"/>
      <use xlink:href="#CMTT12-70" transform="translate(153.798333 0) scale(0.996264)"/>
      <use xlink:href="#CMTT12-62" transform="translate(205.064443 0) scale(0.996264)"/>
      <use xlink:href="#CMTT12-6e" transform="translate(256.330554 0) scale(0.996264)"/>
      <use xlink:href="#CMTT12-64" transform="translate(307.596665 0) scale(0.996264)"/>
      <use xlink:href="#CMTT12-2d" transform="translate(358.862776 0) scale(0.996264)"/>
      <use xlink:href="#CMTT12-6d" transform="translate(410.128887 0) scale(0.996264)"/>
      <use xlink:href="#CMTT12-72" transform="translate(461.394998 0) scale(0.996264)"/>
      <use xlink:href="#CMTT12-6d" transform="translate(512.661108 0) scale(0.996264)"/>
     </g>
    </g>
    <g id="line2d_4">
     <path d="M 338.91 63.517958 
L 355.41 63.517958 
L 371.91 63.517958 
" style="fill: none; stroke: #dd8452; stroke-width: 2.25; stroke-linecap: round"/>
    </g>
    <g id="text_15">
     <!-- \texttt{compbnd-mrm+dvs} -->
     <g style="fill: #262626" transform="translate(385.11 69.292958) scale(0.165 -0.165)">
      <defs>
       <path id="CMTT12-2b" d="M 1856 1792 
L 2765 1792 
C 2848 1792 3053 1792 3053 1997 
C 3053 2208 2854 2208 2765 2208 
L 1856 2208 
L 1856 3113 
C 1856 3196 1856 3398 1651 3398 
C 1440 3398 1440 3202 1440 3113 
L 1440 2208 
L 525 2208 
C 442 2208 237 2208 237 2003 
C 237 1792 435 1792 525 1792 
L 1440 1792 
L 1440 867 
C 1440 783 1440 576 1645 576 
C 1856 576 1856 776 1856 867 
L 1856 1792 
z
" transform="scale(0.015625)"/>
       <path id="CMTT12-76" d="M 2714 2381 
L 2880 2381 
C 2970 2381 3142 2381 3142 2567 
C 3142 2752 2970 2752 2880 2752 
L 2176 2752 
C 2086 2752 1914 2752 1914 2567 
C 1914 2381 2086 2381 2176 2381 
L 2336 2381 
L 1645 325 
L 954 2381 
L 1114 2381 
C 1203 2381 1376 2381 1376 2567 
C 1376 2752 1203 2752 1114 2752 
L 410 2752 
C 320 2752 147 2752 147 2567 
C 147 2381 320 2381 410 2381 
L 576 2381 
L 1312 185 
C 1382 -32 1523 -32 1645 -32 
C 1766 -32 1907 -32 1978 185 
L 2714 2381 
z
" transform="scale(0.015625)"/>
       <path id="CMTT12-73" d="M 2688 2573 
C 2688 2675 2688 2816 2509 2816 
C 2355 2816 2317 2669 2317 2662 
C 2061 2816 1766 2816 1638 2816 
C 595 2816 454 2286 454 2069 
C 454 1807 608 1629 826 1507 
C 1030 1392 1216 1361 1741 1278 
C 1990 1233 2502 1150 2502 799 
C 2502 562 2285 339 1690 339 
C 1280 339 1011 499 877 960 
C 845 1049 826 1120 666 1120 
C 454 1120 454 998 454 870 
L 454 211 
C 454 108 454 -32 634 -32 
C 710 -32 768 -32 864 230 
C 1158 -32 1491 -32 1690 -32 
C 2874 -32 2874 734 2874 798 
C 2874 1461 2080 1596 1773 1640 
C 1210 1736 826 1800 826 2068 
C 826 2241 1024 2445 1626 2445 
C 2234 2445 2259 2157 2272 1990 
C 2285 1862 2400 1843 2477 1843 
C 2688 1843 2688 1958 2688 2086 
L 2688 2573 
z
" transform="scale(0.015625)"/>
      </defs>
      <use xlink:href="#CMTT12-63" transform="scale(0.996264)"/>
      <use xlink:href="#CMTT12-6f" transform="translate(51.266111 0) scale(0.996264)"/>
      <use xlink:href="#CMTT12-6d" transform="translate(102.532222 0) scale(0.996264)"/>
      <use xlink:href="#CMTT12-70" transform="translate(153.798333 0) scale(0.996264)"/>
      <use xlink:href="#CMTT12-62" transform="translate(205.064443 0) scale(0.996264)"/>
      <use xlink:href="#CMTT12-6e" transform="translate(256.330554 0) scale(0.996264)"/>
      <use xlink:href="#CMTT12-64" transform="translate(307.596665 0) scale(0.996264)"/>
      <use xlink:href="#CMTT12-2d" transform="translate(358.862776 0) scale(0.996264)"/>
      <use xlink:href="#CMTT12-6d" transform="translate(410.128887 0) scale(0.996264)"/>
      <use xlink:href="#CMTT12-72" transform="translate(461.394998 0) scale(0.996264)"/>
      <use xlink:href="#CMTT12-6d" transform="translate(512.661108 0) scale(0.996264)"/>
      <use xlink:href="#CMTT12-2b" transform="translate(563.927219 0) scale(0.996264)"/>
      <use xlink:href="#CMTT12-64" transform="translate(615.19333 0) scale(0.996264)"/>
      <use xlink:href="#CMTT12-76" transform="translate(666.459441 0) scale(0.996264)"/>
      <use xlink:href="#CMTT12-73" transform="translate(717.725552 0) scale(0.996264)"/>
     </g>
    </g>
   </g>
  </g>
 </g>
 <defs>
  <clipPath id="p1615abb7bb">
   <rect x="72.448099" y="19.44" width="454.395326" height="274.066804"/>
  </clipPath>
 </defs>
</svg>
