<?xml version="1.0" encoding="utf-8" standalone="no"?>
<!DOCTYPE svg PUBLIC "-//W3C//DTD SVG 1.1//EN"
  "http://www.w3.org/Graphics/SVG/1.1/DTD/svg11.dtd">
<svg xmlns:xlink="http://www.w3.org/1999/xlink" width="512.01pt" height="360pt" viewBox="0 0 512.01 360" xmlns="http://www.w3.org/2000/svg" version="1.1">
 <metadata>
  <rdf:RDF xmlns:dc="http://purl.org/dc/elements/1.1/" xmlns:cc="http://creativecommons.org/ns#" xmlns:rdf="http://www.w3.org/1999/02/22-rdf-syntax-ns#">
   <cc:Work>
    <dc:type rdf:resource="http://purl.org/dc/dcmitype/StillImage"/>
    <dc:date>2024-08-07T17:41:07.742160</dc:date>
    <dc:format>image/svg+xml</dc:format>
    <dc:creator>
     <cc:Agent>
      <dc:title>Matplotlib v3.9.0, https://matplotlib.org/</dc:title>
     </cc:Agent>
    </dc:creator>
   </cc:Work>
  </rdf:RDF>
 </metadata>
 <defs>
  <style type="text/css">*{stroke-linejoin: round; stroke-linecap: butt}</style>
 </defs>
 <g id="figure_1">
  <g id="patch_1">
   <path d="M 0 360 
L 512.01 360 
L 512.01 0 
L 0 0 
z
" style="fill: #ffffff"/>
  </g>
  <g id="axes_1">
   <g id="patch_2">
    <path d="M 56.88 309.78 
L 499.05 309.78 
L 499.05 29.04 
L 56.88 29.04 
z
" style="fill: #eaeaf2"/>
   </g>
   <g id="matplotlib.axis_1">
    <g id="xtick_1">
     <g id="line2d_1">
      <path d="M 76.978636 309.78 
L 76.978636 29.04 
" clip-path="url(#p05ae09f5db)" style="fill: none; stroke: #ffffff; stroke-linecap: round"/>
     </g>
     <g id="text_1">
      <!-- 0 -->
      <g style="fill: #262626" transform="translate(73.479261 327.638281) scale(0.11 -0.11)">
       <defs>
        <path id="DejaVuSans-30" d="M 2034 4250 
Q 1547 4250 1301 3770 
Q 1056 3291 1056 2328 
Q 1056 1369 1301 889 
Q 1547 409 2034 409 
Q 2525 409 2770 889 
Q 3016 1369 3016 2328 
Q 3016 3291 2770 3770 
Q 2525 4250 2034 4250 
z
M 2034 4750 
Q 2819 4750 3233 4129 
Q 3647 3509 3647 2328 
Q 3647 1150 3233 529 
Q 2819 -91 2034 -91 
Q 1250 -91 836 529 
Q 422 1150 422 2328 
Q 422 3509 836 4129 
Q 1250 4750 2034 4750 
z
" transform="scale(0.015625)"/>
       </defs>
       <use xlink:href="#DejaVuSans-30"/>
      </g>
     </g>
    </g>
    <g id="xtick_2">
     <g id="line2d_2">
      <path d="M 157.373182 309.78 
L 157.373182 29.04 
" clip-path="url(#p05ae09f5db)" style="fill: none; stroke: #ffffff; stroke-linecap: round"/>
     </g>
     <g id="text_2">
      <!-- 100 -->
      <g style="fill: #262626" transform="translate(146.875057 327.638281) scale(0.11 -0.11)">
       <defs>
        <path id="DejaVuSans-31" d="M 794 531 
L 1825 531 
L 1825 4091 
L 703 3866 
L 703 4441 
L 1819 4666 
L 2450 4666 
L 2450 531 
L 3481 531 
L 3481 0 
L 794 0 
L 794 531 
z
" transform="scale(0.015625)"/>
       </defs>
       <use xlink:href="#DejaVuSans-31"/>
       <use xlink:href="#DejaVuSans-30" x="63.623047"/>
       <use xlink:href="#DejaVuSans-30" x="127.246094"/>
      </g>
     </g>
    </g>
    <g id="xtick_3">
     <g id="line2d_3">
      <path d="M 237.767727 309.78 
L 237.767727 29.04 
" clip-path="url(#p05ae09f5db)" style="fill: none; stroke: #ffffff; stroke-linecap: round"/>
     </g>
     <g id="text_3">
      <!-- 200 -->
      <g style="fill: #262626" transform="translate(227.269602 327.638281) scale(0.11 -0.11)">
       <defs>
        <path id="DejaVuSans-32" d="M 1228 531 
L 3431 531 
L 3431 0 
L 469 0 
L 469 531 
Q 828 903 1448 1529 
Q 2069 2156 2228 2338 
Q 2531 2678 2651 2914 
Q 2772 3150 2772 3378 
Q 2772 3750 2511 3984 
Q 2250 4219 1831 4219 
Q 1534 4219 1204 4116 
Q 875 4013 500 3803 
L 500 4441 
Q 881 4594 1212 4672 
Q 1544 4750 1819 4750 
Q 2544 4750 2975 4387 
Q 3406 4025 3406 3419 
Q 3406 3131 3298 2873 
Q 3191 2616 2906 2266 
Q 2828 2175 2409 1742 
Q 1991 1309 1228 531 
z
" transform="scale(0.015625)"/>
       </defs>
       <use xlink:href="#DejaVuSans-32"/>
       <use xlink:href="#DejaVuSans-30" x="63.623047"/>
       <use xlink:href="#DejaVuSans-30" x="127.246094"/>
      </g>
     </g>
    </g>
    <g id="xtick_4">
     <g id="line2d_4">
      <path d="M 318.162273 309.78 
L 318.162273 29.04 
" clip-path="url(#p05ae09f5db)" style="fill: none; stroke: #ffffff; stroke-linecap: round"/>
     </g>
     <g id="text_4">
      <!-- 300 -->
      <g style="fill: #262626" transform="translate(307.664148 327.638281) scale(0.11 -0.11)">
       <defs>
        <path id="DejaVuSans-33" d="M 2597 2516 
Q 3050 2419 3304 2112 
Q 3559 1806 3559 1356 
Q 3559 666 3084 287 
Q 2609 -91 1734 -91 
Q 1441 -91 1130 -33 
Q 819 25 488 141 
L 488 750 
Q 750 597 1062 519 
Q 1375 441 1716 441 
Q 2309 441 2620 675 
Q 2931 909 2931 1356 
Q 2931 1769 2642 2001 
Q 2353 2234 1838 2234 
L 1294 2234 
L 1294 2753 
L 1863 2753 
Q 2328 2753 2575 2939 
Q 2822 3125 2822 3475 
Q 2822 3834 2567 4026 
Q 2313 4219 1838 4219 
Q 1578 4219 1281 4162 
Q 984 4106 628 3988 
L 628 4550 
Q 988 4650 1302 4700 
Q 1616 4750 1894 4750 
Q 2613 4750 3031 4423 
Q 3450 4097 3450 3541 
Q 3450 3153 3228 2886 
Q 3006 2619 2597 2516 
z
" transform="scale(0.015625)"/>
       </defs>
       <use xlink:href="#DejaVuSans-33"/>
       <use xlink:href="#DejaVuSans-30" x="63.623047"/>
       <use xlink:href="#DejaVuSans-30" x="127.246094"/>
      </g>
     </g>
    </g>
    <g id="xtick_5">
     <g id="line2d_5">
      <path d="M 398.556818 309.78 
L 398.556818 29.04 
" clip-path="url(#p05ae09f5db)" style="fill: none; stroke: #ffffff; stroke-linecap: round"/>
     </g>
     <g id="text_5">
      <!-- 400 -->
      <g style="fill: #262626" transform="translate(388.058693 327.638281) scale(0.11 -0.11)">
       <defs>
        <path id="DejaVuSans-34" d="M 2419 4116 
L 825 1625 
L 2419 1625 
L 2419 4116 
z
M 2253 4666 
L 3047 4666 
L 3047 1625 
L 3713 1625 
L 3713 1100 
L 3047 1100 
L 3047 0 
L 2419 0 
L 2419 1100 
L 313 1100 
L 313 1709 
L 2253 4666 
z
" transform="scale(0.015625)"/>
       </defs>
       <use xlink:href="#DejaVuSans-34"/>
       <use xlink:href="#DejaVuSans-30" x="63.623047"/>
       <use xlink:href="#DejaVuSans-30" x="127.246094"/>
      </g>
     </g>
    </g>
    <g id="xtick_6">
     <g id="line2d_6">
      <path d="M 478.951364 309.78 
L 478.951364 29.04 
" clip-path="url(#p05ae09f5db)" style="fill: none; stroke: #ffffff; stroke-linecap: round"/>
     </g>
     <g id="text_6">
      <!-- 500 -->
      <g style="fill: #262626" transform="translate(468.453239 327.638281) scale(0.11 -0.11)">
       <defs>
        <path id="DejaVuSans-35" d="M 691 4666 
L 3169 4666 
L 3169 4134 
L 1269 4134 
L 1269 2991 
Q 1406 3038 1543 3061 
Q 1681 3084 1819 3084 
Q 2600 3084 3056 2656 
Q 3513 2228 3513 1497 
Q 3513 744 3044 326 
Q 2575 -91 1722 -91 
Q 1428 -91 1123 -41 
Q 819 9 494 109 
L 494 744 
Q 775 591 1075 516 
Q 1375 441 1709 441 
Q 2250 441 2565 725 
Q 2881 1009 2881 1497 
Q 2881 1984 2565 2268 
Q 2250 2553 1709 2553 
Q 1456 2553 1204 2497 
Q 953 2441 691 2322 
L 691 4666 
z
" transform="scale(0.015625)"/>
       </defs>
       <use xlink:href="#DejaVuSans-35"/>
       <use xlink:href="#DejaVuSans-30" x="63.623047"/>
       <use xlink:href="#DejaVuSans-30" x="127.246094"/>
      </g>
     </g>
    </g>
    <g id="text_7">
     <!-- Depth -->
     <g style="fill: #262626" transform="translate(259.689375 343.044062) scale(0.12 -0.12)">
      <defs>
       <path id="DejaVuSans-44" d="M 1259 4147 
L 1259 519 
L 2022 519 
Q 2988 519 3436 956 
Q 3884 1394 3884 2338 
Q 3884 3275 3436 3711 
Q 2988 4147 2022 4147 
L 1259 4147 
z
M 628 4666 
L 1925 4666 
Q 3281 4666 3915 4102 
Q 4550 3538 4550 2338 
Q 4550 1131 3912 565 
Q 3275 0 1925 0 
L 628 0 
L 628 4666 
z
" transform="scale(0.015625)"/>
       <path id="DejaVuSans-65" d="M 3597 1894 
L 3597 1613 
L 953 1613 
Q 991 1019 1311 708 
Q 1631 397 2203 397 
Q 2534 397 2845 478 
Q 3156 559 3463 722 
L 3463 178 
Q 3153 47 2828 -22 
Q 2503 -91 2169 -91 
Q 1331 -91 842 396 
Q 353 884 353 1716 
Q 353 2575 817 3079 
Q 1281 3584 2069 3584 
Q 2775 3584 3186 3129 
Q 3597 2675 3597 1894 
z
M 3022 2063 
Q 3016 2534 2758 2815 
Q 2500 3097 2075 3097 
Q 1594 3097 1305 2825 
Q 1016 2553 972 2059 
L 3022 2063 
z
" transform="scale(0.015625)"/>
       <path id="DejaVuSans-70" d="M 1159 525 
L 1159 -1331 
L 581 -1331 
L 581 3500 
L 1159 3500 
L 1159 2969 
Q 1341 3281 1617 3432 
Q 1894 3584 2278 3584 
Q 2916 3584 3314 3078 
Q 3713 2572 3713 1747 
Q 3713 922 3314 415 
Q 2916 -91 2278 -91 
Q 1894 -91 1617 61 
Q 1341 213 1159 525 
z
M 3116 1747 
Q 3116 2381 2855 2742 
Q 2594 3103 2138 3103 
Q 1681 3103 1420 2742 
Q 1159 2381 1159 1747 
Q 1159 1113 1420 752 
Q 1681 391 2138 391 
Q 2594 391 2855 752 
Q 3116 1113 3116 1747 
z
" transform="scale(0.015625)"/>
       <path id="DejaVuSans-74" d="M 1172 4494 
L 1172 3500 
L 2356 3500 
L 2356 3053 
L 1172 3053 
L 1172 1153 
Q 1172 725 1289 603 
Q 1406 481 1766 481 
L 2356 481 
L 2356 0 
L 1766 0 
Q 1100 0 847 248 
Q 594 497 594 1153 
L 594 3053 
L 172 3053 
L 172 3500 
L 594 3500 
L 594 4494 
L 1172 4494 
z
" transform="scale(0.015625)"/>
       <path id="DejaVuSans-68" d="M 3513 2113 
L 3513 0 
L 2938 0 
L 2938 2094 
Q 2938 2591 2744 2837 
Q 2550 3084 2163 3084 
Q 1697 3084 1428 2787 
Q 1159 2491 1159 1978 
L 1159 0 
L 581 0 
L 581 4863 
L 1159 4863 
L 1159 2956 
Q 1366 3272 1645 3428 
Q 1925 3584 2291 3584 
Q 2894 3584 3203 3211 
Q 3513 2838 3513 2113 
z
" transform="scale(0.015625)"/>
      </defs>
      <use xlink:href="#DejaVuSans-44"/>
      <use xlink:href="#DejaVuSans-65" x="77.001953"/>
      <use xlink:href="#DejaVuSans-70" x="138.525391"/>
      <use xlink:href="#DejaVuSans-74" x="202.001953"/>
      <use xlink:href="#DejaVuSans-68" x="241.210938"/>
     </g>
    </g>
   </g>
   <g id="matplotlib.axis_2">
    <g id="ytick_1">
     <g id="line2d_7">
      <path d="M 56.88 276.32162 
L 499.05 276.32162 
" clip-path="url(#p05ae09f5db)" style="fill: none; stroke: #ffffff; stroke-linecap: round"/>
     </g>
     <g id="text_8">
      <!-- 1.0 -->
      <g style="fill: #262626" transform="translate(29.886563 280.500761) scale(0.11 -0.11)">
       <defs>
        <path id="DejaVuSans-2e" d="M 684 794 
L 1344 794 
L 1344 0 
L 684 0 
L 684 794 
z
" transform="scale(0.015625)"/>
       </defs>
       <use xlink:href="#DejaVuSans-31"/>
       <use xlink:href="#DejaVuSans-2e" x="63.623047"/>
       <use xlink:href="#DejaVuSans-30" x="95.410156"/>
      </g>
     </g>
    </g>
    <g id="ytick_2">
     <g id="line2d_8">
      <path d="M 56.88 223.177463 
L 499.05 223.177463 
" clip-path="url(#p05ae09f5db)" style="fill: none; stroke: #ffffff; stroke-linecap: round"/>
     </g>
     <g id="text_9">
      <!-- 1.2 -->
      <g style="fill: #262626" transform="translate(29.886563 227.356603) scale(0.11 -0.11)">
       <use xlink:href="#DejaVuSans-31"/>
       <use xlink:href="#DejaVuSans-2e" x="63.623047"/>
       <use xlink:href="#DejaVuSans-32" x="95.410156"/>
      </g>
     </g>
    </g>
    <g id="ytick_3">
     <g id="line2d_9">
      <path d="M 56.88 170.033305 
L 499.05 170.033305 
" clip-path="url(#p05ae09f5db)" style="fill: none; stroke: #ffffff; stroke-linecap: round"/>
     </g>
     <g id="text_10">
      <!-- 1.4 -->
      <g style="fill: #262626" transform="translate(29.886563 174.212446) scale(0.11 -0.11)">
       <use xlink:href="#DejaVuSans-31"/>
       <use xlink:href="#DejaVuSans-2e" x="63.623047"/>
       <use xlink:href="#DejaVuSans-34" x="95.410156"/>
      </g>
     </g>
    </g>
    <g id="ytick_4">
     <g id="line2d_10">
      <path d="M 56.88 116.889148 
L 499.05 116.889148 
" clip-path="url(#p05ae09f5db)" style="fill: none; stroke: #ffffff; stroke-linecap: round"/>
     </g>
     <g id="text_11">
      <!-- 1.6 -->
      <g style="fill: #262626" transform="translate(29.886563 121.068289) scale(0.11 -0.11)">
       <defs>
        <path id="DejaVuSans-36" d="M 2113 2584 
Q 1688 2584 1439 2293 
Q 1191 2003 1191 1497 
Q 1191 994 1439 701 
Q 1688 409 2113 409 
Q 2538 409 2786 701 
Q 3034 994 3034 1497 
Q 3034 2003 2786 2293 
Q 2538 2584 2113 2584 
z
M 3366 4563 
L 3366 3988 
Q 3128 4100 2886 4159 
Q 2644 4219 2406 4219 
Q 1781 4219 1451 3797 
Q 1122 3375 1075 2522 
Q 1259 2794 1537 2939 
Q 1816 3084 2150 3084 
Q 2853 3084 3261 2657 
Q 3669 2231 3669 1497 
Q 3669 778 3244 343 
Q 2819 -91 2113 -91 
Q 1303 -91 875 529 
Q 447 1150 447 2328 
Q 447 3434 972 4092 
Q 1497 4750 2381 4750 
Q 2619 4750 2861 4703 
Q 3103 4656 3366 4563 
z
" transform="scale(0.015625)"/>
       </defs>
       <use xlink:href="#DejaVuSans-31"/>
       <use xlink:href="#DejaVuSans-2e" x="63.623047"/>
       <use xlink:href="#DejaVuSans-36" x="95.410156"/>
      </g>
     </g>
    </g>
    <g id="ytick_5">
     <g id="line2d_11">
      <path d="M 56.88 63.744991 
L 499.05 63.744991 
" clip-path="url(#p05ae09f5db)" style="fill: none; stroke: #ffffff; stroke-linecap: round"/>
     </g>
     <g id="text_12">
      <!-- 1.8 -->
      <g style="fill: #262626" transform="translate(29.886563 67.924131) scale(0.11 -0.11)">
       <defs>
        <path id="DejaVuSans-38" d="M 2034 2216 
Q 1584 2216 1326 1975 
Q 1069 1734 1069 1313 
Q 1069 891 1326 650 
Q 1584 409 2034 409 
Q 2484 409 2743 651 
Q 3003 894 3003 1313 
Q 3003 1734 2745 1975 
Q 2488 2216 2034 2216 
z
M 1403 2484 
Q 997 2584 770 2862 
Q 544 3141 544 3541 
Q 544 4100 942 4425 
Q 1341 4750 2034 4750 
Q 2731 4750 3128 4425 
Q 3525 4100 3525 3541 
Q 3525 3141 3298 2862 
Q 3072 2584 2669 2484 
Q 3125 2378 3379 2068 
Q 3634 1759 3634 1313 
Q 3634 634 3220 271 
Q 2806 -91 2034 -91 
Q 1263 -91 848 271 
Q 434 634 434 1313 
Q 434 1759 690 2068 
Q 947 2378 1403 2484 
z
M 1172 3481 
Q 1172 3119 1398 2916 
Q 1625 2713 2034 2713 
Q 2441 2713 2670 2916 
Q 2900 3119 2900 3481 
Q 2900 3844 2670 4047 
Q 2441 4250 2034 4250 
Q 1625 4250 1398 4047 
Q 1172 3844 1172 3481 
z
" transform="scale(0.015625)"/>
       </defs>
       <use xlink:href="#DejaVuSans-31"/>
       <use xlink:href="#DejaVuSans-2e" x="63.623047"/>
       <use xlink:href="#DejaVuSans-38" x="95.410156"/>
      </g>
     </g>
    </g>
    <g id="text_13">
     <!-- Average Number of Bounds -->
     <g style="fill: #262626" transform="translate(23.390937 251.984063) rotate(-90) scale(0.12 -0.12)">
      <defs>
       <path id="DejaVuSans-41" d="M 2188 4044 
L 1331 1722 
L 3047 1722 
L 2188 4044 
z
M 1831 4666 
L 2547 4666 
L 4325 0 
L 3669 0 
L 3244 1197 
L 1141 1197 
L 716 0 
L 50 0 
L 1831 4666 
z
" transform="scale(0.015625)"/>
       <path id="DejaVuSans-76" d="M 191 3500 
L 800 3500 
L 1894 563 
L 2988 3500 
L 3597 3500 
L 2284 0 
L 1503 0 
L 191 3500 
z
" transform="scale(0.015625)"/>
       <path id="DejaVuSans-72" d="M 2631 2963 
Q 2534 3019 2420 3045 
Q 2306 3072 2169 3072 
Q 1681 3072 1420 2755 
Q 1159 2438 1159 1844 
L 1159 0 
L 581 0 
L 581 3500 
L 1159 3500 
L 1159 2956 
Q 1341 3275 1631 3429 
Q 1922 3584 2338 3584 
Q 2397 3584 2469 3576 
Q 2541 3569 2628 3553 
L 2631 2963 
z
" transform="scale(0.015625)"/>
       <path id="DejaVuSans-61" d="M 2194 1759 
Q 1497 1759 1228 1600 
Q 959 1441 959 1056 
Q 959 750 1161 570 
Q 1363 391 1709 391 
Q 2188 391 2477 730 
Q 2766 1069 2766 1631 
L 2766 1759 
L 2194 1759 
z
M 3341 1997 
L 3341 0 
L 2766 0 
L 2766 531 
Q 2569 213 2275 61 
Q 1981 -91 1556 -91 
Q 1019 -91 701 211 
Q 384 513 384 1019 
Q 384 1609 779 1909 
Q 1175 2209 1959 2209 
L 2766 2209 
L 2766 2266 
Q 2766 2663 2505 2880 
Q 2244 3097 1772 3097 
Q 1472 3097 1187 3025 
Q 903 2953 641 2809 
L 641 3341 
Q 956 3463 1253 3523 
Q 1550 3584 1831 3584 
Q 2591 3584 2966 3190 
Q 3341 2797 3341 1997 
z
" transform="scale(0.015625)"/>
       <path id="DejaVuSans-67" d="M 2906 1791 
Q 2906 2416 2648 2759 
Q 2391 3103 1925 3103 
Q 1463 3103 1205 2759 
Q 947 2416 947 1791 
Q 947 1169 1205 825 
Q 1463 481 1925 481 
Q 2391 481 2648 825 
Q 2906 1169 2906 1791 
z
M 3481 434 
Q 3481 -459 3084 -895 
Q 2688 -1331 1869 -1331 
Q 1566 -1331 1297 -1286 
Q 1028 -1241 775 -1147 
L 775 -588 
Q 1028 -725 1275 -790 
Q 1522 -856 1778 -856 
Q 2344 -856 2625 -561 
Q 2906 -266 2906 331 
L 2906 616 
Q 2728 306 2450 153 
Q 2172 0 1784 0 
Q 1141 0 747 490 
Q 353 981 353 1791 
Q 353 2603 747 3093 
Q 1141 3584 1784 3584 
Q 2172 3584 2450 3431 
Q 2728 3278 2906 2969 
L 2906 3500 
L 3481 3500 
L 3481 434 
z
" transform="scale(0.015625)"/>
       <path id="DejaVuSans-20" transform="scale(0.015625)"/>
       <path id="DejaVuSans-4e" d="M 628 4666 
L 1478 4666 
L 3547 763 
L 3547 4666 
L 4159 4666 
L 4159 0 
L 3309 0 
L 1241 3903 
L 1241 0 
L 628 0 
L 628 4666 
z
" transform="scale(0.015625)"/>
       <path id="DejaVuSans-75" d="M 544 1381 
L 544 3500 
L 1119 3500 
L 1119 1403 
Q 1119 906 1312 657 
Q 1506 409 1894 409 
Q 2359 409 2629 706 
Q 2900 1003 2900 1516 
L 2900 3500 
L 3475 3500 
L 3475 0 
L 2900 0 
L 2900 538 
Q 2691 219 2414 64 
Q 2138 -91 1772 -91 
Q 1169 -91 856 284 
Q 544 659 544 1381 
z
M 1991 3584 
L 1991 3584 
z
" transform="scale(0.015625)"/>
       <path id="DejaVuSans-6d" d="M 3328 2828 
Q 3544 3216 3844 3400 
Q 4144 3584 4550 3584 
Q 5097 3584 5394 3201 
Q 5691 2819 5691 2113 
L 5691 0 
L 5113 0 
L 5113 2094 
Q 5113 2597 4934 2840 
Q 4756 3084 4391 3084 
Q 3944 3084 3684 2787 
Q 3425 2491 3425 1978 
L 3425 0 
L 2847 0 
L 2847 2094 
Q 2847 2600 2669 2842 
Q 2491 3084 2119 3084 
Q 1678 3084 1418 2786 
Q 1159 2488 1159 1978 
L 1159 0 
L 581 0 
L 581 3500 
L 1159 3500 
L 1159 2956 
Q 1356 3278 1631 3431 
Q 1906 3584 2284 3584 
Q 2666 3584 2933 3390 
Q 3200 3197 3328 2828 
z
" transform="scale(0.015625)"/>
       <path id="DejaVuSans-62" d="M 3116 1747 
Q 3116 2381 2855 2742 
Q 2594 3103 2138 3103 
Q 1681 3103 1420 2742 
Q 1159 2381 1159 1747 
Q 1159 1113 1420 752 
Q 1681 391 2138 391 
Q 2594 391 2855 752 
Q 3116 1113 3116 1747 
z
M 1159 2969 
Q 1341 3281 1617 3432 
Q 1894 3584 2278 3584 
Q 2916 3584 3314 3078 
Q 3713 2572 3713 1747 
Q 3713 922 3314 415 
Q 2916 -91 2278 -91 
Q 1894 -91 1617 61 
Q 1341 213 1159 525 
L 1159 0 
L 581 0 
L 581 4863 
L 1159 4863 
L 1159 2969 
z
" transform="scale(0.015625)"/>
       <path id="DejaVuSans-6f" d="M 1959 3097 
Q 1497 3097 1228 2736 
Q 959 2375 959 1747 
Q 959 1119 1226 758 
Q 1494 397 1959 397 
Q 2419 397 2687 759 
Q 2956 1122 2956 1747 
Q 2956 2369 2687 2733 
Q 2419 3097 1959 3097 
z
M 1959 3584 
Q 2709 3584 3137 3096 
Q 3566 2609 3566 1747 
Q 3566 888 3137 398 
Q 2709 -91 1959 -91 
Q 1206 -91 779 398 
Q 353 888 353 1747 
Q 353 2609 779 3096 
Q 1206 3584 1959 3584 
z
" transform="scale(0.015625)"/>
       <path id="DejaVuSans-66" d="M 2375 4863 
L 2375 4384 
L 1825 4384 
Q 1516 4384 1395 4259 
Q 1275 4134 1275 3809 
L 1275 3500 
L 2222 3500 
L 2222 3053 
L 1275 3053 
L 1275 0 
L 697 0 
L 697 3053 
L 147 3053 
L 147 3500 
L 697 3500 
L 697 3744 
Q 697 4328 969 4595 
Q 1241 4863 1831 4863 
L 2375 4863 
z
" transform="scale(0.015625)"/>
       <path id="DejaVuSans-42" d="M 1259 2228 
L 1259 519 
L 2272 519 
Q 2781 519 3026 730 
Q 3272 941 3272 1375 
Q 3272 1813 3026 2020 
Q 2781 2228 2272 2228 
L 1259 2228 
z
M 1259 4147 
L 1259 2741 
L 2194 2741 
Q 2656 2741 2882 2914 
Q 3109 3088 3109 3444 
Q 3109 3797 2882 3972 
Q 2656 4147 2194 4147 
L 1259 4147 
z
M 628 4666 
L 2241 4666 
Q 2963 4666 3353 4366 
Q 3744 4066 3744 3513 
Q 3744 3084 3544 2831 
Q 3344 2578 2956 2516 
Q 3422 2416 3680 2098 
Q 3938 1781 3938 1306 
Q 3938 681 3513 340 
Q 3088 0 2303 0 
L 628 0 
L 628 4666 
z
" transform="scale(0.015625)"/>
       <path id="DejaVuSans-6e" d="M 3513 2113 
L 3513 0 
L 2938 0 
L 2938 2094 
Q 2938 2591 2744 2837 
Q 2550 3084 2163 3084 
Q 1697 3084 1428 2787 
Q 1159 2491 1159 1978 
L 1159 0 
L 581 0 
L 581 3500 
L 1159 3500 
L 1159 2956 
Q 1366 3272 1645 3428 
Q 1925 3584 2291 3584 
Q 2894 3584 3203 3211 
Q 3513 2838 3513 2113 
z
" transform="scale(0.015625)"/>
       <path id="DejaVuSans-64" d="M 2906 2969 
L 2906 4863 
L 3481 4863 
L 3481 0 
L 2906 0 
L 2906 525 
Q 2725 213 2448 61 
Q 2172 -91 1784 -91 
Q 1150 -91 751 415 
Q 353 922 353 1747 
Q 353 2572 751 3078 
Q 1150 3584 1784 3584 
Q 2172 3584 2448 3432 
Q 2725 3281 2906 2969 
z
M 947 1747 
Q 947 1113 1208 752 
Q 1469 391 1925 391 
Q 2381 391 2643 752 
Q 2906 1113 2906 1747 
Q 2906 2381 2643 2742 
Q 2381 3103 1925 3103 
Q 1469 3103 1208 2742 
Q 947 2381 947 1747 
z
" transform="scale(0.015625)"/>
       <path id="DejaVuSans-73" d="M 2834 3397 
L 2834 2853 
Q 2591 2978 2328 3040 
Q 2066 3103 1784 3103 
Q 1356 3103 1142 2972 
Q 928 2841 928 2578 
Q 928 2378 1081 2264 
Q 1234 2150 1697 2047 
L 1894 2003 
Q 2506 1872 2764 1633 
Q 3022 1394 3022 966 
Q 3022 478 2636 193 
Q 2250 -91 1575 -91 
Q 1294 -91 989 -36 
Q 684 19 347 128 
L 347 722 
Q 666 556 975 473 
Q 1284 391 1588 391 
Q 1994 391 2212 530 
Q 2431 669 2431 922 
Q 2431 1156 2273 1281 
Q 2116 1406 1581 1522 
L 1381 1569 
Q 847 1681 609 1914 
Q 372 2147 372 2553 
Q 372 3047 722 3315 
Q 1072 3584 1716 3584 
Q 2034 3584 2315 3537 
Q 2597 3491 2834 3397 
z
" transform="scale(0.015625)"/>
      </defs>
      <use xlink:href="#DejaVuSans-41"/>
      <use xlink:href="#DejaVuSans-76" x="62.533203"/>
      <use xlink:href="#DejaVuSans-65" x="121.712891"/>
      <use xlink:href="#DejaVuSans-72" x="183.236328"/>
      <use xlink:href="#DejaVuSans-61" x="224.349609"/>
      <use xlink:href="#DejaVuSans-67" x="285.628906"/>
      <use xlink:href="#DejaVuSans-65" x="349.105469"/>
      <use xlink:href="#DejaVuSans-20" x="410.628906"/>
      <use xlink:href="#DejaVuSans-4e" x="442.416016"/>
      <use xlink:href="#DejaVuSans-75" x="517.220703"/>
      <use xlink:href="#DejaVuSans-6d" x="580.599609"/>
      <use xlink:href="#DejaVuSans-62" x="678.011719"/>
      <use xlink:href="#DejaVuSans-65" x="741.488281"/>
      <use xlink:href="#DejaVuSans-72" x="803.011719"/>
      <use xlink:href="#DejaVuSans-20" x="844.125"/>
      <use xlink:href="#DejaVuSans-6f" x="875.912109"/>
      <use xlink:href="#DejaVuSans-66" x="937.09375"/>
      <use xlink:href="#DejaVuSans-20" x="972.298828"/>
      <use xlink:href="#DejaVuSans-42" x="1004.085938"/>
      <use xlink:href="#DejaVuSans-6f" x="1072.689453"/>
      <use xlink:href="#DejaVuSans-75" x="1133.871094"/>
      <use xlink:href="#DejaVuSans-6e" x="1197.25"/>
      <use xlink:href="#DejaVuSans-64" x="1260.628906"/>
      <use xlink:href="#DejaVuSans-73" x="1324.105469"/>
     </g>
    </g>
   </g>
   <g id="PolyCollection_1">
    <defs>
     <path id="mde00695324" d="M 76.978636 -129.416072 
L 76.978636 -99.637628 
L 78.9986 -164.033039 
L 81.018563 -199.516907 
L 83.038527 -208.694685 
L 85.05849 -202.037367 
L 87.078454 -188.826879 
L 89.098417 -181.681933 
L 91.118381 -186.047675 
L 93.138344 -198.918963 
L 95.158307 -209.416046 
L 97.178271 -212.745942 
L 99.198234 -212.365698 
L 101.218198 -212.629439 
L 103.238161 -214.713667 
L 105.258125 -216.345674 
L 107.278088 -218.294182 
L 109.298052 -221.622103 
L 111.318015 -226.358104 
L 113.337979 -229.249154 
L 115.357942 -232.045758 
L 117.377905 -236.40852 
L 119.397869 -242.788814 
L 121.417832 -247.028578 
L 123.437796 -249.949807 
L 125.457759 -253.859864 
L 127.477723 -259.167756 
L 129.497686 -264.556204 
L 131.51765 -269.491849 
L 133.537613 -274.995931 
L 135.557577 -280.74914 
L 137.57754 -283.94615 
L 139.597503 -284.914771 
L 141.617467 -289.221012 
L 143.63743 -292.443389 
L 145.657394 -293.440251 
L 147.677357 -295.045111 
L 149.697321 -295.896814 
L 151.717284 -293.914371 
L 153.737248 -291.841828 
L 155.757211 -293.289361 
L 157.777175 -294.372911 
L 159.797138 -293.249637 
L 161.817101 -291.833455 
L 163.837065 -288.991144 
L 165.857028 -283.844233 
L 167.876992 -283.544697 
L 169.896955 -286.235717 
L 171.916919 -285.136509 
L 173.936882 -281.036467 
L 175.956846 -276.769701 
L 177.976809 -278.301481 
L 179.996772 -280.675584 
L 182.016736 -282.268379 
L 184.036699 -280.512989 
L 186.056663 -278.97313 
L 188.076626 -279.637144 
L 190.09659 -281.251072 
L 192.116553 -278.453011 
L 194.136517 -277.548725 
L 196.15648 -278.359299 
L 198.176444 -280.0619 
L 200.196407 -278.417434 
L 202.21637 -274.287899 
L 204.236334 -272.598329 
L 206.256297 -272.479723 
L 208.276261 -269.87049 
L 210.296224 -269.554143 
L 212.316188 -268.916 
L 214.336151 -269.237429 
L 216.356115 -270.112136 
L 218.376078 -270.388636 
L 220.396042 -267.613757 
L 222.416005 -267.036713 
L 224.435968 -261.689763 
L 226.455932 -256.652498 
L 228.475895 -254.937148 
L 230.495859 -259.822159 
L 232.515822 -264.613801 
L 234.535786 -260.896561 
L 236.555749 -254.96022 
L 238.575713 -258.170773 
L 240.595676 -260.257848 
L 242.61564 -253.039178 
L 244.635603 -244.499166 
L 246.655566 -244.940932 
L 248.67553 -246.31038 
L 250.695493 -240.850353 
L 252.715457 -234.731628 
L 254.73542 -230.112168 
L 256.755384 -230.215025 
L 258.775347 -230.554498 
L 260.795311 -224.458481 
L 262.815274 -219.260668 
L 264.835238 -215.00468 
L 266.855201 -208.327439 
L 268.875164 -203.061671 
L 270.895128 -203.252773 
L 272.915091 -204.002499 
L 274.935055 -205.673552 
L 276.955018 -206.510528 
L 278.974982 -200.305738 
L 280.994945 -194.592136 
L 283.014909 -189.209109 
L 285.034872 -187.238549 
L 287.054836 -184.200984 
L 289.074799 -178.746955 
L 291.094762 -170.158807 
L 293.114726 -167.30842 
L 295.134689 -166.306887 
L 297.154653 -160.281358 
L 299.174616 -154.929707 
L 301.19458 -153.840603 
L 303.214543 -152.354384 
L 305.234507 -150.272797 
L 307.25447 -148.753229 
L 309.274434 -144.56882 
L 311.294397 -135.982937 
L 313.31436 -129.360724 
L 315.334324 -126.625574 
L 317.354287 -124.276437 
L 319.374251 -119.389492 
L 321.394214 -114.182664 
L 323.414178 -111.432615 
L 325.434141 -108.555184 
L 327.454105 -107.74237 
L 329.474068 -105.430083 
L 331.494032 -100.645039 
L 333.513995 -101.34789 
L 335.533958 -103.521884 
L 337.553922 -99.516457 
L 339.573885 -93.402694 
L 341.593849 -91.830234 
L 343.613812 -90.867924 
L 345.633776 -88.15461 
L 347.653739 -85.664854 
L 349.673703 -84.181132 
L 351.693666 -83.508334 
L 353.71363 -81.728695 
L 355.733593 -82.36149 
L 357.753556 -84.894587 
L 359.77352 -83.923914 
L 361.793483 -83.546213 
L 363.813447 -82.768307 
L 365.83341 -81.743521 
L 367.853374 -81.641906 
L 369.873337 -82.591642 
L 371.893301 -85.062638 
L 373.913264 -84.463001 
L 375.933228 -84.448286 
L 377.953191 -81.813176 
L 379.973154 -81.071363 
L 381.993118 -82.482231 
L 384.013081 -81.28751 
L 386.033045 -81.387675 
L 388.053008 -81.285678 
L 390.072972 -80.820556 
L 392.092935 -81.010564 
L 394.112899 -80.102879 
L 396.132862 -78.803682 
L 398.152825 -79.58754 
L 400.172789 -80.674524 
L 402.192752 -80.656907 
L 404.212716 -81.955008 
L 406.232679 -81.978714 
L 408.252643 -81.368449 
L 410.272606 -82.663037 
L 412.29257 -80.495219 
L 414.312533 -77.034706 
L 416.332497 -75.787157 
L 418.35246 -75.359313 
L 420.372423 -77.14467 
L 422.392387 -81.260979 
L 424.41235 -80.388088 
L 426.432314 -76.385395 
L 428.452277 -76.013983 
L 430.472241 -77.351123 
L 432.492204 -76.313128 
L 434.512168 -74.784341 
L 436.532131 -72.288108 
L 438.552095 -72.088662 
L 440.572058 -70.494267 
L 442.592021 -72.112157 
L 444.611985 -79.757544 
L 446.631948 -79.428895 
L 448.651912 -73.781861 
L 450.671875 -75.246299 
L 452.691839 -73.532076 
L 454.711802 -66.532102 
L 456.731766 -67.164078 
L 458.751729 -75.280127 
L 460.771693 -73.868124 
L 462.791656 -68.985754 
L 464.811619 -68.006373 
L 466.831583 -71.954919 
L 468.851546 -71.953307 
L 470.87151 -66.44264 
L 472.891473 -69.4036 
L 474.911437 -76.070774 
L 476.9314 -77.070851 
L 478.951364 -81.862007 
L 478.951364 -111.532179 
L 478.951364 -111.532179 
L 476.9314 -136.265958 
L 474.911437 -151.379765 
L 472.891473 -157.765822 
L 470.87151 -154.548052 
L 468.851546 -145.272484 
L 466.831583 -142.309942 
L 464.811619 -145.502723 
L 462.791656 -150.169259 
L 460.771693 -159.867891 
L 458.751729 -165.130272 
L 456.731766 -157.201052 
L 454.711802 -146.949888 
L 452.691839 -145.634806 
L 450.671875 -154.080078 
L 448.651912 -160.425382 
L 446.631948 -161.348373 
L 444.611985 -161.331723 
L 442.592021 -160.928443 
L 440.572058 -158.246396 
L 438.552095 -151.526031 
L 436.532131 -140.193985 
L 434.512168 -127.462882 
L 432.492204 -120.120382 
L 430.472241 -120.908239 
L 428.452277 -124.983487 
L 426.432314 -129.136151 
L 424.41235 -132.891584 
L 422.392387 -132.203771 
L 420.372423 -126.339569 
L 418.35246 -121.329919 
L 416.332497 -118.824786 
L 414.312533 -117.071645 
L 412.29257 -115.499091 
L 410.272606 -112.706634 
L 408.252643 -105.897044 
L 406.232679 -99.563019 
L 404.212716 -98.609057 
L 402.192752 -101.39782 
L 400.172789 -103.165892 
L 398.152825 -106.525799 
L 396.132862 -110.047607 
L 394.112899 -111.61075 
L 392.092935 -110.226994 
L 390.072972 -108.657259 
L 388.053008 -108.25425 
L 386.033045 -108.993216 
L 384.013081 -109.276974 
L 381.993118 -109.894928 
L 379.973154 -111.451193 
L 377.953191 -114.515865 
L 375.933228 -118.382673 
L 373.913264 -119.981577 
L 371.893301 -119.577195 
L 369.873337 -116.908107 
L 367.853374 -114.459824 
L 365.83341 -113.60753 
L 363.813447 -114.954406 
L 361.793483 -117.233202 
L 359.77352 -119.535416 
L 357.753556 -122.044518 
L 355.733593 -123.941552 
L 353.71363 -125.897141 
L 351.693666 -127.702182 
L 349.673703 -129.070804 
L 347.653739 -131.197647 
L 345.633776 -133.941337 
L 343.613812 -137.106407 
L 341.593849 -139.872884 
L 339.573885 -144.316328 
L 337.553922 -150.343429 
L 335.533958 -153.473272 
L 333.513995 -153.032918 
L 331.494032 -152.846963 
L 329.474068 -154.811583 
L 327.454105 -156.958988 
L 325.434141 -159.519484 
L 323.414178 -163.088353 
L 321.394214 -167.487588 
L 319.374251 -172.881907 
L 317.354287 -178.269849 
L 315.334324 -183.001048 
L 313.31436 -188.000791 
L 311.294397 -194.147946 
L 309.274434 -200.35636 
L 307.25447 -204.474262 
L 305.234507 -206.27019 
L 303.214543 -207.057137 
L 301.19458 -207.849305 
L 299.174616 -209.820105 
L 297.154653 -213.775109 
L 295.134689 -218.118598 
L 293.114726 -221.649894 
L 291.094762 -226.296784 
L 289.074799 -232.823243 
L 287.054836 -238.596107 
L 285.034872 -242.681493 
L 283.014909 -246.027014 
L 280.994945 -250.330587 
L 278.974982 -254.817548 
L 276.955018 -258.060449 
L 274.935055 -258.412098 
L 272.915091 -257.15401 
L 270.895128 -255.877207 
L 268.875164 -256.273916 
L 266.855201 -259.892152 
L 264.835238 -265.317852 
L 262.815274 -270.429554 
L 260.795311 -274.759964 
L 258.775347 -277.885732 
L 256.755384 -279.18097 
L 254.73542 -280.530851 
L 252.715457 -283.41887 
L 250.695493 -286.985773 
L 248.67553 -289.801298 
L 246.655566 -291.077136 
L 244.635603 -293.02264 
L 242.61564 -297.232476 
L 240.595676 -301.115593 
L 238.575713 -302.596731 
L 236.555749 -303.227851 
L 234.535786 -304.693331 
L 232.515822 -304.87192 
L 230.495859 -302.647609 
L 228.475895 -300.4413 
L 226.455932 -300.799157 
L 224.435968 -303.551005 
L 222.416005 -306.864736 
L 220.396042 -308.970081 
L 218.376078 -310.207659 
L 216.356115 -310.173798 
L 214.336151 -309.548413 
L 212.316188 -308.895651 
L 210.296224 -308.663087 
L 208.276261 -309.100712 
L 206.256297 -310.449939 
L 204.236334 -311.883 
L 202.21637 -313.649052 
L 200.196407 -315.476252 
L 198.176444 -316.263232 
L 196.15648 -315.821592 
L 194.136517 -315.204689 
L 192.116553 -315.103457 
L 190.09659 -315.465998 
L 188.076626 -315.237096 
L 186.056663 -314.936871 
L 184.036699 -314.864835 
L 182.016736 -314.482697 
L 179.996772 -313.219554 
L 177.976809 -311.820238 
L 175.956846 -311.398265 
L 173.936882 -312.684747 
L 171.916919 -314.219943 
L 169.896955 -314.655691 
L 167.876992 -314.095962 
L 165.857028 -314.296434 
L 163.837065 -315.880193 
L 161.817101 -317.449119 
L 159.797138 -318.199091 
L 157.777175 -317.960685 
L 155.757211 -316.904625 
L 153.737248 -315.902301 
L 151.717284 -315.736382 
L 149.697321 -315.688599 
L 147.677357 -314.818152 
L 145.657394 -313.036748 
L 143.63743 -310.550562 
L 141.617467 -307.276809 
L 139.597503 -303.650045 
L 137.57754 -300.158675 
L 135.557577 -295.907956 
L 133.537613 -290.612251 
L 131.51765 -284.814478 
L 129.497686 -278.94473 
L 127.477723 -273.226417 
L 125.457759 -267.932857 
L 123.437796 -263.25478 
L 121.417832 -258.852432 
L 119.397869 -254.071341 
L 117.377905 -248.900282 
L 115.357942 -244.195602 
L 113.337979 -240.083903 
L 111.318015 -236.170565 
L 109.298052 -232.21087 
L 107.278088 -228.82016 
L 105.258125 -226.296407 
L 103.238161 -224.487765 
L 101.218198 -223.069542 
L 99.198234 -221.671703 
L 97.178271 -218.989073 
L 95.158307 -213.426197 
L 93.138344 -205.177584 
L 91.118381 -197.764771 
L 89.098417 -195.948796 
L 87.078454 -200.889254 
L 85.05849 -208.135414 
L 83.038527 -209.29448 
L 81.018563 -196.954027 
L 78.9986 -168.59646 
L 76.978636 -129.416072 
z
" style="stroke: #ffffff; stroke-opacity: 0.2"/>
    </defs>
    <g clip-path="url(#p05ae09f5db)">
     <use xlink:href="#mde00695324" x="0" y="360" style="fill: #4c72b0; fill-opacity: 0.2; stroke: #ffffff; stroke-opacity: 0.2"/>
    </g>
   </g>
   <g id="PolyCollection_2">
    <defs>
     <path id="md44f6598b1" d="M 76.978636 -131.148204 
L 76.978636 -99.619424 
L 78.9986 -164.973644 
L 81.018563 -199.915058 
L 83.038527 -206.242688 
L 85.05849 -197.677842 
L 87.078454 -184.837291 
L 89.098417 -178.824781 
L 91.118381 -183.578617 
L 93.138344 -195.531078 
L 95.158307 -205.41928 
L 97.178271 -208.933508 
L 99.198234 -209.003684 
L 101.218198 -209.591992 
L 103.238161 -212.326043 
L 105.258125 -214.947924 
L 107.278088 -218.247421 
L 109.298052 -222.873539 
L 111.318015 -227.591777 
L 113.337979 -231.641191 
L 115.357942 -236.552593 
L 117.377905 -240.737018 
L 119.397869 -244.496139 
L 121.417832 -248.543143 
L 123.437796 -254.471697 
L 125.457759 -260.362957 
L 127.477723 -264.295981 
L 129.497686 -266.658704 
L 131.51765 -270.856123 
L 133.537613 -275.735426 
L 135.557577 -279.261273 
L 137.57754 -281.359878 
L 139.597503 -284.254617 
L 141.617467 -287.040089 
L 143.63743 -288.913821 
L 145.657394 -288.669364 
L 147.677357 -289.447813 
L 149.697321 -289.159806 
L 151.717284 -288.220689 
L 153.737248 -288.266579 
L 155.757211 -289.777982 
L 157.777175 -289.267705 
L 159.797138 -288.003606 
L 161.817101 -287.37047 
L 163.837065 -283.660406 
L 165.857028 -281.799144 
L 167.876992 -280.951225 
L 169.896955 -281.585103 
L 171.916919 -280.083121 
L 173.936882 -276.632584 
L 175.956846 -274.950561 
L 177.976809 -275.939701 
L 179.996772 -276.090002 
L 182.016736 -274.186552 
L 184.036699 -271.935958 
L 186.056663 -271.827751 
L 188.076626 -272.87354 
L 190.09659 -275.537872 
L 192.116553 -275.229666 
L 194.136517 -270.999299 
L 196.15648 -266.027279 
L 198.176444 -262.220319 
L 200.196407 -262.453809 
L 202.21637 -265.865123 
L 204.236334 -270.340895 
L 206.256297 -268.841099 
L 208.276261 -262.077273 
L 210.296224 -259.672672 
L 212.316188 -254.60054 
L 214.336151 -253.997491 
L 216.356115 -260.97816 
L 218.376078 -261.234811 
L 220.396042 -259.412855 
L 222.416005 -260.035905 
L 224.435968 -257.238873 
L 226.455932 -256.119939 
L 228.475895 -257.688694 
L 230.495859 -258.159099 
L 232.515822 -255.584248 
L 234.535786 -255.255514 
L 236.555749 -255.727319 
L 238.575713 -254.912847 
L 240.595676 -252.785539 
L 242.61564 -257.427559 
L 244.635603 -259.114919 
L 246.655566 -248.449081 
L 248.67553 -237.605376 
L 250.695493 -228.604569 
L 252.715457 -221.389282 
L 254.73542 -221.291204 
L 256.755384 -223.093213 
L 258.775347 -218.537635 
L 260.795311 -214.920635 
L 262.815274 -213.005955 
L 264.835238 -207.3659 
L 266.855201 -200.394892 
L 268.875164 -199.636305 
L 270.895128 -198.270543 
L 272.915091 -189.191977 
L 274.935055 -181.148504 
L 276.955018 -178.604557 
L 278.974982 -175.686628 
L 280.994945 -172.070259 
L 283.014909 -166.491863 
L 285.034872 -162.601596 
L 287.054836 -153.556186 
L 289.074799 -148.849541 
L 291.094762 -145.748362 
L 293.114726 -144.444353 
L 295.134689 -143.261142 
L 297.154653 -142.3312 
L 299.174616 -139.162912 
L 301.19458 -133.464432 
L 303.214543 -128.30345 
L 305.234507 -125.754459 
L 307.25447 -126.662088 
L 309.274434 -125.052606 
L 311.294397 -118.032932 
L 313.31436 -114.77358 
L 315.334324 -114.271219 
L 317.354287 -113.615783 
L 319.374251 -112.379411 
L 321.394214 -109.902932 
L 323.414178 -106.29295 
L 325.434141 -100.773799 
L 327.454105 -97.08368 
L 329.474068 -94.5259 
L 331.494032 -91.023278 
L 333.513995 -91.325694 
L 335.533958 -94.666255 
L 337.553922 -94.960932 
L 339.573885 -94.222116 
L 341.593849 -95.012312 
L 343.613812 -92.937397 
L 345.633776 -90.452772 
L 347.653739 -87.954022 
L 349.673703 -87.381368 
L 351.693666 -87.303453 
L 353.71363 -85.390486 
L 355.733593 -85.457718 
L 357.753556 -86.648627 
L 359.77352 -85.22236 
L 361.793483 -85.791341 
L 363.813447 -84.502516 
L 365.83341 -82.421206 
L 367.853374 -81.579184 
L 369.873337 -82.883982 
L 371.893301 -85.008336 
L 373.913264 -84.804292 
L 375.933228 -85.255902 
L 377.953191 -82.439094 
L 379.973154 -80.778181 
L 381.993118 -81.625757 
L 384.013081 -80.812848 
L 386.033045 -81.136483 
L 388.053008 -80.564542 
L 390.072972 -79.570004 
L 392.092935 -79.795214 
L 394.112899 -79.191555 
L 396.132862 -78.262941 
L 398.152825 -79.05784 
L 400.172789 -80.222692 
L 402.192752 -79.733512 
L 404.212716 -81.547146 
L 406.232679 -81.937623 
L 408.252643 -80.625678 
L 410.272606 -80.910153 
L 412.29257 -79.219691 
L 414.312533 -76.31092 
L 416.332497 -75.487099 
L 418.35246 -75.154675 
L 420.372423 -75.89338 
L 422.392387 -77.838079 
L 424.41235 -77.186157 
L 426.432314 -75.14163 
L 428.452277 -75.73874 
L 430.472241 -77.181083 
L 432.492204 -75.944689 
L 434.512168 -74.281668 
L 436.532131 -71.542452 
L 438.552095 -71.326069 
L 440.572058 -69.493882 
L 442.592021 -71.152057 
L 444.611985 -79.569747 
L 446.631948 -79.156214 
L 448.651912 -72.874154 
L 450.671875 -74.58365 
L 452.691839 -72.732765 
L 454.711802 -64.986756 
L 456.731766 -65.694137 
L 458.751729 -74.738587 
L 460.771693 -73.09199 
L 462.791656 -67.69724 
L 464.811619 -66.684415 
L 466.831583 -71.00833 
L 468.851546 -70.304856 
L 470.87151 -62.980909 
L 472.891473 -66.416649 
L 474.911437 -74.627493 
L 476.9314 -75.720745 
L 478.951364 -81.519299 
L 478.951364 -116.873796 
L 478.951364 -116.873796 
L 476.9314 -145.39726 
L 474.911437 -162.888983 
L 472.891473 -170.000082 
L 470.87151 -165.400411 
L 468.851546 -153.229756 
L 466.831583 -148.006247 
L 464.811619 -150.27399 
L 462.791656 -154.90849 
L 460.771693 -165.061927 
L 458.751729 -170.644694 
L 456.731766 -162.520915 
L 454.711802 -151.892315 
L 452.691839 -150.47909 
L 450.671875 -159.203795 
L 448.651912 -165.793074 
L 446.631948 -166.72318 
L 444.611985 -166.632322 
L 442.592021 -166.087263 
L 440.572058 -163.06677 
L 438.552095 -155.77598 
L 436.532131 -143.723592 
L 434.512168 -130.25696 
L 432.492204 -122.171239 
L 430.472241 -121.89272 
L 428.452277 -124.072314 
L 426.432314 -125.46508 
L 424.41235 -127.102905 
L 422.392387 -126.730186 
L 420.372423 -123.346721 
L 418.35246 -120.245755 
L 416.332497 -117.935309 
L 414.312533 -115.400957 
L 412.29257 -113.289857 
L 410.272606 -110.543424 
L 408.252643 -104.616377 
L 406.232679 -98.960155 
L 404.212716 -97.872338 
L 402.192752 -100.038991 
L 400.172789 -101.155057 
L 398.152825 -103.656064 
L 396.132862 -106.605614 
L 394.112899 -107.419769 
L 392.092935 -105.218165 
L 390.072972 -103.088793 
L 388.053008 -103.402258 
L 386.033045 -106.311868 
L 384.013081 -109.903986 
L 381.993118 -115.373179 
L 379.973154 -121.801972 
L 377.953191 -126.119362 
L 375.933228 -127.989673 
L 373.913264 -125.948905 
L 371.893301 -123.247912 
L 369.873337 -121.19345 
L 367.853374 -121.165416 
L 365.83341 -122.900105 
L 363.813447 -124.900376 
L 361.793483 -126.058312 
L 359.77352 -126.565354 
L 357.753556 -127.103357 
L 355.733593 -127.443597 
L 353.71363 -128.126268 
L 351.693666 -128.671219 
L 349.673703 -129.335916 
L 347.653739 -131.885773 
L 345.633776 -135.876666 
L 343.613812 -139.042876 
L 341.593849 -141.047895 
L 339.573885 -140.771091 
L 337.553922 -138.571179 
L 335.533958 -135.495873 
L 333.513995 -133.332037 
L 331.494032 -133.414537 
L 329.474068 -136.119893 
L 327.454105 -141.956253 
L 325.434141 -150.724447 
L 323.414178 -158.946019 
L 321.394214 -163.738389 
L 319.374251 -165.348013 
L 317.354287 -165.179258 
L 315.334324 -164.635094 
L 313.31436 -165.304804 
L 311.294397 -168.512065 
L 309.274434 -173.180143 
L 307.25447 -176.234839 
L 305.234507 -178.230902 
L 303.214543 -181.300914 
L 301.19458 -185.778828 
L 299.174616 -190.472249 
L 297.154653 -193.679921 
L 295.134689 -195.434126 
L 293.114726 -196.757995 
L 291.094762 -198.542235 
L 289.074799 -201.953451 
L 287.054836 -207.378326 
L 285.034872 -214.139024 
L 283.014909 -219.849833 
L 280.994945 -224.632736 
L 278.974982 -228.449923 
L 276.955018 -232.140849 
L 274.935055 -236.774046 
L 272.915091 -243.198109 
L 270.895128 -249.484178 
L 268.875164 -253.663986 
L 266.855201 -257.108436 
L 264.835238 -261.396373 
L 262.815274 -265.385581 
L 260.795311 -268.052904 
L 258.775347 -270.004118 
L 256.755384 -271.558199 
L 254.73542 -272.403655 
L 252.715457 -274.628673 
L 250.695493 -280.082933 
L 248.67553 -288.091627 
L 246.655566 -296.700364 
L 244.635603 -302.94364 
L 242.61564 -304.379063 
L 240.595676 -303.334753 
L 238.575713 -302.579101 
L 236.555749 -302.020416 
L 234.535786 -301.642685 
L 232.515822 -301.629152 
L 230.495859 -301.855923 
L 228.475895 -301.550409 
L 226.455932 -301.236087 
L 224.435968 -301.786228 
L 222.416005 -302.680287 
L 220.396042 -302.72098 
L 218.376078 -302.093991 
L 216.356115 -300.341974 
L 214.336151 -297.864508 
L 212.316188 -297.722003 
L 210.296224 -300.205585 
L 208.276261 -303.57909 
L 206.256297 -306.73716 
L 204.236334 -307.212711 
L 202.21637 -305.007566 
L 200.196407 -302.605884 
L 198.176444 -302.228914 
L 196.15648 -304.54115 
L 194.136517 -308.155389 
L 192.116553 -310.996898 
L 190.09659 -311.634771 
L 188.076626 -310.571535 
L 186.056663 -309.428024 
L 184.036699 -308.90585 
L 182.016736 -309.135393 
L 179.996772 -309.459144 
L 177.976809 -309.318013 
L 175.956846 -309.105829 
L 173.936882 -309.700371 
L 171.916919 -310.916174 
L 169.896955 -311.753695 
L 167.876992 -311.915879 
L 165.857028 -312.157233 
L 163.837065 -312.891366 
L 161.817101 -314.064454 
L 159.797138 -314.734818 
L 157.777175 -314.839387 
L 155.757211 -314.174138 
L 153.737248 -312.88648 
L 151.717284 -311.809723 
L 149.697321 -311.068875 
L 147.677357 -310.284804 
L 145.657394 -309.176733 
L 143.63743 -307.714419 
L 141.617467 -305.46555 
L 139.597503 -302.579194 
L 137.57754 -299.321366 
L 135.557577 -295.810875 
L 133.537613 -291.753275 
L 131.51765 -287.27384 
L 129.497686 -282.856968 
L 127.477723 -278.615401 
L 125.457759 -273.854655 
L 123.437796 -268.41421 
L 121.417832 -262.891415 
L 119.397869 -257.866366 
L 117.377905 -253.181866 
L 115.357942 -248.493572 
L 113.337979 -243.627132 
L 111.318015 -238.754519 
L 109.298052 -233.887353 
L 107.278088 -229.370791 
L 105.258125 -225.646624 
L 103.238161 -222.792371 
L 101.218198 -220.60183 
L 99.198234 -218.692522 
L 97.178271 -215.711555 
L 95.158307 -210.154634 
L 93.138344 -202.237039 
L 91.118381 -195.164747 
L 89.098417 -193.263802 
L 87.078454 -197.876697 
L 85.05849 -205.170923 
L 83.038527 -207.204996 
L 81.018563 -196.251068 
L 78.9986 -169.160047 
L 76.978636 -131.148204 
z
" style="stroke: #ffffff; stroke-opacity: 0.2"/>
    </defs>
    <g clip-path="url(#p05ae09f5db)">
     <use xlink:href="#md44f6598b1" x="0" y="360" style="fill: #dd8452; fill-opacity: 0.2; stroke: #ffffff; stroke-opacity: 0.2"/>
    </g>
   </g>
   <g id="line2d_12">
    <path d="M 76.978636 249.128701 
L 78.9986 194.009922 
L 81.018563 159.254259 
L 83.038527 148.480013 
L 85.05849 154.367989 
L 87.078454 166.322869 
L 89.098417 172.980368 
L 91.118381 169.216948 
L 93.138344 158.029183 
L 95.158307 147.875601 
L 97.178271 143.349094 
L 99.198234 142.651885 
L 101.218198 142.2451 
L 103.238161 140.700804 
L 105.258125 138.880887 
L 107.278088 136.503241 
L 109.298052 133.002282 
L 111.318015 128.732572 
L 115.357942 121.914687 
L 117.377905 117.315991 
L 119.397869 111.56148 
L 121.417832 106.968088 
L 123.437796 103.350719 
L 125.457759 99.169185 
L 127.477723 93.938531 
L 135.557577 71.615114 
L 137.57754 67.998962 
L 139.597503 65.64634 
L 141.617467 61.906769 
L 143.63743 58.591435 
L 145.657394 56.57304 
L 147.677357 54.884191 
L 149.697321 54.236767 
L 151.717284 55.314489 
L 153.737248 56.23169 
L 157.777175 53.773166 
L 159.797138 53.927291 
L 161.817101 55.198636 
L 163.837065 57.843094 
L 165.857028 61.109703 
L 167.876992 61.212061 
L 169.896955 59.434886 
L 171.916919 60.070082 
L 173.936882 63.177709 
L 175.956846 66.035545 
L 177.976809 65.190276 
L 179.996772 63.006588 
L 182.016736 61.533931 
L 184.036699 62.189647 
L 186.056663 62.976121 
L 188.076626 62.487098 
L 190.09659 61.818257 
L 192.116553 63.278861 
L 194.136517 63.731851 
L 196.15648 62.847803 
L 198.176444 61.746921 
L 200.196407 62.954856 
L 202.21637 65.882939 
L 204.236334 67.739392 
L 206.256297 68.708083 
L 208.276261 70.555074 
L 210.296224 71.073717 
L 212.316188 71.129219 
L 214.336151 70.591261 
L 216.356115 69.834364 
L 218.376078 69.620818 
L 222.416005 72.933212 
L 226.455932 81.820723 
L 228.475895 82.624756 
L 230.495859 78.685197 
L 232.515822 75.09258 
L 234.535786 77.06535 
L 236.555749 80.663375 
L 238.575713 79.58275 
L 240.595676 79.313573 
L 242.61564 84.90464 
L 244.635603 91.388475 
L 246.655566 92.189233 
L 248.67553 91.852695 
L 250.695493 95.73776 
L 252.715457 101.053244 
L 254.73542 104.972168 
L 256.755384 105.448974 
L 258.775347 105.765501 
L 260.795311 109.916519 
L 264.835238 119.783722 
L 266.855201 126.259082 
L 268.875164 130.912013 
L 270.895128 130.884736 
L 272.915091 129.261179 
L 274.935055 127.468111 
L 276.955018 127.383929 
L 278.974982 132.183116 
L 280.994945 137.906855 
L 283.014909 142.742795 
L 285.034872 144.939441 
L 287.054836 148.130167 
L 289.074799 154.189599 
L 291.094762 162.028741 
L 293.114726 165.696763 
L 295.134689 167.644365 
L 299.174616 177.863991 
L 301.19458 179.638368 
L 303.214543 180.420579 
L 305.234507 181.403608 
L 307.25447 182.896043 
L 309.274434 187.349611 
L 311.294397 195.038159 
L 313.31436 201.596905 
L 315.334324 205.286321 
L 317.354287 208.596071 
L 321.394214 219.190925 
L 323.414178 222.879978 
L 325.434141 225.906807 
L 327.454105 227.65659 
L 329.474068 230.034346 
L 331.494032 233.734555 
L 333.513995 232.973488 
L 335.533958 230.695819 
L 337.553922 234.179166 
L 339.573885 241.594561 
L 341.593849 244.881198 
L 343.613812 245.844981 
L 345.633776 248.852967 
L 347.653739 251.61443 
L 349.673703 253.595863 
L 351.693666 254.328738 
L 353.71363 255.925393 
L 355.733593 256.758541 
L 357.753556 256.633107 
L 359.77352 258.183899 
L 361.793483 259.352984 
L 365.83341 262.908852 
L 367.853374 262.422649 
L 369.873337 260.266736 
L 371.893301 257.229049 
L 373.913264 257.14986 
L 375.933228 258.120192 
L 377.953191 262.138606 
L 379.973154 264.209744 
L 386.033045 264.316139 
L 388.053008 265.666276 
L 390.072972 265.892883 
L 392.092935 264.643452 
L 394.112899 263.140352 
L 396.132862 264.771342 
L 398.152825 267.232486 
L 400.172789 268.584769 
L 402.192752 267.729752 
L 404.212716 270.796125 
L 406.232679 271.269081 
L 410.272606 260.632783 
L 412.29257 261.608371 
L 414.312533 262.952997 
L 416.332497 263.083472 
L 418.35246 262.850569 
L 420.372423 258.859725 
L 422.392387 252.009949 
L 424.41235 252.207932 
L 426.432314 256.818314 
L 428.452277 258.766921 
L 430.472241 261.447535 
L 432.492204 264.37241 
L 434.512168 260.614225 
L 436.532131 252.675523 
L 438.552095 246.609518 
L 440.572058 244.385374 
L 442.592021 243.164694 
L 444.611985 241.441865 
L 448.651912 239.291393 
L 450.671875 243.969722 
L 452.691839 255.098986 
L 454.711802 256.736782 
L 458.751729 235.044264 
L 460.771693 242.044526 
L 462.791656 252.315973 
L 464.811619 252.918433 
L 466.831583 255.539488 
L 468.851546 255.018692 
L 470.87151 247.14958 
L 472.891473 243.477771 
L 474.911437 244.899396 
L 476.9314 251.558396 
L 478.951364 269.205716 
L 478.951364 269.205716 
" clip-path="url(#p05ae09f5db)" style="fill: none; stroke: #4c72b0; stroke-width: 1.5; stroke-linecap: round"/>
   </g>
   <g id="line2d_13">
    <path d="M 76.978636 245.790637 
L 78.9986 193.843818 
L 81.018563 160.745195 
L 83.038527 151.376749 
L 85.05849 157.963357 
L 87.078454 169.259842 
L 89.098417 175.03923 
L 91.118381 171.372491 
L 93.138344 161.37 
L 95.158307 151.957865 
L 97.178271 147.138244 
L 99.198234 145.762741 
L 101.218198 144.849311 
L 103.238161 142.741772 
L 105.258125 139.894076 
L 107.278088 136.20399 
L 113.337979 122.212157 
L 115.357942 117.463808 
L 121.417832 104.220776 
L 125.457759 92.93315 
L 127.477723 88.588568 
L 129.497686 85.124406 
L 131.51765 80.922568 
L 133.537613 76.356662 
L 135.557577 72.527672 
L 141.617467 63.757327 
L 143.63743 61.738612 
L 145.657394 60.901385 
L 147.677357 60.190595 
L 149.697321 60.001363 
L 151.717284 60.011329 
L 153.737248 59.382246 
L 155.757211 58.114466 
L 157.777175 57.821163 
L 159.797138 58.42737 
L 161.817101 59.520839 
L 163.837065 61.744087 
L 165.857028 63.070913 
L 167.876992 63.426081 
L 169.896955 63.352491 
L 171.916919 64.607784 
L 173.936882 66.808009 
L 175.956846 67.876607 
L 177.976809 67.391518 
L 179.996772 67.278251 
L 184.036699 69.613133 
L 186.056663 69.522078 
L 188.076626 68.185542 
L 190.09659 66.273376 
L 192.116553 66.63035 
L 194.136517 70.230082 
L 196.15648 74.973344 
L 198.176444 78.182249 
L 200.196407 77.72976 
L 204.236334 71.053363 
L 206.256297 71.909112 
L 208.276261 76.638378 
L 210.296224 80.650974 
L 212.316188 84.137949 
L 214.336151 83.882241 
L 216.356115 79.78025 
L 218.376078 78.167183 
L 220.396042 78.418605 
L 222.416005 78.782099 
L 224.435968 80.492761 
L 226.455932 81.311889 
L 228.475895 80.502056 
L 230.495859 80.108027 
L 232.515822 81.129012 
L 234.535786 81.548734 
L 236.555749 81.481495 
L 238.575713 81.630191 
L 240.595676 81.472687 
L 242.61564 78.894113 
L 244.635603 79.047182 
L 246.655566 86.808092 
L 248.67553 97.156531 
L 250.695493 106.246321 
L 252.715457 112.091977 
L 254.73542 113.22336 
L 256.755384 113.056209 
L 258.775347 115.437935 
L 260.795311 118.086496 
L 262.815274 120.951681 
L 266.855201 130.917631 
L 268.875164 133.258267 
L 270.895128 136.379025 
L 274.935055 150.966698 
L 276.955018 155.00637 
L 278.974982 158.041235 
L 280.994945 161.506117 
L 283.014909 166.304824 
L 285.034872 171.774484 
L 287.054836 179.431559 
L 289.074799 184.96235 
L 291.094762 188.119811 
L 293.114726 189.462135 
L 295.134689 190.450784 
L 297.154653 191.778806 
L 299.174616 195.038531 
L 301.19458 200.47522 
L 303.214543 205.417772 
L 305.234507 207.950879 
L 307.25447 208.396685 
L 309.274434 210.799144 
L 311.294397 216.620605 
L 313.31436 220.385957 
L 315.334324 221.023848 
L 317.354287 220.747018 
L 319.374251 220.970916 
L 321.394214 222.522858 
L 323.414178 226.582868 
L 327.454105 241.238631 
L 329.474068 245.516674 
L 331.494032 247.701966 
L 333.513995 247.646901 
L 337.553922 243.110812 
L 339.573885 241.832074 
L 341.593849 241.756063 
L 343.613812 243.880712 
L 345.633776 246.653321 
L 347.653739 250.35109 
L 349.673703 252.195618 
L 351.693666 252.13817 
L 355.733593 253.480291 
L 357.753556 253.403582 
L 359.77352 253.974445 
L 361.793483 254.057759 
L 363.813447 255.033532 
L 365.83341 257.114798 
L 367.853374 258.811373 
L 369.873337 258.532316 
L 373.913264 254.568177 
L 375.933228 252.754695 
L 377.953191 255.017276 
L 379.973154 258.010859 
L 381.993118 262.111348 
L 384.013081 264.994137 
L 386.033045 266.23908 
L 388.053008 268.595226 
L 390.072972 269.253899 
L 392.092935 267.56848 
L 394.112899 265.707334 
L 396.132862 266.731606 
L 398.152825 268.930576 
L 400.172789 269.782433 
L 402.192752 269.135543 
L 404.212716 271.167853 
L 406.232679 271.084036 
L 410.272606 263.158911 
L 414.312533 264.232337 
L 416.332497 263.373156 
L 418.35246 262.699292 
L 420.372423 260.608738 
L 422.392387 257.277749 
L 424.41235 257.474541 
L 426.432314 259.220041 
L 428.452277 259.104293 
L 430.472241 260.886481 
L 432.492204 263.169512 
L 434.512168 259.383118 
L 436.532131 251.521802 
L 438.552095 245.155161 
L 440.572058 242.35866 
L 442.592021 240.774922 
L 444.611985 238.932092 
L 446.631948 237.762234 
L 448.651912 237.262889 
L 450.671875 242.319939 
L 452.691839 252.767899 
L 454.711802 254.132767 
L 458.751729 233.699802 
L 460.771693 239.883251 
L 462.791656 249.807524 
L 464.811619 251.493636 
L 466.831583 253.763892 
L 468.851546 251.928485 
L 470.87151 242.95609 
L 472.891473 238.368643 
L 474.911437 239.947366 
L 476.9314 247.939459 
L 478.951364 266.774818 
L 478.951364 266.774818 
" clip-path="url(#p05ae09f5db)" style="fill: none; stroke: #dd8452; stroke-width: 1.5; stroke-linecap: round"/>
   </g>
   <g id="patch_3">
    <path d="M 56.88 309.78 
L 56.88 29.04 
" style="fill: none; stroke: #ffffff; stroke-width: 1.25; stroke-linejoin: miter; stroke-linecap: square"/>
   </g>
   <g id="patch_4">
    <path d="M 499.05 309.78 
L 499.05 29.04 
" style="fill: none; stroke: #ffffff; stroke-width: 1.25; stroke-linejoin: miter; stroke-linecap: square"/>
   </g>
   <g id="patch_5">
    <path d="M 56.88 309.78 
L 499.05 309.78 
" style="fill: none; stroke: #ffffff; stroke-width: 1.25; stroke-linejoin: miter; stroke-linecap: square"/>
   </g>
   <g id="patch_6">
    <path d="M 56.88 29.04 
L 499.05 29.04 
" style="fill: none; stroke: #ffffff; stroke-width: 1.25; stroke-linejoin: miter; stroke-linecap: square"/>
   </g>
   <g id="text_14">
    <!-- Average Number of Bounds vs Depth -->
    <g style="fill: #262626" transform="translate(166.624688 23.04) scale(0.12 -0.12)">
     <use xlink:href="#DejaVuSans-41"/>
     <use xlink:href="#DejaVuSans-76" x="62.533203"/>
     <use xlink:href="#DejaVuSans-65" x="121.712891"/>
     <use xlink:href="#DejaVuSans-72" x="183.236328"/>
     <use xlink:href="#DejaVuSans-61" x="224.349609"/>
     <use xlink:href="#DejaVuSans-67" x="285.628906"/>
     <use xlink:href="#DejaVuSans-65" x="349.105469"/>
     <use xlink:href="#DejaVuSans-20" x="410.628906"/>
     <use xlink:href="#DejaVuSans-4e" x="442.416016"/>
     <use xlink:href="#DejaVuSans-75" x="517.220703"/>
     <use xlink:href="#DejaVuSans-6d" x="580.599609"/>
     <use xlink:href="#DejaVuSans-62" x="678.011719"/>
     <use xlink:href="#DejaVuSans-65" x="741.488281"/>
     <use xlink:href="#DejaVuSans-72" x="803.011719"/>
     <use xlink:href="#DejaVuSans-20" x="844.125"/>
     <use xlink:href="#DejaVuSans-6f" x="875.912109"/>
     <use xlink:href="#DejaVuSans-66" x="937.09375"/>
     <use xlink:href="#DejaVuSans-20" x="972.298828"/>
     <use xlink:href="#DejaVuSans-42" x="1004.085938"/>
     <use xlink:href="#DejaVuSans-6f" x="1072.689453"/>
     <use xlink:href="#DejaVuSans-75" x="1133.871094"/>
     <use xlink:href="#DejaVuSans-6e" x="1197.25"/>
     <use xlink:href="#DejaVuSans-64" x="1260.628906"/>
     <use xlink:href="#DejaVuSans-73" x="1324.105469"/>
     <use xlink:href="#DejaVuSans-20" x="1376.205078"/>
     <use xlink:href="#DejaVuSans-76" x="1407.992188"/>
     <use xlink:href="#DejaVuSans-73" x="1467.171875"/>
     <use xlink:href="#DejaVuSans-20" x="1519.271484"/>
     <use xlink:href="#DejaVuSans-44" x="1551.058594"/>
     <use xlink:href="#DejaVuSans-65" x="1628.060547"/>
     <use xlink:href="#DejaVuSans-70" x="1689.583984"/>
     <use xlink:href="#DejaVuSans-74" x="1753.060547"/>
     <use xlink:href="#DejaVuSans-68" x="1792.269531"/>
    </g>
   </g>
   <g id="legend_1">
    <g id="patch_7">
     <path d="M 346.565937 70.131875 
L 491.35 70.131875 
Q 493.55 70.131875 493.55 67.931875 
L 493.55 36.74 
Q 493.55 34.54 491.35 34.54 
L 346.565937 34.54 
Q 344.365937 34.54 344.365937 36.74 
L 344.365937 67.931875 
Q 344.365937 70.131875 346.565937 70.131875 
z
" style="fill: #eaeaf2; opacity: 0.8; stroke: #cccccc; stroke-linejoin: miter"/>
    </g>
    <g id="line2d_14">
     <path d="M 348.765937 43.448281 
L 359.765937 43.448281 
L 370.765937 43.448281 
" style="fill: none; stroke: #4c72b0; stroke-width: 1.5; stroke-linecap: round"/>
    </g>
    <g id="text_15">
     <!-- compbnd-mrm -->
     <g style="fill: #262626" transform="translate(379.565937 47.298281) scale(0.11 -0.11)">
      <defs>
       <path id="DejaVuSans-63" d="M 3122 3366 
L 3122 2828 
Q 2878 2963 2633 3030 
Q 2388 3097 2138 3097 
Q 1578 3097 1268 2742 
Q 959 2388 959 1747 
Q 959 1106 1268 751 
Q 1578 397 2138 397 
Q 2388 397 2633 464 
Q 2878 531 3122 666 
L 3122 134 
Q 2881 22 2623 -34 
Q 2366 -91 2075 -91 
Q 1284 -91 818 406 
Q 353 903 353 1747 
Q 353 2603 823 3093 
Q 1294 3584 2113 3584 
Q 2378 3584 2631 3529 
Q 2884 3475 3122 3366 
z
" transform="scale(0.015625)"/>
       <path id="DejaVuSans-2d" d="M 313 2009 
L 1997 2009 
L 1997 1497 
L 313 1497 
L 313 2009 
z
" transform="scale(0.015625)"/>
      </defs>
      <use xlink:href="#DejaVuSans-63"/>
      <use xlink:href="#DejaVuSans-6f" x="54.980469"/>
      <use xlink:href="#DejaVuSans-6d" x="116.162109"/>
      <use xlink:href="#DejaVuSans-70" x="213.574219"/>
      <use xlink:href="#DejaVuSans-62" x="277.050781"/>
      <use xlink:href="#DejaVuSans-6e" x="340.527344"/>
      <use xlink:href="#DejaVuSans-64" x="403.90625"/>
      <use xlink:href="#DejaVuSans-2d" x="467.382812"/>
      <use xlink:href="#DejaVuSans-6d" x="503.466797"/>
      <use xlink:href="#DejaVuSans-72" x="600.878906"/>
      <use xlink:href="#DejaVuSans-6d" x="640.242188"/>
     </g>
    </g>
    <g id="line2d_15">
     <path d="M 348.765937 59.594219 
L 359.765937 59.594219 
L 370.765937 59.594219 
" style="fill: none; stroke: #dd8452; stroke-width: 1.5; stroke-linecap: round"/>
    </g>
    <g id="text_16">
     <!-- compbnd-mrm+dvs -->
     <g style="fill: #262626" transform="translate(379.565937 63.444219) scale(0.11 -0.11)">
      <defs>
       <path id="DejaVuSans-2b" d="M 2944 4013 
L 2944 2272 
L 4684 2272 
L 4684 1741 
L 2944 1741 
L 2944 0 
L 2419 0 
L 2419 1741 
L 678 1741 
L 678 2272 
L 2419 2272 
L 2419 4013 
L 2944 4013 
z
" transform="scale(0.015625)"/>
      </defs>
      <use xlink:href="#DejaVuSans-63"/>
      <use xlink:href="#DejaVuSans-6f" x="54.980469"/>
      <use xlink:href="#DejaVuSans-6d" x="116.162109"/>
      <use xlink:href="#DejaVuSans-70" x="213.574219"/>
      <use xlink:href="#DejaVuSans-62" x="277.050781"/>
      <use xlink:href="#DejaVuSans-6e" x="340.527344"/>
      <use xlink:href="#DejaVuSans-64" x="403.90625"/>
      <use xlink:href="#DejaVuSans-2d" x="467.382812"/>
      <use xlink:href="#DejaVuSans-6d" x="503.466797"/>
      <use xlink:href="#DejaVuSans-72" x="600.878906"/>
      <use xlink:href="#DejaVuSans-6d" x="640.242188"/>
      <use xlink:href="#DejaVuSans-2b" x="737.654297"/>
      <use xlink:href="#DejaVuSans-64" x="821.443359"/>
      <use xlink:href="#DejaVuSans-76" x="884.919922"/>
      <use xlink:href="#DejaVuSans-73" x="944.099609"/>
     </g>
    </g>
   </g>
  </g>
 </g>
 <defs>
  <clipPath id="p05ae09f5db">
   <rect x="56.88" y="29.04" width="442.17" height="280.74"/>
  </clipPath>
 </defs>
</svg>
