<?xml version="1.0" encoding="utf-8" standalone="no"?>
<!DOCTYPE svg PUBLIC "-//W3C//DTD SVG 1.1//EN"
  "http://www.w3.org/Graphics/SVG/1.1/DTD/svg11.dtd">
<svg xmlns:xlink="http://www.w3.org/1999/xlink" width="512.01pt" height="360pt" viewBox="0 0 512.01 360" xmlns="http://www.w3.org/2000/svg" version="1.1">
 <metadata>
  <rdf:RDF xmlns:dc="http://purl.org/dc/elements/1.1/" xmlns:cc="http://creativecommons.org/ns#" xmlns:rdf="http://www.w3.org/1999/02/22-rdf-syntax-ns#">
   <cc:Work>
    <dc:type rdf:resource="http://purl.org/dc/dcmitype/StillImage"/>
    <dc:date>2024-08-07T03:12:17.935093</dc:date>
    <dc:format>image/svg+xml</dc:format>
    <dc:creator>
     <cc:Agent>
      <dc:title>Matplotlib v3.9.0, https://matplotlib.org/</dc:title>
     </cc:Agent>
    </dc:creator>
   </cc:Work>
  </rdf:RDF>
 </metadata>
 <defs>
  <style type="text/css">*{stroke-linejoin: round; stroke-linecap: butt}</style>
 </defs>
 <g id="figure_1">
  <g id="patch_1">
   <path d="M 0 360 
L 512.01 360 
L 512.01 0 
L 0 0 
z
" style="fill: #ffffff"/>
  </g>
  <g id="axes_1">
   <g id="patch_2">
    <path d="M 56.88 309.78 
L 499.05 309.78 
L 499.05 29.04 
L 56.88 29.04 
z
" style="fill: #eaeaf2"/>
   </g>
   <g id="matplotlib.axis_1">
    <g id="xtick_1">
     <g id="line2d_1">
      <path d="M 76.978636 309.78 
L 76.978636 29.04 
" clip-path="url(#p1d962c5260)" style="fill: none; stroke: #ffffff; stroke-linecap: round"/>
     </g>
     <g id="text_1">
      <!-- 0 -->
      <g style="fill: #262626" transform="translate(73.479261 327.638281) scale(0.11 -0.11)">
       <defs>
        <path id="DejaVuSans-30" d="M 2034 4250 
Q 1547 4250 1301 3770 
Q 1056 3291 1056 2328 
Q 1056 1369 1301 889 
Q 1547 409 2034 409 
Q 2525 409 2770 889 
Q 3016 1369 3016 2328 
Q 3016 3291 2770 3770 
Q 2525 4250 2034 4250 
z
M 2034 4750 
Q 2819 4750 3233 4129 
Q 3647 3509 3647 2328 
Q 3647 1150 3233 529 
Q 2819 -91 2034 -91 
Q 1250 -91 836 529 
Q 422 1150 422 2328 
Q 422 3509 836 4129 
Q 1250 4750 2034 4750 
z
" transform="scale(0.015625)"/>
       </defs>
       <use xlink:href="#DejaVuSans-30"/>
      </g>
     </g>
    </g>
    <g id="xtick_2">
     <g id="line2d_2">
      <path d="M 157.373182 309.78 
L 157.373182 29.04 
" clip-path="url(#p1d962c5260)" style="fill: none; stroke: #ffffff; stroke-linecap: round"/>
     </g>
     <g id="text_2">
      <!-- 100 -->
      <g style="fill: #262626" transform="translate(146.875057 327.638281) scale(0.11 -0.11)">
       <defs>
        <path id="DejaVuSans-31" d="M 794 531 
L 1825 531 
L 1825 4091 
L 703 3866 
L 703 4441 
L 1819 4666 
L 2450 4666 
L 2450 531 
L 3481 531 
L 3481 0 
L 794 0 
L 794 531 
z
" transform="scale(0.015625)"/>
       </defs>
       <use xlink:href="#DejaVuSans-31"/>
       <use xlink:href="#DejaVuSans-30" x="63.623047"/>
       <use xlink:href="#DejaVuSans-30" x="127.246094"/>
      </g>
     </g>
    </g>
    <g id="xtick_3">
     <g id="line2d_3">
      <path d="M 237.767727 309.78 
L 237.767727 29.04 
" clip-path="url(#p1d962c5260)" style="fill: none; stroke: #ffffff; stroke-linecap: round"/>
     </g>
     <g id="text_3">
      <!-- 200 -->
      <g style="fill: #262626" transform="translate(227.269602 327.638281) scale(0.11 -0.11)">
       <defs>
        <path id="DejaVuSans-32" d="M 1228 531 
L 3431 531 
L 3431 0 
L 469 0 
L 469 531 
Q 828 903 1448 1529 
Q 2069 2156 2228 2338 
Q 2531 2678 2651 2914 
Q 2772 3150 2772 3378 
Q 2772 3750 2511 3984 
Q 2250 4219 1831 4219 
Q 1534 4219 1204 4116 
Q 875 4013 500 3803 
L 500 4441 
Q 881 4594 1212 4672 
Q 1544 4750 1819 4750 
Q 2544 4750 2975 4387 
Q 3406 4025 3406 3419 
Q 3406 3131 3298 2873 
Q 3191 2616 2906 2266 
Q 2828 2175 2409 1742 
Q 1991 1309 1228 531 
z
" transform="scale(0.015625)"/>
       </defs>
       <use xlink:href="#DejaVuSans-32"/>
       <use xlink:href="#DejaVuSans-30" x="63.623047"/>
       <use xlink:href="#DejaVuSans-30" x="127.246094"/>
      </g>
     </g>
    </g>
    <g id="xtick_4">
     <g id="line2d_4">
      <path d="M 318.162273 309.78 
L 318.162273 29.04 
" clip-path="url(#p1d962c5260)" style="fill: none; stroke: #ffffff; stroke-linecap: round"/>
     </g>
     <g id="text_4">
      <!-- 300 -->
      <g style="fill: #262626" transform="translate(307.664148 327.638281) scale(0.11 -0.11)">
       <defs>
        <path id="DejaVuSans-33" d="M 2597 2516 
Q 3050 2419 3304 2112 
Q 3559 1806 3559 1356 
Q 3559 666 3084 287 
Q 2609 -91 1734 -91 
Q 1441 -91 1130 -33 
Q 819 25 488 141 
L 488 750 
Q 750 597 1062 519 
Q 1375 441 1716 441 
Q 2309 441 2620 675 
Q 2931 909 2931 1356 
Q 2931 1769 2642 2001 
Q 2353 2234 1838 2234 
L 1294 2234 
L 1294 2753 
L 1863 2753 
Q 2328 2753 2575 2939 
Q 2822 3125 2822 3475 
Q 2822 3834 2567 4026 
Q 2313 4219 1838 4219 
Q 1578 4219 1281 4162 
Q 984 4106 628 3988 
L 628 4550 
Q 988 4650 1302 4700 
Q 1616 4750 1894 4750 
Q 2613 4750 3031 4423 
Q 3450 4097 3450 3541 
Q 3450 3153 3228 2886 
Q 3006 2619 2597 2516 
z
" transform="scale(0.015625)"/>
       </defs>
       <use xlink:href="#DejaVuSans-33"/>
       <use xlink:href="#DejaVuSans-30" x="63.623047"/>
       <use xlink:href="#DejaVuSans-30" x="127.246094"/>
      </g>
     </g>
    </g>
    <g id="xtick_5">
     <g id="line2d_5">
      <path d="M 398.556818 309.78 
L 398.556818 29.04 
" clip-path="url(#p1d962c5260)" style="fill: none; stroke: #ffffff; stroke-linecap: round"/>
     </g>
     <g id="text_5">
      <!-- 400 -->
      <g style="fill: #262626" transform="translate(388.058693 327.638281) scale(0.11 -0.11)">
       <defs>
        <path id="DejaVuSans-34" d="M 2419 4116 
L 825 1625 
L 2419 1625 
L 2419 4116 
z
M 2253 4666 
L 3047 4666 
L 3047 1625 
L 3713 1625 
L 3713 1100 
L 3047 1100 
L 3047 0 
L 2419 0 
L 2419 1100 
L 313 1100 
L 313 1709 
L 2253 4666 
z
" transform="scale(0.015625)"/>
       </defs>
       <use xlink:href="#DejaVuSans-34"/>
       <use xlink:href="#DejaVuSans-30" x="63.623047"/>
       <use xlink:href="#DejaVuSans-30" x="127.246094"/>
      </g>
     </g>
    </g>
    <g id="xtick_6">
     <g id="line2d_6">
      <path d="M 478.951364 309.78 
L 478.951364 29.04 
" clip-path="url(#p1d962c5260)" style="fill: none; stroke: #ffffff; stroke-linecap: round"/>
     </g>
     <g id="text_6">
      <!-- 500 -->
      <g style="fill: #262626" transform="translate(468.453239 327.638281) scale(0.11 -0.11)">
       <defs>
        <path id="DejaVuSans-35" d="M 691 4666 
L 3169 4666 
L 3169 4134 
L 1269 4134 
L 1269 2991 
Q 1406 3038 1543 3061 
Q 1681 3084 1819 3084 
Q 2600 3084 3056 2656 
Q 3513 2228 3513 1497 
Q 3513 744 3044 326 
Q 2575 -91 1722 -91 
Q 1428 -91 1123 -41 
Q 819 9 494 109 
L 494 744 
Q 775 591 1075 516 
Q 1375 441 1709 441 
Q 2250 441 2565 725 
Q 2881 1009 2881 1497 
Q 2881 1984 2565 2268 
Q 2250 2553 1709 2553 
Q 1456 2553 1204 2497 
Q 953 2441 691 2322 
L 691 4666 
z
" transform="scale(0.015625)"/>
       </defs>
       <use xlink:href="#DejaVuSans-35"/>
       <use xlink:href="#DejaVuSans-30" x="63.623047"/>
       <use xlink:href="#DejaVuSans-30" x="127.246094"/>
      </g>
     </g>
    </g>
    <g id="text_7">
     <!-- Depth -->
     <g style="fill: #262626" transform="translate(259.689375 343.044062) scale(0.12 -0.12)">
      <defs>
       <path id="DejaVuSans-44" d="M 1259 4147 
L 1259 519 
L 2022 519 
Q 2988 519 3436 956 
Q 3884 1394 3884 2338 
Q 3884 3275 3436 3711 
Q 2988 4147 2022 4147 
L 1259 4147 
z
M 628 4666 
L 1925 4666 
Q 3281 4666 3915 4102 
Q 4550 3538 4550 2338 
Q 4550 1131 3912 565 
Q 3275 0 1925 0 
L 628 0 
L 628 4666 
z
" transform="scale(0.015625)"/>
       <path id="DejaVuSans-65" d="M 3597 1894 
L 3597 1613 
L 953 1613 
Q 991 1019 1311 708 
Q 1631 397 2203 397 
Q 2534 397 2845 478 
Q 3156 559 3463 722 
L 3463 178 
Q 3153 47 2828 -22 
Q 2503 -91 2169 -91 
Q 1331 -91 842 396 
Q 353 884 353 1716 
Q 353 2575 817 3079 
Q 1281 3584 2069 3584 
Q 2775 3584 3186 3129 
Q 3597 2675 3597 1894 
z
M 3022 2063 
Q 3016 2534 2758 2815 
Q 2500 3097 2075 3097 
Q 1594 3097 1305 2825 
Q 1016 2553 972 2059 
L 3022 2063 
z
" transform="scale(0.015625)"/>
       <path id="DejaVuSans-70" d="M 1159 525 
L 1159 -1331 
L 581 -1331 
L 581 3500 
L 1159 3500 
L 1159 2969 
Q 1341 3281 1617 3432 
Q 1894 3584 2278 3584 
Q 2916 3584 3314 3078 
Q 3713 2572 3713 1747 
Q 3713 922 3314 415 
Q 2916 -91 2278 -91 
Q 1894 -91 1617 61 
Q 1341 213 1159 525 
z
M 3116 1747 
Q 3116 2381 2855 2742 
Q 2594 3103 2138 3103 
Q 1681 3103 1420 2742 
Q 1159 2381 1159 1747 
Q 1159 1113 1420 752 
Q 1681 391 2138 391 
Q 2594 391 2855 752 
Q 3116 1113 3116 1747 
z
" transform="scale(0.015625)"/>
       <path id="DejaVuSans-74" d="M 1172 4494 
L 1172 3500 
L 2356 3500 
L 2356 3053 
L 1172 3053 
L 1172 1153 
Q 1172 725 1289 603 
Q 1406 481 1766 481 
L 2356 481 
L 2356 0 
L 1766 0 
Q 1100 0 847 248 
Q 594 497 594 1153 
L 594 3053 
L 172 3053 
L 172 3500 
L 594 3500 
L 594 4494 
L 1172 4494 
z
" transform="scale(0.015625)"/>
       <path id="DejaVuSans-68" d="M 3513 2113 
L 3513 0 
L 2938 0 
L 2938 2094 
Q 2938 2591 2744 2837 
Q 2550 3084 2163 3084 
Q 1697 3084 1428 2787 
Q 1159 2491 1159 1978 
L 1159 0 
L 581 0 
L 581 4863 
L 1159 4863 
L 1159 2956 
Q 1366 3272 1645 3428 
Q 1925 3584 2291 3584 
Q 2894 3584 3203 3211 
Q 3513 2838 3513 2113 
z
" transform="scale(0.015625)"/>
      </defs>
      <use xlink:href="#DejaVuSans-44"/>
      <use xlink:href="#DejaVuSans-65" x="77.001953"/>
      <use xlink:href="#DejaVuSans-70" x="138.525391"/>
      <use xlink:href="#DejaVuSans-74" x="202.001953"/>
      <use xlink:href="#DejaVuSans-68" x="241.210938"/>
     </g>
    </g>
   </g>
   <g id="matplotlib.axis_2">
    <g id="ytick_1">
     <g id="line2d_7">
      <path d="M 56.88 279.110196 
L 499.05 279.110196 
" clip-path="url(#p1d962c5260)" style="fill: none; stroke: #ffffff; stroke-linecap: round"/>
     </g>
     <g id="text_8">
      <!-- 1.0 -->
      <g style="fill: #262626" transform="translate(29.886562 283.289336) scale(0.11 -0.11)">
       <defs>
        <path id="DejaVuSans-2e" d="M 684 794 
L 1344 794 
L 1344 0 
L 684 0 
L 684 794 
z
" transform="scale(0.015625)"/>
       </defs>
       <use xlink:href="#DejaVuSans-31"/>
       <use xlink:href="#DejaVuSans-2e" x="63.623047"/>
       <use xlink:href="#DejaVuSans-30" x="95.410156"/>
      </g>
     </g>
    </g>
    <g id="ytick_2">
     <g id="line2d_8">
      <path d="M 56.88 228.654785 
L 499.05 228.654785 
" clip-path="url(#p1d962c5260)" style="fill: none; stroke: #ffffff; stroke-linecap: round"/>
     </g>
     <g id="text_9">
      <!-- 1.2 -->
      <g style="fill: #262626" transform="translate(29.886562 232.833925) scale(0.11 -0.11)">
       <use xlink:href="#DejaVuSans-31"/>
       <use xlink:href="#DejaVuSans-2e" x="63.623047"/>
       <use xlink:href="#DejaVuSans-32" x="95.410156"/>
      </g>
     </g>
    </g>
    <g id="ytick_3">
     <g id="line2d_9">
      <path d="M 56.88 178.199373 
L 499.05 178.199373 
" clip-path="url(#p1d962c5260)" style="fill: none; stroke: #ffffff; stroke-linecap: round"/>
     </g>
     <g id="text_10">
      <!-- 1.4 -->
      <g style="fill: #262626" transform="translate(29.886562 182.378514) scale(0.11 -0.11)">
       <use xlink:href="#DejaVuSans-31"/>
       <use xlink:href="#DejaVuSans-2e" x="63.623047"/>
       <use xlink:href="#DejaVuSans-34" x="95.410156"/>
      </g>
     </g>
    </g>
    <g id="ytick_4">
     <g id="line2d_10">
      <path d="M 56.88 127.743962 
L 499.05 127.743962 
" clip-path="url(#p1d962c5260)" style="fill: none; stroke: #ffffff; stroke-linecap: round"/>
     </g>
     <g id="text_11">
      <!-- 1.6 -->
      <g style="fill: #262626" transform="translate(29.886562 131.923103) scale(0.11 -0.11)">
       <defs>
        <path id="DejaVuSans-36" d="M 2113 2584 
Q 1688 2584 1439 2293 
Q 1191 2003 1191 1497 
Q 1191 994 1439 701 
Q 1688 409 2113 409 
Q 2538 409 2786 701 
Q 3034 994 3034 1497 
Q 3034 2003 2786 2293 
Q 2538 2584 2113 2584 
z
M 3366 4563 
L 3366 3988 
Q 3128 4100 2886 4159 
Q 2644 4219 2406 4219 
Q 1781 4219 1451 3797 
Q 1122 3375 1075 2522 
Q 1259 2794 1537 2939 
Q 1816 3084 2150 3084 
Q 2853 3084 3261 2657 
Q 3669 2231 3669 1497 
Q 3669 778 3244 343 
Q 2819 -91 2113 -91 
Q 1303 -91 875 529 
Q 447 1150 447 2328 
Q 447 3434 972 4092 
Q 1497 4750 2381 4750 
Q 2619 4750 2861 4703 
Q 3103 4656 3366 4563 
z
" transform="scale(0.015625)"/>
       </defs>
       <use xlink:href="#DejaVuSans-31"/>
       <use xlink:href="#DejaVuSans-2e" x="63.623047"/>
       <use xlink:href="#DejaVuSans-36" x="95.410156"/>
      </g>
     </g>
    </g>
    <g id="ytick_5">
     <g id="line2d_11">
      <path d="M 56.88 77.288551 
L 499.05 77.288551 
" clip-path="url(#p1d962c5260)" style="fill: none; stroke: #ffffff; stroke-linecap: round"/>
     </g>
     <g id="text_12">
      <!-- 1.8 -->
      <g style="fill: #262626" transform="translate(29.886562 81.467692) scale(0.11 -0.11)">
       <defs>
        <path id="DejaVuSans-38" d="M 2034 2216 
Q 1584 2216 1326 1975 
Q 1069 1734 1069 1313 
Q 1069 891 1326 650 
Q 1584 409 2034 409 
Q 2484 409 2743 651 
Q 3003 894 3003 1313 
Q 3003 1734 2745 1975 
Q 2488 2216 2034 2216 
z
M 1403 2484 
Q 997 2584 770 2862 
Q 544 3141 544 3541 
Q 544 4100 942 4425 
Q 1341 4750 2034 4750 
Q 2731 4750 3128 4425 
Q 3525 4100 3525 3541 
Q 3525 3141 3298 2862 
Q 3072 2584 2669 2484 
Q 3125 2378 3379 2068 
Q 3634 1759 3634 1313 
Q 3634 634 3220 271 
Q 2806 -91 2034 -91 
Q 1263 -91 848 271 
Q 434 634 434 1313 
Q 434 1759 690 2068 
Q 947 2378 1403 2484 
z
M 1172 3481 
Q 1172 3119 1398 2916 
Q 1625 2713 2034 2713 
Q 2441 2713 2670 2916 
Q 2900 3119 2900 3481 
Q 2900 3844 2670 4047 
Q 2441 4250 2034 4250 
Q 1625 4250 1398 4047 
Q 1172 3844 1172 3481 
z
" transform="scale(0.015625)"/>
       </defs>
       <use xlink:href="#DejaVuSans-31"/>
       <use xlink:href="#DejaVuSans-2e" x="63.623047"/>
       <use xlink:href="#DejaVuSans-38" x="95.410156"/>
      </g>
     </g>
    </g>
    <g id="text_13">
     <!-- Average Number of Bounds -->
     <g style="fill: #262626" transform="translate(23.390937 251.984063) rotate(-90) scale(0.12 -0.12)">
      <defs>
       <path id="DejaVuSans-41" d="M 2188 4044 
L 1331 1722 
L 3047 1722 
L 2188 4044 
z
M 1831 4666 
L 2547 4666 
L 4325 0 
L 3669 0 
L 3244 1197 
L 1141 1197 
L 716 0 
L 50 0 
L 1831 4666 
z
" transform="scale(0.015625)"/>
       <path id="DejaVuSans-76" d="M 191 3500 
L 800 3500 
L 1894 563 
L 2988 3500 
L 3597 3500 
L 2284 0 
L 1503 0 
L 191 3500 
z
" transform="scale(0.015625)"/>
       <path id="DejaVuSans-72" d="M 2631 2963 
Q 2534 3019 2420 3045 
Q 2306 3072 2169 3072 
Q 1681 3072 1420 2755 
Q 1159 2438 1159 1844 
L 1159 0 
L 581 0 
L 581 3500 
L 1159 3500 
L 1159 2956 
Q 1341 3275 1631 3429 
Q 1922 3584 2338 3584 
Q 2397 3584 2469 3576 
Q 2541 3569 2628 3553 
L 2631 2963 
z
" transform="scale(0.015625)"/>
       <path id="DejaVuSans-61" d="M 2194 1759 
Q 1497 1759 1228 1600 
Q 959 1441 959 1056 
Q 959 750 1161 570 
Q 1363 391 1709 391 
Q 2188 391 2477 730 
Q 2766 1069 2766 1631 
L 2766 1759 
L 2194 1759 
z
M 3341 1997 
L 3341 0 
L 2766 0 
L 2766 531 
Q 2569 213 2275 61 
Q 1981 -91 1556 -91 
Q 1019 -91 701 211 
Q 384 513 384 1019 
Q 384 1609 779 1909 
Q 1175 2209 1959 2209 
L 2766 2209 
L 2766 2266 
Q 2766 2663 2505 2880 
Q 2244 3097 1772 3097 
Q 1472 3097 1187 3025 
Q 903 2953 641 2809 
L 641 3341 
Q 956 3463 1253 3523 
Q 1550 3584 1831 3584 
Q 2591 3584 2966 3190 
Q 3341 2797 3341 1997 
z
" transform="scale(0.015625)"/>
       <path id="DejaVuSans-67" d="M 2906 1791 
Q 2906 2416 2648 2759 
Q 2391 3103 1925 3103 
Q 1463 3103 1205 2759 
Q 947 2416 947 1791 
Q 947 1169 1205 825 
Q 1463 481 1925 481 
Q 2391 481 2648 825 
Q 2906 1169 2906 1791 
z
M 3481 434 
Q 3481 -459 3084 -895 
Q 2688 -1331 1869 -1331 
Q 1566 -1331 1297 -1286 
Q 1028 -1241 775 -1147 
L 775 -588 
Q 1028 -725 1275 -790 
Q 1522 -856 1778 -856 
Q 2344 -856 2625 -561 
Q 2906 -266 2906 331 
L 2906 616 
Q 2728 306 2450 153 
Q 2172 0 1784 0 
Q 1141 0 747 490 
Q 353 981 353 1791 
Q 353 2603 747 3093 
Q 1141 3584 1784 3584 
Q 2172 3584 2450 3431 
Q 2728 3278 2906 2969 
L 2906 3500 
L 3481 3500 
L 3481 434 
z
" transform="scale(0.015625)"/>
       <path id="DejaVuSans-20" transform="scale(0.015625)"/>
       <path id="DejaVuSans-4e" d="M 628 4666 
L 1478 4666 
L 3547 763 
L 3547 4666 
L 4159 4666 
L 4159 0 
L 3309 0 
L 1241 3903 
L 1241 0 
L 628 0 
L 628 4666 
z
" transform="scale(0.015625)"/>
       <path id="DejaVuSans-75" d="M 544 1381 
L 544 3500 
L 1119 3500 
L 1119 1403 
Q 1119 906 1312 657 
Q 1506 409 1894 409 
Q 2359 409 2629 706 
Q 2900 1003 2900 1516 
L 2900 3500 
L 3475 3500 
L 3475 0 
L 2900 0 
L 2900 538 
Q 2691 219 2414 64 
Q 2138 -91 1772 -91 
Q 1169 -91 856 284 
Q 544 659 544 1381 
z
M 1991 3584 
L 1991 3584 
z
" transform="scale(0.015625)"/>
       <path id="DejaVuSans-6d" d="M 3328 2828 
Q 3544 3216 3844 3400 
Q 4144 3584 4550 3584 
Q 5097 3584 5394 3201 
Q 5691 2819 5691 2113 
L 5691 0 
L 5113 0 
L 5113 2094 
Q 5113 2597 4934 2840 
Q 4756 3084 4391 3084 
Q 3944 3084 3684 2787 
Q 3425 2491 3425 1978 
L 3425 0 
L 2847 0 
L 2847 2094 
Q 2847 2600 2669 2842 
Q 2491 3084 2119 3084 
Q 1678 3084 1418 2786 
Q 1159 2488 1159 1978 
L 1159 0 
L 581 0 
L 581 3500 
L 1159 3500 
L 1159 2956 
Q 1356 3278 1631 3431 
Q 1906 3584 2284 3584 
Q 2666 3584 2933 3390 
Q 3200 3197 3328 2828 
z
" transform="scale(0.015625)"/>
       <path id="DejaVuSans-62" d="M 3116 1747 
Q 3116 2381 2855 2742 
Q 2594 3103 2138 3103 
Q 1681 3103 1420 2742 
Q 1159 2381 1159 1747 
Q 1159 1113 1420 752 
Q 1681 391 2138 391 
Q 2594 391 2855 752 
Q 3116 1113 3116 1747 
z
M 1159 2969 
Q 1341 3281 1617 3432 
Q 1894 3584 2278 3584 
Q 2916 3584 3314 3078 
Q 3713 2572 3713 1747 
Q 3713 922 3314 415 
Q 2916 -91 2278 -91 
Q 1894 -91 1617 61 
Q 1341 213 1159 525 
L 1159 0 
L 581 0 
L 581 4863 
L 1159 4863 
L 1159 2969 
z
" transform="scale(0.015625)"/>
       <path id="DejaVuSans-6f" d="M 1959 3097 
Q 1497 3097 1228 2736 
Q 959 2375 959 1747 
Q 959 1119 1226 758 
Q 1494 397 1959 397 
Q 2419 397 2687 759 
Q 2956 1122 2956 1747 
Q 2956 2369 2687 2733 
Q 2419 3097 1959 3097 
z
M 1959 3584 
Q 2709 3584 3137 3096 
Q 3566 2609 3566 1747 
Q 3566 888 3137 398 
Q 2709 -91 1959 -91 
Q 1206 -91 779 398 
Q 353 888 353 1747 
Q 353 2609 779 3096 
Q 1206 3584 1959 3584 
z
" transform="scale(0.015625)"/>
       <path id="DejaVuSans-66" d="M 2375 4863 
L 2375 4384 
L 1825 4384 
Q 1516 4384 1395 4259 
Q 1275 4134 1275 3809 
L 1275 3500 
L 2222 3500 
L 2222 3053 
L 1275 3053 
L 1275 0 
L 697 0 
L 697 3053 
L 147 3053 
L 147 3500 
L 697 3500 
L 697 3744 
Q 697 4328 969 4595 
Q 1241 4863 1831 4863 
L 2375 4863 
z
" transform="scale(0.015625)"/>
       <path id="DejaVuSans-42" d="M 1259 2228 
L 1259 519 
L 2272 519 
Q 2781 519 3026 730 
Q 3272 941 3272 1375 
Q 3272 1813 3026 2020 
Q 2781 2228 2272 2228 
L 1259 2228 
z
M 1259 4147 
L 1259 2741 
L 2194 2741 
Q 2656 2741 2882 2914 
Q 3109 3088 3109 3444 
Q 3109 3797 2882 3972 
Q 2656 4147 2194 4147 
L 1259 4147 
z
M 628 4666 
L 2241 4666 
Q 2963 4666 3353 4366 
Q 3744 4066 3744 3513 
Q 3744 3084 3544 2831 
Q 3344 2578 2956 2516 
Q 3422 2416 3680 2098 
Q 3938 1781 3938 1306 
Q 3938 681 3513 340 
Q 3088 0 2303 0 
L 628 0 
L 628 4666 
z
" transform="scale(0.015625)"/>
       <path id="DejaVuSans-6e" d="M 3513 2113 
L 3513 0 
L 2938 0 
L 2938 2094 
Q 2938 2591 2744 2837 
Q 2550 3084 2163 3084 
Q 1697 3084 1428 2787 
Q 1159 2491 1159 1978 
L 1159 0 
L 581 0 
L 581 3500 
L 1159 3500 
L 1159 2956 
Q 1366 3272 1645 3428 
Q 1925 3584 2291 3584 
Q 2894 3584 3203 3211 
Q 3513 2838 3513 2113 
z
" transform="scale(0.015625)"/>
       <path id="DejaVuSans-64" d="M 2906 2969 
L 2906 4863 
L 3481 4863 
L 3481 0 
L 2906 0 
L 2906 525 
Q 2725 213 2448 61 
Q 2172 -91 1784 -91 
Q 1150 -91 751 415 
Q 353 922 353 1747 
Q 353 2572 751 3078 
Q 1150 3584 1784 3584 
Q 2172 3584 2448 3432 
Q 2725 3281 2906 2969 
z
M 947 1747 
Q 947 1113 1208 752 
Q 1469 391 1925 391 
Q 2381 391 2643 752 
Q 2906 1113 2906 1747 
Q 2906 2381 2643 2742 
Q 2381 3103 1925 3103 
Q 1469 3103 1208 2742 
Q 947 2381 947 1747 
z
" transform="scale(0.015625)"/>
       <path id="DejaVuSans-73" d="M 2834 3397 
L 2834 2853 
Q 2591 2978 2328 3040 
Q 2066 3103 1784 3103 
Q 1356 3103 1142 2972 
Q 928 2841 928 2578 
Q 928 2378 1081 2264 
Q 1234 2150 1697 2047 
L 1894 2003 
Q 2506 1872 2764 1633 
Q 3022 1394 3022 966 
Q 3022 478 2636 193 
Q 2250 -91 1575 -91 
Q 1294 -91 989 -36 
Q 684 19 347 128 
L 347 722 
Q 666 556 975 473 
Q 1284 391 1588 391 
Q 1994 391 2212 530 
Q 2431 669 2431 922 
Q 2431 1156 2273 1281 
Q 2116 1406 1581 1522 
L 1381 1569 
Q 847 1681 609 1914 
Q 372 2147 372 2553 
Q 372 3047 722 3315 
Q 1072 3584 1716 3584 
Q 2034 3584 2315 3537 
Q 2597 3491 2834 3397 
z
" transform="scale(0.015625)"/>
      </defs>
      <use xlink:href="#DejaVuSans-41"/>
      <use xlink:href="#DejaVuSans-76" x="62.533203"/>
      <use xlink:href="#DejaVuSans-65" x="121.712891"/>
      <use xlink:href="#DejaVuSans-72" x="183.236328"/>
      <use xlink:href="#DejaVuSans-61" x="224.349609"/>
      <use xlink:href="#DejaVuSans-67" x="285.628906"/>
      <use xlink:href="#DejaVuSans-65" x="349.105469"/>
      <use xlink:href="#DejaVuSans-20" x="410.628906"/>
      <use xlink:href="#DejaVuSans-4e" x="442.416016"/>
      <use xlink:href="#DejaVuSans-75" x="517.220703"/>
      <use xlink:href="#DejaVuSans-6d" x="580.599609"/>
      <use xlink:href="#DejaVuSans-62" x="678.011719"/>
      <use xlink:href="#DejaVuSans-65" x="741.488281"/>
      <use xlink:href="#DejaVuSans-72" x="803.011719"/>
      <use xlink:href="#DejaVuSans-20" x="844.125"/>
      <use xlink:href="#DejaVuSans-6f" x="875.912109"/>
      <use xlink:href="#DejaVuSans-66" x="937.09375"/>
      <use xlink:href="#DejaVuSans-20" x="972.298828"/>
      <use xlink:href="#DejaVuSans-42" x="1004.085938"/>
      <use xlink:href="#DejaVuSans-6f" x="1072.689453"/>
      <use xlink:href="#DejaVuSans-75" x="1133.871094"/>
      <use xlink:href="#DejaVuSans-6e" x="1197.25"/>
      <use xlink:href="#DejaVuSans-64" x="1260.628906"/>
      <use xlink:href="#DejaVuSans-73" x="1324.105469"/>
     </g>
    </g>
   </g>
   <g id="PolyCollection_1">
    <defs>
     <path id="m67dbc74480" d="M 76.978636 -124.859969 
L 76.978636 -114.518401 
L 78.9986 -160.694051 
L 81.018563 -182.879587 
L 83.038527 -182.39342 
L 85.05849 -168.565377 
L 87.078454 -152.408205 
L 89.098417 -143.340998 
L 91.118381 -142.246825 
L 93.138344 -145.777168 
L 95.158307 -149.832677 
L 97.178271 -151.844751 
L 99.198234 -152.22774 
L 101.218198 -152.744068 
L 103.238161 -153.78873 
L 105.258125 -155.708175 
L 107.278088 -158.53707 
L 109.298052 -161.730732 
L 111.318015 -165.940568 
L 113.337979 -170.132345 
L 115.357942 -174.537453 
L 117.377905 -180.18941 
L 119.397869 -186.030936 
L 121.417832 -191.185757 
L 123.437796 -196.910787 
L 125.457759 -203.369148 
L 127.477723 -210.326829 
L 129.497686 -217.732304 
L 131.51765 -224.702823 
L 133.537613 -229.65627 
L 135.557577 -233.949789 
L 137.57754 -239.293688 
L 139.597503 -244.635226 
L 141.617467 -248.586908 
L 143.63743 -251.461398 
L 145.657394 -253.520119 
L 147.677357 -254.697332 
L 149.697321 -256.405421 
L 151.717284 -258.360161 
L 153.737248 -260.062869 
L 155.757211 -260.586282 
L 157.777175 -259.848687 
L 159.797138 -258.705609 
L 161.817101 -258.289775 
L 163.837065 -259.364331 
L 165.857028 -260.336792 
L 167.876992 -259.057129 
L 169.896955 -258.527132 
L 171.916919 -256.812672 
L 173.936882 -254.272473 
L 175.956846 -254.087312 
L 177.976809 -255.086389 
L 179.996772 -254.584649 
L 182.016736 -252.722967 
L 184.036699 -251.862171 
L 186.056663 -252.194371 
L 188.076626 -251.728328 
L 190.09659 -248.354916 
L 192.116553 -244.763326 
L 194.136517 -243.830492 
L 196.15648 -244.93163 
L 198.176444 -245.368807 
L 200.196407 -244.207305 
L 202.21637 -243.73444 
L 204.236334 -245.066123 
L 206.256297 -244.411843 
L 208.276261 -243.961146 
L 210.296224 -243.665842 
L 212.316188 -242.522639 
L 214.336151 -242.538804 
L 216.356115 -244.163407 
L 218.376078 -246.431857 
L 220.396042 -248.260578 
L 222.416005 -247.659404 
L 224.435968 -247.955606 
L 226.455932 -248.503314 
L 228.475895 -247.181295 
L 230.495859 -249.394619 
L 232.515822 -252.533319 
L 234.535786 -253.697053 
L 236.555749 -251.703969 
L 238.575713 -250.299425 
L 240.595676 -249.635805 
L 242.61564 -248.742012 
L 244.635603 -248.243785 
L 246.655566 -247.197443 
L 248.67553 -244.532447 
L 250.695493 -243.186063 
L 252.715457 -242.708511 
L 254.73542 -242.944535 
L 256.755384 -245.533798 
L 258.775347 -246.252764 
L 260.795311 -241.308139 
L 262.815274 -235.120722 
L 264.835238 -233.721957 
L 266.855201 -234.973016 
L 268.875164 -237.671738 
L 270.895128 -238.749928 
L 272.915091 -233.616136 
L 274.935055 -229.137666 
L 276.955018 -229.143393 
L 278.974982 -231.019189 
L 280.994945 -233.447374 
L 283.014909 -233.408934 
L 285.034872 -232.078136 
L 287.054836 -230.252695 
L 289.074799 -229.19303 
L 291.094762 -227.501852 
L 293.114726 -225.856271 
L 295.134689 -225.923364 
L 297.154653 -227.049028 
L 299.174616 -229.520567 
L 301.19458 -231.359665 
L 303.214543 -231.310496 
L 305.234507 -230.614305 
L 307.25447 -230.763284 
L 309.274434 -229.775524 
L 311.294397 -227.34661 
L 313.31436 -223.981343 
L 315.334324 -221.312161 
L 317.354287 -221.503552 
L 319.374251 -223.292077 
L 321.394214 -224.767563 
L 323.414178 -223.174014 
L 325.434141 -222.556303 
L 327.454105 -226.331881 
L 329.474068 -228.004203 
L 331.494032 -226.482696 
L 333.513995 -228.857958 
L 335.533958 -232.974383 
L 337.553922 -235.493364 
L 339.573885 -238.279674 
L 341.593849 -241.05412 
L 343.613812 -240.988703 
L 345.633776 -236.741625 
L 347.653739 -227.323247 
L 349.673703 -220.093468 
L 351.693666 -219.466661 
L 353.71363 -227.365199 
L 355.733593 -238.183535 
L 357.753556 -239.373438 
L 359.77352 -235.301548 
L 361.793483 -234.297759 
L 363.813447 -233.965952 
L 365.83341 -226.98253 
L 367.853374 -218.717526 
L 369.873337 -217.114787 
L 371.893301 -219.536518 
L 373.913264 -219.829401 
L 375.933228 -217.468622 
L 377.953191 -212.069821 
L 379.973154 -208.834979 
L 381.993118 -206.721364 
L 384.013081 -205.286642 
L 386.033045 -205.665559 
L 388.053008 -203.528249 
L 390.072972 -198.309529 
L 392.092935 -191.204561 
L 394.112899 -181.652391 
L 396.132862 -171.546183 
L 398.152825 -163.091978 
L 400.172789 -159.217673 
L 402.192752 -158.89185 
L 404.212716 -157.704611 
L 406.232679 -156.366178 
L 408.252643 -149.964281 
L 410.272606 -141.080374 
L 412.29257 -127.265221 
L 414.312533 -118.663001 
L 416.332497 -117.214179 
L 418.35246 -116.273554 
L 420.372423 -112.543045 
L 422.392387 -108.923076 
L 424.41235 -99.449766 
L 426.432314 -87.630221 
L 428.452277 -83.319965 
L 430.472241 -82.330304 
L 432.492204 -80.324453 
L 434.512168 -78.198412 
L 436.532131 -74.833211 
L 438.552095 -73.129397 
L 440.572058 -72.681308 
L 442.592021 -70.898398 
L 444.611985 -69.179706 
L 446.631948 -67.358512 
L 448.651912 -69.630971 
L 450.671875 -70.538361 
L 452.691839 -67.181504 
L 454.711802 -64.877727 
L 456.731766 -66.501686 
L 458.751729 -71.138929 
L 460.771693 -70.880856 
L 462.791656 -67.945033 
L 464.811619 -67.061105 
L 466.831583 -68.813441 
L 468.851546 -68.534462 
L 470.87151 -66.029969 
L 472.891473 -67.956861 
L 474.911437 -72.484375 
L 476.9314 -75.089693 
L 478.951364 -78.818643 
L 478.951364 -98.62218 
L 478.951364 -98.62218 
L 476.9314 -132.775598 
L 474.911437 -148.581161 
L 472.891473 -155.452484 
L 470.87151 -150.428275 
L 468.851546 -135.048899 
L 466.831583 -132.998674 
L 464.811619 -138.710027 
L 462.791656 -140.765581 
L 460.771693 -155.344663 
L 458.751729 -165.38287 
L 456.731766 -151.26155 
L 454.711802 -138.469708 
L 452.691839 -151.018529 
L 450.671875 -183.717582 
L 448.651912 -208.993896 
L 446.631948 -217.53435 
L 444.611985 -208.209654 
L 442.592021 -194.413801 
L 440.572058 -185.326612 
L 438.552095 -188.051577 
L 436.532131 -194.339702 
L 434.512168 -198.690643 
L 432.492204 -193.177085 
L 430.472241 -189.05039 
L 428.452277 -189.187317 
L 426.432314 -191.712462 
L 424.41235 -199.977814 
L 422.392387 -207.855633 
L 420.372423 -215.675336 
L 418.35246 -222.781366 
L 416.332497 -222.152031 
L 414.312533 -221.644324 
L 412.29257 -228.949166 
L 410.272606 -243.677213 
L 408.252643 -255.810109 
L 406.232679 -263.913726 
L 404.212716 -261.493983 
L 402.192752 -257.602071 
L 400.172789 -255.93526 
L 398.152825 -259.655395 
L 396.132862 -270.336905 
L 394.112899 -280.934676 
L 392.092935 -289.083426 
L 390.072972 -292.886006 
L 388.053008 -294.706304 
L 386.033045 -296.241006 
L 384.013081 -296.244753 
L 381.993118 -295.700689 
L 379.973154 -295.387445 
L 377.953191 -296.700296 
L 375.933228 -300.322158 
L 373.913264 -302.337288 
L 371.893301 -301.306146 
L 369.873337 -297.909264 
L 367.853374 -299.57977 
L 365.83341 -308.990179 
L 363.813447 -317.034958 
L 361.793483 -317.670062 
L 359.77352 -317.018028 
L 357.753556 -318.199091 
L 355.733593 -314.936361 
L 353.71363 -302.733268 
L 351.693666 -293.429868 
L 349.673703 -292.993884 
L 347.653739 -299.742212 
L 345.633776 -308.688944 
L 343.613812 -312.385566 
L 341.593849 -311.166416 
L 339.573885 -306.140476 
L 337.553922 -300.739495 
L 335.533958 -296.126582 
L 333.513995 -290.586673 
L 331.494032 -287.025613 
L 329.474068 -286.583269 
L 327.454105 -283.222752 
L 325.434141 -278.265498 
L 323.414178 -277.881582 
L 321.394214 -278.583509 
L 319.374251 -276.292352 
L 317.354287 -273.850563 
L 315.334324 -273.058994 
L 313.31436 -275.112225 
L 311.294397 -278.053009 
L 309.274434 -279.981887 
L 307.25447 -280.523805 
L 305.234507 -280.328797 
L 303.214543 -280.541625 
L 301.19458 -279.59727 
L 299.174616 -276.947918 
L 297.154653 -274.039317 
L 295.134689 -272.673578 
L 293.114726 -272.435621 
L 291.094762 -273.5662 
L 289.074799 -274.712009 
L 287.054836 -275.265202 
L 285.034872 -276.506782 
L 283.014909 -277.305896 
L 280.994945 -276.775809 
L 278.974982 -273.866414 
L 276.955018 -271.54187 
L 274.935055 -271.580193 
L 272.915091 -276.207151 
L 270.895128 -281.301914 
L 268.875164 -280.084488 
L 266.855201 -276.839554 
L 264.835238 -275.201291 
L 262.815274 -276.41923 
L 260.795311 -282.25821 
L 258.775347 -286.802756 
L 256.755384 -285.912364 
L 254.73542 -283.186871 
L 252.715457 -282.637895 
L 250.695493 -282.999929 
L 248.67553 -283.924679 
L 246.655566 -285.609519 
L 244.635603 -285.961762 
L 242.61564 -285.81114 
L 240.595676 -286.358822 
L 238.575713 -287.09744 
L 236.555749 -288.520599 
L 234.535786 -290.126037 
L 232.515822 -288.819996 
L 230.495859 -285.530045 
L 228.475895 -283.039677 
L 226.455932 -283.725997 
L 224.435968 -283.336108 
L 222.416005 -283.179865 
L 220.396042 -283.368453 
L 218.376078 -281.234187 
L 216.356115 -278.670913 
L 214.336151 -276.764863 
L 212.316188 -276.468883 
L 210.296224 -277.441553 
L 208.276261 -277.729814 
L 206.256297 -277.973999 
L 204.236334 -278.309846 
L 202.21637 -276.778527 
L 200.196407 -276.673128 
L 198.176444 -277.164192 
L 196.15648 -276.476133 
L 194.136517 -275.488314 
L 192.116553 -276.285583 
L 190.09659 -279.385573 
L 188.076626 -282.289061 
L 186.056663 -282.451629 
L 184.036699 -281.6375 
L 182.016736 -281.923973 
L 179.996772 -283.119216 
L 177.976809 -283.106325 
L 175.956846 -281.783822 
L 173.936882 -281.577684 
L 171.916919 -283.471758 
L 169.896955 -284.526725 
L 167.876992 -284.457794 
L 165.857028 -284.748734 
L 163.837065 -283.056108 
L 161.817101 -281.395357 
L 159.797138 -281.258332 
L 157.777175 -281.756456 
L 155.757211 -281.751015 
L 153.737248 -280.492573 
L 151.717284 -278.10696 
L 149.697321 -275.527814 
L 147.677357 -273.270827 
L 145.657394 -271.492252 
L 143.63743 -268.994012 
L 141.617467 -265.65832 
L 139.597503 -261.162698 
L 137.57754 -255.324266 
L 135.557577 -249.514402 
L 133.537613 -244.572941 
L 131.51765 -238.969399 
L 129.497686 -231.572802 
L 127.477723 -223.741183 
L 125.457759 -216.276843 
L 123.437796 -209.343961 
L 121.417832 -203.140424 
L 119.397869 -197.463226 
L 117.377905 -191.238352 
L 115.357942 -185.252836 
L 113.337979 -180.417825 
L 111.318015 -175.853377 
L 109.298052 -171.327891 
L 107.278088 -167.759398 
L 105.258125 -164.702505 
L 103.238161 -162.579953 
L 101.218198 -161.388799 
L 99.198234 -160.751857 
L 97.178271 -160.018108 
L 95.158307 -157.47756 
L 93.138344 -152.888213 
L 91.118381 -149.039066 
L 89.098417 -150.28419 
L 87.078454 -159.891561 
L 85.05849 -176.534642 
L 83.038527 -190.879403 
L 81.018563 -191.687067 
L 78.9986 -169.739378 
L 76.978636 -124.859969 
z
" style="stroke: #ffffff; stroke-opacity: 0.2"/>
    </defs>
    <g clip-path="url(#p1d962c5260)">
     <use xlink:href="#m67dbc74480" x="0" y="360" style="fill: #4c72b0; fill-opacity: 0.2; stroke: #ffffff; stroke-opacity: 0.2"/>
    </g>
   </g>
   <g id="PolyCollection_2">
    <defs>
     <path id="m62ed48ac71" d="M 76.978636 -104.871135 
L 76.978636 -116.347525 
L 78.9986 -158.672534 
L 81.018563 -178.726566 
L 83.038527 -176.530817 
L 85.05849 -161.886664 
L 87.078454 -146.716848 
L 89.098417 -138.43615 
L 91.118381 -138.351052 
L 93.138344 -143.808905 
L 95.158307 -149.511524 
L 97.178271 -152.069191 
L 99.198234 -152.423367 
L 101.218198 -153.43607 
L 103.238161 -155.175679 
L 105.258125 -157.570732 
L 107.278088 -161.00478 
L 109.298052 -165.446865 
L 111.318015 -170.128988 
L 113.337979 -173.534116 
L 115.357942 -178.412408 
L 117.377905 -185.895068 
L 119.397869 -192.680916 
L 121.417832 -197.857728 
L 123.437796 -203.347803 
L 125.457759 -210.338861 
L 127.477723 -217.510138 
L 129.497686 -224.366652 
L 131.51765 -229.579989 
L 133.537613 -233.602851 
L 135.557577 -237.876796 
L 137.57754 -241.217885 
L 139.597503 -244.532621 
L 141.617467 -248.112701 
L 143.63743 -250.251568 
L 145.657394 -249.69508 
L 147.677357 -249.542626 
L 149.697321 -250.883168 
L 151.717284 -252.057071 
L 153.737248 -253.159789 
L 155.757211 -254.167442 
L 157.777175 -254.44109 
L 159.797138 -253.569316 
L 161.817101 -252.667989 
L 163.837065 -250.04766 
L 165.857028 -249.249818 
L 167.876992 -252.350719 
L 169.896955 -256.263139 
L 171.916919 -255.33856 
L 173.936882 -250.005424 
L 175.956846 -246.494698 
L 177.976809 -243.375591 
L 179.996772 -240.255698 
L 182.016736 -238.569639 
L 184.036699 -238.61681 
L 186.056663 -239.536091 
L 188.076626 -240.475591 
L 190.09659 -241.237797 
L 192.116553 -242.127065 
L 194.136517 -243.613653 
L 196.15648 -243.377175 
L 198.176444 -242.096793 
L 200.196407 -241.72646 
L 202.21637 -240.893886 
L 204.236334 -240.170323 
L 206.256297 -240.523151 
L 208.276261 -240.335227 
L 210.296224 -239.450832 
L 212.316188 -239.317173 
L 214.336151 -239.351117 
L 216.356115 -238.631972 
L 218.376078 -237.690489 
L 220.396042 -235.950768 
L 222.416005 -234.885211 
L 224.435968 -236.383149 
L 226.455932 -239.94797 
L 228.475895 -243.044073 
L 230.495859 -245.547973 
L 232.515822 -245.559741 
L 234.535786 -242.13605 
L 236.555749 -238.623354 
L 238.575713 -239.444122 
L 240.595676 -243.270314 
L 242.61564 -244.417415 
L 244.635603 -240.173657 
L 246.655566 -234.715542 
L 248.67553 -231.049456 
L 250.695493 -230.612454 
L 252.715457 -230.684817 
L 254.73542 -230.351935 
L 256.755384 -230.445374 
L 258.775347 -229.803296 
L 260.795311 -227.117697 
L 262.815274 -223.814088 
L 264.835238 -221.130483 
L 266.855201 -221.964945 
L 268.875164 -224.356367 
L 270.895128 -226.351468 
L 272.915091 -225.327987 
L 274.935055 -222.480119 
L 276.955018 -219.850162 
L 278.974982 -218.683399 
L 280.994945 -218.42239 
L 283.014909 -217.647222 
L 285.034872 -219.440038 
L 287.054836 -222.767566 
L 289.074799 -222.02396 
L 291.094762 -217.854652 
L 293.114726 -216.013734 
L 295.134689 -215.799618 
L 297.154653 -216.286618 
L 299.174616 -218.723599 
L 301.19458 -223.700083 
L 303.214543 -224.839413 
L 305.234507 -222.983138 
L 307.25447 -221.652937 
L 309.274434 -218.985509 
L 311.294397 -215.530928 
L 313.31436 -213.01899 
L 315.334324 -213.529985 
L 317.354287 -215.427785 
L 319.374251 -215.950604 
L 321.394214 -216.932089 
L 323.414178 -220.620109 
L 325.434141 -219.01963 
L 327.454105 -215.77544 
L 329.474068 -214.211524 
L 331.494032 -214.50441 
L 333.513995 -216.645413 
L 335.533958 -218.27673 
L 337.553922 -218.86519 
L 339.573885 -218.337943 
L 341.593849 -217.062787 
L 343.613812 -217.036753 
L 345.633776 -215.024657 
L 347.653739 -210.228225 
L 349.673703 -209.317598 
L 351.693666 -208.131045 
L 353.71363 -205.665264 
L 355.733593 -204.972348 
L 357.753556 -204.255384 
L 359.77352 -203.351903 
L 361.793483 -207.295079 
L 363.813447 -212.069265 
L 365.83341 -213.262506 
L 367.853374 -211.999078 
L 369.873337 -212.219826 
L 371.893301 -214.319211 
L 373.913264 -218.40723 
L 375.933228 -216.514464 
L 377.953191 -205.120429 
L 379.973154 -195.552624 
L 381.993118 -191.693656 
L 384.013081 -193.059293 
L 386.033045 -194.544248 
L 388.053008 -191.624733 
L 390.072972 -183.894951 
L 392.092935 -172.688007 
L 394.112899 -165.027407 
L 396.132862 -157.943202 
L 398.152825 -153.572713 
L 400.172789 -152.01581 
L 402.192752 -153.378264 
L 404.212716 -151.00186 
L 406.232679 -144.86284 
L 408.252643 -133.682239 
L 410.272606 -122.464588 
L 412.29257 -114.19273 
L 414.312533 -112.215225 
L 416.332497 -113.790182 
L 418.35246 -114.584028 
L 420.372423 -114.285809 
L 422.392387 -114.459321 
L 424.41235 -113.345421 
L 426.432314 -112.530569 
L 428.452277 -109.875905 
L 430.472241 -102.593548 
L 432.492204 -95.520398 
L 434.512168 -93.824878 
L 436.532131 -96.060344 
L 438.552095 -99.288674 
L 440.572058 -98.552608 
L 442.592021 -94.779813 
L 444.611985 -89.952612 
L 446.631948 -83.809364 
L 448.651912 -76.977517 
L 450.671875 -72.486702 
L 452.691839 -66.557336 
L 454.711802 -63.913315 
L 456.731766 -68.359109 
L 458.751729 -74.653894 
L 460.771693 -73.266142 
L 462.791656 -69.87915 
L 464.811619 -66.769952 
L 466.831583 -66.779592 
L 468.851546 -65.743942 
L 470.87151 -62.980909 
L 472.891473 -65.340093 
L 474.911437 -70.68408 
L 476.9314 -73.963145 
L 478.951364 -78.38755 
L 478.951364 -82.302002 
L 478.951364 -82.302002 
L 476.9314 -157.483659 
L 474.911437 -155.001513 
L 472.891473 -171.39001 
L 470.87151 -173.966759 
L 468.851546 -129.444029 
L 466.831583 -139.531757 
L 464.811619 -156.057548 
L 462.791656 -116.109861 
L 460.771693 -196.142219 
L 458.751729 -252.513713 
L 456.731766 -197.822317 
L 454.711802 -147.390389 
L 452.691839 -165.438065 
L 450.671875 -218.506682 
L 448.651912 -222.731563 
L 446.631948 -233.039733 
L 444.611985 -276.610928 
L 442.592021 -268.498382 
L 440.572058 -260.113594 
L 438.552095 -258.118003 
L 436.532131 -252.511389 
L 434.512168 -234.043181 
L 432.492204 -206.822218 
L 430.472241 -214.146748 
L 428.452277 -228.79617 
L 426.432314 -235.670568 
L 424.41235 -224.37485 
L 422.392387 -225.517798 
L 420.372423 -220.171805 
L 418.35246 -227.428133 
L 416.332497 -221.003856 
L 414.312533 -210.344723 
L 412.29257 -208.063639 
L 410.272606 -219.00965 
L 408.252643 -234.878656 
L 406.232679 -255.681064 
L 404.212716 -253.250872 
L 402.192752 -260.024579 
L 400.172789 -250.056083 
L 398.152825 -251.315 
L 396.132862 -253.199131 
L 394.112899 -263.096554 
L 392.092935 -260.876118 
L 390.072972 -278.951514 
L 388.053008 -285.157216 
L 386.033045 -289.825658 
L 384.013081 -285.69869 
L 381.993118 -279.53667 
L 379.973154 -284.111261 
L 377.953191 -290.812008 
L 375.933228 -312.235488 
L 373.913264 -306.485667 
L 371.893301 -293.553917 
L 369.873337 -298.328624 
L 367.853374 -293.147325 
L 365.83341 -295.839467 
L 363.813447 -297.229709 
L 361.793483 -287.591042 
L 359.77352 -277.36562 
L 357.753556 -283.264578 
L 355.733593 -281.564219 
L 353.71363 -277.024554 
L 351.693666 -283.733918 
L 349.673703 -284.057268 
L 347.653739 -276.087326 
L 345.633776 -289.506105 
L 343.613812 -288.253773 
L 341.593849 -282.752859 
L 339.573885 -286.231498 
L 337.553922 -284.588981 
L 335.533958 -282.744238 
L 333.513995 -281.777516 
L 331.494032 -277.854712 
L 329.474068 -276.79624 
L 327.454105 -275.854621 
L 325.434141 -279.095696 
L 323.414178 -284.6432 
L 321.394214 -267.939521 
L 319.374251 -270.059582 
L 317.354287 -272.338582 
L 315.334324 -266.054779 
L 313.31436 -263.368763 
L 311.294397 -267.374484 
L 309.274434 -271.790736 
L 307.25447 -273.492713 
L 305.234507 -270.671465 
L 303.214543 -276.288499 
L 301.19458 -276.547939 
L 299.174616 -263.76107 
L 297.154653 -263.072773 
L 295.134689 -262.698276 
L 293.114726 -261.574664 
L 291.094762 -261.017579 
L 289.074799 -270.857883 
L 287.054836 -272.303595 
L 285.034872 -263.770831 
L 283.014909 -261.484372 
L 280.994945 -265.076349 
L 278.974982 -262.334484 
L 276.955018 -263.180529 
L 274.935055 -266.482432 
L 272.915091 -270.077674 
L 270.895128 -272.091287 
L 268.875164 -267.105491 
L 266.855201 -264.593372 
L 264.835238 -261.922205 
L 262.815274 -267.463911 
L 260.795311 -269.082259 
L 258.775347 -272.505048 
L 256.755384 -271.648457 
L 254.73542 -271.238612 
L 252.715457 -273.801898 
L 250.695493 -273.425961 
L 248.67553 -270.469061 
L 246.655566 -274.104508 
L 244.635603 -279.156312 
L 242.61564 -285.863778 
L 240.595676 -282.656218 
L 238.575713 -274.965564 
L 236.555749 -273.532772 
L 234.535786 -279.974064 
L 232.515822 -284.797747 
L 230.495859 -282.719562 
L 228.475895 -278.966177 
L 226.455932 -276.782921 
L 224.435968 -270.971561 
L 222.416005 -269.393518 
L 220.396042 -272.000879 
L 218.376078 -274.494263 
L 216.356115 -273.693343 
L 214.336151 -275.202963 
L 212.316188 -273.723156 
L 210.296224 -273.280432 
L 208.276261 -275.921442 
L 206.256297 -275.782835 
L 204.236334 -272.937932 
L 202.21637 -274.574645 
L 200.196407 -276.125951 
L 198.176444 -274.580047 
L 196.15648 -277.434973 
L 194.136517 -277.777898 
L 192.116553 -273.684754 
L 190.09659 -273.564012 
L 188.076626 -272.420953 
L 186.056663 -270.806138 
L 184.036699 -269.386487 
L 182.016736 -268.422388 
L 179.996772 -269.139708 
L 177.976809 -273.419484 
L 175.956846 -275.966304 
L 173.936882 -275.632277 
L 171.916919 -285.770268 
L 169.896955 -285.845924 
L 167.876992 -277.877798 
L 165.857028 -272.471846 
L 163.837065 -274.584395 
L 161.817101 -279.227531 
L 159.797138 -276.250397 
L 157.777175 -278.184998 
L 155.757211 -276.359852 
L 153.737248 -273.900591 
L 151.717284 -272.421624 
L 149.697321 -271.360234 
L 147.677357 -267.754632 
L 145.657394 -267.640244 
L 143.63743 -270.029182 
L 141.617467 -265.890248 
L 139.597503 -260.779888 
L 137.57754 -257.464072 
L 135.557577 -254.74128 
L 133.537613 -247.898708 
L 131.51765 -245.039149 
L 129.497686 -239.669265 
L 127.477723 -231.253359 
L 125.457759 -224.083713 
L 123.437796 -215.255261 
L 121.417832 -210.074277 
L 119.397869 -205.96609 
L 117.377905 -198.393373 
L 115.357942 -187.618155 
L 113.337979 -183.594442 
L 111.318015 -182.32791 
L 109.298052 -175.208643 
L 107.278088 -170.326483 
L 105.258125 -166.753277 
L 103.238161 -164.578892 
L 101.218198 -162.313904 
L 99.198234 -160.085331 
L 97.178271 -161.438751 
L 95.158307 -159.580784 
L 93.138344 -152.221636 
L 91.118381 -144.142519 
L 89.098417 -143.534872 
L 87.078454 -151.352218 
L 85.05849 -167.887223 
L 83.038527 -185.91926 
L 81.018563 -193.73924 
L 78.9986 -178.158939 
L 76.978636 -104.871135 
z
" style="stroke: #ffffff; stroke-opacity: 0.2"/>
    </defs>
    <g clip-path="url(#p1d962c5260)">
     <use xlink:href="#m62ed48ac71" x="0" y="360" style="fill: #dd8452; fill-opacity: 0.2; stroke: #ffffff; stroke-opacity: 0.2"/>
    </g>
   </g>
   <g id="line2d_12">
    <path d="M 76.978636 241.299973 
L 78.9986 194.476673 
L 81.018563 172.228059 
L 83.038527 173.161443 
L 85.05849 187.53468 
L 87.078454 204.099963 
L 89.098417 213.385349 
L 91.118381 214.417173 
L 93.138344 210.610451 
L 95.158307 206.24467 
L 97.178271 204.011534 
L 101.218198 202.956073 
L 103.238161 201.834024 
L 105.258125 199.80258 
L 107.278088 196.847875 
L 109.298052 193.478249 
L 115.357942 180.13026 
L 123.437796 156.887208 
L 125.457759 150.19055 
L 127.477723 142.980119 
L 131.51765 128.11806 
L 133.537613 122.878208 
L 135.557577 118.312638 
L 139.597503 107.076356 
L 141.617467 102.857855 
L 143.63743 99.763229 
L 145.657394 97.48737 
L 147.677357 96.04051 
L 149.697321 94.056114 
L 151.717284 91.772585 
L 153.737248 89.699057 
L 155.757211 88.799872 
L 157.777175 89.184962 
L 159.797138 90.042003 
L 161.817101 90.209113 
L 165.857028 87.40723 
L 167.876992 88.258211 
L 169.896955 88.445579 
L 171.916919 89.833834 
L 173.936882 92.140781 
L 175.956846 92.09884 
L 177.976809 90.853742 
L 179.996772 91.106411 
L 182.016736 92.716303 
L 184.036699 93.303937 
L 186.056663 92.652657 
L 188.076626 92.904833 
L 192.116553 99.545242 
L 194.136517 100.386741 
L 196.15648 99.270104 
L 198.176444 98.686737 
L 200.196407 99.580406 
L 202.21637 99.789519 
L 204.236334 98.264236 
L 206.256297 98.809705 
L 210.296224 99.417765 
L 212.316188 100.530622 
L 214.336151 100.390175 
L 216.356115 98.600689 
L 218.376078 96.150789 
L 220.396042 94.122175 
L 222.416005 94.591913 
L 224.435968 94.356381 
L 226.455932 93.854247 
L 228.475895 94.982022 
L 230.495859 92.57184 
L 232.515822 89.265393 
L 234.535786 88.011063 
L 236.555749 89.904349 
L 238.575713 91.334823 
L 242.61564 92.746316 
L 244.635603 92.878819 
L 246.655566 93.553332 
L 248.67553 95.778857 
L 250.695493 96.912476 
L 252.715457 97.363104 
L 254.73542 97.020569 
L 256.755384 94.235199 
L 258.775347 93.303736 
L 260.795311 98.171893 
L 262.815274 104.368175 
L 264.835238 105.63209 
L 266.855201 104.143402 
L 268.875164 101.04665 
L 270.895128 99.774178 
L 272.915091 105.09964 
L 274.935055 109.787924 
L 276.955018 109.727642 
L 278.974982 107.553118 
L 280.994945 104.808196 
L 283.014909 104.608679 
L 285.034872 105.716187 
L 287.054836 107.273228 
L 289.074799 108.026027 
L 293.114726 110.87183 
L 295.134689 110.721711 
L 297.154653 109.495256 
L 299.174616 106.759581 
L 301.19458 104.476171 
L 303.214543 104.054864 
L 305.234507 104.566728 
L 307.25447 104.361648 
L 309.274434 105.083163 
L 311.294397 107.258718 
L 313.31436 110.470179 
L 315.334324 112.890823 
L 317.354287 112.362018 
L 319.374251 110.174785 
L 321.394214 108.208036 
L 323.414178 109.504927 
L 325.434141 109.733596 
L 327.454105 105.158448 
L 329.474068 102.588494 
L 331.494032 103.317769 
L 333.513995 100.332872 
L 335.533958 95.422233 
L 337.553922 91.933299 
L 341.593849 83.838318 
L 343.613812 83.197869 
L 345.633776 87.125201 
L 347.653739 96.491857 
L 349.673703 103.633097 
L 351.693666 103.785003 
L 353.71363 94.992511 
L 355.733593 83.156785 
L 357.753556 81.13537 
L 359.77352 83.999623 
L 361.793483 84.035748 
L 363.813447 84.271264 
L 365.83341 91.955036 
L 367.853374 101.096168 
L 369.873337 102.639767 
L 371.893301 99.464884 
L 373.913264 98.784405 
L 375.933228 101.06815 
L 377.953191 105.698172 
L 379.973154 107.947579 
L 381.993118 108.782703 
L 384.013081 109.193667 
L 386.033045 109.037091 
L 388.053008 110.956821 
L 390.072972 114.405859 
L 392.092935 119.745996 
L 394.112899 128.607725 
L 396.132862 139.010896 
L 398.152825 148.803639 
L 400.172789 152.569255 
L 402.192752 151.849243 
L 404.212716 150.372471 
L 406.232679 149.549288 
L 408.252643 157.005004 
L 410.272606 167.59387 
L 412.29257 182.141389 
L 414.312533 190.087275 
L 416.332497 190.277873 
L 418.35246 190.175227 
L 422.392387 201.669437 
L 424.41235 210.259318 
L 426.432314 220.404821 
L 428.452277 223.764033 
L 430.472241 224.483328 
L 432.492204 223.29989 
L 434.512168 221.150977 
L 438.552095 229.498604 
L 440.572058 231.474608 
L 442.592021 227.643253 
L 444.611985 221.293015 
L 446.631948 216.990839 
L 448.651912 220.096316 
L 450.671875 232.624107 
L 452.691839 251.675425 
L 454.711802 259.262607 
L 456.731766 250.992236 
L 458.751729 240.698192 
L 460.771693 246.737227 
L 462.791656 256.136329 
L 464.811619 256.903092 
L 466.831583 259.345582 
L 468.851546 258.773139 
L 470.87151 251.457269 
L 472.891473 247.976698 
L 474.911437 249.326283 
L 476.9314 255.698019 
L 478.951364 272.147745 
L 478.951364 272.147745 
" clip-path="url(#p1d962c5260)" style="fill: none; stroke: #4c72b0; stroke-width: 1.5; stroke-linecap: round"/>
   </g>
   <g id="line2d_13">
    <path d="M 76.978636 256.515202 
L 78.9986 188.311988 
L 81.018563 171.461928 
L 83.038527 178.465277 
L 85.05849 195.956534 
L 87.078454 212.01548 
L 89.098417 219.69908 
L 91.118381 219.166783 
L 93.138344 211.640556 
L 95.158307 204.707211 
L 97.178271 202.958585 
L 99.198234 204.210879 
L 103.238161 200.015473 
L 105.258125 197.901524 
L 107.278088 194.49554 
L 109.298052 189.725548 
L 111.318015 183.103496 
L 113.337979 181.714794 
L 115.357942 177.71922 
L 117.377905 167.494725 
L 119.397869 160.164365 
L 121.417832 156.162183 
L 123.437796 151.119684 
L 125.457759 142.697478 
L 127.477723 135.695608 
L 129.497686 127.685391 
L 131.51765 122.559108 
L 133.537613 119.627249 
L 135.557577 113.37829 
L 137.57754 110.723704 
L 139.597503 107.696435 
L 141.617467 102.883223 
L 143.63743 99.182666 
L 145.657394 101.641933 
L 147.677357 101.818295 
L 149.697321 98.608828 
L 151.717284 97.731629 
L 153.737248 96.565113 
L 155.757211 94.698976 
L 157.777175 93.527982 
L 159.797138 95.422927 
L 161.817101 93.239382 
L 163.837065 97.883882 
L 165.857028 100.096735 
L 167.876992 95.299719 
L 169.896955 87.845653 
L 171.916919 88.549532 
L 173.936882 98.354825 
L 175.956846 98.714965 
L 177.976809 101.251681 
L 179.996772 105.484832 
L 182.016736 106.735085 
L 184.036699 105.998687 
L 188.076626 103.431602 
L 190.09659 102.68103 
L 192.116553 102.532922 
L 194.136517 98.802327 
L 196.15648 99.369633 
L 198.176444 102.155186 
L 200.196407 100.809416 
L 202.21637 102.219844 
L 204.236334 103.840908 
L 206.256297 101.610731 
L 208.276261 101.548401 
L 210.296224 103.946734 
L 212.316188 103.604281 
L 214.336151 102.549472 
L 216.356115 103.939723 
L 218.376078 103.55482 
L 222.416005 108.243555 
L 224.435968 106.683811 
L 226.455932 101.327058 
L 228.475895 99.238237 
L 230.495859 95.741419 
L 232.515822 94.091043 
L 234.535786 98.731197 
L 236.555749 104.909208 
L 238.575713 103.5448 
L 240.595676 96.49488 
L 242.61564 93.662231 
L 244.635603 100.455566 
L 246.655566 106.023135 
L 248.67553 109.885433 
L 250.695493 107.669206 
L 252.715457 107.471591 
L 254.73542 109.489125 
L 258.775347 108.443196 
L 260.795311 111.846668 
L 262.815274 114.232697 
L 264.835238 119.187283 
L 268.875164 114.316369 
L 270.895128 110.18066 
L 272.915091 112.179705 
L 274.935055 115.668184 
L 276.955018 118.796837 
L 278.974982 119.53295 
L 280.994945 117.538952 
L 283.014909 121.138708 
L 285.034872 119.128957 
L 287.054836 111.452323 
L 289.074799 112.749178 
L 291.094762 121.56115 
L 293.114726 121.355956 
L 295.134689 120.307503 
L 297.154653 120.488507 
L 299.174616 119.761485 
L 301.19458 108.783366 
L 303.214543 108.989278 
L 305.234507 114.001755 
L 307.25447 112.142473 
L 309.274434 114.379352 
L 313.31436 122.457356 
L 315.334324 120.323596 
L 317.354287 115.308822 
L 319.374251 117.089523 
L 321.394214 119.05618 
L 323.414178 105.69909 
L 325.434141 110.796841 
L 327.454105 114.697707 
L 329.474068 114.609288 
L 331.494032 114.166544 
L 333.513995 110.520918 
L 337.553922 108.158491 
L 339.573885 107.585992 
L 341.593849 110.876962 
L 343.613812 106.859593 
L 345.633776 106.710698 
L 347.653739 118.385581 
L 349.673703 112.937144 
L 351.693666 113.449994 
L 353.71363 119.258141 
L 355.733593 116.460897 
L 357.753556 115.579119 
L 359.77352 120.987831 
L 363.813447 104.430755 
L 365.83341 104.913478 
L 367.853374 107.941893 
L 369.873337 105.08087 
L 371.893301 107.222037 
L 373.913264 96.725991 
L 375.933228 93.355827 
L 377.953191 113.031 
L 379.973154 121.208832 
L 381.993118 125.063838 
L 384.013081 120.428949 
L 386.033045 117.188918 
L 388.053008 121.264277 
L 390.072972 127.926704 
L 392.092935 144.614508 
L 394.112899 145.394653 
L 396.132862 154.564375 
L 398.152825 157.75087 
L 400.172789 159.861313 
L 402.192752 152.480291 
L 404.212716 157.813337 
L 406.232679 158.98937 
L 408.252643 175.920918 
L 410.272606 189.245694 
L 412.29257 199.873338 
L 414.312533 198.963649 
L 416.332497 191.894562 
L 418.35246 188.832085 
L 420.372423 193.104525 
L 422.392387 189.686799 
L 424.41235 191.571768 
L 426.432314 186.156214 
L 428.452277 189.33884 
L 430.472241 201.561556 
L 432.492204 209.637506 
L 434.512168 196.588686 
L 436.532131 186.063868 
L 438.552095 180.165691 
L 440.572058 180.373207 
L 442.592021 178.612625 
L 444.611985 177.355671 
L 446.631948 200.879422 
L 448.651912 210.969714 
L 450.671875 213.779195 
L 452.691839 244.046193 
L 454.711802 255.519875 
L 456.731766 227.368293 
L 458.751729 194.777419 
L 460.771693 226.080595 
L 462.791656 265.503691 
L 464.811619 250.805198 
L 466.831583 256.309224 
L 468.851546 260.38384 
L 470.87151 243.648134 
L 472.891473 242.259578 
L 474.911437 245.318672 
L 476.9314 245.932839 
L 478.951364 278.344965 
L 478.951364 278.344965 
" clip-path="url(#p1d962c5260)" style="fill: none; stroke: #dd8452; stroke-width: 1.5; stroke-linecap: round"/>
   </g>
   <g id="patch_3">
    <path d="M 56.88 309.78 
L 56.88 29.04 
" style="fill: none; stroke: #ffffff; stroke-width: 1.25; stroke-linejoin: miter; stroke-linecap: square"/>
   </g>
   <g id="patch_4">
    <path d="M 499.05 309.78 
L 499.05 29.04 
" style="fill: none; stroke: #ffffff; stroke-width: 1.25; stroke-linejoin: miter; stroke-linecap: square"/>
   </g>
   <g id="patch_5">
    <path d="M 56.88 309.78 
L 499.05 309.78 
" style="fill: none; stroke: #ffffff; stroke-width: 1.25; stroke-linejoin: miter; stroke-linecap: square"/>
   </g>
   <g id="patch_6">
    <path d="M 56.88 29.04 
L 499.05 29.04 
" style="fill: none; stroke: #ffffff; stroke-width: 1.25; stroke-linejoin: miter; stroke-linecap: square"/>
   </g>
   <g id="text_14">
    <!-- Average Number of Bounds vs Depth -->
    <g style="fill: #262626" transform="translate(166.624688 23.04) scale(0.12 -0.12)">
     <use xlink:href="#DejaVuSans-41"/>
     <use xlink:href="#DejaVuSans-76" x="62.533203"/>
     <use xlink:href="#DejaVuSans-65" x="121.712891"/>
     <use xlink:href="#DejaVuSans-72" x="183.236328"/>
     <use xlink:href="#DejaVuSans-61" x="224.349609"/>
     <use xlink:href="#DejaVuSans-67" x="285.628906"/>
     <use xlink:href="#DejaVuSans-65" x="349.105469"/>
     <use xlink:href="#DejaVuSans-20" x="410.628906"/>
     <use xlink:href="#DejaVuSans-4e" x="442.416016"/>
     <use xlink:href="#DejaVuSans-75" x="517.220703"/>
     <use xlink:href="#DejaVuSans-6d" x="580.599609"/>
     <use xlink:href="#DejaVuSans-62" x="678.011719"/>
     <use xlink:href="#DejaVuSans-65" x="741.488281"/>
     <use xlink:href="#DejaVuSans-72" x="803.011719"/>
     <use xlink:href="#DejaVuSans-20" x="844.125"/>
     <use xlink:href="#DejaVuSans-6f" x="875.912109"/>
     <use xlink:href="#DejaVuSans-66" x="937.09375"/>
     <use xlink:href="#DejaVuSans-20" x="972.298828"/>
     <use xlink:href="#DejaVuSans-42" x="1004.085938"/>
     <use xlink:href="#DejaVuSans-6f" x="1072.689453"/>
     <use xlink:href="#DejaVuSans-75" x="1133.871094"/>
     <use xlink:href="#DejaVuSans-6e" x="1197.25"/>
     <use xlink:href="#DejaVuSans-64" x="1260.628906"/>
     <use xlink:href="#DejaVuSans-73" x="1324.105469"/>
     <use xlink:href="#DejaVuSans-20" x="1376.205078"/>
     <use xlink:href="#DejaVuSans-76" x="1407.992188"/>
     <use xlink:href="#DejaVuSans-73" x="1467.171875"/>
     <use xlink:href="#DejaVuSans-20" x="1519.271484"/>
     <use xlink:href="#DejaVuSans-44" x="1551.058594"/>
     <use xlink:href="#DejaVuSans-65" x="1628.060547"/>
     <use xlink:href="#DejaVuSans-70" x="1689.583984"/>
     <use xlink:href="#DejaVuSans-74" x="1753.060547"/>
     <use xlink:href="#DejaVuSans-68" x="1792.269531"/>
    </g>
   </g>
   <g id="legend_1">
    <g id="patch_7">
     <path d="M 64.58 70.131875 
L 212.017813 70.131875 
Q 214.217813 70.131875 214.217813 67.931875 
L 214.217813 36.74 
Q 214.217813 34.54 212.017813 34.54 
L 64.58 34.54 
Q 62.38 34.54 62.38 36.74 
L 62.38 67.931875 
Q 62.38 70.131875 64.58 70.131875 
z
" style="fill: #eaeaf2; opacity: 0.8; stroke: #cccccc; stroke-linejoin: miter"/>
    </g>
    <g id="line2d_14">
     <path d="M 66.78 43.448281 
L 77.78 43.448281 
L 88.78 43.448281 
" style="fill: none; stroke: #4c72b0; stroke-width: 1.5; stroke-linecap: round"/>
    </g>
    <g id="text_15">
     <!-- compbnd-mdm -->
     <g style="fill: #262626" transform="translate(97.58 47.298281) scale(0.11 -0.11)">
      <defs>
       <path id="DejaVuSans-63" d="M 3122 3366 
L 3122 2828 
Q 2878 2963 2633 3030 
Q 2388 3097 2138 3097 
Q 1578 3097 1268 2742 
Q 959 2388 959 1747 
Q 959 1106 1268 751 
Q 1578 397 2138 397 
Q 2388 397 2633 464 
Q 2878 531 3122 666 
L 3122 134 
Q 2881 22 2623 -34 
Q 2366 -91 2075 -91 
Q 1284 -91 818 406 
Q 353 903 353 1747 
Q 353 2603 823 3093 
Q 1294 3584 2113 3584 
Q 2378 3584 2631 3529 
Q 2884 3475 3122 3366 
z
" transform="scale(0.015625)"/>
       <path id="DejaVuSans-2d" d="M 313 2009 
L 1997 2009 
L 1997 1497 
L 313 1497 
L 313 2009 
z
" transform="scale(0.015625)"/>
      </defs>
      <use xlink:href="#DejaVuSans-63"/>
      <use xlink:href="#DejaVuSans-6f" x="54.980469"/>
      <use xlink:href="#DejaVuSans-6d" x="116.162109"/>
      <use xlink:href="#DejaVuSans-70" x="213.574219"/>
      <use xlink:href="#DejaVuSans-62" x="277.050781"/>
      <use xlink:href="#DejaVuSans-6e" x="340.527344"/>
      <use xlink:href="#DejaVuSans-64" x="403.90625"/>
      <use xlink:href="#DejaVuSans-2d" x="467.382812"/>
      <use xlink:href="#DejaVuSans-6d" x="503.466797"/>
      <use xlink:href="#DejaVuSans-64" x="600.878906"/>
      <use xlink:href="#DejaVuSans-6d" x="664.355469"/>
     </g>
    </g>
    <g id="line2d_15">
     <path d="M 66.78 59.594219 
L 77.78 59.594219 
L 88.78 59.594219 
" style="fill: none; stroke: #dd8452; stroke-width: 1.5; stroke-linecap: round"/>
    </g>
    <g id="text_16">
     <!-- compbnd-mdm+dvs -->
     <g style="fill: #262626" transform="translate(97.58 63.444219) scale(0.11 -0.11)">
      <defs>
       <path id="DejaVuSans-2b" d="M 2944 4013 
L 2944 2272 
L 4684 2272 
L 4684 1741 
L 2944 1741 
L 2944 0 
L 2419 0 
L 2419 1741 
L 678 1741 
L 678 2272 
L 2419 2272 
L 2419 4013 
L 2944 4013 
z
" transform="scale(0.015625)"/>
      </defs>
      <use xlink:href="#DejaVuSans-63"/>
      <use xlink:href="#DejaVuSans-6f" x="54.980469"/>
      <use xlink:href="#DejaVuSans-6d" x="116.162109"/>
      <use xlink:href="#DejaVuSans-70" x="213.574219"/>
      <use xlink:href="#DejaVuSans-62" x="277.050781"/>
      <use xlink:href="#DejaVuSans-6e" x="340.527344"/>
      <use xlink:href="#DejaVuSans-64" x="403.90625"/>
      <use xlink:href="#DejaVuSans-2d" x="467.382812"/>
      <use xlink:href="#DejaVuSans-6d" x="503.466797"/>
      <use xlink:href="#DejaVuSans-64" x="600.878906"/>
      <use xlink:href="#DejaVuSans-6d" x="664.355469"/>
      <use xlink:href="#DejaVuSans-2b" x="761.767578"/>
      <use xlink:href="#DejaVuSans-64" x="845.556641"/>
      <use xlink:href="#DejaVuSans-76" x="909.033203"/>
      <use xlink:href="#DejaVuSans-73" x="968.212891"/>
     </g>
    </g>
   </g>
  </g>
 </g>
 <defs>
  <clipPath id="p1d962c5260">
   <rect x="56.88" y="29.04" width="442.17" height="280.74"/>
  </clipPath>
 </defs>
</svg>
