<?xml version="1.0" encoding="utf-8" standalone="no"?>
<!DOCTYPE svg PUBLIC "-//W3C//DTD SVG 1.1//EN"
  "http://www.w3.org/Graphics/SVG/1.1/DTD/svg11.dtd">
<svg xmlns:xlink="http://www.w3.org/1999/xlink" width="546.283425pt" height="360pt" viewBox="0 0 546.283425 360" xmlns="http://www.w3.org/2000/svg" version="1.1">
 <metadata>
  <rdf:RDF xmlns:dc="http://purl.org/dc/elements/1.1/" xmlns:cc="http://creativecommons.org/ns#" xmlns:rdf="http://www.w3.org/1999/02/22-rdf-syntax-ns#">
   <cc:Work>
    <dc:type rdf:resource="http://purl.org/dc/dcmitype/StillImage"/>
    <dc:date>2024-08-19T21:17:31.424252</dc:date>
    <dc:format>image/svg+xml</dc:format>
    <dc:creator>
     <cc:Agent>
      <dc:title>Matplotlib v3.9.0, https://matplotlib.org/</dc:title>
     </cc:Agent>
    </dc:creator>
   </cc:Work>
  </rdf:RDF>
 </metadata>
 <defs>
  <style type="text/css">*{stroke-linejoin: round; stroke-linecap: butt}</style>
 </defs>
 <g id="figure_1">
  <g id="patch_1">
   <path d="M 0 360 
L 546.283425 360 
L 546.283425 0 
L 0 0 
L 0 360 
z
" style="fill: none"/>
  </g>
  <g id="axes_1">
   <g id="patch_2">
    <path d="M 72.448099 293.506804 
L 526.843425 293.506804 
L 526.843425 19.44 
L 72.448099 19.44 
L 72.448099 293.506804 
z
" style="fill: none"/>
   </g>
   <g id="matplotlib.axis_1">
    <g id="xtick_1">
     <g id="text_1">
      <!-- $\mathdefault{0}$ -->
      <g style="fill: #262626" transform="translate(89.078505 317.422309) scale(0.165 -0.165)">
       <defs>
        <path id="CMR17-30" d="M 2688 2025 
C 2688 2416 2682 3080 2413 3591 
C 2176 4039 1798 4198 1466 4198 
C 1158 4198 768 4058 525 3597 
C 269 3118 243 2524 243 2025 
C 243 1661 250 1106 448 619 
C 723 -39 1216 -128 1466 -128 
C 1760 -128 2208 -7 2470 600 
C 2662 1042 2688 1559 2688 2025 
z
M 1466 -26 
C 1056 -26 813 325 723 812 
C 653 1188 653 1738 653 2096 
C 653 2588 653 2997 736 3387 
C 858 3929 1216 4096 1466 4096 
C 1728 4096 2067 3923 2189 3400 
C 2272 3036 2278 2607 2278 2096 
C 2278 1680 2278 1169 2202 792 
C 2067 95 1690 -26 1466 -26 
z
" transform="scale(0.015625)"/>
       </defs>
       <use xlink:href="#CMR17-30" transform="scale(0.996264)"/>
      </g>
     </g>
    </g>
    <g id="xtick_2">
     <g id="text_2">
      <!-- $\mathdefault{100}$ -->
      <g style="fill: #262626" transform="translate(163.647983 317.422309) scale(0.165 -0.165)">
       <defs>
        <path id="CMR17-31" d="M 1702 4058 
C 1702 4192 1696 4192 1606 4192 
C 1357 3916 979 3827 621 3827 
C 602 3827 570 3827 563 3808 
C 557 3795 557 3782 557 3648 
C 755 3648 1088 3686 1344 3839 
L 1344 461 
C 1344 236 1331 160 781 160 
L 589 160 
L 589 0 
C 896 0 1216 0 1523 0 
C 1830 0 2150 0 2458 0 
L 2458 160 
L 2266 160 
C 1715 160 1702 230 1702 458 
L 1702 4058 
z
" transform="scale(0.015625)"/>
       </defs>
       <use xlink:href="#CMR17-31" transform="scale(0.996264)"/>
       <use xlink:href="#CMR17-30" transform="translate(45.690477 0) scale(0.996264)"/>
       <use xlink:href="#CMR17-30" transform="translate(91.380954 0) scale(0.996264)"/>
      </g>
     </g>
    </g>
    <g id="xtick_3">
     <g id="text_3">
      <!-- $\mathdefault{200}$ -->
      <g style="fill: #262626" transform="translate(246.265315 317.422309) scale(0.165 -0.165)">
       <defs>
        <path id="CMR17-32" d="M 2669 989 
L 2554 989 
C 2490 536 2438 459 2413 420 
C 2381 369 1920 369 1830 369 
L 602 369 
C 832 619 1280 1072 1824 1597 
C 2214 1967 2669 2402 2669 3035 
C 2669 3790 2067 4224 1395 4224 
C 691 4224 262 3604 262 3030 
C 262 2780 448 2748 525 2748 
C 589 2748 781 2787 781 3010 
C 781 3207 614 3264 525 3264 
C 486 3264 448 3258 422 3245 
C 544 3790 915 4058 1306 4058 
C 1862 4058 2227 3617 2227 3035 
C 2227 2479 1901 2000 1536 1584 
L 262 146 
L 262 0 
L 2515 0 
L 2669 989 
z
" transform="scale(0.015625)"/>
       </defs>
       <use xlink:href="#CMR17-32" transform="scale(0.996264)"/>
       <use xlink:href="#CMR17-30" transform="translate(45.690477 0) scale(0.996264)"/>
       <use xlink:href="#CMR17-30" transform="translate(91.380954 0) scale(0.996264)"/>
      </g>
     </g>
    </g>
    <g id="xtick_4">
     <g id="text_4">
      <!-- $\mathdefault{300}$ -->
      <g style="fill: #262626" transform="translate(328.882647 317.422309) scale(0.165 -0.165)">
       <defs>
        <path id="CMR17-33" d="M 1414 2157 
C 1984 2157 2234 1662 2234 1090 
C 2234 320 1824 25 1453 25 
C 1114 25 563 194 390 693 
C 422 680 454 680 486 680 
C 640 680 755 782 755 948 
C 755 1133 614 1216 486 1216 
C 378 1216 211 1165 211 926 
C 211 335 787 -128 1466 -128 
C 2176 -128 2720 430 2720 1085 
C 2720 1707 2208 2157 1600 2227 
C 2086 2328 2554 2756 2554 3329 
C 2554 3820 2048 4179 1472 4179 
C 890 4179 378 3829 378 3329 
C 378 3110 544 3072 627 3072 
C 762 3072 877 3155 877 3321 
C 877 3486 762 3569 627 3569 
C 602 3569 570 3569 544 3557 
C 730 3959 1235 4032 1459 4032 
C 1683 4032 2106 3925 2106 3320 
C 2106 3143 2080 2828 1862 2550 
C 1670 2304 1453 2304 1242 2284 
C 1210 2284 1062 2269 1037 2269 
C 992 2263 966 2257 966 2208 
C 966 2163 973 2157 1101 2157 
L 1414 2157 
z
" transform="scale(0.015625)"/>
       </defs>
       <use xlink:href="#CMR17-33" transform="scale(0.996264)"/>
       <use xlink:href="#CMR17-30" transform="translate(45.690477 0) scale(0.996264)"/>
       <use xlink:href="#CMR17-30" transform="translate(91.380954 0) scale(0.996264)"/>
      </g>
     </g>
    </g>
    <g id="xtick_5">
     <g id="text_5">
      <!-- $\mathdefault{400}$ -->
      <g style="fill: #262626" transform="translate(411.499979 317.422309) scale(0.165 -0.165)">
       <defs>
        <path id="CMR17-34" d="M 2150 4122 
C 2150 4256 2144 4256 2029 4256 
L 128 1254 
L 128 1088 
L 1779 1088 
L 1779 457 
C 1779 224 1766 160 1318 160 
L 1197 160 
L 1197 0 
C 1402 0 1747 0 1965 0 
C 2182 0 2528 0 2733 0 
L 2733 160 
L 2611 160 
C 2163 160 2150 224 2150 457 
L 2150 1088 
L 2803 1088 
L 2803 1254 
L 2150 1254 
L 2150 4122 
z
M 1798 3703 
L 1798 1254 
L 256 1254 
L 1798 3703 
z
" transform="scale(0.015625)"/>
       </defs>
       <use xlink:href="#CMR17-34" transform="scale(0.996264)"/>
       <use xlink:href="#CMR17-30" transform="translate(45.690477 0) scale(0.996264)"/>
       <use xlink:href="#CMR17-30" transform="translate(91.380954 0) scale(0.996264)"/>
      </g>
     </g>
    </g>
    <g id="xtick_6">
     <g id="text_6">
      <!-- $\mathdefault{500}$ -->
      <g style="fill: #262626" transform="translate(494.117311 317.422309) scale(0.165 -0.165)">
       <defs>
        <path id="CMR17-35" d="M 730 3692 
C 794 3666 1056 3584 1325 3584 
C 1920 3584 2246 3911 2432 4100 
C 2432 4157 2432 4192 2394 4192 
C 2387 4192 2374 4192 2323 4163 
C 2099 4058 1837 3973 1517 3973 
C 1325 3973 1037 3999 723 4139 
C 653 4171 640 4171 634 4171 
C 602 4171 595 4164 595 4037 
L 595 2203 
C 595 2089 595 2057 659 2057 
C 691 2057 704 2070 736 2114 
C 941 2401 1222 2522 1542 2522 
C 1766 2522 2246 2382 2246 1289 
C 2246 1085 2246 715 2054 421 
C 1894 159 1645 25 1370 25 
C 947 25 518 320 403 814 
C 429 807 480 795 506 795 
C 589 795 749 840 749 1038 
C 749 1210 627 1280 506 1280 
C 358 1280 262 1190 262 1011 
C 262 454 704 -128 1382 -128 
C 2042 -128 2669 440 2669 1264 
C 2669 2030 2170 2624 1549 2624 
C 1222 2624 947 2503 730 2274 
L 730 3692 
z
" transform="scale(0.015625)"/>
       </defs>
       <use xlink:href="#CMR17-35" transform="scale(0.996264)"/>
       <use xlink:href="#CMR17-30" transform="translate(45.690477 0) scale(0.996264)"/>
       <use xlink:href="#CMR17-30" transform="translate(91.380954 0) scale(0.996264)"/>
      </g>
     </g>
    </g>
    <g id="text_7">
     <!-- Depth -->
     <g style="fill: #262626" transform="translate(278.097691 337.071936) scale(0.18 -0.18)">
      <defs>
       <path id="CMSS17-44" d="M 570 4416 
L 570 0 
L 2144 0 
C 3194 0 4000 980 4000 2170 
C 4000 3398 3194 4416 2144 4416 
L 570 4416 
z
M 1094 357 
L 1094 4059 
L 2003 4059 
C 2861 4059 3475 3277 3475 2170 
C 3475 1107 2867 357 2003 357 
L 1094 357 
z
" transform="scale(0.015625)"/>
       <path id="CMSS17-65" d="M 2502 1377 
C 2502 1590 2490 2003 2285 2345 
C 2061 2713 1696 2816 1421 2816 
C 755 2816 192 2188 192 1375 
C 192 582 774 -64 1510 -64 
C 1798 -64 2150 19 2470 248 
C 2470 274 2458 414 2451 420 
C 2451 433 2432 630 2432 656 
C 2125 407 1773 325 1517 325 
C 1107 325 666 667 646 1377 
L 2502 1377 
z
M 698 1728 
C 781 2084 1062 2421 1421 2421 
C 1517 2421 1965 2421 2080 1728 
L 698 1728 
z
" transform="scale(0.015625)"/>
       <path id="CMSS17-70" d="M 966 333 
C 1178 129 1466 -5 1773 -5 
C 2368 -5 2880 603 2880 1412 
C 2880 2159 2496 2816 1946 2816 
C 1626 2816 1242 2702 954 2472 
L 954 2765 
L 480 2765 
L 480 -1216 
L 966 -1216 
L 966 333 
z
M 966 2100 
C 1018 2176 1235 2415 1587 2415 
C 2035 2415 2394 1960 2394 1412 
C 2394 787 1958 384 1530 384 
C 1402 384 1267 415 1139 523 
C 966 674 966 768 966 857 
L 966 2100 
z
" transform="scale(0.015625)"/>
       <path id="CMSS17-74" d="M 1069 2368 
L 1901 2368 
L 1901 2737 
L 1069 2737 
L 1069 3520 
L 614 3520 
L 614 2737 
L 109 2737 
L 109 2368 
L 602 2368 
L 602 749 
C 602 384 685 -64 1107 -64 
C 1427 -64 1722 25 2003 172 
L 1901 548 
C 1747 414 1562 337 1363 337 
C 1082 337 1069 696 1069 856 
L 1069 2368 
z
" transform="scale(0.015625)"/>
       <path id="CMSS17-68" d="M 2618 1891 
C 2618 2292 2522 2820 1798 2820 
C 1395 2820 1133 2623 947 2407 
L 947 4448 
L 474 4448 
L 474 32 
L 960 32 
L 960 1573 
C 960 1973 1114 2432 1549 2432 
C 2112 2432 2131 2056 2131 1839 
L 2131 32 
L 2618 32 
L 2618 1891 
z
" transform="scale(0.015625)"/>
      </defs>
      <use xlink:href="#CMSS17-44" transform="scale(0.996264)"/>
      <use xlink:href="#CMSS17-65" transform="translate(67.542842 0) scale(0.996264)"/>
      <use xlink:href="#CMSS17-70" transform="translate(109.181664 0) scale(0.996264)"/>
      <use xlink:href="#CMSS17-74" transform="translate(157.386607 0) scale(0.996264)"/>
      <use xlink:href="#CMSS17-68" transform="translate(191.218174 0) scale(0.996264)"/>
     </g>
    </g>
   </g>
   <g id="matplotlib.axis_2">
    <g id="ytick_1">
     <g id="text_8">
      <!-- $\mathdefault{1.0}$ -->
      <g style="fill: #262626" transform="translate(39.381364 269.273774) scale(0.165 -0.165)">
       <defs>
        <path id="CMMI12-3a" d="M 1178 307 
C 1178 492 1024 619 870 619 
C 685 619 557 466 557 313 
C 557 128 710 0 864 0 
C 1050 0 1178 153 1178 307 
z
" transform="scale(0.015625)"/>
       </defs>
       <use xlink:href="#CMR17-31" transform="scale(0.996264)"/>
       <use xlink:href="#CMMI12-3a" transform="translate(45.690477 0) scale(0.996264)"/>
       <use xlink:href="#CMR17-30" transform="translate(72.787654 0) scale(0.996264)"/>
      </g>
     </g>
    </g>
    <g id="ytick_2">
     <g id="text_9">
      <!-- $\mathdefault{1.2}$ -->
      <g style="fill: #262626" transform="translate(39.381364 220.017689) scale(0.165 -0.165)">
       <use xlink:href="#CMR17-31" transform="scale(0.996264)"/>
       <use xlink:href="#CMMI12-3a" transform="translate(45.690477 0) scale(0.996264)"/>
       <use xlink:href="#CMR17-32" transform="translate(72.787654 0) scale(0.996264)"/>
      </g>
     </g>
    </g>
    <g id="ytick_3">
     <g id="text_10">
      <!-- $\mathdefault{1.4}$ -->
      <g style="fill: #262626" transform="translate(39.381364 170.761604) scale(0.165 -0.165)">
       <use xlink:href="#CMR17-31" transform="scale(0.996264)"/>
       <use xlink:href="#CMMI12-3a" transform="translate(45.690477 0) scale(0.996264)"/>
       <use xlink:href="#CMR17-34" transform="translate(72.787654 0) scale(0.996264)"/>
      </g>
     </g>
    </g>
    <g id="ytick_4">
     <g id="text_11">
      <!-- $\mathdefault{1.6}$ -->
      <g style="fill: #262626" transform="translate(39.381364 121.505519) scale(0.165 -0.165)">
       <defs>
        <path id="CMR17-36" d="M 678 2176 
C 678 3690 1395 4032 1811 4032 
C 1946 4032 2272 4009 2400 3776 
C 2298 3776 2106 3776 2106 3553 
C 2106 3381 2246 3323 2336 3323 
C 2394 3323 2566 3348 2566 3560 
C 2566 3954 2246 4179 1805 4179 
C 1043 4179 243 3390 243 1984 
C 243 253 966 -128 1478 -128 
C 2099 -128 2688 427 2688 1283 
C 2688 2081 2170 2662 1517 2662 
C 1126 2662 838 2407 678 1960 
L 678 2176 
z
M 1478 25 
C 691 25 691 1200 691 1436 
C 691 1896 909 2560 1504 2560 
C 1613 2560 1926 2560 2138 2120 
C 2253 1870 2253 1609 2253 1289 
C 2253 944 2253 690 2118 434 
C 1978 171 1773 25 1478 25 
z
" transform="scale(0.015625)"/>
       </defs>
       <use xlink:href="#CMR17-31" transform="scale(0.996264)"/>
       <use xlink:href="#CMMI12-3a" transform="translate(45.690477 0) scale(0.996264)"/>
       <use xlink:href="#CMR17-36" transform="translate(72.787654 0) scale(0.996264)"/>
      </g>
     </g>
    </g>
    <g id="ytick_5">
     <g id="text_12">
      <!-- $\mathdefault{1.8}$ -->
      <g style="fill: #262626" transform="translate(39.381364 72.249434) scale(0.165 -0.165)">
       <defs>
        <path id="CMR17-38" d="M 1741 2264 
C 2144 2467 2554 2773 2554 3263 
C 2554 3841 1990 4179 1472 4179 
C 890 4179 378 3759 378 3180 
C 378 3021 416 2747 666 2505 
C 730 2442 998 2251 1171 2130 
C 883 1983 211 1634 211 934 
C 211 279 838 -128 1459 -128 
C 2144 -128 2720 362 2720 1010 
C 2720 1590 2330 1857 2074 2029 
L 1741 2264 
z
M 902 2822 
C 851 2854 595 3051 595 3351 
C 595 3739 998 4032 1459 4032 
C 1965 4032 2336 3676 2336 3262 
C 2336 2669 1670 2331 1638 2331 
C 1632 2331 1626 2331 1574 2370 
L 902 2822 
z
M 2080 1519 
C 2176 1449 2483 1240 2483 851 
C 2483 381 2010 25 1472 25 
C 890 25 448 438 448 940 
C 448 1443 838 1862 1280 2060 
L 2080 1519 
z
" transform="scale(0.015625)"/>
       </defs>
       <use xlink:href="#CMR17-31" transform="scale(0.996264)"/>
       <use xlink:href="#CMMI12-3a" transform="translate(45.690477 0) scale(0.996264)"/>
       <use xlink:href="#CMR17-38" transform="translate(72.787654 0) scale(0.996264)"/>
      </g>
     </g>
    </g>
    <g id="text_13">
     <!-- Average Number of Bounds -->
     <g style="fill: #262626" transform="translate(31.8933 254.023475) rotate(-90) scale(0.18 -0.18)">
      <defs>
       <path id="CMSS17-41" d="M 2272 4416 
L 1722 4416 
L 166 0 
L 653 0 
L 1101 1280 
L 2816 1280 
L 3270 0 
L 3827 0 
L 2272 4416 
z
M 2694 1637 
L 1222 1637 
C 1530 2528 1914 3638 1958 3925 
L 1965 3925 
C 2010 3663 2138 3281 2246 2956 
L 2694 1637 
z
" transform="scale(0.015625)"/>
       <path id="CMSS17-76" d="M 2675 2752 
L 2176 2752 
L 1747 1556 
C 1613 1165 1421 627 1389 352 
L 1382 352 
C 1370 468 1318 634 1286 749 
C 1248 890 1197 1056 1158 1172 
L 595 2752 
L 83 2752 
L 1094 0 
L 1664 0 
L 2675 2752 
z
" transform="scale(0.015625)"/>
       <path id="CMSS17-72" d="M 954 1363 
C 954 1965 1395 2368 1958 2368 
L 1958 2789 
C 1549 2789 1165 2585 934 2253 
L 934 2758 
L 480 2758 
L 480 0 
L 954 0 
L 954 1363 
z
" transform="scale(0.015625)"/>
       <path id="CMSS17-61" d="M 2406 1791 
C 2406 2392 1978 2808 1402 2808 
C 1120 2808 813 2757 461 2553 
L 499 2135 
C 659 2248 934 2432 1395 2432 
C 1722 2432 1920 2180 1920 1782 
L 1920 1536 
C 896 1536 256 1238 256 726 
C 256 461 416 -64 947 -64 
C 1043 -64 1562 -64 1933 217 
L 1933 -19 
L 2406 -19 
L 2406 1791 
z
M 1920 816 
C 1920 701 1920 548 1728 434 
C 1562 325 1350 325 1261 325 
C 941 325 723 511 723 744 
C 723 1211 1722 1211 1920 1211 
L 1920 816 
z
" transform="scale(0.015625)"/>
       <path id="CMSS17-67" d="M 2848 2808 
C 2483 2808 2170 2738 1914 2617 
C 1702 2777 1485 2808 1338 2808 
C 781 2808 358 2349 358 1814 
C 358 1468 550 1207 563 1195 
C 448 1035 384 863 384 672 
C 384 448 474 289 544 200 
C 211 -3 166 -314 166 -435 
C 166 -898 749 -1280 1498 -1280 
C 2253 -1280 2835 -898 2835 -428 
C 2835 448 1856 448 1587 448 
L 1069 448 
C 973 448 717 448 717 791 
C 717 921 774 1004 781 1010 
C 877 940 1075 832 1338 832 
C 1869 832 2310 1278 2310 1827 
C 2310 2132 2170 2355 2112 2432 
L 2131 2432 
C 2150 2432 2419 2432 2515 2432 
C 2720 2432 2739 2429 2918 2419 
L 2848 2808 
z
M 1338 1182 
C 1120 1182 813 1315 813 1823 
C 813 2375 1165 2464 1331 2464 
C 1549 2464 1856 2331 1856 1823 
C 1856 1271 1504 1182 1338 1182 
z
M 1581 -10 
C 1734 -10 2381 -10 2381 -442 
C 2381 -714 1984 -929 1504 -929 
C 1018 -929 621 -720 621 -435 
C 621 -403 621 -10 1062 -10 
L 1581 -10 
z
" transform="scale(0.015625)"/>
       <path id="CMSS17-4e" d="M 1466 4180 
L 1350 4416 
L 563 4416 
L 563 0 
L 1062 0 
L 1062 3926 
L 1069 3932 
C 1114 3817 1139 3760 1402 3194 
L 2771 236 
L 2886 0 
L 3674 0 
L 3674 4416 
L 3174 4416 
L 3174 490 
L 3168 483 
C 3123 598 3098 655 2835 1221 
L 1466 4180 
z
" transform="scale(0.015625)"/>
       <path id="CMSS17-75" d="M 2618 2739 
L 2131 2739 
L 2131 972 
C 2131 498 1786 306 1421 306 
C 998 306 960 447 960 709 
L 960 2739 
L 474 2739 
L 474 678 
C 474 179 646 -64 1088 -64 
C 1306 -64 1798 -13 2144 306 
L 2144 0 
L 2618 0 
L 2618 2739 
z
" transform="scale(0.015625)"/>
       <path id="CMSS17-6d" d="M 4288 1877 
C 4288 2308 4179 2816 3462 2816 
C 2982 2816 2694 2516 2566 2331 
C 2451 2670 2182 2816 1798 2816 
C 1363 2816 1088 2568 941 2389 
L 941 2758 
L 474 2758 
L 474 0 
L 960 0 
L 960 1559 
C 960 1939 1101 2428 1555 2428 
C 2138 2428 2138 2016 2138 1829 
L 2138 0 
L 2624 0 
L 2624 1559 
C 2624 1939 2765 2428 3219 2428 
C 3802 2428 3802 2016 3802 1829 
L 3802 0 
L 4288 0 
L 4288 1877 
z
" transform="scale(0.015625)"/>
       <path id="CMSS17-62" d="M 954 4416 
L 480 4416 
L 480 -13 
L 966 -13 
L 966 274 
C 1210 38 1504 -64 1766 -64 
C 2381 -64 2880 549 2880 1352 
C 2880 2086 2496 2756 1926 2756 
C 1523 2756 1165 2591 954 2419 
L 954 4416 
z
M 966 2046 
C 1107 2222 1306 2368 1587 2368 
C 1965 2368 2394 2097 2394 1352 
C 2394 558 1882 325 1530 325 
C 1402 325 1267 356 1139 464 
C 966 615 966 709 966 797 
L 966 2046 
z
" transform="scale(0.015625)"/>
       <path id="CMSS17-6f" d="M 2829 1356 
C 2829 2176 2221 2816 1504 2816 
C 768 2816 173 2157 173 1356 
C 173 544 787 -64 1498 -64 
C 2227 -64 2829 563 2829 1356 
z
M 1504 337 
C 1050 337 659 709 659 1408 
C 659 2151 1114 2427 1498 2427 
C 1914 2427 2342 2126 2342 1408 
C 2342 683 1926 337 1504 337 
z
" transform="scale(0.015625)"/>
       <path id="CMSS17-66" d="M 1075 2368 
L 1722 2368 
L 1722 2737 
L 1062 2737 
L 1062 3559 
C 1062 4014 1408 4092 1606 4092 
C 1670 4092 1850 4092 2080 4009 
L 2080 4429 
C 1933 4461 1754 4480 1613 4480 
C 1018 4480 602 3993 602 3359 
L 602 2737 
L 160 2737 
L 160 2368 
L 602 2368 
L 602 0 
L 1075 0 
L 1075 2368 
z
" transform="scale(0.015625)"/>
       <path id="CMSS17-42" d="M 570 4416 
L 570 0 
L 2163 0 
C 3034 0 3667 574 3667 1200 
C 3667 1685 3251 2176 2502 2317 
C 3334 2558 3501 3040 3501 3313 
C 3501 3883 2874 4416 1997 4416 
L 570 4416 
z
M 1088 2496 
L 1088 4059 
L 1824 4059 
C 2483 4059 3002 3724 3002 3306 
C 3002 2926 2592 2496 1766 2496 
L 1088 2496 
z
M 1088 357 
L 1088 2107 
L 1939 2107 
C 2630 2107 3162 1679 3162 1206 
C 3162 772 2694 357 1984 357 
L 1088 357 
z
" transform="scale(0.015625)"/>
       <path id="CMSS17-6e" d="M 2618 1877 
C 2618 2283 2522 2816 1798 2816 
C 1389 2816 1120 2606 941 2389 
L 941 2758 
L 474 2758 
L 474 0 
L 960 0 
L 960 1559 
C 960 1964 1114 2428 1549 2428 
C 2112 2428 2131 2048 2131 1829 
L 2131 0 
L 2618 0 
L 2618 1877 
z
" transform="scale(0.015625)"/>
       <path id="CMSS17-64" d="M 2611 4416 
L 2138 4416 
L 2138 2438 
C 1939 2603 1613 2756 1254 2756 
C 672 2756 211 2131 211 1347 
C 211 562 666 -64 1235 -64 
C 1677 -64 1971 172 2125 306 
L 2125 -13 
L 2611 -13 
L 2611 4416 
z
M 2125 836 
C 2125 747 2125 653 1926 482 
C 1798 375 1645 325 1498 325 
C 1152 325 698 576 698 1340 
C 698 2134 1210 2368 1562 2368 
C 1798 2368 1990 2254 2125 2065 
L 2125 836 
z
" transform="scale(0.015625)"/>
       <path id="CMSS17-73" d="M 2061 2627 
C 1683 2807 1389 2807 1197 2807 
C 742 2807 198 2648 198 2003 
C 198 1359 902 1218 1094 1179 
C 1389 1122 1715 1058 1715 740 
C 1715 337 1254 337 1171 337 
C 915 337 563 407 243 638 
L 166 210 
C 531 0 883 -64 1178 -64 
C 1965 -64 2163 416 2163 781 
C 2163 1094 1984 1305 1862 1401 
C 1651 1568 1574 1587 1050 1696 
C 960 1709 646 1779 646 2066 
C 646 2432 1050 2432 1139 2432 
C 1555 2432 1811 2303 1984 2208 
L 2061 2627 
z
" transform="scale(0.015625)"/>
      </defs>
      <use xlink:href="#CMSS17-41" transform="scale(0.996264)"/>
      <use xlink:href="#CMSS17-76" transform="translate(62.217855 0) scale(0.996264)"/>
      <use xlink:href="#CMSS17-65" transform="translate(105.217997 0) scale(0.996264)"/>
      <use xlink:href="#CMSS17-72" transform="translate(146.856819 0) scale(0.996264)"/>
      <use xlink:href="#CMSS17-61" transform="translate(178.766591 0) scale(0.996264)"/>
      <use xlink:href="#CMSS17-67" transform="translate(223.688512 0) scale(0.996264)"/>
      <use xlink:href="#CMSS17-65" transform="translate(270.532135 0) scale(0.996264)"/>
      <use xlink:href="#CMSS17-4e" transform="translate(343.40007 0) scale(0.996264)"/>
      <use xlink:href="#CMSS17-75" transform="translate(409.461589 0) scale(0.996264)"/>
      <use xlink:href="#CMSS17-6d" transform="translate(457.666532 0) scale(0.996264)"/>
      <use xlink:href="#CMSS17-62" transform="translate(531.895787 0) scale(0.996264)"/>
      <use xlink:href="#CMSS17-65" transform="translate(582.703169 0) scale(0.996264)"/>
      <use xlink:href="#CMSS17-72" transform="translate(624.341991 0) scale(0.996264)"/>
      <use xlink:href="#CMSS17-6f" transform="translate(687.480876 0) scale(0.996264)"/>
      <use xlink:href="#CMSS17-66" transform="translate(734.3245 0) scale(0.996264)"/>
      <use xlink:href="#CMSS17-42" transform="translate(794.180271 0) scale(0.996264)"/>
      <use xlink:href="#CMSS17-6f" transform="translate(856.518311 0) scale(0.996264)"/>
      <use xlink:href="#CMSS17-75" transform="translate(903.361935 0) scale(0.996264)"/>
      <use xlink:href="#CMSS17-6e" transform="translate(951.566878 0) scale(0.996264)"/>
      <use xlink:href="#CMSS17-64" transform="translate(999.771821 0) scale(0.996264)"/>
      <use xlink:href="#CMSS17-73" transform="translate(1047.976764 0) scale(0.996264)"/>
     </g>
    </g>
   </g>
   <g id="PolyCollection_1">
    <defs>
     <path id="maa61b9cf35" d="M 93.102432 -139.358971 
L 93.102432 -129.263223 
L 95.178244 -174.341276 
L 97.254057 -195.999461 
L 99.329869 -195.524851 
L 101.405681 -182.0255 
L 103.481494 -166.252385 
L 105.557306 -157.400706 
L 107.633118 -156.332541 
L 109.708931 -159.778968 
L 111.784743 -163.738078 
L 113.860556 -165.702324 
L 115.936368 -166.07621 
L 118.01218 -166.580265 
L 120.087993 -167.600095 
L 122.163805 -169.473915 
L 124.239617 -172.235567 
L 126.31543 -175.353315 
L 128.391242 -179.463084 
L 130.467054 -183.555221 
L 132.542867 -187.85562 
L 134.618679 -193.37323 
L 136.694491 -199.075903 
L 138.770304 -204.108194 
L 140.846116 -209.69714 
L 142.921929 -216.001986 
L 144.997741 -222.794282 
L 147.073553 -230.023729 
L 149.149366 -236.828559 
L 151.225178 -241.664262 
L 153.30099 -245.855724 
L 155.376803 -251.072598 
L 157.452615 -256.287168 
L 159.528427 -260.144918 
L 161.60424 -262.951081 
L 163.680052 -264.960867 
L 165.755865 -266.110097 
L 167.831677 -267.777585 
L 169.907489 -269.685861 
L 171.983302 -271.348095 
L 174.059114 -271.859067 
L 176.134926 -271.139004 
L 178.210739 -270.023097 
L 180.286551 -269.617148 
L 182.362363 -270.666161 
L 184.438176 -271.615507 
L 186.513988 -270.366262 
L 188.589801 -269.848863 
L 190.665613 -268.175156 
L 192.741425 -265.695337 
L 194.817238 -265.514578 
L 196.89305 -266.489906 
L 198.968862 -266.000092 
L 201.044675 -264.182663 
L 203.120487 -263.342328 
L 205.196299 -263.666631 
L 207.272112 -263.211666 
L 209.347924 -259.918441 
L 211.423737 -256.412223 
L 213.499549 -255.501562 
L 215.575361 -256.576527 
L 217.651174 -257.003311 
L 219.726986 -255.869419 
L 221.802798 -255.407794 
L 223.878611 -256.707822 
L 225.954423 -256.069095 
L 228.030235 -255.629111 
L 230.106048 -255.340826 
L 232.18186 -254.224797 
L 234.257672 -254.240578 
L 236.333485 -255.826564 
L 238.409297 -258.041093 
L 240.48511 -259.826345 
L 242.560922 -259.239461 
L 244.636734 -259.528622 
L 246.712547 -260.063312 
L 248.788359 -258.772716 
L 250.864171 -260.93343 
L 252.939984 -263.997523 
L 255.015796 -265.133595 
L 257.091608 -263.187886 
L 259.167421 -261.816729 
L 261.243233 -261.168883 
L 263.319046 -260.296336 
L 265.394858 -259.809951 
L 267.47067 -258.788481 
L 269.546483 -256.186832 
L 271.622295 -254.872452 
L 273.698107 -254.406251 
L 275.77392 -254.636665 
L 277.849732 -257.164381 
L 279.925544 -257.866257 
L 282.001357 -253.039166 
L 284.077169 -246.998824 
L 286.152982 -245.633308 
L 288.228794 -246.854629 
L 290.304606 -249.489202 
L 292.380419 -250.541764 
L 294.456231 -245.530001 
L 296.532043 -241.157985 
L 298.607856 -241.163576 
L 300.683668 -242.994784 
L 302.75948 -245.365251 
L 304.835293 -245.327725 
L 306.911105 -244.02856 
L 308.986917 -242.24651 
L 311.06273 -241.212034 
L 313.138542 -239.561054 
L 315.214355 -237.954589 
L 317.290167 -238.020087 
L 319.365979 -239.118994 
L 321.441792 -241.531785 
L 323.517604 -243.327168 
L 325.593416 -243.279167 
L 327.669229 -242.599524 
L 329.745041 -242.744962 
L 331.820853 -241.780681 
L 333.896666 -239.409503 
L 335.972478 -236.124228 
L 338.048291 -233.518492 
L 340.124103 -233.705334 
L 342.199915 -235.451346 
L 344.275728 -236.89176 
L 346.35154 -235.336089 
L 348.427352 -234.733061 
L 350.503165 -238.418894 
L 352.578977 -240.051465 
L 354.654789 -238.566124 
L 356.730602 -240.884926 
L 358.806414 -244.903503 
L 360.882227 -247.362608 
L 362.958039 -250.082688 
L 365.033851 -252.791185 
L 367.109664 -252.727323 
L 369.185476 -248.581198 
L 371.261288 -239.386695 
L 373.337101 -232.328768 
L 375.412913 -231.71686 
L 377.488725 -239.42765 
L 379.564538 -249.988833 
L 381.64035 -251.150452 
L 383.716163 -247.175352 
L 385.791975 -246.195422 
L 387.867787 -245.871502 
L 389.9436 -239.054077 
L 392.019412 -230.985532 
L 394.095224 -229.420891 
L 396.171037 -231.785057 
L 398.246849 -232.070978 
L 400.322661 -229.766315 
L 402.398474 -224.495843 
L 404.474286 -221.337893 
L 406.550098 -219.274519 
L 408.625911 -217.8739 
L 410.701723 -218.24381 
L 412.777536 -216.157304 
L 414.853348 -211.062633 
L 416.92916 -204.126551 
L 419.004973 -194.801436 
L 421.080785 -184.935453 
L 423.156597 -176.682204 
L 425.23241 -172.899992 
L 427.308222 -172.581913 
L 429.384034 -171.422895 
L 431.459847 -170.116277 
L 433.535659 -163.866553 
L 435.611472 -155.193817 
L 437.687284 -141.70705 
L 439.763096 -133.309305 
L 441.838909 -131.894922 
L 443.914721 -130.976655 
L 445.990533 -127.334821 
L 448.066346 -123.800898 
L 450.142158 -114.552769 
L 452.21797 -103.014175 
L 454.293783 -98.806374 
L 456.369595 -97.840237 
L 458.445408 -95.882066 
L 460.52122 -93.806561 
L 462.597032 -90.52135 
L 464.672845 -88.858036 
L 466.748657 -88.420598 
L 468.824469 -86.680068 
L 470.900282 -85.002229 
L 472.976094 -83.224325 
L 475.051906 -85.442768 
L 477.127719 -86.328589 
L 479.203531 -83.051525 
L 481.279343 -80.802509 
L 483.355156 -82.387865 
L 485.430968 -86.914881 
L 487.506781 -86.662943 
L 489.582593 -83.796904 
L 491.658405 -82.933987 
L 493.734218 -84.64467 
L 495.81003 -84.372323 
L 497.885842 -81.927362 
L 499.961655 -83.808451 
L 502.037467 -88.228347 
L 504.113279 -90.771736 
L 506.189092 -94.412049 
L 506.189092 -113.744855 
L 506.189092 -113.744855 
L 504.113279 -147.086446 
L 502.037467 -162.51631 
L 499.961655 -169.224301 
L 497.885842 -164.319518 
L 495.81003 -149.305711 
L 493.734218 -147.304219 
L 491.658405 -152.879813 
L 489.582593 -154.886506 
L 487.506781 -169.119043 
L 485.430968 -178.918642 
L 483.355156 -165.132986 
L 481.279343 -152.645206 
L 479.203531 -164.895742 
L 477.127719 -196.817537 
L 475.051906 -221.493033 
L 472.976094 -229.83048 
L 470.900282 -220.727432 
L 468.824469 -207.259507 
L 466.748657 -198.388321 
L 464.672845 -201.048514 
L 462.597032 -207.187169 
L 460.52122 -211.434688 
L 458.445408 -206.052188 
L 456.369595 -202.023585 
L 454.293783 -202.157257 
L 452.21797 -204.622379 
L 450.142158 -212.691264 
L 448.066346 -220.381827 
L 445.990533 -228.015655 
L 443.914721 -234.952775 
L 441.838909 -234.338399 
L 439.763096 -233.84276 
L 437.687284 -240.973966 
L 435.611472 -255.351927 
L 433.535659 -267.196424 
L 431.459847 -275.107418 
L 429.384034 -272.745192 
L 427.308222 -268.94579 
L 425.23241 -267.3186 
L 423.156597 -270.950307 
L 421.080785 -281.377918 
L 419.004973 -291.723779 
L 416.92916 -299.678833 
L 414.853348 -303.391026 
L 412.777536 -305.168056 
L 410.701723 -306.666277 
L 408.625911 -306.669935 
L 406.550098 -306.138803 
L 404.474286 -305.833006 
L 402.398474 -307.11465 
L 400.322661 -310.65042 
L 398.246849 -312.617651 
L 396.171037 -311.611018 
L 394.095224 -308.294881 
L 392.019412 -309.925679 
L 389.9436 -319.112402 
L 387.867787 -326.965956 
L 385.791975 -327.585964 
L 383.716163 -326.949429 
L 381.64035 -328.102418 
L 379.564538 -324.917243 
L 377.488725 -313.004218 
L 375.412913 -303.92196 
L 373.337101 -303.496339 
L 371.261288 -310.084259 
L 369.185476 -318.818327 
L 367.109664 -322.427081 
L 365.033851 -321.23691 
L 362.958039 -316.330436 
L 360.882227 -311.057837 
L 358.806414 -306.554573 
L 356.730602 -301.146347 
L 354.654789 -297.669935 
L 352.578977 -297.238105 
L 350.503165 -293.957467 
L 348.427352 -289.118048 
L 346.35154 -288.743257 
L 344.275728 -289.428499 
L 342.199915 -287.191803 
L 340.124103 -284.808055 
L 338.048291 -284.035302 
L 335.972478 -286.039728 
L 333.896666 -288.910609 
L 331.820853 -290.793638 
L 329.745041 -291.322675 
L 327.669229 -291.132302 
L 325.593416 -291.340071 
L 323.517604 -290.418163 
L 321.441792 -287.831787 
L 319.365979 -284.992323 
L 317.290167 -283.659048 
L 315.214355 -283.426747 
L 313.138542 -284.530452 
L 311.06273 -285.649025 
L 308.986917 -286.189068 
L 306.911105 -287.401136 
L 304.835293 -288.181255 
L 302.75948 -287.663768 
L 300.683668 -284.82353 
L 298.607856 -282.55424 
L 296.532043 -282.591653 
L 294.456231 -287.108628 
L 292.380419 -292.082288 
L 290.304606 -290.8938 
L 288.228794 -287.725999 
L 286.152982 -286.126676 
L 284.077169 -287.315666 
L 282.001357 -293.015852 
L 279.925544 -297.452375 
L 277.849732 -296.583147 
L 275.77392 -293.922439 
L 273.698107 -293.386512 
L 271.622295 -293.739941 
L 269.546483 -294.642709 
L 267.47067 -296.287501 
L 265.394858 -296.631371 
L 263.319046 -296.484329 
L 261.243233 -297.018993 
L 259.167421 -297.740054 
L 257.091608 -299.129384 
L 255.015796 -300.696661 
L 252.939984 -299.421665 
L 250.864171 -296.209916 
L 248.788359 -293.778744 
L 246.712547 -294.44875 
L 244.636734 -294.068129 
L 242.560922 -293.9156 
L 240.48511 -294.099705 
L 238.409297 -292.016171 
L 236.333485 -289.513826 
L 234.257672 -287.653083 
L 232.18186 -287.364138 
L 230.106048 -288.313688 
L 228.030235 -288.595097 
L 225.954423 -288.833477 
L 223.878611 -289.161341 
L 221.802798 -287.666421 
L 219.726986 -287.563528 
L 217.651174 -288.042919 
L 215.575361 -287.371216 
L 213.499549 -286.406877 
L 211.423737 -287.185195 
L 209.347924 -290.211498 
L 207.272112 -293.04597 
L 205.196299 -293.204674 
L 203.120487 -292.409897 
L 201.044675 -292.68956 
L 198.968862 -293.856393 
L 196.89305 -293.843808 
L 194.817238 -292.552741 
L 192.741425 -292.351503 
L 190.665613 -294.200554 
L 188.589801 -295.230445 
L 186.513988 -295.163152 
L 184.438176 -295.447177 
L 182.362363 -293.794784 
L 180.286551 -292.173509 
L 178.210739 -292.039742 
L 176.134926 -292.526025 
L 174.059114 -292.520714 
L 171.983302 -291.292185 
L 169.907489 -288.963278 
L 167.831677 -286.445439 
L 165.755865 -284.2421 
L 163.680052 -282.505802 
L 161.60424 -280.066945 
L 159.528427 -276.810542 
L 157.452615 -272.421781 
L 155.376803 -266.722129 
L 153.30099 -261.050366 
L 151.225178 -256.226363 
L 149.149366 -250.756018 
L 147.073553 -243.535238 
L 144.997741 -235.889777 
L 142.921929 -228.602864 
L 140.846116 -221.834777 
L 138.770304 -215.778698 
L 136.694491 -210.236447 
L 134.618679 -204.159539 
L 132.542867 -198.316298 
L 130.467054 -193.596215 
L 128.391242 -189.140265 
L 126.31543 -184.722349 
L 124.239617 -181.23868 
L 122.163805 -178.25445 
L 120.087993 -176.18235 
L 118.01218 -175.01951 
L 115.936368 -174.397708 
L 113.860556 -173.6814 
L 111.784743 -171.201242 
L 109.708931 -166.720984 
L 107.633118 -162.963331 
L 105.557306 -164.178858 
L 103.481494 -173.557862 
L 101.405681 -189.805336 
L 99.329869 -203.809122 
L 97.254057 -204.597588 
L 95.178244 -183.171596 
L 93.102432 -139.358971 
z
" style="stroke: #ffffff; stroke-opacity: 0.2; stroke-width: 1.5"/>
    </defs>
    <g clip-path="url(#pad40738492)">
     <use xlink:href="#maa61b9cf35" x="0" y="360" style="fill: #4c72b0; fill-opacity: 0.2; stroke: #ffffff; stroke-opacity: 0.2; stroke-width: 1.5"/>
    </g>
   </g>
   <g id="PolyCollection_2">
    <defs>
     <path id="mf5592932d9" d="M 93.102432 -119.845272 
L 93.102432 -131.048868 
L 95.178244 -172.367811 
L 97.254057 -191.945158 
L 99.329869 -189.801602 
L 101.405681 -175.505541 
L 103.481494 -160.696312 
L 105.557306 -152.612446 
L 107.633118 -152.529371 
L 109.708931 -157.857491 
L 111.784743 -163.424558 
L 113.860556 -165.921429 
L 115.936368 -166.267187 
L 118.01218 -167.255818 
L 120.087993 -168.954076 
L 122.163805 -171.292198 
L 124.239617 -174.644619 
L 126.31543 -178.981116 
L 128.391242 -183.551945 
L 130.467054 -186.876132 
L 132.542867 -191.638468 
L 134.618679 -198.943265 
L 136.694491 -205.567813 
L 138.770304 -210.621572 
L 140.846116 -215.981147 
L 142.921929 -222.806028 
L 144.997741 -229.806844 
L 147.073553 -236.500378 
L 149.149366 -241.589795 
L 151.225178 -245.517032 
L 153.30099 -249.689385 
L 155.376803 -252.951057 
L 157.452615 -256.187002 
L 159.528427 -259.681983 
L 161.60424 -261.770009 
L 163.680052 -261.226749 
L 165.755865 -261.077918 
L 167.831677 -262.386596 
L 169.907489 -263.532595 
L 171.983302 -264.609102 
L 174.059114 -265.592802 
L 176.134926 -265.859946 
L 178.210739 -265.008895 
L 180.286551 -264.128992 
L 182.362363 -261.570948 
L 184.438176 -260.792071 
L 186.513988 -263.819263 
L 188.589801 -267.638685 
L 190.665613 -266.736083 
L 192.741425 -261.529716 
L 194.817238 -258.10244 
L 196.89305 -255.057474 
L 198.968862 -252.011741 
L 201.044675 -250.36576 
L 203.120487 -250.41181 
L 205.196299 -251.309239 
L 207.272112 -252.226408 
L 209.347924 -252.970496 
L 211.423737 -253.838625 
L 213.499549 -255.289878 
L 215.575361 -255.059021 
L 217.651174 -253.809073 
L 219.726986 -253.447543 
L 221.802798 -252.63476 
L 223.878611 -251.928395 
L 225.954423 -252.272837 
L 228.030235 -252.08938 
L 230.106048 -251.226007 
L 232.18186 -251.095525 
L 234.257672 -251.128662 
L 236.333485 -250.426611 
L 238.409297 -249.507507 
L 240.48511 -247.809139 
L 242.560922 -246.768911 
L 244.636734 -248.231243 
L 246.712547 -251.711328 
L 248.788359 -254.733836 
L 250.864171 -257.178219 
L 252.939984 -257.189707 
L 255.015796 -253.847397 
L 257.091608 -250.418198 
L 259.167421 -251.219456 
L 261.243233 -254.9547 
L 263.319046 -256.074534 
L 265.394858 -251.931651 
L 267.47067 -246.603275 
L 269.546483 -243.024332 
L 271.622295 -242.597718 
L 273.698107 -242.66836 
L 275.77392 -242.343391 
L 277.849732 -242.434609 
L 279.925544 -241.807793 
L 282.001357 -239.186031 
L 284.077169 -235.960948 
L 286.152982 -233.341133 
L 288.228794 -234.15576 
L 290.304606 -236.490338 
L 292.380419 -238.438015 
L 294.456231 -237.438862 
L 296.532043 -234.658688 
L 298.607856 -232.091246 
L 300.683668 -230.952217 
L 302.75948 -230.697411 
L 304.835293 -229.94067 
L 306.911105 -231.69087 
L 308.986917 -234.939303 
L 311.06273 -234.213372 
L 313.138542 -230.143168 
L 315.214355 -228.346009 
L 317.290167 -228.136983 
L 319.365979 -228.612407 
L 321.441792 -230.991461 
L 323.517604 -235.849653 
L 325.593416 -236.961902 
L 327.669229 -235.14975 
L 329.745041 -233.851168 
L 331.820853 -231.247145 
L 333.896666 -227.874679 
L 335.972478 -225.422451 
L 338.048291 -225.921299 
L 340.124103 -227.773988 
L 342.199915 -228.284379 
L 344.275728 -229.242535 
L 346.35154 -232.84289 
L 348.427352 -231.280455 
L 350.503165 -228.113379 
L 352.578977 -226.586638 
L 354.654789 -226.872562 
L 356.730602 -228.962673 
L 358.806414 -230.555214 
L 360.882227 -231.129686 
L 362.958039 -230.614972 
L 365.033851 -229.370126 
L 367.109664 -229.344711 
L 369.185476 -227.380443 
L 371.261288 -222.698022 
L 373.337101 -221.80904 
L 375.412913 -220.650692 
L 377.488725 -218.243522 
L 379.564538 -217.567077 
L 381.64035 -216.867155 
L 383.716163 -215.98515 
L 385.791975 -219.834597 
L 387.867787 -224.4953 
L 389.9436 -225.660178 
L 392.019412 -224.426781 
L 394.095224 -224.642283 
L 396.171037 -226.691765 
L 398.246849 -230.682612 
L 400.322661 -228.834837 
L 402.398474 -217.711639 
L 404.474286 -208.37126 
L 406.550098 -204.60402 
L 408.625911 -205.937196 
L 410.701723 -207.386854 
L 412.777536 -204.536736 
L 414.853348 -196.99069 
L 416.92916 -186.050135 
L 419.004973 -178.571629 
L 421.080785 -171.655816 
L 423.156597 -167.389212 
L 425.23241 -165.869318 
L 427.308222 -167.199386 
L 429.384034 -164.879469 
L 431.459847 -158.886373 
L 433.535659 -147.971536 
L 435.611472 -137.020529 
L 437.687284 -128.945293 
L 439.763096 -127.014793 
L 441.838909 -128.552313 
L 443.914721 -129.32729 
L 445.990533 -129.036159 
L 448.066346 -129.205547 
L 450.142158 -128.118124 
L 452.21797 -127.322642 
L 454.293783 -124.731078 
L 456.369595 -117.621823 
L 458.445408 -110.716803 
L 460.52122 -109.061585 
L 462.597032 -111.243914 
L 464.672845 -114.395507 
L 466.748657 -113.676937 
L 468.824469 -109.993822 
L 470.900282 -105.281362 
L 472.976094 -99.28414 
L 475.051906 -92.614686 
L 477.127719 -88.230618 
L 479.203531 -82.442193 
L 481.279343 -79.86102 
L 483.355156 -84.201138 
L 485.430968 -90.346295 
L 487.506781 -88.99153 
L 489.582593 -85.685047 
L 491.658405 -82.649756 
L 493.734218 -82.659166 
L 495.81003 -81.648133 
L 497.885842 -78.950778 
L 499.961655 -81.253884 
L 502.037467 -86.470844 
L 504.113279 -89.671966 
L 506.189092 -93.991202 
L 506.189092 -97.812608 
L 506.189092 -97.812608 
L 504.113279 -171.207196 
L 502.037467 -168.78405 
L 499.961655 -184.782992 
L 497.885842 -187.298492 
L 495.81003 -143.834068 
L 493.734218 -153.682011 
L 491.658405 -169.814983 
L 489.582593 -130.816854 
L 487.506781 -208.94684 
L 485.430968 -263.978383 
L 483.355156 -210.587003 
L 481.279343 -161.353843 
L 479.203531 -178.972525 
L 477.127719 -230.7797 
L 475.051906 -234.904155 
L 472.976094 -244.967299 
L 470.900282 -287.502807 
L 468.824469 -279.583096 
L 466.748657 -271.397614 
L 464.672845 -269.449459 
L 462.597032 -263.976114 
L 460.52122 -245.946896 
L 458.445408 -219.372976 
L 456.369595 -226.523402 
L 454.293783 -240.824606 
L 452.21797 -247.5356 
L 450.142158 -236.508382 
L 448.066346 -237.624161 
L 445.990533 -232.405243 
L 443.914721 -239.489087 
L 441.838909 -233.217516 
L 439.763096 -222.811751 
L 437.687284 -220.584888 
L 435.611472 -231.270713 
L 433.535659 -246.762512 
L 431.459847 -267.070446 
L 429.384034 -264.69802 
L 427.308222 -271.310715 
L 425.23241 -261.579171 
L 423.156597 -262.808163 
L 421.080785 -264.647508 
L 419.004973 -274.309669 
L 416.92916 -272.142014 
L 414.853348 -289.787757 
L 412.777536 -295.845949 
L 410.701723 -300.403422 
L 408.625911 -296.374552 
L 406.550098 -290.359004 
L 404.474286 -294.824856 
L 402.398474 -301.366327 
L 400.322661 -322.28057 
L 398.246849 -316.667422 
L 396.171037 -304.04306 
L 394.095224 -308.704273 
L 392.019412 -303.646133 
L 389.9436 -306.274283 
L 387.867787 -307.631478 
L 385.791975 -298.221923 
L 383.716163 -288.23956 
L 381.64035 -293.998299 
L 379.564538 -292.338358 
L 377.488725 -287.906601 
L 375.412913 -294.456483 
L 373.337101 -294.772147 
L 371.261288 -286.991651 
L 369.185476 -300.091465 
L 367.109664 -298.868901 
L 365.033851 -293.498744 
L 362.958039 -296.894695 
L 360.882227 -295.291221 
L 358.806414 -293.490327 
L 356.730602 -292.546584 
L 354.654789 -288.717026 
L 352.578977 -287.683714 
L 350.503165 -286.764477 
L 348.427352 -289.928512 
L 346.35154 -295.344151 
L 344.275728 -279.037519 
L 342.199915 -281.107186 
L 340.124103 -283.332015 
L 338.048291 -277.197577 
L 335.972478 -274.575408 
L 333.896666 -278.485914 
L 331.820853 -282.79719 
L 329.745041 -284.458712 
L 327.669229 -281.704525 
L 325.593416 -287.188042 
L 323.517604 -287.441315 
L 321.441792 -274.95839 
L 319.365979 -274.286454 
L 317.290167 -273.920859 
L 315.214355 -272.823955 
L 313.138542 -272.280111 
L 311.06273 -281.886511 
L 308.986917 -283.297859 
L 306.911105 -274.967919 
L 304.835293 -272.735809 
L 302.75948 -276.242405 
L 300.683668 -273.565714 
L 298.607856 -274.391648 
L 296.532043 -277.615065 
L 294.456231 -281.124848 
L 292.380419 -283.090597 
L 290.304606 -278.223315 
L 288.228794 -275.770908 
L 286.152982 -273.163235 
L 284.077169 -278.573215 
L 282.001357 -280.153094 
L 279.925544 -283.494523 
L 277.849732 -282.658293 
L 275.77392 -282.25819 
L 273.698107 -284.760547 
L 271.622295 -284.393546 
L 269.546483 -281.506932 
L 267.47067 -285.055964 
L 265.394858 -289.987686 
L 263.319046 -296.535716 
L 261.243233 -293.4044 
L 259.167421 -285.896553 
L 257.091608 -284.497819 
L 255.015796 -290.786001 
L 252.939984 -295.495024 
L 250.864171 -293.466239 
L 248.788359 -289.802072 
L 246.712547 -287.670712 
L 244.636734 -281.997488 
L 242.560922 -280.456955 
L 240.48511 -283.002339 
L 238.409297 -285.436455 
L 236.333485 -284.654573 
L 234.257672 -286.128309 
L 232.18186 -284.683677 
L 230.106048 -284.251477 
L 228.030235 -286.82971 
L 225.954423 -286.694397 
L 223.878611 -283.917118 
L 221.802798 -285.514926 
L 219.726986 -287.029357 
L 217.651174 -285.520199 
L 215.575361 -288.307264 
L 213.499549 -288.642038 
L 211.423737 -284.646188 
L 209.347924 -284.528316 
L 207.272112 -283.412427 
L 205.196299 -281.835997 
L 203.120487 -280.45009 
L 201.044675 -279.508909 
L 198.968862 -280.209178 
L 196.89305 -284.387224 
L 194.817238 -286.873505 
L 192.741425 -286.547418 
L 190.665613 -296.444429 
L 188.589801 -296.518286 
L 186.513988 -288.739563 
L 184.438176 -283.46211 
L 182.362363 -285.524444 
L 180.286551 -290.057213 
L 178.210739 -287.150845 
L 176.134926 -289.039461 
L 174.059114 -287.257699 
L 171.983302 -284.856895 
L 169.907489 -283.413083 
L 167.831677 -282.376922 
L 165.755865 -278.857025 
L 163.680052 -278.745356 
L 161.60424 -281.077509 
L 159.528427 -277.036958 
L 157.452615 -272.048071 
L 155.376803 -268.811072 
L 153.30099 -266.153001 
L 151.225178 -259.473077 
L 149.149366 -256.681489 
L 147.073553 -251.439248 
L 144.997741 -243.223388 
L 142.921929 -236.224164 
L 140.846116 -227.605565 
L 138.770304 -222.547733 
L 136.694491 -218.537198 
L 134.618679 -211.144485 
L 132.542867 -200.625394 
L 130.467054 -196.697324 
L 128.391242 -195.460898 
L 126.31543 -188.510856 
L 124.239617 -183.744745 
L 122.163805 -180.256474 
L 120.087993 -178.133774 
L 118.01218 -175.922625 
L 115.936368 -173.747025 
L 113.860556 -175.068275 
L 111.784743 -173.254471 
L 109.708931 -166.070251 
L 107.633118 -158.183175 
L 105.557306 -157.589971 
L 103.481494 -165.221499 
L 101.405681 -181.363466 
L 99.329869 -198.966882 
L 97.254057 -206.600981 
L 95.178244 -191.391023 
L 93.102432 -119.845272 
z
" style="stroke: #ffffff; stroke-opacity: 0.2; stroke-width: 1.5"/>
    </defs>
    <g clip-path="url(#pad40738492)">
     <use xlink:href="#mf5592932d9" x="0" y="360" style="fill: #dd8452; fill-opacity: 0.2; stroke: #ffffff; stroke-opacity: 0.2; stroke-width: 1.5"/>
    </g>
   </g>
   <g id="line2d_1">
    <path d="M 93.102432 226.654549 
L 95.178244 180.94424 
L 97.254057 159.224476 
L 99.329869 160.135673 
L 101.405681 174.167258 
L 103.481494 190.338783 
L 105.557306 199.403456 
L 107.633118 200.410754 
L 109.708931 196.694518 
L 111.784743 192.432511 
L 113.860556 190.252456 
L 118.01218 189.222085 
L 120.087993 188.126706 
L 122.163805 186.14355 
L 124.239617 183.259078 
L 126.31543 179.969548 
L 132.542867 166.938841 
L 140.846116 144.248277 
L 142.921929 137.710798 
L 144.997741 130.67176 
L 149.149366 116.162973 
L 151.225178 111.047671 
L 153.30099 106.590626 
L 157.452615 95.62143 
L 159.528427 91.503203 
L 161.60424 88.482136 
L 163.680052 86.260375 
L 165.755865 84.847906 
L 167.831677 82.91068 
L 169.907489 80.68143 
L 171.983302 78.65719 
L 174.059114 77.779379 
L 176.134926 78.155315 
L 178.210739 78.991984 
L 180.286551 79.155122 
L 184.438176 76.41984 
L 186.513988 77.250593 
L 188.589801 77.433507 
L 190.665613 78.788763 
L 192.741425 81.040874 
L 194.817238 80.99993 
L 196.89305 79.784428 
L 198.968862 80.031091 
L 201.044675 81.602716 
L 203.120487 82.176381 
L 205.196299 81.540583 
L 207.272112 81.786765 
L 209.347924 84.926224 
L 211.423737 88.269331 
L 213.499549 89.090828 
L 215.575361 88.000733 
L 217.651174 87.431233 
L 219.726986 88.303659 
L 221.802798 88.507802 
L 223.878611 87.018774 
L 225.954423 87.551278 
L 230.106048 88.144884 
L 232.18186 89.231288 
L 234.257672 89.09418 
L 236.333485 87.347229 
L 238.409297 84.955565 
L 240.48511 82.975171 
L 242.560922 83.433742 
L 244.636734 83.203809 
L 246.712547 82.713611 
L 248.788359 83.814578 
L 250.864171 81.461687 
L 252.939984 78.233835 
L 255.015796 77.00932 
L 257.091608 78.857602 
L 259.167421 80.254074 
L 263.319046 81.632015 
L 265.394858 81.761369 
L 267.47067 82.419849 
L 269.546483 84.592473 
L 271.622295 85.699145 
L 273.698107 86.139062 
L 275.77392 85.80467 
L 277.849732 83.085507 
L 279.925544 82.176186 
L 282.001357 86.928626 
L 284.077169 92.977623 
L 286.152982 94.211494 
L 288.228794 92.758192 
L 290.304606 89.735051 
L 292.380419 88.492825 
L 294.456231 93.691701 
L 296.532043 98.268544 
L 298.607856 98.209695 
L 300.683668 96.08686 
L 302.75948 93.407184 
L 304.835293 93.21241 
L 306.911105 94.293593 
L 308.986917 95.813623 
L 311.06273 96.548528 
L 315.214355 99.326685 
L 317.290167 99.180135 
L 319.365979 97.982833 
L 321.441792 95.312185 
L 323.517604 93.083052 
L 325.593416 92.671759 
L 327.669229 93.171456 
L 329.745041 92.971251 
L 331.820853 93.675615 
L 333.896666 95.799458 
L 335.972478 98.934582 
L 338.048291 101.297687 
L 340.124103 100.781452 
L 342.199915 98.646209 
L 344.275728 96.72621 
L 346.35154 97.992274 
L 348.427352 98.215508 
L 350.503165 93.749111 
L 352.578977 91.240245 
L 354.654789 91.952185 
L 356.730602 89.038238 
L 358.806414 84.244326 
L 360.882227 80.838324 
L 365.033851 72.93576 
L 367.109664 72.310535 
L 369.185476 76.144515 
L 371.261288 85.288525 
L 373.337101 92.260017 
L 375.412913 92.408313 
L 377.488725 83.824818 
L 379.564538 72.270428 
L 381.64035 70.297062 
L 383.716163 73.093232 
L 385.791975 73.128498 
L 387.867787 73.358416 
L 389.9436 80.859544 
L 392.019412 89.783391 
L 394.095224 91.290299 
L 396.171037 88.190883 
L 398.246849 87.526579 
L 400.322661 89.75604 
L 402.398474 94.276006 
L 404.474286 96.471944 
L 406.550098 97.287218 
L 408.625911 97.688413 
L 410.701723 97.535559 
L 412.777536 99.409656 
L 414.853348 102.77671 
L 416.92916 107.989912 
L 419.004973 116.640998 
L 421.080785 126.796886 
L 423.156597 136.356855 
L 425.23241 140.032962 
L 427.308222 139.330065 
L 429.384034 137.888396 
L 431.459847 137.08478 
L 433.535659 144.363273 
L 435.611472 154.700441 
L 437.687284 168.902166 
L 439.763096 176.659177 
L 441.838909 176.845245 
L 443.914721 176.745039 
L 448.066346 187.966032 
L 450.142158 196.351731 
L 452.21797 206.256075 
L 454.293783 209.535439 
L 456.369595 210.237636 
L 458.445408 209.082329 
L 460.52122 206.984495 
L 464.672845 215.133698 
L 466.748657 217.062733 
L 468.824469 213.322449 
L 470.900282 207.123157 
L 472.976094 202.923243 
L 475.051906 205.954904 
L 477.127719 218.184908 
L 479.203531 236.783376 
L 481.279343 244.190211 
L 483.355156 236.116427 
L 485.430968 226.067072 
L 487.506781 231.962559 
L 489.582593 241.138244 
L 491.658405 241.886781 
L 493.734218 244.271213 
L 495.81003 243.712378 
L 497.885842 236.570406 
L 499.961655 233.172568 
L 502.037467 234.490073 
L 504.113279 240.710353 
L 506.189092 256.769068 
L 506.189092 256.769068 
" clip-path="url(#pad40738492)" style="fill: none; stroke: #4c72b0; stroke-width: 2.25; stroke-linecap: round"/>
   </g>
   <g id="line2d_2">
    <path d="M 93.102432 241.508111 
L 95.178244 174.926089 
L 97.254057 158.476556 
L 99.329869 165.313435 
L 101.405681 182.388924 
L 103.481494 198.066149 
L 105.557306 205.56711 
L 107.633118 205.047465 
L 109.708931 197.700136 
L 111.784743 190.931598 
L 113.860556 189.224536 
L 115.936368 190.447063 
L 120.087993 186.351383 
L 122.163805 184.287682 
L 124.239617 180.962658 
L 126.31543 176.306049 
L 128.391242 169.841403 
L 130.467054 168.48571 
L 132.542867 164.585112 
L 134.618679 154.603653 
L 136.694491 147.447536 
L 138.770304 143.540486 
L 140.846116 138.617848 
L 142.921929 130.395837 
L 144.997741 123.560402 
L 147.073553 115.740588 
L 149.149366 110.736157 
L 151.225178 107.873988 
L 153.30099 101.773567 
L 155.376803 99.18208 
L 157.452615 96.22677 
L 159.528427 91.527968 
L 161.60424 87.915374 
L 163.680052 90.316183 
L 165.755865 90.488354 
L 167.831677 87.355176 
L 169.907489 86.498828 
L 171.983302 85.36004 
L 174.059114 83.538261 
L 176.134926 82.395101 
L 178.210739 84.245004 
L 180.286551 82.113361 
L 182.362363 86.647461 
L 184.438176 88.807715 
L 186.513988 84.124724 
L 188.589801 76.847841 
L 190.665613 77.534989 
L 192.741425 87.10721 
L 194.817238 87.45879 
L 196.89305 89.935208 
L 198.968862 94.067736 
L 201.044675 95.288271 
L 203.120487 94.569378 
L 207.272112 92.063312 
L 209.347924 91.330582 
L 211.423737 91.185993 
L 213.499549 87.544074 
L 215.575361 88.097896 
L 217.651174 90.817236 
L 219.726986 89.503455 
L 221.802798 90.880357 
L 223.878611 92.462889 
L 225.954423 90.285723 
L 228.030235 90.224875 
L 230.106048 92.566199 
L 232.18186 92.231887 
L 234.257672 91.20215 
L 236.333485 92.559355 
L 238.409297 92.183601 
L 242.560922 96.760884 
L 244.636734 95.238216 
L 246.712547 90.008793 
L 248.788359 87.969623 
L 250.864171 84.555925 
L 252.939984 82.944779 
L 255.015796 87.474636 
L 257.091608 93.505795 
L 259.167421 92.173819 
L 261.243233 85.291476 
L 263.319046 82.526159 
L 265.394858 89.158017 
L 267.47067 94.593244 
L 269.546483 98.363736 
L 271.622295 96.200188 
L 273.698107 96.007271 
L 275.77392 97.976848 
L 279.925544 96.95578 
L 282.001357 100.278352 
L 284.077169 102.607665 
L 286.152982 107.44448 
L 290.304606 102.689348 
L 292.380419 98.651945 
L 294.456231 100.603472 
L 296.532043 104.009031 
L 298.607856 107.063315 
L 300.683668 107.781931 
L 302.75948 105.83533 
L 304.835293 109.349519 
L 306.911105 107.387541 
L 308.986917 99.89338 
L 311.06273 101.159409 
L 313.138542 109.76192 
L 315.214355 109.561603 
L 317.290167 108.538072 
L 319.365979 108.714774 
L 321.441792 108.005033 
L 323.517604 97.287865 
L 325.593416 97.488882 
L 327.669229 102.382212 
L 329.745041 100.567126 
L 331.820853 102.750834 
L 335.972478 110.636823 
L 338.048291 108.553783 
L 340.124103 103.658211 
L 342.199915 105.396584 
L 344.275728 107.316493 
L 346.35154 94.276901 
L 348.427352 99.253479 
L 350.503165 103.061621 
L 352.578977 102.975304 
L 354.654789 102.543084 
L 356.730602 98.984115 
L 360.882227 96.677843 
L 362.958039 96.118952 
L 365.033851 99.331696 
L 367.109664 95.40982 
L 369.185476 95.264464 
L 371.261288 106.661835 
L 373.337101 101.342907 
L 375.412913 101.843567 
L 377.488725 107.513654 
L 379.564538 104.7829 
L 381.64035 103.922082 
L 383.716163 109.202229 
L 387.867787 93.038715 
L 389.9436 93.509963 
L 392.019412 96.466394 
L 394.095224 93.673377 
L 396.171037 95.763648 
L 398.246849 85.517094 
L 400.322661 82.227038 
L 402.398474 101.434532 
L 404.474286 109.417977 
L 406.550098 113.18135 
L 408.625911 108.656632 
L 410.701723 105.493616 
L 412.777536 109.472104 
L 414.853348 115.976165 
L 416.92916 132.2673 
L 419.004973 133.0289 
L 421.080785 141.980658 
L 423.156597 145.09141 
L 425.23241 147.151688 
L 427.308222 139.946112 
L 429.384034 145.152392 
L 431.459847 146.300471 
L 433.535659 162.829556 
L 435.611472 175.837601 
L 437.687284 186.212625 
L 439.763096 185.324561 
L 441.838909 178.423505 
L 443.914721 175.433824 
L 445.990533 179.604708 
L 448.066346 176.268221 
L 450.142158 178.108384 
L 452.21797 172.821558 
L 454.293783 175.928533 
L 456.369595 187.860715 
L 458.445408 195.744699 
L 460.52122 183.00605 
L 462.597032 172.731407 
L 464.672845 166.97343 
L 466.748657 167.176013 
L 468.824469 165.45728 
L 470.900282 164.230204 
L 472.976094 187.194795 
L 475.051906 197.045241 
L 477.127719 199.787941 
L 479.203531 229.335492 
L 481.279343 240.536444 
L 483.355156 213.054025 
L 485.430968 181.237837 
L 487.506781 211.796936 
L 489.582593 250.282944 
L 491.658405 235.933834 
L 493.734218 241.307029 
L 495.81003 245.284792 
L 497.885842 228.946894 
L 499.961655 227.591344 
L 502.037467 230.577723 
L 504.113279 231.177291 
L 506.189092 262.818981 
L 506.189092 262.818981 
" clip-path="url(#pad40738492)" style="fill: none; stroke: #dd8452; stroke-width: 2.25; stroke-linecap: round"/>
   </g>
   <g id="patch_3">
    <path d="M 72.448099 293.506804 
L 72.448099 19.44 
" style="fill: none; stroke: #262626; stroke-width: 1.875; stroke-linejoin: miter; stroke-linecap: square"/>
   </g>
   <g id="patch_4">
    <path d="M 526.843425 293.506804 
L 526.843425 19.44 
" style="fill: none; stroke: #262626; stroke-width: 1.875; stroke-linejoin: miter; stroke-linecap: square"/>
   </g>
   <g id="patch_5">
    <path d="M 72.448099 293.506804 
L 526.843425 293.506804 
" style="fill: none; stroke: #262626; stroke-width: 1.875; stroke-linejoin: miter; stroke-linecap: square"/>
   </g>
   <g id="patch_6">
    <path d="M 72.448099 19.44 
L 526.843425 19.44 
" style="fill: none; stroke: #262626; stroke-width: 1.875; stroke-linejoin: miter; stroke-linecap: square"/>
   </g>
   <g id="legend_1">
    <g id="patch_7">
     <path d="M 209.804049 285.256804 
L 389.487474 285.256804 
Q 392.787474 285.256804 392.787474 281.956804 
L 392.787474 236.700888 
Q 392.787474 233.400888 389.487474 233.400888 
L 209.804049 233.400888 
Q 206.504049 233.400888 206.504049 236.700888 
L 206.504049 281.956804 
Q 206.504049 285.256804 209.804049 285.256804 
z
" style="fill: #ffffff; opacity: 0.8; stroke: #cccccc; stroke-width: 1.5; stroke-linejoin: miter"/>
    </g>
    <g id="line2d_3">
     <path d="M 213.104049 245.775888 
L 229.604049 245.775888 
L 246.104049 245.775888 
" style="fill: none; stroke: #4c72b0; stroke-width: 2.25; stroke-linecap: round"/>
    </g>
    <g id="text_14">
     <!-- \texttt{compbnd-mdm} -->
     <g style="fill: #262626" transform="translate(259.304049 251.550888) scale(0.165 -0.165)">
      <defs>
       <path id="CMTT12-63" d="M 2918 702 
C 2918 868 2758 868 2707 868 
C 2560 868 2534 817 2502 728 
C 2362 377 2048 339 1894 339 
C 1350 339 890 792 890 1385 
C 890 1711 1075 2445 1914 2445 
C 2086 2445 2221 2432 2278 2426 
C 2323 2413 2330 2405 2330 2373 
C 2349 2107 2547 2107 2586 2107 
C 2726 2107 2848 2203 2848 2375 
C 2848 2816 2202 2816 1920 2816 
C 826 2816 474 1922 474 1385 
C 474 607 1069 -32 1837 -32 
C 2694 -32 2918 600 2918 702 
z
" transform="scale(0.015625)"/>
       <path id="CMTT12-6f" d="M 2918 1385 
C 2918 2183 2336 2816 1645 2816 
C 954 2816 371 2183 371 1385 
C 371 581 960 -32 1645 -32 
C 2330 -32 2918 581 2918 1385 
z
M 1645 339 
C 1184 339 787 824 787 1430 
C 787 2023 1197 2445 1645 2445 
C 2093 2445 2502 2023 2502 1430 
C 2502 818 2106 339 1645 339 
z
" transform="scale(0.015625)"/>
       <path id="CMTT12-6d" d="M 2899 1943 
C 2899 2084 2899 2803 2336 2803 
C 2112 2803 1894 2700 1722 2463 
C 1683 2559 1542 2803 1235 2803 
C 947 2803 749 2613 698 2555 
C 691 2752 557 2752 442 2752 
L 250 2752 
C 160 2752 -6 2752 -6 2567 
C -6 2381 141 2381 339 2381 
L 339 371 
C 134 371 -6 371 -6 186 
C -6 0 160 0 250 0 
L 787 0 
C 877 0 1043 0 1043 186 
C 1043 371 896 371 698 371 
L 698 1552 
C 698 2091 928 2432 1210 2432 
C 1389 2432 1440 2207 1440 1905 
L 1440 371 
C 1331 371 1158 371 1158 186 
C 1158 0 1331 0 1421 0 
L 1888 0 
C 1978 0 2144 0 2144 186 
C 2144 371 1997 371 1798 371 
L 1798 1552 
C 1798 2091 2029 2432 2310 2432 
C 2490 2432 2541 2207 2541 1905 
L 2541 371 
C 2432 371 2259 371 2259 186 
C 2259 0 2432 0 2522 0 
L 2989 0 
C 3078 0 3245 0 3245 186 
C 3245 371 3098 371 2899 371 
L 2899 1943 
z
" transform="scale(0.015625)"/>
       <path id="CMTT12-70" d="M 1293 -1408 
C 1382 -1408 1549 -1408 1549 -1222 
C 1549 -1037 1382 -1037 1293 -1037 
L 1030 -1037 
L 1030 326 
C 1184 153 1421 -32 1779 -32 
C 2458 -32 3053 579 3053 1395 
C 3053 2186 2515 2816 1850 2816 
C 1382 2816 1088 2533 1030 2469 
C 1030 2664 1030 2752 774 2752 
L 352 2752 
C 262 2752 96 2752 96 2567 
C 96 2381 262 2381 352 2381 
L 614 2381 
L 614 -1037 
L 352 -1037 
C 262 -1037 96 -1037 96 -1222 
C 96 -1408 262 -1408 352 -1408 
L 1293 -1408 
z
M 1030 1717 
C 1030 2084 1389 2445 1805 2445 
C 2266 2445 2637 1974 2637 1395 
C 2637 777 2202 339 1747 339 
C 1267 339 1030 886 1030 1208 
L 1030 1717 
z
" transform="scale(0.015625)"/>
       <path id="CMTT12-62" d="M 1030 3644 
C 1030 3841 992 3904 774 3904 
L 352 3904 
C 262 3904 96 3904 96 3719 
C 96 3533 262 3533 352 3533 
L 614 3533 
L 614 262 
C 614 147 614 0 826 0 
C 1030 0 1030 137 1030 326 
C 1184 153 1421 -32 1779 -32 
C 2458 -32 3053 576 3053 1388 
C 3053 2176 2515 2803 1850 2803 
C 1382 2803 1088 2522 1030 2458 
L 1030 3644 
z
M 1030 1708 
C 1030 2073 1389 2432 1805 2432 
C 2266 2432 2637 1964 2637 1388 
C 2637 774 2202 339 1747 339 
C 1267 339 1030 883 1030 1203 
L 1030 1708 
z
" transform="scale(0.015625)"/>
       <path id="CMTT12-6e" d="M 2675 1879 
C 2675 2507 2381 2803 1856 2803 
C 1421 2803 1139 2560 1030 2438 
C 1030 2666 1030 2752 774 2752 
L 352 2752 
C 262 2752 96 2752 96 2567 
C 96 2381 262 2381 352 2381 
L 614 2381 
L 614 371 
L 352 371 
C 262 371 96 371 96 186 
C 96 0 262 0 352 0 
L 1293 0 
C 1382 0 1549 0 1549 186 
C 1549 371 1382 371 1293 371 
L 1030 371 
L 1030 1533 
C 1030 2155 1466 2432 1811 2432 
C 2182 2432 2259 2219 2259 1854 
L 2259 371 
L 1997 371 
C 1907 371 1741 371 1741 186 
C 1741 0 1907 0 1997 0 
L 2938 0 
C 3027 0 3194 0 3194 186 
C 3194 371 3027 371 2938 371 
L 2675 371 
L 2675 1879 
z
" transform="scale(0.015625)"/>
       <path id="CMTT12-64" d="M 2675 3642 
C 2675 3840 2637 3904 2419 3904 
L 1997 3904 
C 1907 3904 1741 3904 1741 3719 
C 1741 3533 1907 3533 1997 3533 
L 2259 3533 
L 2259 2483 
C 2157 2585 1894 2803 1504 2803 
C 826 2803 237 2188 237 1382 
C 237 595 787 -32 1446 -32 
C 1862 -32 2138 215 2259 355 
C 2259 84 2259 0 2515 0 
L 2938 0 
C 3027 0 3194 0 3194 186 
C 3194 371 3027 371 2938 371 
L 2675 371 
L 2675 3642 
z
M 2259 1222 
C 2259 864 1965 339 1485 339 
C 1024 339 653 806 653 1382 
C 653 1996 1088 2432 1542 2432 
C 1958 2432 2259 2054 2259 1721 
L 2259 1222 
z
" transform="scale(0.015625)"/>
       <path id="CMTT12-2d" d="M 2650 1728 
C 2733 1728 2938 1728 2938 1933 
C 2938 2144 2739 2144 2650 2144 
L 640 2144 
C 557 2144 352 2144 352 1939 
C 352 1728 550 1728 640 1728 
L 2650 1728 
z
" transform="scale(0.015625)"/>
      </defs>
      <use xlink:href="#CMTT12-63" transform="scale(0.996264)"/>
      <use xlink:href="#CMTT12-6f" transform="translate(51.266111 0) scale(0.996264)"/>
      <use xlink:href="#CMTT12-6d" transform="translate(102.532222 0) scale(0.996264)"/>
      <use xlink:href="#CMTT12-70" transform="translate(153.798333 0) scale(0.996264)"/>
      <use xlink:href="#CMTT12-62" transform="translate(205.064443 0) scale(0.996264)"/>
      <use xlink:href="#CMTT12-6e" transform="translate(256.330554 0) scale(0.996264)"/>
      <use xlink:href="#CMTT12-64" transform="translate(307.596665 0) scale(0.996264)"/>
      <use xlink:href="#CMTT12-2d" transform="translate(358.862776 0) scale(0.996264)"/>
      <use xlink:href="#CMTT12-6d" transform="translate(410.128887 0) scale(0.996264)"/>
      <use xlink:href="#CMTT12-64" transform="translate(461.394998 0) scale(0.996264)"/>
      <use xlink:href="#CMTT12-6d" transform="translate(512.661108 0) scale(0.996264)"/>
     </g>
    </g>
    <g id="line2d_4">
     <path d="M 213.104049 269.228846 
L 229.604049 269.228846 
L 246.104049 269.228846 
" style="fill: none; stroke: #dd8452; stroke-width: 2.25; stroke-linecap: round"/>
    </g>
    <g id="text_15">
     <!-- \texttt{compbnd-mdm+dvs} -->
     <g style="fill: #262626" transform="translate(259.304049 275.003846) scale(0.165 -0.165)">
      <defs>
       <path id="CMTT12-2b" d="M 1856 1792 
L 2765 1792 
C 2848 1792 3053 1792 3053 1997 
C 3053 2208 2854 2208 2765 2208 
L 1856 2208 
L 1856 3113 
C 1856 3196 1856 3398 1651 3398 
C 1440 3398 1440 3202 1440 3113 
L 1440 2208 
L 525 2208 
C 442 2208 237 2208 237 2003 
C 237 1792 435 1792 525 1792 
L 1440 1792 
L 1440 867 
C 1440 783 1440 576 1645 576 
C 1856 576 1856 776 1856 867 
L 1856 1792 
z
" transform="scale(0.015625)"/>
       <path id="CMTT12-76" d="M 2714 2381 
L 2880 2381 
C 2970 2381 3142 2381 3142 2567 
C 3142 2752 2970 2752 2880 2752 
L 2176 2752 
C 2086 2752 1914 2752 1914 2567 
C 1914 2381 2086 2381 2176 2381 
L 2336 2381 
L 1645 325 
L 954 2381 
L 1114 2381 
C 1203 2381 1376 2381 1376 2567 
C 1376 2752 1203 2752 1114 2752 
L 410 2752 
C 320 2752 147 2752 147 2567 
C 147 2381 320 2381 410 2381 
L 576 2381 
L 1312 185 
C 1382 -32 1523 -32 1645 -32 
C 1766 -32 1907 -32 1978 185 
L 2714 2381 
z
" transform="scale(0.015625)"/>
       <path id="CMTT12-73" d="M 2688 2573 
C 2688 2675 2688 2816 2509 2816 
C 2355 2816 2317 2669 2317 2662 
C 2061 2816 1766 2816 1638 2816 
C 595 2816 454 2286 454 2069 
C 454 1807 608 1629 826 1507 
C 1030 1392 1216 1361 1741 1278 
C 1990 1233 2502 1150 2502 799 
C 2502 562 2285 339 1690 339 
C 1280 339 1011 499 877 960 
C 845 1049 826 1120 666 1120 
C 454 1120 454 998 454 870 
L 454 211 
C 454 108 454 -32 634 -32 
C 710 -32 768 -32 864 230 
C 1158 -32 1491 -32 1690 -32 
C 2874 -32 2874 734 2874 798 
C 2874 1461 2080 1596 1773 1640 
C 1210 1736 826 1800 826 2068 
C 826 2241 1024 2445 1626 2445 
C 2234 2445 2259 2157 2272 1990 
C 2285 1862 2400 1843 2477 1843 
C 2688 1843 2688 1958 2688 2086 
L 2688 2573 
z
" transform="scale(0.015625)"/>
      </defs>
      <use xlink:href="#CMTT12-63" transform="scale(0.996264)"/>
      <use xlink:href="#CMTT12-6f" transform="translate(51.266111 0) scale(0.996264)"/>
      <use xlink:href="#CMTT12-6d" transform="translate(102.532222 0) scale(0.996264)"/>
      <use xlink:href="#CMTT12-70" transform="translate(153.798333 0) scale(0.996264)"/>
      <use xlink:href="#CMTT12-62" transform="translate(205.064443 0) scale(0.996264)"/>
      <use xlink:href="#CMTT12-6e" transform="translate(256.330554 0) scale(0.996264)"/>
      <use xlink:href="#CMTT12-64" transform="translate(307.596665 0) scale(0.996264)"/>
      <use xlink:href="#CMTT12-2d" transform="translate(358.862776 0) scale(0.996264)"/>
      <use xlink:href="#CMTT12-6d" transform="translate(410.128887 0) scale(0.996264)"/>
      <use xlink:href="#CMTT12-64" transform="translate(461.394998 0) scale(0.996264)"/>
      <use xlink:href="#CMTT12-6d" transform="translate(512.661108 0) scale(0.996264)"/>
      <use xlink:href="#CMTT12-2b" transform="translate(563.927219 0) scale(0.996264)"/>
      <use xlink:href="#CMTT12-64" transform="translate(615.19333 0) scale(0.996264)"/>
      <use xlink:href="#CMTT12-76" transform="translate(666.459441 0) scale(0.996264)"/>
      <use xlink:href="#CMTT12-73" transform="translate(717.725552 0) scale(0.996264)"/>
     </g>
    </g>
   </g>
  </g>
 </g>
 <defs>
  <clipPath id="pad40738492">
   <rect x="72.448099" y="19.44" width="454.395326" height="274.066804"/>
  </clipPath>
 </defs>
</svg>
