<?xml version="1.0" encoding="utf-8" standalone="no"?>
<!DOCTYPE svg PUBLIC "-//W3C//DTD SVG 1.1//EN"
  "http://www.w3.org/Graphics/SVG/1.1/DTD/svg11.dtd">
<svg xmlns:xlink="http://www.w3.org/1999/xlink" width="546.283425pt" height="360pt" viewBox="0 0 546.283425 360" xmlns="http://www.w3.org/2000/svg" version="1.1">
 <metadata>
  <rdf:RDF xmlns:dc="http://purl.org/dc/elements/1.1/" xmlns:cc="http://creativecommons.org/ns#" xmlns:rdf="http://www.w3.org/1999/02/22-rdf-syntax-ns#">
   <cc:Work>
    <dc:type rdf:resource="http://purl.org/dc/dcmitype/StillImage"/>
    <dc:date>2024-08-19T21:17:29.977343</dc:date>
    <dc:format>image/svg+xml</dc:format>
    <dc:creator>
     <cc:Agent>
      <dc:title>Matplotlib v3.9.0, https://matplotlib.org/</dc:title>
     </cc:Agent>
    </dc:creator>
   </cc:Work>
  </rdf:RDF>
 </metadata>
 <defs>
  <style type="text/css">*{stroke-linejoin: round; stroke-linecap: butt}</style>
 </defs>
 <g id="figure_1">
  <g id="patch_1">
   <path d="M 0 360 
L 546.283425 360 
L 546.283425 0 
L 0 0 
L 0 360 
z
" style="fill: none"/>
  </g>
  <g id="axes_1">
   <g id="patch_2">
    <path d="M 84.64046 293.506804 
L 526.843425 293.506804 
L 526.843425 19.44 
L 84.64046 19.44 
L 84.64046 293.506804 
z
" style="fill: none"/>
   </g>
   <g id="matplotlib.axis_1">
    <g id="xtick_1">
     <g id="text_1">
      <!-- 1 -->
      <g style="fill: #262626" transform="translate(135.891904 317.422309) scale(0.165 -0.165)">
       <defs>
        <path id="CMSS17-31" d="M 1818 4288 
L 1696 4288 
C 1350 3940 947 3890 538 3890 
L 538 3520 
C 723 3520 1024 3520 1325 3667 
L 1325 369 
L 570 369 
L 570 0 
L 2573 0 
L 2573 369 
L 1818 369 
L 1818 4288 
z
" transform="scale(0.015625)"/>
       </defs>
       <use xlink:href="#CMSS17-31" transform="scale(0.996264)"/>
      </g>
     </g>
    </g>
    <g id="xtick_2">
     <g id="text_2">
      <!-- 2 -->
      <g style="fill: #262626" transform="translate(246.442645 317.422309) scale(0.165 -0.165)">
       <defs>
        <path id="CMSS17-32" d="M 1651 1357 
C 1830 1541 2099 1764 2285 1987 
C 2464 2204 2701 2511 2701 2957 
C 2701 3657 2227 4288 1421 4288 
C 787 4288 422 3893 250 3274 
L 499 2929 
C 640 3510 838 3880 1338 3880 
C 1888 3880 2195 3433 2195 2942 
C 2195 2355 1747 1901 1408 1563 
C 1030 1187 659 804 301 408 
L 301 0 
L 2701 0 
L 2701 433 
L 1613 433 
C 1536 433 1459 433 1382 433 
L 742 433 
L 742 439 
L 1651 1357 
z
" transform="scale(0.015625)"/>
       </defs>
       <use xlink:href="#CMSS17-32" transform="scale(0.996264)"/>
      </g>
     </g>
    </g>
    <g id="xtick_3">
     <g id="text_3">
      <!-- 3 -->
      <g style="fill: #262626" transform="translate(356.993386 317.422309) scale(0.165 -0.165)">
       <defs>
        <path id="CMSS17-33" d="M 1005 2025 
L 1440 2025 
C 2042 2025 2214 1507 2214 1146 
C 2214 653 1933 267 1472 267 
C 1114 267 608 444 320 912 
C 275 691 275 678 250 526 
C 550 88 1037 -128 1485 -128 
C 2214 -128 2752 473 2752 1138 
C 2752 1638 2400 2057 1920 2215 
C 2304 2424 2586 2816 2586 3273 
C 2586 3805 2093 4229 1491 4229 
C 941 4229 512 3892 333 3530 
C 378 3468 493 3284 550 3189 
C 691 3562 1056 3840 1485 3840 
C 1843 3840 2080 3607 2080 3271 
C 2080 2923 1856 2543 1478 2455 
C 1453 2455 1056 2417 1005 2411 
L 1005 2025 
z
" transform="scale(0.015625)"/>
       </defs>
       <use xlink:href="#CMSS17-33" transform="scale(0.996264)"/>
      </g>
     </g>
    </g>
    <g id="xtick_4">
     <g id="text_4">
      <!-- 4 -->
      <g style="fill: #262626" transform="translate(467.544127 317.422309) scale(0.165 -0.165)">
       <defs>
        <path id="CMSS17-34" d="M 2253 1088 
L 2835 1088 
L 2835 1477 
L 2253 1477 
L 2253 4192 
L 1690 4192 
L 166 1477 
L 166 1088 
L 1747 1088 
L 1747 0 
L 2253 0 
L 2253 1088 
z
M 659 1477 
C 1030 2127 1766 3439 1766 3885 
L 1766 1477 
L 659 1477 
z
" transform="scale(0.015625)"/>
       </defs>
       <use xlink:href="#CMSS17-34" transform="scale(0.996264)"/>
      </g>
     </g>
    </g>
    <g id="text_5">
     <!-- Number of Bounds -->
     <g style="fill: #262626" transform="translate(239.097853 337.071936) scale(0.18 -0.18)">
      <defs>
       <path id="CMSS17-4e" d="M 1466 4180 
L 1350 4416 
L 563 4416 
L 563 0 
L 1062 0 
L 1062 3926 
L 1069 3932 
C 1114 3817 1139 3760 1402 3194 
L 2771 236 
L 2886 0 
L 3674 0 
L 3674 4416 
L 3174 4416 
L 3174 490 
L 3168 483 
C 3123 598 3098 655 2835 1221 
L 1466 4180 
z
" transform="scale(0.015625)"/>
       <path id="CMSS17-75" d="M 2618 2739 
L 2131 2739 
L 2131 972 
C 2131 498 1786 306 1421 306 
C 998 306 960 447 960 709 
L 960 2739 
L 474 2739 
L 474 678 
C 474 179 646 -64 1088 -64 
C 1306 -64 1798 -13 2144 306 
L 2144 0 
L 2618 0 
L 2618 2739 
z
" transform="scale(0.015625)"/>
       <path id="CMSS17-6d" d="M 4288 1877 
C 4288 2308 4179 2816 3462 2816 
C 2982 2816 2694 2516 2566 2331 
C 2451 2670 2182 2816 1798 2816 
C 1363 2816 1088 2568 941 2389 
L 941 2758 
L 474 2758 
L 474 0 
L 960 0 
L 960 1559 
C 960 1939 1101 2428 1555 2428 
C 2138 2428 2138 2016 2138 1829 
L 2138 0 
L 2624 0 
L 2624 1559 
C 2624 1939 2765 2428 3219 2428 
C 3802 2428 3802 2016 3802 1829 
L 3802 0 
L 4288 0 
L 4288 1877 
z
" transform="scale(0.015625)"/>
       <path id="CMSS17-62" d="M 954 4416 
L 480 4416 
L 480 -13 
L 966 -13 
L 966 274 
C 1210 38 1504 -64 1766 -64 
C 2381 -64 2880 549 2880 1352 
C 2880 2086 2496 2756 1926 2756 
C 1523 2756 1165 2591 954 2419 
L 954 4416 
z
M 966 2046 
C 1107 2222 1306 2368 1587 2368 
C 1965 2368 2394 2097 2394 1352 
C 2394 558 1882 325 1530 325 
C 1402 325 1267 356 1139 464 
C 966 615 966 709 966 797 
L 966 2046 
z
" transform="scale(0.015625)"/>
       <path id="CMSS17-65" d="M 2502 1377 
C 2502 1590 2490 2003 2285 2345 
C 2061 2713 1696 2816 1421 2816 
C 755 2816 192 2188 192 1375 
C 192 582 774 -64 1510 -64 
C 1798 -64 2150 19 2470 248 
C 2470 274 2458 414 2451 420 
C 2451 433 2432 630 2432 656 
C 2125 407 1773 325 1517 325 
C 1107 325 666 667 646 1377 
L 2502 1377 
z
M 698 1728 
C 781 2084 1062 2421 1421 2421 
C 1517 2421 1965 2421 2080 1728 
L 698 1728 
z
" transform="scale(0.015625)"/>
       <path id="CMSS17-72" d="M 954 1363 
C 954 1965 1395 2368 1958 2368 
L 1958 2789 
C 1549 2789 1165 2585 934 2253 
L 934 2758 
L 480 2758 
L 480 0 
L 954 0 
L 954 1363 
z
" transform="scale(0.015625)"/>
       <path id="CMSS17-6f" d="M 2829 1356 
C 2829 2176 2221 2816 1504 2816 
C 768 2816 173 2157 173 1356 
C 173 544 787 -64 1498 -64 
C 2227 -64 2829 563 2829 1356 
z
M 1504 337 
C 1050 337 659 709 659 1408 
C 659 2151 1114 2427 1498 2427 
C 1914 2427 2342 2126 2342 1408 
C 2342 683 1926 337 1504 337 
z
" transform="scale(0.015625)"/>
       <path id="CMSS17-66" d="M 1075 2368 
L 1722 2368 
L 1722 2737 
L 1062 2737 
L 1062 3559 
C 1062 4014 1408 4092 1606 4092 
C 1670 4092 1850 4092 2080 4009 
L 2080 4429 
C 1933 4461 1754 4480 1613 4480 
C 1018 4480 602 3993 602 3359 
L 602 2737 
L 160 2737 
L 160 2368 
L 602 2368 
L 602 0 
L 1075 0 
L 1075 2368 
z
" transform="scale(0.015625)"/>
       <path id="CMSS17-42" d="M 570 4416 
L 570 0 
L 2163 0 
C 3034 0 3667 574 3667 1200 
C 3667 1685 3251 2176 2502 2317 
C 3334 2558 3501 3040 3501 3313 
C 3501 3883 2874 4416 1997 4416 
L 570 4416 
z
M 1088 2496 
L 1088 4059 
L 1824 4059 
C 2483 4059 3002 3724 3002 3306 
C 3002 2926 2592 2496 1766 2496 
L 1088 2496 
z
M 1088 357 
L 1088 2107 
L 1939 2107 
C 2630 2107 3162 1679 3162 1206 
C 3162 772 2694 357 1984 357 
L 1088 357 
z
" transform="scale(0.015625)"/>
       <path id="CMSS17-6e" d="M 2618 1877 
C 2618 2283 2522 2816 1798 2816 
C 1389 2816 1120 2606 941 2389 
L 941 2758 
L 474 2758 
L 474 0 
L 960 0 
L 960 1559 
C 960 1964 1114 2428 1549 2428 
C 2112 2428 2131 2048 2131 1829 
L 2131 0 
L 2618 0 
L 2618 1877 
z
" transform="scale(0.015625)"/>
       <path id="CMSS17-64" d="M 2611 4416 
L 2138 4416 
L 2138 2438 
C 1939 2603 1613 2756 1254 2756 
C 672 2756 211 2131 211 1347 
C 211 562 666 -64 1235 -64 
C 1677 -64 1971 172 2125 306 
L 2125 -13 
L 2611 -13 
L 2611 4416 
z
M 2125 836 
C 2125 747 2125 653 1926 482 
C 1798 375 1645 325 1498 325 
C 1152 325 698 576 698 1340 
C 698 2134 1210 2368 1562 2368 
C 1798 2368 1990 2254 2125 2065 
L 2125 836 
z
" transform="scale(0.015625)"/>
       <path id="CMSS17-73" d="M 2061 2627 
C 1683 2807 1389 2807 1197 2807 
C 742 2807 198 2648 198 2003 
C 198 1359 902 1218 1094 1179 
C 1389 1122 1715 1058 1715 740 
C 1715 337 1254 337 1171 337 
C 915 337 563 407 243 638 
L 166 210 
C 531 0 883 -64 1178 -64 
C 1965 -64 2163 416 2163 781 
C 2163 1094 1984 1305 1862 1401 
C 1651 1568 1574 1587 1050 1696 
C 960 1709 646 1779 646 2066 
C 646 2432 1050 2432 1139 2432 
C 1555 2432 1811 2303 1984 2208 
L 2061 2627 
z
" transform="scale(0.015625)"/>
      </defs>
      <use xlink:href="#CMSS17-4e" transform="scale(0.996264)"/>
      <use xlink:href="#CMSS17-75" transform="translate(66.061519 0) scale(0.996264)"/>
      <use xlink:href="#CMSS17-6d" transform="translate(114.266462 0) scale(0.996264)"/>
      <use xlink:href="#CMSS17-62" transform="translate(188.495717 0) scale(0.996264)"/>
      <use xlink:href="#CMSS17-65" transform="translate(239.303099 0) scale(0.996264)"/>
      <use xlink:href="#CMSS17-72" transform="translate(280.941921 0) scale(0.996264)"/>
      <use xlink:href="#CMSS17-6f" transform="translate(344.080806 0) scale(0.996264)"/>
      <use xlink:href="#CMSS17-66" transform="translate(390.92443 0) scale(0.996264)"/>
      <use xlink:href="#CMSS17-42" transform="translate(450.780201 0) scale(0.996264)"/>
      <use xlink:href="#CMSS17-6f" transform="translate(513.118241 0) scale(0.996264)"/>
      <use xlink:href="#CMSS17-75" transform="translate(559.961865 0) scale(0.996264)"/>
      <use xlink:href="#CMSS17-6e" transform="translate(608.166808 0) scale(0.996264)"/>
      <use xlink:href="#CMSS17-64" transform="translate(656.371751 0) scale(0.996264)"/>
      <use xlink:href="#CMSS17-73" transform="translate(704.576694 0) scale(0.996264)"/>
     </g>
    </g>
   </g>
   <g id="matplotlib.axis_2">
    <g id="ytick_1">
     <g id="text_6">
      <!-- $\mathdefault{10^{-1}}$ -->
      <g style="fill: #262626" transform="translate(41.341604 285.528897) scale(0.165 -0.165)">
       <defs>
        <path id="CMR17-31" d="M 1702 4058 
C 1702 4192 1696 4192 1606 4192 
C 1357 3916 979 3827 621 3827 
C 602 3827 570 3827 563 3808 
C 557 3795 557 3782 557 3648 
C 755 3648 1088 3686 1344 3839 
L 1344 461 
C 1344 236 1331 160 781 160 
L 589 160 
L 589 0 
C 896 0 1216 0 1523 0 
C 1830 0 2150 0 2458 0 
L 2458 160 
L 2266 160 
C 1715 160 1702 230 1702 458 
L 1702 4058 
z
" transform="scale(0.015625)"/>
        <path id="CMR17-30" d="M 2688 2025 
C 2688 2416 2682 3080 2413 3591 
C 2176 4039 1798 4198 1466 4198 
C 1158 4198 768 4058 525 3597 
C 269 3118 243 2524 243 2025 
C 243 1661 250 1106 448 619 
C 723 -39 1216 -128 1466 -128 
C 1760 -128 2208 -7 2470 600 
C 2662 1042 2688 1559 2688 2025 
z
M 1466 -26 
C 1056 -26 813 325 723 812 
C 653 1188 653 1738 653 2096 
C 653 2588 653 2997 736 3387 
C 858 3929 1216 4096 1466 4096 
C 1728 4096 2067 3923 2189 3400 
C 2272 3036 2278 2607 2278 2096 
C 2278 1680 2278 1169 2202 792 
C 2067 95 1690 -26 1466 -26 
z
" transform="scale(0.015625)"/>
        <path id="CMSY10-0" d="M 4218 1472 
C 4326 1472 4442 1472 4442 1600 
C 4442 1728 4326 1728 4218 1728 
L 755 1728 
C 646 1728 531 1728 531 1600 
C 531 1472 646 1472 755 1472 
L 4218 1472 
z
" transform="scale(0.015625)"/>
       </defs>
       <use xlink:href="#CMR17-31" transform="scale(0.996264)"/>
       <use xlink:href="#CMR17-30" transform="translate(45.690477 0) scale(0.996264)"/>
       <use xlink:href="#CMSY10-0" transform="translate(91.380954 36.153639) scale(0.697382)"/>
       <use xlink:href="#CMR17-31" transform="translate(145.621947 36.153639) scale(0.697382)"/>
      </g>
     </g>
    </g>
    <g id="ytick_2">
     <g id="text_7">
      <!-- $\mathdefault{10^{0}}$ -->
      <g style="fill: #262626" transform="translate(50.291349 195.887345) scale(0.165 -0.165)">
       <use xlink:href="#CMR17-31" transform="scale(0.996264)"/>
       <use xlink:href="#CMR17-30" transform="translate(45.690477 0) scale(0.996264)"/>
       <use xlink:href="#CMR17-30" transform="translate(91.380954 36.153639) scale(0.697382)"/>
      </g>
     </g>
    </g>
    <g id="ytick_3">
     <g id="text_8">
      <!-- $\mathdefault{10^{1}}$ -->
      <g style="fill: #262626" transform="translate(50.291349 106.245792) scale(0.165 -0.165)">
       <use xlink:href="#CMR17-31" transform="scale(0.996264)"/>
       <use xlink:href="#CMR17-30" transform="translate(45.690477 0) scale(0.996264)"/>
       <use xlink:href="#CMR17-31" transform="translate(91.380954 36.153639) scale(0.697382)"/>
      </g>
     </g>
    </g>
    <g id="ytick_4"/>
    <g id="ytick_5"/>
    <g id="ytick_6"/>
    <g id="ytick_7"/>
    <g id="ytick_8"/>
    <g id="ytick_9"/>
    <g id="ytick_10"/>
    <g id="ytick_11"/>
    <g id="ytick_12"/>
    <g id="ytick_13"/>
    <g id="ytick_14"/>
    <g id="ytick_15"/>
    <g id="ytick_16"/>
    <g id="ytick_17"/>
    <g id="ytick_18"/>
    <g id="ytick_19"/>
    <g id="ytick_20"/>
    <g id="ytick_21"/>
    <g id="ytick_22"/>
    <g id="ytick_23"/>
    <g id="ytick_24"/>
    <g id="ytick_25"/>
    <g id="ytick_26"/>
    <g id="ytick_27"/>
    <g id="ytick_28"/>
    <g id="text_9">
     <!-- Distribution (\%) -->
     <g style="fill: #262626" transform="translate(32.87342 214.361326) rotate(-90) scale(0.18 -0.18)">
      <defs>
       <path id="CMSS17-44" d="M 570 4416 
L 570 0 
L 2144 0 
C 3194 0 4000 980 4000 2170 
C 4000 3398 3194 4416 2144 4416 
L 570 4416 
z
M 1094 357 
L 1094 4059 
L 2003 4059 
C 2861 4059 3475 3277 3475 2170 
C 3475 1107 2867 357 2003 357 
L 1094 357 
z
" transform="scale(0.015625)"/>
       <path id="CMSS17-69" d="M 979 4183 
L 442 4183 
L 442 3648 
L 979 3648 
L 979 4183 
z
M 947 2739 
L 474 2739 
L 474 0 
L 947 0 
L 947 2739 
z
" transform="scale(0.015625)"/>
       <path id="CMSS17-74" d="M 1069 2368 
L 1901 2368 
L 1901 2737 
L 1069 2737 
L 1069 3520 
L 614 3520 
L 614 2737 
L 109 2737 
L 109 2368 
L 602 2368 
L 602 749 
C 602 384 685 -64 1107 -64 
C 1427 -64 1722 25 2003 172 
L 1901 548 
C 1747 414 1562 337 1363 337 
C 1082 337 1069 696 1069 856 
L 1069 2368 
z
" transform="scale(0.015625)"/>
       <path id="CMSS17-28" d="M 1613 4768 
C 1267 4417 474 3601 474 1588 
C 474 -433 1267 -1243 1613 -1600 
L 2003 -1600 
C 1216 -784 960 357 960 1581 
C 960 2798 1203 3946 2003 4768 
L 1613 4768 
z
" transform="scale(0.015625)"/>
       <path id="CMSS17-25" d="M 3923 4583 
C 3962 4647 3962 4679 3962 4685 
C 3962 4755 3904 4800 3853 4800 
C 3782 4800 3750 4749 3718 4685 
L 1101 -104 
C 1088 -129 1062 -167 1062 -206 
C 1062 -276 1120 -320 1178 -320 
C 1235 -320 1248 -295 1299 -206 
L 3923 4583 
z
M 4678 959 
C 4678 1698 4282 2240 3846 2240 
C 3418 2240 3008 1711 3008 959 
C 3008 208 3418 -320 3846 -320 
C 4288 -320 4678 221 4678 959 
z
M 3846 68 
C 3712 68 3494 189 3494 959 
C 3494 1724 3712 1851 3846 1851 
C 4083 1851 4211 1386 4211 959 
C 4211 533 4083 68 3846 68 
z
M 2003 3519 
C 2003 4258 1606 4800 1171 4800 
C 742 4800 333 4271 333 3519 
C 333 2768 742 2240 1171 2240 
C 1613 2240 2003 2781 2003 3519 
z
M 1171 2628 
C 1037 2628 819 2749 819 3519 
C 819 4284 1037 4411 1171 4411 
C 1408 4411 1536 3946 1536 3519 
C 1536 3093 1408 2628 1171 2628 
z
" transform="scale(0.015625)"/>
       <path id="CMSS17-29" d="M 723 -1600 
C 1069 -1249 1862 -433 1862 1581 
C 1862 3601 1069 4411 723 4768 
L 333 4768 
C 1120 3952 1376 2811 1376 1588 
C 1376 370 1133 -778 333 -1600 
L 723 -1600 
z
" transform="scale(0.015625)"/>
      </defs>
      <use xlink:href="#CMSS17-44" transform="scale(0.996264)"/>
      <use xlink:href="#CMSS17-69" transform="translate(67.542842 0) scale(0.996264)"/>
      <use xlink:href="#CMSS17-73" transform="translate(89.723565 0) scale(0.996264)"/>
      <use xlink:href="#CMSS17-74" transform="translate(125.637107 0) scale(0.996264)"/>
      <use xlink:href="#CMSS17-72" transform="translate(159.468673 0) scale(0.996264)"/>
      <use xlink:href="#CMSS17-69" transform="translate(191.378446 0) scale(0.996264)"/>
      <use xlink:href="#CMSS17-62" transform="translate(213.559169 0) scale(0.996264)"/>
      <use xlink:href="#CMSS17-75" transform="translate(261.764112 0) scale(0.996264)"/>
      <use xlink:href="#CMSS17-74" transform="translate(309.969055 0) scale(0.996264)"/>
      <use xlink:href="#CMSS17-69" transform="translate(343.800622 0) scale(0.996264)"/>
      <use xlink:href="#CMSS17-6f" transform="translate(365.981345 0) scale(0.996264)"/>
      <use xlink:href="#CMSS17-6e" transform="translate(412.824969 0) scale(0.996264)"/>
      <use xlink:href="#CMSS17-28" transform="translate(492.259024 0) scale(0.996264)"/>
      <use xlink:href="#CMSS17-25" transform="translate(528.692939 0) scale(0.996264)"/>
      <use xlink:href="#CMSS17-29" transform="translate(606.765675 0) scale(0.996264)"/>
     </g>
    </g>
   </g>
   <g id="patch_3">
    <path d="M 95.695535 89831.732406 
L 139.915831 89831.732406 
L 139.915831 32.349611 
L 95.695535 32.349611 
z
" clip-path="url(#p133636f82a)" style="fill: #5875a4; stroke: #ffffff; stroke-width: 1.5; stroke-linejoin: miter"/>
   </g>
   <g id="patch_4">
    <path d="M 206.246276 89831.732406 
L 250.466572 89831.732406 
L 250.466572 52.14933 
L 206.246276 52.14933 
z
" clip-path="url(#p133636f82a)" style="fill: #5875a4; stroke: #ffffff; stroke-width: 1.5; stroke-linejoin: miter"/>
   </g>
   <g id="patch_5">
    <path d="M 316.797017 89831.732406 
L 361.017313 89831.732406 
L 361.017313 111.213317 
L 316.797017 111.213317 
z
" clip-path="url(#p133636f82a)" style="fill: #5875a4; stroke: #ffffff; stroke-width: 1.5; stroke-linejoin: miter"/>
   </g>
   <g id="patch_6">
    <path d="M 427.347758 89831.732406 
L 471.568054 89831.732406 
L 471.568054 277.411835 
L 427.347758 277.411835 
z
" clip-path="url(#p133636f82a)" style="fill: #5875a4; stroke: #ffffff; stroke-width: 1.5; stroke-linejoin: miter"/>
   </g>
   <g id="patch_7">
    <path d="M 139.915831 89831.732406 
L 184.136127 89831.732406 
L 184.136127 31.897582 
L 139.915831 31.897582 
z
" clip-path="url(#p133636f82a)" style="fill: #cc8963; stroke: #ffffff; stroke-width: 1.5; stroke-linejoin: miter"/>
   </g>
   <g id="patch_8">
    <path d="M 250.466572 89831.732406 
L 294.686869 89831.732406 
L 294.686869 52.669084 
L 250.466572 52.669084 
z
" clip-path="url(#p133636f82a)" style="fill: #cc8963; stroke: #ffffff; stroke-width: 1.5; stroke-linejoin: miter"/>
   </g>
   <g id="patch_9">
    <path d="M 361.017313 89831.732406 
L 405.23761 89831.732406 
L 405.23761 112.272192 
L 361.017313 112.272192 
z
" clip-path="url(#p133636f82a)" style="fill: #cc8963; stroke: #ffffff; stroke-width: 1.5; stroke-linejoin: miter"/>
   </g>
   <g id="patch_10">
    <path d="M 471.568054 89831.732406 
L 515.788351 89831.732406 
L 515.788351 281.049222 
L 471.568054 281.049222 
z
" clip-path="url(#p133636f82a)" style="fill: #cc8963; stroke: #ffffff; stroke-width: 1.5; stroke-linejoin: miter"/>
   </g>
   <g id="patch_11">
    <path d="M 139.915831 89831.732406 
L 139.915831 89831.732406 
L 139.915831 89831.732406 
L 139.915831 89831.732406 
z
" clip-path="url(#p133636f82a)" style="fill: #5875a4; stroke: #ffffff; stroke-width: 1.5; stroke-linejoin: miter"/>
   </g>
   <g id="patch_12">
    <path d="M 139.915831 89831.732406 
L 139.915831 89831.732406 
L 139.915831 89831.732406 
L 139.915831 89831.732406 
z
" clip-path="url(#p133636f82a)" style="fill: #cc8963; stroke: #ffffff; stroke-width: 1.5; stroke-linejoin: miter"/>
   </g>
   <g id="line2d_1">
    <path clip-path="url(#p133636f82a)" style="fill: none; stroke: #424242; stroke-width: 3.375; stroke-linecap: round"/>
   </g>
   <g id="line2d_2">
    <path clip-path="url(#p133636f82a)" style="fill: none; stroke: #424242; stroke-width: 3.375; stroke-linecap: round"/>
   </g>
   <g id="line2d_3">
    <path clip-path="url(#p133636f82a)" style="fill: none; stroke: #424242; stroke-width: 3.375; stroke-linecap: round"/>
   </g>
   <g id="line2d_4">
    <path clip-path="url(#p133636f82a)" style="fill: none; stroke: #424242; stroke-width: 3.375; stroke-linecap: round"/>
   </g>
   <g id="line2d_5">
    <path clip-path="url(#p133636f82a)" style="fill: none; stroke: #424242; stroke-width: 3.375; stroke-linecap: round"/>
   </g>
   <g id="line2d_6">
    <path clip-path="url(#p133636f82a)" style="fill: none; stroke: #424242; stroke-width: 3.375; stroke-linecap: round"/>
   </g>
   <g id="line2d_7">
    <path clip-path="url(#p133636f82a)" style="fill: none; stroke: #424242; stroke-width: 3.375; stroke-linecap: round"/>
   </g>
   <g id="line2d_8">
    <path clip-path="url(#p133636f82a)" style="fill: none; stroke: #424242; stroke-width: 3.375; stroke-linecap: round"/>
   </g>
   <g id="patch_13">
    <path d="M 84.64046 293.506804 
L 84.64046 19.44 
" style="fill: none; stroke: #262626; stroke-width: 1.875; stroke-linejoin: miter; stroke-linecap: square"/>
   </g>
   <g id="patch_14">
    <path d="M 84.64046 293.506804 
L 526.843425 293.506804 
" style="fill: none; stroke: #262626; stroke-width: 1.875; stroke-linejoin: miter; stroke-linecap: square"/>
   </g>
  </g>
  <g id="legend_1">
   <g id="patch_15">
    <path d="M 358.35 62.4 
L 391.35 62.4 
L 391.35 50.85 
L 358.35 50.85 
z
" style="fill: #5875a4; stroke: #ffffff; stroke-width: 1.5; stroke-linejoin: miter"/>
   </g>
   <g id="text_10">
    <!-- \texttt{compbnd-mdm} -->
    <g style="fill: #262626" transform="translate(404.55 62.4) scale(0.165 -0.165)">
     <defs>
      <path id="CMTT12-63" d="M 2918 702 
C 2918 868 2758 868 2707 868 
C 2560 868 2534 817 2502 728 
C 2362 377 2048 339 1894 339 
C 1350 339 890 792 890 1385 
C 890 1711 1075 2445 1914 2445 
C 2086 2445 2221 2432 2278 2426 
C 2323 2413 2330 2405 2330 2373 
C 2349 2107 2547 2107 2586 2107 
C 2726 2107 2848 2203 2848 2375 
C 2848 2816 2202 2816 1920 2816 
C 826 2816 474 1922 474 1385 
C 474 607 1069 -32 1837 -32 
C 2694 -32 2918 600 2918 702 
z
" transform="scale(0.015625)"/>
      <path id="CMTT12-6f" d="M 2918 1385 
C 2918 2183 2336 2816 1645 2816 
C 954 2816 371 2183 371 1385 
C 371 581 960 -32 1645 -32 
C 2330 -32 2918 581 2918 1385 
z
M 1645 339 
C 1184 339 787 824 787 1430 
C 787 2023 1197 2445 1645 2445 
C 2093 2445 2502 2023 2502 1430 
C 2502 818 2106 339 1645 339 
z
" transform="scale(0.015625)"/>
      <path id="CMTT12-6d" d="M 2899 1943 
C 2899 2084 2899 2803 2336 2803 
C 2112 2803 1894 2700 1722 2463 
C 1683 2559 1542 2803 1235 2803 
C 947 2803 749 2613 698 2555 
C 691 2752 557 2752 442 2752 
L 250 2752 
C 160 2752 -6 2752 -6 2567 
C -6 2381 141 2381 339 2381 
L 339 371 
C 134 371 -6 371 -6 186 
C -6 0 160 0 250 0 
L 787 0 
C 877 0 1043 0 1043 186 
C 1043 371 896 371 698 371 
L 698 1552 
C 698 2091 928 2432 1210 2432 
C 1389 2432 1440 2207 1440 1905 
L 1440 371 
C 1331 371 1158 371 1158 186 
C 1158 0 1331 0 1421 0 
L 1888 0 
C 1978 0 2144 0 2144 186 
C 2144 371 1997 371 1798 371 
L 1798 1552 
C 1798 2091 2029 2432 2310 2432 
C 2490 2432 2541 2207 2541 1905 
L 2541 371 
C 2432 371 2259 371 2259 186 
C 2259 0 2432 0 2522 0 
L 2989 0 
C 3078 0 3245 0 3245 186 
C 3245 371 3098 371 2899 371 
L 2899 1943 
z
" transform="scale(0.015625)"/>
      <path id="CMTT12-70" d="M 1293 -1408 
C 1382 -1408 1549 -1408 1549 -1222 
C 1549 -1037 1382 -1037 1293 -1037 
L 1030 -1037 
L 1030 326 
C 1184 153 1421 -32 1779 -32 
C 2458 -32 3053 579 3053 1395 
C 3053 2186 2515 2816 1850 2816 
C 1382 2816 1088 2533 1030 2469 
C 1030 2664 1030 2752 774 2752 
L 352 2752 
C 262 2752 96 2752 96 2567 
C 96 2381 262 2381 352 2381 
L 614 2381 
L 614 -1037 
L 352 -1037 
C 262 -1037 96 -1037 96 -1222 
C 96 -1408 262 -1408 352 -1408 
L 1293 -1408 
z
M 1030 1717 
C 1030 2084 1389 2445 1805 2445 
C 2266 2445 2637 1974 2637 1395 
C 2637 777 2202 339 1747 339 
C 1267 339 1030 886 1030 1208 
L 1030 1717 
z
" transform="scale(0.015625)"/>
      <path id="CMTT12-62" d="M 1030 3644 
C 1030 3841 992 3904 774 3904 
L 352 3904 
C 262 3904 96 3904 96 3719 
C 96 3533 262 3533 352 3533 
L 614 3533 
L 614 262 
C 614 147 614 0 826 0 
C 1030 0 1030 137 1030 326 
C 1184 153 1421 -32 1779 -32 
C 2458 -32 3053 576 3053 1388 
C 3053 2176 2515 2803 1850 2803 
C 1382 2803 1088 2522 1030 2458 
L 1030 3644 
z
M 1030 1708 
C 1030 2073 1389 2432 1805 2432 
C 2266 2432 2637 1964 2637 1388 
C 2637 774 2202 339 1747 339 
C 1267 339 1030 883 1030 1203 
L 1030 1708 
z
" transform="scale(0.015625)"/>
      <path id="CMTT12-6e" d="M 2675 1879 
C 2675 2507 2381 2803 1856 2803 
C 1421 2803 1139 2560 1030 2438 
C 1030 2666 1030 2752 774 2752 
L 352 2752 
C 262 2752 96 2752 96 2567 
C 96 2381 262 2381 352 2381 
L 614 2381 
L 614 371 
L 352 371 
C 262 371 96 371 96 186 
C 96 0 262 0 352 0 
L 1293 0 
C 1382 0 1549 0 1549 186 
C 1549 371 1382 371 1293 371 
L 1030 371 
L 1030 1533 
C 1030 2155 1466 2432 1811 2432 
C 2182 2432 2259 2219 2259 1854 
L 2259 371 
L 1997 371 
C 1907 371 1741 371 1741 186 
C 1741 0 1907 0 1997 0 
L 2938 0 
C 3027 0 3194 0 3194 186 
C 3194 371 3027 371 2938 371 
L 2675 371 
L 2675 1879 
z
" transform="scale(0.015625)"/>
      <path id="CMTT12-64" d="M 2675 3642 
C 2675 3840 2637 3904 2419 3904 
L 1997 3904 
C 1907 3904 1741 3904 1741 3719 
C 1741 3533 1907 3533 1997 3533 
L 2259 3533 
L 2259 2483 
C 2157 2585 1894 2803 1504 2803 
C 826 2803 237 2188 237 1382 
C 237 595 787 -32 1446 -32 
C 1862 -32 2138 215 2259 355 
C 2259 84 2259 0 2515 0 
L 2938 0 
C 3027 0 3194 0 3194 186 
C 3194 371 3027 371 2938 371 
L 2675 371 
L 2675 3642 
z
M 2259 1222 
C 2259 864 1965 339 1485 339 
C 1024 339 653 806 653 1382 
C 653 1996 1088 2432 1542 2432 
C 1958 2432 2259 2054 2259 1721 
L 2259 1222 
z
" transform="scale(0.015625)"/>
      <path id="CMTT12-2d" d="M 2650 1728 
C 2733 1728 2938 1728 2938 1933 
C 2938 2144 2739 2144 2650 2144 
L 640 2144 
C 557 2144 352 2144 352 1939 
C 352 1728 550 1728 640 1728 
L 2650 1728 
z
" transform="scale(0.015625)"/>
     </defs>
     <use xlink:href="#CMTT12-63" transform="scale(0.996264)"/>
     <use xlink:href="#CMTT12-6f" transform="translate(51.266111 0) scale(0.996264)"/>
     <use xlink:href="#CMTT12-6d" transform="translate(102.532222 0) scale(0.996264)"/>
     <use xlink:href="#CMTT12-70" transform="translate(153.798333 0) scale(0.996264)"/>
     <use xlink:href="#CMTT12-62" transform="translate(205.064443 0) scale(0.996264)"/>
     <use xlink:href="#CMTT12-6e" transform="translate(256.330554 0) scale(0.996264)"/>
     <use xlink:href="#CMTT12-64" transform="translate(307.596665 0) scale(0.996264)"/>
     <use xlink:href="#CMTT12-2d" transform="translate(358.862776 0) scale(0.996264)"/>
     <use xlink:href="#CMTT12-6d" transform="translate(410.128887 0) scale(0.996264)"/>
     <use xlink:href="#CMTT12-64" transform="translate(461.394998 0) scale(0.996264)"/>
     <use xlink:href="#CMTT12-6d" transform="translate(512.661108 0) scale(0.996264)"/>
    </g>
   </g>
   <g id="patch_16">
    <path d="M 358.35 85.852958 
L 391.35 85.852958 
L 391.35 74.302958 
L 358.35 74.302958 
z
" style="fill: #cc8963; stroke: #ffffff; stroke-width: 1.5; stroke-linejoin: miter"/>
   </g>
   <g id="text_11">
    <!-- \texttt{compbnd-mdm+dvs} -->
    <g style="fill: #262626" transform="translate(404.55 85.852958) scale(0.165 -0.165)">
     <defs>
      <path id="CMTT12-2b" d="M 1856 1792 
L 2765 1792 
C 2848 1792 3053 1792 3053 1997 
C 3053 2208 2854 2208 2765 2208 
L 1856 2208 
L 1856 3113 
C 1856 3196 1856 3398 1651 3398 
C 1440 3398 1440 3202 1440 3113 
L 1440 2208 
L 525 2208 
C 442 2208 237 2208 237 2003 
C 237 1792 435 1792 525 1792 
L 1440 1792 
L 1440 867 
C 1440 783 1440 576 1645 576 
C 1856 576 1856 776 1856 867 
L 1856 1792 
z
" transform="scale(0.015625)"/>
      <path id="CMTT12-76" d="M 2714 2381 
L 2880 2381 
C 2970 2381 3142 2381 3142 2567 
C 3142 2752 2970 2752 2880 2752 
L 2176 2752 
C 2086 2752 1914 2752 1914 2567 
C 1914 2381 2086 2381 2176 2381 
L 2336 2381 
L 1645 325 
L 954 2381 
L 1114 2381 
C 1203 2381 1376 2381 1376 2567 
C 1376 2752 1203 2752 1114 2752 
L 410 2752 
C 320 2752 147 2752 147 2567 
C 147 2381 320 2381 410 2381 
L 576 2381 
L 1312 185 
C 1382 -32 1523 -32 1645 -32 
C 1766 -32 1907 -32 1978 185 
L 2714 2381 
z
" transform="scale(0.015625)"/>
      <path id="CMTT12-73" d="M 2688 2573 
C 2688 2675 2688 2816 2509 2816 
C 2355 2816 2317 2669 2317 2662 
C 2061 2816 1766 2816 1638 2816 
C 595 2816 454 2286 454 2069 
C 454 1807 608 1629 826 1507 
C 1030 1392 1216 1361 1741 1278 
C 1990 1233 2502 1150 2502 799 
C 2502 562 2285 339 1690 339 
C 1280 339 1011 499 877 960 
C 845 1049 826 1120 666 1120 
C 454 1120 454 998 454 870 
L 454 211 
C 454 108 454 -32 634 -32 
C 710 -32 768 -32 864 230 
C 1158 -32 1491 -32 1690 -32 
C 2874 -32 2874 734 2874 798 
C 2874 1461 2080 1596 1773 1640 
C 1210 1736 826 1800 826 2068 
C 826 2241 1024 2445 1626 2445 
C 2234 2445 2259 2157 2272 1990 
C 2285 1862 2400 1843 2477 1843 
C 2688 1843 2688 1958 2688 2086 
L 2688 2573 
z
" transform="scale(0.015625)"/>
     </defs>
     <use xlink:href="#CMTT12-63" transform="scale(0.996264)"/>
     <use xlink:href="#CMTT12-6f" transform="translate(51.266111 0) scale(0.996264)"/>
     <use xlink:href="#CMTT12-6d" transform="translate(102.532222 0) scale(0.996264)"/>
     <use xlink:href="#CMTT12-70" transform="translate(153.798333 0) scale(0.996264)"/>
     <use xlink:href="#CMTT12-62" transform="translate(205.064443 0) scale(0.996264)"/>
     <use xlink:href="#CMTT12-6e" transform="translate(256.330554 0) scale(0.996264)"/>
     <use xlink:href="#CMTT12-64" transform="translate(307.596665 0) scale(0.996264)"/>
     <use xlink:href="#CMTT12-2d" transform="translate(358.862776 0) scale(0.996264)"/>
     <use xlink:href="#CMTT12-6d" transform="translate(410.128887 0) scale(0.996264)"/>
     <use xlink:href="#CMTT12-64" transform="translate(461.394998 0) scale(0.996264)"/>
     <use xlink:href="#CMTT12-6d" transform="translate(512.661108 0) scale(0.996264)"/>
     <use xlink:href="#CMTT12-2b" transform="translate(563.927219 0) scale(0.996264)"/>
     <use xlink:href="#CMTT12-64" transform="translate(615.19333 0) scale(0.996264)"/>
     <use xlink:href="#CMTT12-76" transform="translate(666.459441 0) scale(0.996264)"/>
     <use xlink:href="#CMTT12-73" transform="translate(717.725552 0) scale(0.996264)"/>
    </g>
   </g>
  </g>
 </g>
 <defs>
  <clipPath id="p133636f82a">
   <rect x="84.64046" y="19.44" width="442.202964" height="274.066804"/>
  </clipPath>
 </defs>
</svg>
