<?xml version="1.0" encoding="utf-8" standalone="no"?>
<!DOCTYPE svg PUBLIC "-//W3C//DTD SVG 1.1//EN"
  "http://www.w3.org/Graphics/SVG/1.1/DTD/svg11.dtd">
<svg xmlns:xlink="http://www.w3.org/1999/xlink" width="512.01pt" height="360pt" viewBox="0 0 512.01 360" xmlns="http://www.w3.org/2000/svg" version="1.1">
 <metadata>
  <rdf:RDF xmlns:dc="http://purl.org/dc/elements/1.1/" xmlns:cc="http://creativecommons.org/ns#" xmlns:rdf="http://www.w3.org/1999/02/22-rdf-syntax-ns#">
   <cc:Work>
    <dc:type rdf:resource="http://purl.org/dc/dcmitype/StillImage"/>
    <dc:date>2024-08-07T03:12:14.632434</dc:date>
    <dc:format>image/svg+xml</dc:format>
    <dc:creator>
     <cc:Agent>
      <dc:title>Matplotlib v3.9.0, https://matplotlib.org/</dc:title>
     </cc:Agent>
    </dc:creator>
   </cc:Work>
  </rdf:RDF>
 </metadata>
 <defs>
  <style type="text/css">*{stroke-linejoin: round; stroke-linecap: butt}</style>
 </defs>
 <g id="figure_1">
  <g id="patch_1">
   <path d="M 0 360 
L 512.01 360 
L 512.01 0 
L 0 0 
z
" style="fill: #ffffff"/>
  </g>
  <g id="axes_1">
   <g id="patch_2">
    <path d="M 56.88 309.78 
L 499.05 309.78 
L 499.05 29.04 
L 56.88 29.04 
z
" style="fill: #eaeaf2"/>
   </g>
   <g id="matplotlib.axis_1">
    <g id="xtick_1">
     <g id="line2d_1">
      <path d="M 76.978636 309.78 
L 76.978636 29.04 
" clip-path="url(#pb9f29387fe)" style="fill: none; stroke: #ffffff; stroke-linecap: round"/>
     </g>
     <g id="text_1">
      <!-- 0 -->
      <g style="fill: #262626" transform="translate(73.479261 327.638281) scale(0.11 -0.11)">
       <defs>
        <path id="DejaVuSans-30" d="M 2034 4250 
Q 1547 4250 1301 3770 
Q 1056 3291 1056 2328 
Q 1056 1369 1301 889 
Q 1547 409 2034 409 
Q 2525 409 2770 889 
Q 3016 1369 3016 2328 
Q 3016 3291 2770 3770 
Q 2525 4250 2034 4250 
z
M 2034 4750 
Q 2819 4750 3233 4129 
Q 3647 3509 3647 2328 
Q 3647 1150 3233 529 
Q 2819 -91 2034 -91 
Q 1250 -91 836 529 
Q 422 1150 422 2328 
Q 422 3509 836 4129 
Q 1250 4750 2034 4750 
z
" transform="scale(0.015625)"/>
       </defs>
       <use xlink:href="#DejaVuSans-30"/>
      </g>
     </g>
    </g>
    <g id="xtick_2">
     <g id="line2d_2">
      <path d="M 157.373182 309.78 
L 157.373182 29.04 
" clip-path="url(#pb9f29387fe)" style="fill: none; stroke: #ffffff; stroke-linecap: round"/>
     </g>
     <g id="text_2">
      <!-- 100 -->
      <g style="fill: #262626" transform="translate(146.875057 327.638281) scale(0.11 -0.11)">
       <defs>
        <path id="DejaVuSans-31" d="M 794 531 
L 1825 531 
L 1825 4091 
L 703 3866 
L 703 4441 
L 1819 4666 
L 2450 4666 
L 2450 531 
L 3481 531 
L 3481 0 
L 794 0 
L 794 531 
z
" transform="scale(0.015625)"/>
       </defs>
       <use xlink:href="#DejaVuSans-31"/>
       <use xlink:href="#DejaVuSans-30" x="63.623047"/>
       <use xlink:href="#DejaVuSans-30" x="127.246094"/>
      </g>
     </g>
    </g>
    <g id="xtick_3">
     <g id="line2d_3">
      <path d="M 237.767727 309.78 
L 237.767727 29.04 
" clip-path="url(#pb9f29387fe)" style="fill: none; stroke: #ffffff; stroke-linecap: round"/>
     </g>
     <g id="text_3">
      <!-- 200 -->
      <g style="fill: #262626" transform="translate(227.269602 327.638281) scale(0.11 -0.11)">
       <defs>
        <path id="DejaVuSans-32" d="M 1228 531 
L 3431 531 
L 3431 0 
L 469 0 
L 469 531 
Q 828 903 1448 1529 
Q 2069 2156 2228 2338 
Q 2531 2678 2651 2914 
Q 2772 3150 2772 3378 
Q 2772 3750 2511 3984 
Q 2250 4219 1831 4219 
Q 1534 4219 1204 4116 
Q 875 4013 500 3803 
L 500 4441 
Q 881 4594 1212 4672 
Q 1544 4750 1819 4750 
Q 2544 4750 2975 4387 
Q 3406 4025 3406 3419 
Q 3406 3131 3298 2873 
Q 3191 2616 2906 2266 
Q 2828 2175 2409 1742 
Q 1991 1309 1228 531 
z
" transform="scale(0.015625)"/>
       </defs>
       <use xlink:href="#DejaVuSans-32"/>
       <use xlink:href="#DejaVuSans-30" x="63.623047"/>
       <use xlink:href="#DejaVuSans-30" x="127.246094"/>
      </g>
     </g>
    </g>
    <g id="xtick_4">
     <g id="line2d_4">
      <path d="M 318.162273 309.78 
L 318.162273 29.04 
" clip-path="url(#pb9f29387fe)" style="fill: none; stroke: #ffffff; stroke-linecap: round"/>
     </g>
     <g id="text_4">
      <!-- 300 -->
      <g style="fill: #262626" transform="translate(307.664148 327.638281) scale(0.11 -0.11)">
       <defs>
        <path id="DejaVuSans-33" d="M 2597 2516 
Q 3050 2419 3304 2112 
Q 3559 1806 3559 1356 
Q 3559 666 3084 287 
Q 2609 -91 1734 -91 
Q 1441 -91 1130 -33 
Q 819 25 488 141 
L 488 750 
Q 750 597 1062 519 
Q 1375 441 1716 441 
Q 2309 441 2620 675 
Q 2931 909 2931 1356 
Q 2931 1769 2642 2001 
Q 2353 2234 1838 2234 
L 1294 2234 
L 1294 2753 
L 1863 2753 
Q 2328 2753 2575 2939 
Q 2822 3125 2822 3475 
Q 2822 3834 2567 4026 
Q 2313 4219 1838 4219 
Q 1578 4219 1281 4162 
Q 984 4106 628 3988 
L 628 4550 
Q 988 4650 1302 4700 
Q 1616 4750 1894 4750 
Q 2613 4750 3031 4423 
Q 3450 4097 3450 3541 
Q 3450 3153 3228 2886 
Q 3006 2619 2597 2516 
z
" transform="scale(0.015625)"/>
       </defs>
       <use xlink:href="#DejaVuSans-33"/>
       <use xlink:href="#DejaVuSans-30" x="63.623047"/>
       <use xlink:href="#DejaVuSans-30" x="127.246094"/>
      </g>
     </g>
    </g>
    <g id="xtick_5">
     <g id="line2d_5">
      <path d="M 398.556818 309.78 
L 398.556818 29.04 
" clip-path="url(#pb9f29387fe)" style="fill: none; stroke: #ffffff; stroke-linecap: round"/>
     </g>
     <g id="text_5">
      <!-- 400 -->
      <g style="fill: #262626" transform="translate(388.058693 327.638281) scale(0.11 -0.11)">
       <defs>
        <path id="DejaVuSans-34" d="M 2419 4116 
L 825 1625 
L 2419 1625 
L 2419 4116 
z
M 2253 4666 
L 3047 4666 
L 3047 1625 
L 3713 1625 
L 3713 1100 
L 3047 1100 
L 3047 0 
L 2419 0 
L 2419 1100 
L 313 1100 
L 313 1709 
L 2253 4666 
z
" transform="scale(0.015625)"/>
       </defs>
       <use xlink:href="#DejaVuSans-34"/>
       <use xlink:href="#DejaVuSans-30" x="63.623047"/>
       <use xlink:href="#DejaVuSans-30" x="127.246094"/>
      </g>
     </g>
    </g>
    <g id="xtick_6">
     <g id="line2d_6">
      <path d="M 478.951364 309.78 
L 478.951364 29.04 
" clip-path="url(#pb9f29387fe)" style="fill: none; stroke: #ffffff; stroke-linecap: round"/>
     </g>
     <g id="text_6">
      <!-- 500 -->
      <g style="fill: #262626" transform="translate(468.453239 327.638281) scale(0.11 -0.11)">
       <defs>
        <path id="DejaVuSans-35" d="M 691 4666 
L 3169 4666 
L 3169 4134 
L 1269 4134 
L 1269 2991 
Q 1406 3038 1543 3061 
Q 1681 3084 1819 3084 
Q 2600 3084 3056 2656 
Q 3513 2228 3513 1497 
Q 3513 744 3044 326 
Q 2575 -91 1722 -91 
Q 1428 -91 1123 -41 
Q 819 9 494 109 
L 494 744 
Q 775 591 1075 516 
Q 1375 441 1709 441 
Q 2250 441 2565 725 
Q 2881 1009 2881 1497 
Q 2881 1984 2565 2268 
Q 2250 2553 1709 2553 
Q 1456 2553 1204 2497 
Q 953 2441 691 2322 
L 691 4666 
z
" transform="scale(0.015625)"/>
       </defs>
       <use xlink:href="#DejaVuSans-35"/>
       <use xlink:href="#DejaVuSans-30" x="63.623047"/>
       <use xlink:href="#DejaVuSans-30" x="127.246094"/>
      </g>
     </g>
    </g>
    <g id="text_7">
     <!-- Depth -->
     <g style="fill: #262626" transform="translate(259.689375 343.044062) scale(0.12 -0.12)">
      <defs>
       <path id="DejaVuSans-44" d="M 1259 4147 
L 1259 519 
L 2022 519 
Q 2988 519 3436 956 
Q 3884 1394 3884 2338 
Q 3884 3275 3436 3711 
Q 2988 4147 2022 4147 
L 1259 4147 
z
M 628 4666 
L 1925 4666 
Q 3281 4666 3915 4102 
Q 4550 3538 4550 2338 
Q 4550 1131 3912 565 
Q 3275 0 1925 0 
L 628 0 
L 628 4666 
z
" transform="scale(0.015625)"/>
       <path id="DejaVuSans-65" d="M 3597 1894 
L 3597 1613 
L 953 1613 
Q 991 1019 1311 708 
Q 1631 397 2203 397 
Q 2534 397 2845 478 
Q 3156 559 3463 722 
L 3463 178 
Q 3153 47 2828 -22 
Q 2503 -91 2169 -91 
Q 1331 -91 842 396 
Q 353 884 353 1716 
Q 353 2575 817 3079 
Q 1281 3584 2069 3584 
Q 2775 3584 3186 3129 
Q 3597 2675 3597 1894 
z
M 3022 2063 
Q 3016 2534 2758 2815 
Q 2500 3097 2075 3097 
Q 1594 3097 1305 2825 
Q 1016 2553 972 2059 
L 3022 2063 
z
" transform="scale(0.015625)"/>
       <path id="DejaVuSans-70" d="M 1159 525 
L 1159 -1331 
L 581 -1331 
L 581 3500 
L 1159 3500 
L 1159 2969 
Q 1341 3281 1617 3432 
Q 1894 3584 2278 3584 
Q 2916 3584 3314 3078 
Q 3713 2572 3713 1747 
Q 3713 922 3314 415 
Q 2916 -91 2278 -91 
Q 1894 -91 1617 61 
Q 1341 213 1159 525 
z
M 3116 1747 
Q 3116 2381 2855 2742 
Q 2594 3103 2138 3103 
Q 1681 3103 1420 2742 
Q 1159 2381 1159 1747 
Q 1159 1113 1420 752 
Q 1681 391 2138 391 
Q 2594 391 2855 752 
Q 3116 1113 3116 1747 
z
" transform="scale(0.015625)"/>
       <path id="DejaVuSans-74" d="M 1172 4494 
L 1172 3500 
L 2356 3500 
L 2356 3053 
L 1172 3053 
L 1172 1153 
Q 1172 725 1289 603 
Q 1406 481 1766 481 
L 2356 481 
L 2356 0 
L 1766 0 
Q 1100 0 847 248 
Q 594 497 594 1153 
L 594 3053 
L 172 3053 
L 172 3500 
L 594 3500 
L 594 4494 
L 1172 4494 
z
" transform="scale(0.015625)"/>
       <path id="DejaVuSans-68" d="M 3513 2113 
L 3513 0 
L 2938 0 
L 2938 2094 
Q 2938 2591 2744 2837 
Q 2550 3084 2163 3084 
Q 1697 3084 1428 2787 
Q 1159 2491 1159 1978 
L 1159 0 
L 581 0 
L 581 4863 
L 1159 4863 
L 1159 2956 
Q 1366 3272 1645 3428 
Q 1925 3584 2291 3584 
Q 2894 3584 3203 3211 
Q 3513 2838 3513 2113 
z
" transform="scale(0.015625)"/>
      </defs>
      <use xlink:href="#DejaVuSans-44"/>
      <use xlink:href="#DejaVuSans-65" x="77.001953"/>
      <use xlink:href="#DejaVuSans-70" x="138.525391"/>
      <use xlink:href="#DejaVuSans-74" x="202.001953"/>
      <use xlink:href="#DejaVuSans-68" x="241.210938"/>
     </g>
    </g>
   </g>
   <g id="matplotlib.axis_2">
    <g id="ytick_1">
     <g id="line2d_7">
      <path d="M 56.88 309.335088 
L 499.05 309.335088 
" clip-path="url(#pb9f29387fe)" style="fill: none; stroke: #ffffff; stroke-linecap: round"/>
     </g>
     <g id="text_8">
      <!-- 0.9 -->
      <g style="fill: #262626" transform="translate(29.886563 313.514229) scale(0.11 -0.11)">
       <defs>
        <path id="DejaVuSans-2e" d="M 684 794 
L 1344 794 
L 1344 0 
L 684 0 
L 684 794 
z
" transform="scale(0.015625)"/>
        <path id="DejaVuSans-39" d="M 703 97 
L 703 672 
Q 941 559 1184 500 
Q 1428 441 1663 441 
Q 2288 441 2617 861 
Q 2947 1281 2994 2138 
Q 2813 1869 2534 1725 
Q 2256 1581 1919 1581 
Q 1219 1581 811 2004 
Q 403 2428 403 3163 
Q 403 3881 828 4315 
Q 1253 4750 1959 4750 
Q 2769 4750 3195 4129 
Q 3622 3509 3622 2328 
Q 3622 1225 3098 567 
Q 2575 -91 1691 -91 
Q 1453 -91 1209 -44 
Q 966 3 703 97 
z
M 1959 2075 
Q 2384 2075 2632 2365 
Q 2881 2656 2881 3163 
Q 2881 3666 2632 3958 
Q 2384 4250 1959 4250 
Q 1534 4250 1286 3958 
Q 1038 3666 1038 3163 
Q 1038 2656 1286 2365 
Q 1534 2075 1959 2075 
z
" transform="scale(0.015625)"/>
       </defs>
       <use xlink:href="#DejaVuSans-30"/>
       <use xlink:href="#DejaVuSans-2e" x="63.623047"/>
       <use xlink:href="#DejaVuSans-39" x="95.410156"/>
      </g>
     </g>
    </g>
    <g id="ytick_2">
     <g id="line2d_8">
      <path d="M 56.88 276.216474 
L 499.05 276.216474 
" clip-path="url(#pb9f29387fe)" style="fill: none; stroke: #ffffff; stroke-linecap: round"/>
     </g>
     <g id="text_9">
      <!-- 1.0 -->
      <g style="fill: #262626" transform="translate(29.886563 280.395615) scale(0.11 -0.11)">
       <use xlink:href="#DejaVuSans-31"/>
       <use xlink:href="#DejaVuSans-2e" x="63.623047"/>
       <use xlink:href="#DejaVuSans-30" x="95.410156"/>
      </g>
     </g>
    </g>
    <g id="ytick_3">
     <g id="line2d_9">
      <path d="M 56.88 243.097859 
L 499.05 243.097859 
" clip-path="url(#pb9f29387fe)" style="fill: none; stroke: #ffffff; stroke-linecap: round"/>
     </g>
     <g id="text_10">
      <!-- 1.1 -->
      <g style="fill: #262626" transform="translate(29.886563 247.277) scale(0.11 -0.11)">
       <use xlink:href="#DejaVuSans-31"/>
       <use xlink:href="#DejaVuSans-2e" x="63.623047"/>
       <use xlink:href="#DejaVuSans-31" x="95.410156"/>
      </g>
     </g>
    </g>
    <g id="ytick_4">
     <g id="line2d_10">
      <path d="M 56.88 209.979245 
L 499.05 209.979245 
" clip-path="url(#pb9f29387fe)" style="fill: none; stroke: #ffffff; stroke-linecap: round"/>
     </g>
     <g id="text_11">
      <!-- 1.2 -->
      <g style="fill: #262626" transform="translate(29.886563 214.158385) scale(0.11 -0.11)">
       <use xlink:href="#DejaVuSans-31"/>
       <use xlink:href="#DejaVuSans-2e" x="63.623047"/>
       <use xlink:href="#DejaVuSans-32" x="95.410156"/>
      </g>
     </g>
    </g>
    <g id="ytick_5">
     <g id="line2d_11">
      <path d="M 56.88 176.86063 
L 499.05 176.86063 
" clip-path="url(#pb9f29387fe)" style="fill: none; stroke: #ffffff; stroke-linecap: round"/>
     </g>
     <g id="text_12">
      <!-- 1.3 -->
      <g style="fill: #262626" transform="translate(29.886563 181.039771) scale(0.11 -0.11)">
       <use xlink:href="#DejaVuSans-31"/>
       <use xlink:href="#DejaVuSans-2e" x="63.623047"/>
       <use xlink:href="#DejaVuSans-33" x="95.410156"/>
      </g>
     </g>
    </g>
    <g id="ytick_6">
     <g id="line2d_12">
      <path d="M 56.88 143.742016 
L 499.05 143.742016 
" clip-path="url(#pb9f29387fe)" style="fill: none; stroke: #ffffff; stroke-linecap: round"/>
     </g>
     <g id="text_13">
      <!-- 1.4 -->
      <g style="fill: #262626" transform="translate(29.886563 147.921156) scale(0.11 -0.11)">
       <use xlink:href="#DejaVuSans-31"/>
       <use xlink:href="#DejaVuSans-2e" x="63.623047"/>
       <use xlink:href="#DejaVuSans-34" x="95.410156"/>
      </g>
     </g>
    </g>
    <g id="ytick_7">
     <g id="line2d_13">
      <path d="M 56.88 110.623401 
L 499.05 110.623401 
" clip-path="url(#pb9f29387fe)" style="fill: none; stroke: #ffffff; stroke-linecap: round"/>
     </g>
     <g id="text_14">
      <!-- 1.5 -->
      <g style="fill: #262626" transform="translate(29.886563 114.802542) scale(0.11 -0.11)">
       <use xlink:href="#DejaVuSans-31"/>
       <use xlink:href="#DejaVuSans-2e" x="63.623047"/>
       <use xlink:href="#DejaVuSans-35" x="95.410156"/>
      </g>
     </g>
    </g>
    <g id="ytick_8">
     <g id="line2d_14">
      <path d="M 56.88 77.504787 
L 499.05 77.504787 
" clip-path="url(#pb9f29387fe)" style="fill: none; stroke: #ffffff; stroke-linecap: round"/>
     </g>
     <g id="text_15">
      <!-- 1.6 -->
      <g style="fill: #262626" transform="translate(29.886563 81.683927) scale(0.11 -0.11)">
       <defs>
        <path id="DejaVuSans-36" d="M 2113 2584 
Q 1688 2584 1439 2293 
Q 1191 2003 1191 1497 
Q 1191 994 1439 701 
Q 1688 409 2113 409 
Q 2538 409 2786 701 
Q 3034 994 3034 1497 
Q 3034 2003 2786 2293 
Q 2538 2584 2113 2584 
z
M 3366 4563 
L 3366 3988 
Q 3128 4100 2886 4159 
Q 2644 4219 2406 4219 
Q 1781 4219 1451 3797 
Q 1122 3375 1075 2522 
Q 1259 2794 1537 2939 
Q 1816 3084 2150 3084 
Q 2853 3084 3261 2657 
Q 3669 2231 3669 1497 
Q 3669 778 3244 343 
Q 2819 -91 2113 -91 
Q 1303 -91 875 529 
Q 447 1150 447 2328 
Q 447 3434 972 4092 
Q 1497 4750 2381 4750 
Q 2619 4750 2861 4703 
Q 3103 4656 3366 4563 
z
" transform="scale(0.015625)"/>
       </defs>
       <use xlink:href="#DejaVuSans-31"/>
       <use xlink:href="#DejaVuSans-2e" x="63.623047"/>
       <use xlink:href="#DejaVuSans-36" x="95.410156"/>
      </g>
     </g>
    </g>
    <g id="ytick_9">
     <g id="line2d_15">
      <path d="M 56.88 44.386172 
L 499.05 44.386172 
" clip-path="url(#pb9f29387fe)" style="fill: none; stroke: #ffffff; stroke-linecap: round"/>
     </g>
     <g id="text_16">
      <!-- 1.7 -->
      <g style="fill: #262626" transform="translate(29.886563 48.565313) scale(0.11 -0.11)">
       <defs>
        <path id="DejaVuSans-37" d="M 525 4666 
L 3525 4666 
L 3525 4397 
L 1831 0 
L 1172 0 
L 2766 4134 
L 525 4134 
L 525 4666 
z
" transform="scale(0.015625)"/>
       </defs>
       <use xlink:href="#DejaVuSans-31"/>
       <use xlink:href="#DejaVuSans-2e" x="63.623047"/>
       <use xlink:href="#DejaVuSans-37" x="95.410156"/>
      </g>
     </g>
    </g>
    <g id="text_17">
     <!-- Average Number of Bounds -->
     <g style="fill: #262626" transform="translate(23.390937 251.984063) rotate(-90) scale(0.12 -0.12)">
      <defs>
       <path id="DejaVuSans-41" d="M 2188 4044 
L 1331 1722 
L 3047 1722 
L 2188 4044 
z
M 1831 4666 
L 2547 4666 
L 4325 0 
L 3669 0 
L 3244 1197 
L 1141 1197 
L 716 0 
L 50 0 
L 1831 4666 
z
" transform="scale(0.015625)"/>
       <path id="DejaVuSans-76" d="M 191 3500 
L 800 3500 
L 1894 563 
L 2988 3500 
L 3597 3500 
L 2284 0 
L 1503 0 
L 191 3500 
z
" transform="scale(0.015625)"/>
       <path id="DejaVuSans-72" d="M 2631 2963 
Q 2534 3019 2420 3045 
Q 2306 3072 2169 3072 
Q 1681 3072 1420 2755 
Q 1159 2438 1159 1844 
L 1159 0 
L 581 0 
L 581 3500 
L 1159 3500 
L 1159 2956 
Q 1341 3275 1631 3429 
Q 1922 3584 2338 3584 
Q 2397 3584 2469 3576 
Q 2541 3569 2628 3553 
L 2631 2963 
z
" transform="scale(0.015625)"/>
       <path id="DejaVuSans-61" d="M 2194 1759 
Q 1497 1759 1228 1600 
Q 959 1441 959 1056 
Q 959 750 1161 570 
Q 1363 391 1709 391 
Q 2188 391 2477 730 
Q 2766 1069 2766 1631 
L 2766 1759 
L 2194 1759 
z
M 3341 1997 
L 3341 0 
L 2766 0 
L 2766 531 
Q 2569 213 2275 61 
Q 1981 -91 1556 -91 
Q 1019 -91 701 211 
Q 384 513 384 1019 
Q 384 1609 779 1909 
Q 1175 2209 1959 2209 
L 2766 2209 
L 2766 2266 
Q 2766 2663 2505 2880 
Q 2244 3097 1772 3097 
Q 1472 3097 1187 3025 
Q 903 2953 641 2809 
L 641 3341 
Q 956 3463 1253 3523 
Q 1550 3584 1831 3584 
Q 2591 3584 2966 3190 
Q 3341 2797 3341 1997 
z
" transform="scale(0.015625)"/>
       <path id="DejaVuSans-67" d="M 2906 1791 
Q 2906 2416 2648 2759 
Q 2391 3103 1925 3103 
Q 1463 3103 1205 2759 
Q 947 2416 947 1791 
Q 947 1169 1205 825 
Q 1463 481 1925 481 
Q 2391 481 2648 825 
Q 2906 1169 2906 1791 
z
M 3481 434 
Q 3481 -459 3084 -895 
Q 2688 -1331 1869 -1331 
Q 1566 -1331 1297 -1286 
Q 1028 -1241 775 -1147 
L 775 -588 
Q 1028 -725 1275 -790 
Q 1522 -856 1778 -856 
Q 2344 -856 2625 -561 
Q 2906 -266 2906 331 
L 2906 616 
Q 2728 306 2450 153 
Q 2172 0 1784 0 
Q 1141 0 747 490 
Q 353 981 353 1791 
Q 353 2603 747 3093 
Q 1141 3584 1784 3584 
Q 2172 3584 2450 3431 
Q 2728 3278 2906 2969 
L 2906 3500 
L 3481 3500 
L 3481 434 
z
" transform="scale(0.015625)"/>
       <path id="DejaVuSans-20" transform="scale(0.015625)"/>
       <path id="DejaVuSans-4e" d="M 628 4666 
L 1478 4666 
L 3547 763 
L 3547 4666 
L 4159 4666 
L 4159 0 
L 3309 0 
L 1241 3903 
L 1241 0 
L 628 0 
L 628 4666 
z
" transform="scale(0.015625)"/>
       <path id="DejaVuSans-75" d="M 544 1381 
L 544 3500 
L 1119 3500 
L 1119 1403 
Q 1119 906 1312 657 
Q 1506 409 1894 409 
Q 2359 409 2629 706 
Q 2900 1003 2900 1516 
L 2900 3500 
L 3475 3500 
L 3475 0 
L 2900 0 
L 2900 538 
Q 2691 219 2414 64 
Q 2138 -91 1772 -91 
Q 1169 -91 856 284 
Q 544 659 544 1381 
z
M 1991 3584 
L 1991 3584 
z
" transform="scale(0.015625)"/>
       <path id="DejaVuSans-6d" d="M 3328 2828 
Q 3544 3216 3844 3400 
Q 4144 3584 4550 3584 
Q 5097 3584 5394 3201 
Q 5691 2819 5691 2113 
L 5691 0 
L 5113 0 
L 5113 2094 
Q 5113 2597 4934 2840 
Q 4756 3084 4391 3084 
Q 3944 3084 3684 2787 
Q 3425 2491 3425 1978 
L 3425 0 
L 2847 0 
L 2847 2094 
Q 2847 2600 2669 2842 
Q 2491 3084 2119 3084 
Q 1678 3084 1418 2786 
Q 1159 2488 1159 1978 
L 1159 0 
L 581 0 
L 581 3500 
L 1159 3500 
L 1159 2956 
Q 1356 3278 1631 3431 
Q 1906 3584 2284 3584 
Q 2666 3584 2933 3390 
Q 3200 3197 3328 2828 
z
" transform="scale(0.015625)"/>
       <path id="DejaVuSans-62" d="M 3116 1747 
Q 3116 2381 2855 2742 
Q 2594 3103 2138 3103 
Q 1681 3103 1420 2742 
Q 1159 2381 1159 1747 
Q 1159 1113 1420 752 
Q 1681 391 2138 391 
Q 2594 391 2855 752 
Q 3116 1113 3116 1747 
z
M 1159 2969 
Q 1341 3281 1617 3432 
Q 1894 3584 2278 3584 
Q 2916 3584 3314 3078 
Q 3713 2572 3713 1747 
Q 3713 922 3314 415 
Q 2916 -91 2278 -91 
Q 1894 -91 1617 61 
Q 1341 213 1159 525 
L 1159 0 
L 581 0 
L 581 4863 
L 1159 4863 
L 1159 2969 
z
" transform="scale(0.015625)"/>
       <path id="DejaVuSans-6f" d="M 1959 3097 
Q 1497 3097 1228 2736 
Q 959 2375 959 1747 
Q 959 1119 1226 758 
Q 1494 397 1959 397 
Q 2419 397 2687 759 
Q 2956 1122 2956 1747 
Q 2956 2369 2687 2733 
Q 2419 3097 1959 3097 
z
M 1959 3584 
Q 2709 3584 3137 3096 
Q 3566 2609 3566 1747 
Q 3566 888 3137 398 
Q 2709 -91 1959 -91 
Q 1206 -91 779 398 
Q 353 888 353 1747 
Q 353 2609 779 3096 
Q 1206 3584 1959 3584 
z
" transform="scale(0.015625)"/>
       <path id="DejaVuSans-66" d="M 2375 4863 
L 2375 4384 
L 1825 4384 
Q 1516 4384 1395 4259 
Q 1275 4134 1275 3809 
L 1275 3500 
L 2222 3500 
L 2222 3053 
L 1275 3053 
L 1275 0 
L 697 0 
L 697 3053 
L 147 3053 
L 147 3500 
L 697 3500 
L 697 3744 
Q 697 4328 969 4595 
Q 1241 4863 1831 4863 
L 2375 4863 
z
" transform="scale(0.015625)"/>
       <path id="DejaVuSans-42" d="M 1259 2228 
L 1259 519 
L 2272 519 
Q 2781 519 3026 730 
Q 3272 941 3272 1375 
Q 3272 1813 3026 2020 
Q 2781 2228 2272 2228 
L 1259 2228 
z
M 1259 4147 
L 1259 2741 
L 2194 2741 
Q 2656 2741 2882 2914 
Q 3109 3088 3109 3444 
Q 3109 3797 2882 3972 
Q 2656 4147 2194 4147 
L 1259 4147 
z
M 628 4666 
L 2241 4666 
Q 2963 4666 3353 4366 
Q 3744 4066 3744 3513 
Q 3744 3084 3544 2831 
Q 3344 2578 2956 2516 
Q 3422 2416 3680 2098 
Q 3938 1781 3938 1306 
Q 3938 681 3513 340 
Q 3088 0 2303 0 
L 628 0 
L 628 4666 
z
" transform="scale(0.015625)"/>
       <path id="DejaVuSans-6e" d="M 3513 2113 
L 3513 0 
L 2938 0 
L 2938 2094 
Q 2938 2591 2744 2837 
Q 2550 3084 2163 3084 
Q 1697 3084 1428 2787 
Q 1159 2491 1159 1978 
L 1159 0 
L 581 0 
L 581 3500 
L 1159 3500 
L 1159 2956 
Q 1366 3272 1645 3428 
Q 1925 3584 2291 3584 
Q 2894 3584 3203 3211 
Q 3513 2838 3513 2113 
z
" transform="scale(0.015625)"/>
       <path id="DejaVuSans-64" d="M 2906 2969 
L 2906 4863 
L 3481 4863 
L 3481 0 
L 2906 0 
L 2906 525 
Q 2725 213 2448 61 
Q 2172 -91 1784 -91 
Q 1150 -91 751 415 
Q 353 922 353 1747 
Q 353 2572 751 3078 
Q 1150 3584 1784 3584 
Q 2172 3584 2448 3432 
Q 2725 3281 2906 2969 
z
M 947 1747 
Q 947 1113 1208 752 
Q 1469 391 1925 391 
Q 2381 391 2643 752 
Q 2906 1113 2906 1747 
Q 2906 2381 2643 2742 
Q 2381 3103 1925 3103 
Q 1469 3103 1208 2742 
Q 947 2381 947 1747 
z
" transform="scale(0.015625)"/>
       <path id="DejaVuSans-73" d="M 2834 3397 
L 2834 2853 
Q 2591 2978 2328 3040 
Q 2066 3103 1784 3103 
Q 1356 3103 1142 2972 
Q 928 2841 928 2578 
Q 928 2378 1081 2264 
Q 1234 2150 1697 2047 
L 1894 2003 
Q 2506 1872 2764 1633 
Q 3022 1394 3022 966 
Q 3022 478 2636 193 
Q 2250 -91 1575 -91 
Q 1294 -91 989 -36 
Q 684 19 347 128 
L 347 722 
Q 666 556 975 473 
Q 1284 391 1588 391 
Q 1994 391 2212 530 
Q 2431 669 2431 922 
Q 2431 1156 2273 1281 
Q 2116 1406 1581 1522 
L 1381 1569 
Q 847 1681 609 1914 
Q 372 2147 372 2553 
Q 372 3047 722 3315 
Q 1072 3584 1716 3584 
Q 2034 3584 2315 3537 
Q 2597 3491 2834 3397 
z
" transform="scale(0.015625)"/>
      </defs>
      <use xlink:href="#DejaVuSans-41"/>
      <use xlink:href="#DejaVuSans-76" x="62.533203"/>
      <use xlink:href="#DejaVuSans-65" x="121.712891"/>
      <use xlink:href="#DejaVuSans-72" x="183.236328"/>
      <use xlink:href="#DejaVuSans-61" x="224.349609"/>
      <use xlink:href="#DejaVuSans-67" x="285.628906"/>
      <use xlink:href="#DejaVuSans-65" x="349.105469"/>
      <use xlink:href="#DejaVuSans-20" x="410.628906"/>
      <use xlink:href="#DejaVuSans-4e" x="442.416016"/>
      <use xlink:href="#DejaVuSans-75" x="517.220703"/>
      <use xlink:href="#DejaVuSans-6d" x="580.599609"/>
      <use xlink:href="#DejaVuSans-62" x="678.011719"/>
      <use xlink:href="#DejaVuSans-65" x="741.488281"/>
      <use xlink:href="#DejaVuSans-72" x="803.011719"/>
      <use xlink:href="#DejaVuSans-20" x="844.125"/>
      <use xlink:href="#DejaVuSans-6f" x="875.912109"/>
      <use xlink:href="#DejaVuSans-66" x="937.09375"/>
      <use xlink:href="#DejaVuSans-20" x="972.298828"/>
      <use xlink:href="#DejaVuSans-42" x="1004.085938"/>
      <use xlink:href="#DejaVuSans-6f" x="1072.689453"/>
      <use xlink:href="#DejaVuSans-75" x="1133.871094"/>
      <use xlink:href="#DejaVuSans-6e" x="1197.25"/>
      <use xlink:href="#DejaVuSans-64" x="1260.628906"/>
      <use xlink:href="#DejaVuSans-73" x="1324.105469"/>
     </g>
    </g>
   </g>
   <g id="PolyCollection_1">
    <defs>
     <path id="m7d9a93670d" d="M 76.978636 -107.331624 
L 76.978636 -87.572057 
L 78.9986 -131.870256 
L 81.018563 -167.61429 
L 83.038527 -185.486316 
L 85.05849 -184.626297 
L 87.078454 -174.346894 
L 89.098417 -166.924407 
L 91.118381 -167.241743 
L 93.138344 -173.266449 
L 95.158307 -180.074757 
L 97.178271 -183.992369 
L 99.198234 -185.001931 
L 101.218198 -185.291458 
L 103.238161 -186.755178 
L 105.258125 -188.941703 
L 107.278088 -192.002384 
L 109.298052 -196.074866 
L 111.318015 -199.751525 
L 113.337979 -202.711313 
L 115.357942 -206.583957 
L 117.377905 -211.590666 
L 119.397869 -217.428998 
L 121.417832 -223.035998 
L 123.437796 -228.433343 
L 125.457759 -234.391972 
L 127.477723 -241.43112 
L 129.497686 -249.193753 
L 131.51765 -256.366218 
L 133.537613 -262.256526 
L 135.557577 -267.752468 
L 137.57754 -274.008865 
L 139.597503 -279.478105 
L 141.617467 -283.526545 
L 143.63743 -285.996207 
L 145.657394 -288.250839 
L 147.677357 -292.129988 
L 149.697321 -295.513268 
L 151.717284 -295.704725 
L 153.737248 -293.277534 
L 155.757211 -291.909516 
L 157.777175 -291.432953 
L 159.797138 -290.833518 
L 161.817101 -289.998381 
L 163.837065 -288.449082 
L 165.857028 -286.139497 
L 167.876992 -283.024806 
L 169.896955 -281.332567 
L 171.916919 -281.150621 
L 173.936882 -280.329603 
L 175.956846 -278.828331 
L 177.976809 -276.343523 
L 179.996772 -273.647246 
L 182.016736 -269.549671 
L 184.036699 -265.968776 
L 186.056663 -264.489598 
L 188.076626 -263.683784 
L 190.09659 -264.592518 
L 192.116553 -264.697897 
L 194.136517 -264.243454 
L 196.15648 -264.812938 
L 198.176444 -265.216575 
L 200.196407 -265.093972 
L 202.21637 -262.521664 
L 204.236334 -258.890591 
L 206.256297 -256.597188 
L 208.276261 -258.072785 
L 210.296224 -260.82876 
L 212.316188 -261.907488 
L 214.336151 -263.185994 
L 216.356115 -264.894461 
L 218.376078 -265.936069 
L 220.396042 -266.469303 
L 222.416005 -269.840049 
L 224.435968 -274.046725 
L 226.455932 -275.740126 
L 228.475895 -273.112635 
L 230.495859 -269.209118 
L 232.515822 -268.188477 
L 234.535786 -268.537598 
L 236.555749 -267.077171 
L 238.575713 -265.940923 
L 240.595676 -266.102038 
L 242.61564 -267.618448 
L 244.635603 -267.282412 
L 246.655566 -264.20614 
L 248.67553 -260.811568 
L 250.695493 -257.235156 
L 252.715457 -252.916934 
L 254.73542 -250.373044 
L 256.755384 -250.686419 
L 258.775347 -251.772385 
L 260.795311 -251.629078 
L 262.815274 -249.876621 
L 264.835238 -246.344214 
L 266.855201 -242.658342 
L 268.875164 -240.380996 
L 270.895128 -239.609979 
L 272.915091 -240.761292 
L 274.935055 -241.200207 
L 276.955018 -237.962199 
L 278.974982 -235.096128 
L 280.994945 -230.884035 
L 283.014909 -224.730207 
L 285.034872 -224.210673 
L 287.054836 -229.605618 
L 289.074799 -233.771243 
L 291.094762 -233.560187 
L 293.114726 -229.935108 
L 295.134689 -226.933039 
L 297.154653 -223.212246 
L 299.174616 -219.654873 
L 301.19458 -219.643106 
L 303.214543 -220.015934 
L 305.234507 -218.273334 
L 307.25447 -215.86464 
L 309.274434 -213.018825 
L 311.294397 -209.299556 
L 313.31436 -206.403512 
L 315.334324 -203.589859 
L 317.354287 -202.237076 
L 319.374251 -200.669608 
L 321.394214 -201.731123 
L 323.414178 -204.213159 
L 325.434141 -203.468753 
L 327.454105 -197.133959 
L 329.474068 -189.557198 
L 331.494032 -185.549648 
L 333.513995 -186.807531 
L 335.533958 -188.565727 
L 337.553922 -187.323848 
L 339.573885 -184.831613 
L 341.593849 -182.257624 
L 343.613812 -180.432163 
L 345.633776 -179.00066 
L 347.653739 -177.631714 
L 349.673703 -176.083878 
L 351.693666 -174.395632 
L 353.71363 -172.089489 
L 355.733593 -169.735269 
L 357.753556 -167.615673 
L 359.77352 -163.755411 
L 361.793483 -158.018507 
L 363.813447 -148.558199 
L 365.83341 -138.746373 
L 367.853374 -132.343188 
L 369.873337 -128.330462 
L 371.893301 -124.623974 
L 373.913264 -119.931878 
L 375.933228 -115.936494 
L 377.953191 -110.615143 
L 379.973154 -108.030809 
L 381.993118 -107.965493 
L 384.013081 -106.958962 
L 386.033045 -103.258129 
L 388.053008 -96.901961 
L 390.072972 -91.854464 
L 392.092935 -89.671672 
L 394.112899 -89.037202 
L 396.132862 -87.074288 
L 398.152825 -83.623492 
L 400.172789 -78.824699 
L 402.192752 -76.024709 
L 404.212716 -73.999382 
L 406.232679 -74.777194 
L 408.252643 -78.457332 
L 410.272606 -80.997719 
L 412.29257 -79.556308 
L 414.312533 -76.317255 
L 416.332497 -74.334734 
L 418.35246 -74.216595 
L 420.372423 -76.265774 
L 422.392387 -79.041338 
L 424.41235 -78.647125 
L 426.432314 -76.0687 
L 428.452277 -75.040319 
L 430.472241 -75.198375 
L 432.492204 -74.277419 
L 434.512168 -72.394788 
L 436.532131 -69.971866 
L 438.552095 -68.778573 
L 440.572058 -68.546973 
L 442.592021 -71.229953 
L 444.611985 -76.336918 
L 446.631948 -76.958337 
L 448.651912 -73.82739 
L 450.671875 -72.296464 
L 452.691839 -69.30123 
L 454.711802 -65.029003 
L 456.731766 -65.595086 
L 458.751729 -70.070345 
L 460.771693 -70.065103 
L 462.791656 -67.14646 
L 464.811619 -66.067172 
L 466.831583 -67.54184 
L 468.851546 -67.129514 
L 470.87151 -64.833664 
L 472.891473 -67.130533 
L 474.911437 -72.397771 
L 476.9314 -76.186712 
L 478.951364 -80.986959 
L 478.951364 -123.840404 
L 478.951364 -123.840404 
L 476.9314 -148.939913 
L 474.911437 -165.472981 
L 472.891473 -172.990275 
L 470.87151 -170.756297 
L 468.851546 -162.617932 
L 466.831583 -159.604922 
L 464.811619 -162.518034 
L 462.791656 -167.630184 
L 460.771693 -176.696339 
L 458.751729 -181.319725 
L 456.731766 -174.476603 
L 454.711802 -165.442961 
L 452.691839 -164.158892 
L 450.671875 -171.643293 
L 448.651912 -178.12994 
L 446.631948 -180.159329 
L 444.611985 -180.605596 
L 442.592021 -179.591738 
L 440.572058 -175.448583 
L 438.552095 -166.837609 
L 436.532131 -153.84933 
L 434.512168 -140.011779 
L 432.492204 -131.669556 
L 430.472241 -131.452272 
L 428.452277 -135.279247 
L 426.432314 -139.747668 
L 424.41235 -143.483222 
L 422.392387 -142.724348 
L 420.372423 -136.875124 
L 418.35246 -131.059274 
L 416.332497 -127.18818 
L 414.312533 -124.521836 
L 412.29257 -123.37493 
L 410.272606 -123.726547 
L 408.252643 -124.307731 
L 406.232679 -127.40264 
L 404.212716 -133.860637 
L 402.192752 -142.448401 
L 400.172789 -151.262713 
L 398.152825 -160.546357 
L 396.132862 -167.194239 
L 394.112899 -170.202182 
L 392.092935 -170.993325 
L 390.072972 -173.536958 
L 388.053008 -180.34453 
L 386.033045 -189.139496 
L 384.013081 -195.672721 
L 381.993118 -198.717075 
L 379.973154 -199.946273 
L 377.953191 -202.061292 
L 375.933228 -205.503018 
L 373.913264 -210.143406 
L 371.893301 -216.750362 
L 369.873337 -223.721505 
L 367.853374 -230.803392 
L 365.83341 -239.426697 
L 363.813447 -250.213863 
L 361.793483 -260.09558 
L 359.77352 -265.939946 
L 357.753556 -268.590337 
L 355.733593 -269.480243 
L 353.71363 -269.75818 
L 351.693666 -269.429845 
L 349.673703 -268.739776 
L 347.653739 -267.947052 
L 345.633776 -267.250304 
L 343.613812 -266.929771 
L 341.593849 -266.90969 
L 339.573885 -267.206784 
L 337.553922 -267.282693 
L 335.533958 -266.680382 
L 333.513995 -265.134147 
L 331.494032 -264.468472 
L 329.474068 -266.752835 
L 327.454105 -271.231761 
L 325.434141 -275.018055 
L 323.414178 -275.381474 
L 321.394214 -273.084096 
L 319.374251 -270.434956 
L 317.354287 -268.989963 
L 315.334324 -268.618451 
L 313.31436 -270.099753 
L 311.294397 -272.531123 
L 309.274434 -275.55628 
L 307.25447 -278.033173 
L 305.234507 -279.661648 
L 303.214543 -280.243901 
L 301.19458 -279.797201 
L 299.174616 -279.834714 
L 297.154653 -281.949116 
L 295.134689 -285.023112 
L 293.114726 -287.792405 
L 291.094762 -289.578401 
L 289.074799 -288.820773 
L 287.054836 -285.586831 
L 285.034872 -282.042343 
L 283.014909 -281.55929 
L 280.994945 -284.445035 
L 278.974982 -287.694687 
L 276.955018 -290.41506 
L 274.935055 -292.465975 
L 272.915091 -292.712525 
L 270.895128 -292.545803 
L 268.875164 -293.259971 
L 266.855201 -295.01499 
L 264.835238 -297.688577 
L 262.815274 -300.227763 
L 260.795311 -301.607435 
L 258.775347 -301.749439 
L 256.755384 -301.223409 
L 254.73542 -301.341395 
L 252.715457 -303.114568 
L 250.695493 -306.046381 
L 248.67553 -308.944494 
L 246.655566 -311.438078 
L 244.635603 -313.113363 
L 242.61564 -313.193006 
L 240.595676 -312.303312 
L 238.575713 -311.950239 
L 236.555749 -312.525275 
L 234.535786 -313.426741 
L 232.515822 -313.99394 
L 230.495859 -315.218974 
L 228.475895 -317.196271 
L 226.455932 -318.199091 
L 224.435968 -316.955334 
L 222.416005 -314.03823 
L 220.396042 -311.031266 
L 218.376078 -308.936669 
L 216.356115 -306.879296 
L 214.336151 -304.708068 
L 212.316188 -302.64964 
L 210.296224 -300.728757 
L 208.276261 -298.750709 
L 206.256297 -297.893101 
L 204.236334 -298.986224 
L 202.21637 -301.069181 
L 200.196407 -302.869256 
L 198.176444 -303.465927 
L 196.15648 -303.228785 
L 194.136517 -302.516396 
L 192.116553 -301.928003 
L 190.09659 -301.229674 
L 188.076626 -300.553481 
L 186.056663 -300.891668 
L 184.036699 -302.206632 
L 182.016736 -304.622621 
L 179.996772 -307.21018 
L 177.976809 -309.132004 
L 175.956846 -310.531187 
L 173.936882 -311.229168 
L 171.916919 -311.42856 
L 169.896955 -311.468483 
L 167.876992 -312.191733 
L 165.857028 -313.506763 
L 163.837065 -314.62488 
L 161.817101 -315.340957 
L 159.797138 -315.66752 
L 157.777175 -315.808107 
L 155.757211 -315.892514 
L 153.737248 -316.1389 
L 151.717284 -316.279798 
L 149.697321 -315.042515 
L 147.677357 -312.227549 
L 145.657394 -308.73006 
L 143.63743 -305.286874 
L 141.617467 -301.449637 
L 139.597503 -296.735492 
L 137.57754 -291.119583 
L 135.557577 -284.863713 
L 133.537613 -278.438629 
L 131.51765 -271.590756 
L 129.497686 -264.143346 
L 127.477723 -256.463294 
L 125.457759 -249.137958 
L 123.437796 -242.409174 
L 121.417832 -236.158441 
L 119.397869 -230.147728 
L 117.377905 -224.378214 
L 115.357942 -219.20427 
L 113.337979 -214.741867 
L 111.318015 -210.836433 
L 109.298052 -206.973847 
L 107.278088 -203.266682 
L 105.258125 -200.21463 
L 103.238161 -197.852449 
L 101.218198 -195.970077 
L 99.198234 -194.241137 
L 97.178271 -191.689939 
L 95.158307 -187.678469 
L 93.138344 -182.985964 
L 91.118381 -179.994675 
L 89.098417 -181.004451 
L 87.078454 -185.77805 
L 85.05849 -190.0237 
L 83.038527 -186.540212 
L 81.018563 -170.240865 
L 78.9986 -141.862124 
L 76.978636 -107.331624 
z
" style="stroke: #ffffff; stroke-opacity: 0.2"/>
    </defs>
    <g clip-path="url(#pb9f29387fe)">
     <use xlink:href="#m7d9a93670d" x="0" y="360" style="fill: #4c72b0; fill-opacity: 0.2; stroke: #ffffff; stroke-opacity: 0.2"/>
    </g>
   </g>
   <g id="PolyCollection_2">
    <defs>
     <path id="mddee09bc54" d="M 76.978636 -116.103159 
L 76.978636 -88.914082 
L 78.9986 -131.968693 
L 81.018563 -165.754023 
L 83.038527 -180.223842 
L 85.05849 -177.076197 
L 87.078454 -167.337668 
L 89.098417 -161.159514 
L 91.118381 -162.593299 
L 93.138344 -169.795718 
L 95.158307 -177.580165 
L 97.178271 -182.169101 
L 99.198234 -184.28236 
L 101.218198 -186.047441 
L 103.238161 -187.656243 
L 105.258125 -189.095205 
L 107.278088 -191.683125 
L 109.298052 -195.855791 
L 111.318015 -200.668249 
L 113.337979 -205.025959 
L 115.357942 -209.334973 
L 117.377905 -214.823529 
L 119.397869 -221.034727 
L 121.417832 -226.146331 
L 123.437796 -230.91358 
L 125.457759 -236.592659 
L 127.477723 -243.015338 
L 129.497686 -249.586071 
L 131.51765 -255.150787 
L 133.537613 -260.074806 
L 135.557577 -264.789289 
L 137.57754 -269.801474 
L 139.597503 -274.446777 
L 141.617467 -278.533214 
L 143.63743 -282.330502 
L 145.657394 -285.079743 
L 147.677357 -287.645617 
L 149.697321 -289.380843 
L 151.717284 -288.176267 
L 153.737248 -286.269466 
L 155.757211 -286.603884 
L 157.777175 -287.418032 
L 159.797138 -286.501013 
L 161.817101 -284.978747 
L 163.837065 -281.998605 
L 165.857028 -278.433921 
L 167.876992 -275.567979 
L 169.896955 -274.459257 
L 171.916919 -273.40383 
L 173.936882 -271.582304 
L 175.956846 -269.887595 
L 177.976809 -268.945285 
L 179.996772 -267.598077 
L 182.016736 -265.251649 
L 184.036699 -265.382678 
L 186.056663 -266.153774 
L 188.076626 -266.753724 
L 190.09659 -268.577213 
L 192.116553 -270.363367 
L 194.136517 -271.452791 
L 196.15648 -271.871551 
L 198.176444 -270.511255 
L 200.196407 -268.236796 
L 202.21637 -267.406635 
L 204.236334 -267.100818 
L 206.256297 -266.65299 
L 208.276261 -268.225876 
L 210.296224 -268.249971 
L 212.316188 -264.622348 
L 214.336151 -260.824418 
L 216.356115 -259.040203 
L 218.376078 -258.512585 
L 220.396042 -258.681194 
L 222.416005 -259.567069 
L 224.435968 -261.122768 
L 226.455932 -262.30948 
L 228.475895 -263.865382 
L 230.495859 -263.727183 
L 232.515822 -260.699961 
L 234.535786 -259.074942 
L 236.555749 -261.126731 
L 238.575713 -263.773577 
L 240.595676 -265.272763 
L 242.61564 -264.776997 
L 244.635603 -262.743553 
L 246.655566 -259.775297 
L 248.67553 -258.314663 
L 250.695493 -259.089628 
L 252.715457 -260.303245 
L 254.73542 -259.180161 
L 256.755384 -256.509416 
L 258.775347 -254.633226 
L 260.795311 -252.227888 
L 262.815274 -248.606733 
L 264.835238 -246.090477 
L 266.855201 -247.023414 
L 268.875164 -250.484315 
L 270.895128 -253.370599 
L 272.915091 -253.803403 
L 274.935055 -250.652171 
L 276.955018 -243.363076 
L 278.974982 -236.333519 
L 280.994945 -233.054022 
L 283.014909 -230.628384 
L 285.034872 -228.704108 
L 287.054836 -228.203776 
L 289.074799 -226.24184 
L 291.094762 -222.050458 
L 293.114726 -220.488476 
L 295.134689 -218.564797 
L 297.154653 -215.098655 
L 299.174616 -212.655307 
L 301.19458 -211.555945 
L 303.214543 -208.536816 
L 305.234507 -205.914504 
L 307.25447 -207.744461 
L 309.274434 -211.232742 
L 311.294397 -212.17821 
L 313.31436 -212.755504 
L 315.334324 -212.93164 
L 317.354287 -210.207672 
L 319.374251 -205.080467 
L 321.394214 -201.992913 
L 323.414178 -202.077908 
L 325.434141 -201.741072 
L 327.454105 -198.299031 
L 329.474068 -191.540123 
L 331.494032 -185.395691 
L 333.513995 -184.548649 
L 335.533958 -185.252869 
L 337.553922 -184.809543 
L 339.573885 -184.708386 
L 341.593849 -183.430507 
L 343.613812 -179.919569 
L 345.633776 -175.52826 
L 347.653739 -170.944028 
L 349.673703 -167.098901 
L 351.693666 -162.440653 
L 353.71363 -156.539025 
L 355.733593 -151.581839 
L 357.753556 -146.165349 
L 359.77352 -141.161025 
L 361.793483 -138.898514 
L 363.813447 -136.303426 
L 365.83341 -132.068794 
L 367.853374 -127.995317 
L 369.873337 -124.601243 
L 371.893301 -119.680832 
L 373.913264 -113.009234 
L 375.933228 -107.701748 
L 377.953191 -101.635744 
L 379.973154 -94.764932 
L 381.993118 -87.1363 
L 384.013081 -82.43709 
L 386.033045 -81.403925 
L 388.053008 -80.690894 
L 390.072972 -80.679569 
L 392.092935 -80.396132 
L 394.112899 -79.188185 
L 396.132862 -77.848599 
L 398.152825 -77.626891 
L 400.172789 -78.184883 
L 402.192752 -77.488108 
L 404.212716 -75.672873 
L 406.232679 -75.211744 
L 408.252643 -75.458983 
L 410.272606 -75.654827 
L 412.29257 -74.427177 
L 414.312533 -73.986011 
L 416.332497 -74.142883 
L 418.35246 -74.048498 
L 420.372423 -74.35032 
L 422.392387 -75.387202 
L 424.41235 -75.166045 
L 426.432314 -74.236117 
L 428.452277 -74.418793 
L 430.472241 -74.811959 
L 432.492204 -73.369292 
L 434.512168 -70.558497 
L 436.532131 -67.891034 
L 438.552095 -67.230549 
L 440.572058 -67.436905 
L 442.592021 -70.40841 
L 444.611985 -75.714135 
L 446.631948 -76.363915 
L 448.651912 -73.076555 
L 450.671875 -71.272712 
L 452.691839 -67.926983 
L 454.711802 -63.385838 
L 456.731766 -64.105 
L 458.751729 -69.56315 
L 460.771693 -71.537221 
L 462.791656 -70.298886 
L 464.811619 -67.525027 
L 466.831583 -66.903633 
L 468.851546 -65.4783 
L 470.87151 -62.980909 
L 472.891473 -65.540241 
L 474.911437 -71.262744 
L 476.9314 -75.501212 
L 478.951364 -80.733637 
L 478.951364 -134.185313 
L 478.951364 -134.185313 
L 476.9314 -154.443476 
L 474.911437 -168.802448 
L 472.891473 -175.975233 
L 470.87151 -175.135252 
L 468.851546 -168.983238 
L 466.831583 -164.951834 
L 464.811619 -164.694904 
L 462.791656 -167.444557 
L 460.771693 -175.103766 
L 458.751729 -180.56106 
L 456.731766 -178.332537 
L 454.711802 -173.925133 
L 452.691839 -173.912884 
L 450.671875 -179.359822 
L 448.651912 -184.394993 
L 446.631948 -186.412295 
L 444.611985 -186.507826 
L 442.592021 -184.298857 
L 440.572058 -178.542792 
L 438.552095 -168.631124 
L 436.532131 -155.459393 
L 434.512168 -142.56817 
L 432.492204 -134.334238 
L 430.472241 -131.927459 
L 428.452277 -132.713972 
L 426.432314 -134.82044 
L 424.41235 -138.427168 
L 422.392387 -142.523801 
L 420.372423 -146.386991 
L 418.35246 -149.886169 
L 416.332497 -151.56819 
L 414.312533 -151.157228 
L 412.29257 -149.181463 
L 410.272606 -144.697858 
L 408.252643 -136.930208 
L 406.232679 -128.528445 
L 404.212716 -122.426423 
L 402.192752 -119.144298 
L 400.172789 -118.170152 
L 398.152825 -119.980359 
L 396.132862 -123.177773 
L 394.112899 -126.192937 
L 392.092935 -128.666714 
L 390.072972 -132.178044 
L 388.053008 -136.832294 
L 386.033045 -141.904846 
L 384.013081 -147.811333 
L 381.993118 -156.279469 
L 379.973154 -167.300925 
L 377.953191 -179.247946 
L 375.933228 -190.559752 
L 373.913264 -200.333171 
L 371.893301 -208.741757 
L 369.873337 -215.182849 
L 367.853374 -219.998414 
L 365.83341 -224.5149 
L 363.813447 -228.630684 
L 361.793483 -231.735921 
L 359.77352 -234.600876 
L 357.753556 -238.612489 
L 355.733593 -243.62543 
L 353.71363 -249.318762 
L 351.693666 -255.108748 
L 349.673703 -259.538095 
L 347.653739 -262.353667 
L 345.633776 -264.269709 
L 343.613812 -265.58149 
L 341.593849 -266.292754 
L 339.573885 -265.937367 
L 337.553922 -264.7279 
L 335.533958 -263.441586 
L 333.513995 -262.587655 
L 331.494032 -263.198984 
L 329.474068 -265.929791 
L 327.454105 -269.382226 
L 325.434141 -272.068873 
L 323.414178 -273.592111 
L 321.394214 -274.634966 
L 319.374251 -276.171946 
L 317.354287 -277.989193 
L 315.334324 -278.876839 
L 313.31436 -278.306661 
L 311.294397 -276.704881 
L 309.274434 -274.385218 
L 307.25447 -271.637262 
L 305.234507 -269.867616 
L 303.214543 -269.822821 
L 301.19458 -270.747042 
L 299.174616 -272.050519 
L 297.154653 -273.963144 
L 295.134689 -276.134032 
L 293.114726 -277.937797 
L 291.094762 -279.522464 
L 289.074799 -281.404356 
L 287.054836 -282.897031 
L 285.034872 -284.418794 
L 283.014909 -286.720006 
L 280.994945 -289.776242 
L 278.974982 -293.595104 
L 276.955018 -298.254639 
L 274.935055 -302.396899 
L 272.915091 -304.588668 
L 270.895128 -304.664708 
L 268.875164 -303.172767 
L 266.855201 -301.214783 
L 264.835238 -300.237157 
L 262.815274 -300.919174 
L 260.795311 -302.718494 
L 258.775347 -304.786622 
L 256.755384 -306.735847 
L 254.73542 -308.34456 
L 252.715457 -309.028148 
L 250.695493 -308.834511 
L 248.67553 -308.589087 
L 246.655566 -308.913064 
L 244.635603 -309.641446 
L 242.61564 -310.045223 
L 240.595676 -309.686603 
L 238.575713 -308.526724 
L 236.555749 -307.030077 
L 234.535786 -305.910696 
L 232.515822 -305.902013 
L 230.495859 -306.404953 
L 228.475895 -306.279889 
L 226.455932 -305.448745 
L 224.435968 -304.207465 
L 222.416005 -302.720511 
L 220.396042 -301.622379 
L 218.376078 -301.33445 
L 216.356115 -301.943101 
L 214.336151 -303.446948 
L 212.316188 -305.596014 
L 210.296224 -307.463854 
L 208.276261 -308.152712 
L 206.256297 -308.027445 
L 204.236334 -307.954709 
L 202.21637 -307.925434 
L 200.196407 -308.181851 
L 198.176444 -308.80967 
L 196.15648 -309.176044 
L 194.136517 -308.785758 
L 192.116553 -307.660796 
L 190.09659 -305.986082 
L 188.076626 -304.21607 
L 186.056663 -302.832566 
L 184.036699 -301.828862 
L 182.016736 -301.417314 
L 179.996772 -301.798902 
L 177.976809 -302.299875 
L 175.956846 -302.873535 
L 173.936882 -303.594824 
L 171.916919 -304.332099 
L 169.896955 -305.051648 
L 167.876992 -306.015248 
L 165.857028 -307.501253 
L 163.837065 -309.219903 
L 161.817101 -310.697139 
L 159.797138 -311.584437 
L 157.777175 -311.891577 
L 155.757211 -311.542916 
L 153.737248 -311.055557 
L 151.717284 -310.739171 
L 149.697321 -309.965326 
L 147.677357 -308.152937 
L 145.657394 -305.496848 
L 143.63743 -302.106528 
L 141.617467 -297.939112 
L 139.597503 -293.240439 
L 137.57754 -288.12312 
L 135.557577 -282.720778 
L 133.537613 -277.163695 
L 131.51765 -271.354637 
L 129.497686 -265.2107 
L 127.477723 -258.755523 
L 125.457759 -252.308011 
L 123.437796 -246.083498 
L 121.417832 -240.132774 
L 119.397869 -234.230106 
L 117.377905 -228.268525 
L 115.357942 -222.600836 
L 113.337979 -217.391852 
L 111.318015 -212.530718 
L 109.298052 -208.047298 
L 107.278088 -204.213226 
L 105.258125 -201.191447 
L 103.238161 -198.729055 
L 101.218198 -196.259577 
L 99.198234 -193.382177 
L 97.178271 -189.829072 
L 95.158307 -185.459693 
L 93.138344 -180.923444 
L 91.118381 -177.882845 
L 89.098417 -177.739011 
L 87.078454 -179.962172 
L 85.05849 -181.455857 
L 83.038527 -177.510773 
L 81.018563 -164.433057 
L 78.9986 -142.503105 
L 76.978636 -116.103159 
z
" style="stroke: #ffffff; stroke-opacity: 0.2"/>
    </defs>
    <g clip-path="url(#pb9f29387fe)">
     <use xlink:href="#mddee09bc54" x="0" y="360" style="fill: #dd8452; fill-opacity: 0.2; stroke: #ffffff; stroke-opacity: 0.2"/>
    </g>
   </g>
   <g id="line2d_16">
    <path d="M 76.978636 265.86719 
L 78.9986 223.416014 
L 81.018563 189.388984 
L 83.038527 171.9751 
L 85.05849 171.654179 
L 87.078454 180.3002 
L 89.098417 187.237762 
L 91.118381 187.508354 
L 93.138344 182.327602 
L 95.158307 175.914401 
L 97.178271 171.690395 
L 99.198234 170.041356 
L 101.218198 169.300509 
L 103.238161 167.811225 
L 105.258125 165.567731 
L 107.278088 162.433958 
L 111.318015 154.655602 
L 113.337979 151.26559 
L 115.357942 147.138712 
L 117.377905 142.034813 
L 123.437796 124.61327 
L 125.457759 118.298083 
L 127.477723 111.093383 
L 131.51765 95.973513 
L 133.537613 89.626407 
L 139.597503 71.848599 
L 141.617467 67.504862 
L 143.63743 64.419788 
L 145.657394 61.576047 
L 147.677357 57.800937 
L 149.697321 54.602077 
L 151.717284 53.893511 
L 153.737248 55.294059 
L 155.757211 56.196429 
L 159.797138 56.756894 
L 161.817101 57.268969 
L 163.837065 58.386659 
L 165.857028 60.178122 
L 167.876992 62.495182 
L 169.896955 63.738848 
L 171.916919 63.75668 
L 173.936882 64.155983 
L 175.956846 65.202369 
L 177.976809 67.123033 
L 179.996772 69.454988 
L 182.016736 72.896506 
L 184.036699 76.051081 
L 186.056663 77.508081 
L 188.076626 77.998571 
L 190.09659 77.102344 
L 192.116553 76.681678 
L 194.136517 76.61022 
L 196.15648 75.884443 
L 198.176444 75.451502 
L 200.196407 75.811044 
L 202.21637 78.162679 
L 204.236334 81.229862 
L 206.256297 83.013156 
L 208.276261 81.740474 
L 210.296224 79.199969 
L 214.336151 75.958858 
L 216.356115 74.107035 
L 218.376078 72.680717 
L 220.396042 71.432675 
L 222.416005 68.086931 
L 224.435968 64.262711 
L 226.455932 62.737204 
L 228.475895 64.732078 
L 230.495859 67.890454 
L 232.515822 69.050065 
L 234.535786 69.049178 
L 236.555749 70.26897 
L 238.575713 71.265919 
L 240.595676 70.916379 
L 242.61564 69.478765 
L 244.635603 69.539877 
L 246.655566 71.955236 
L 248.67553 75.015801 
L 250.695493 78.417303 
L 252.715457 82.233196 
L 254.73542 84.466186 
L 256.755384 84.193357 
L 258.775347 83.09143 
L 260.795311 83.05942 
L 262.815274 84.683915 
L 266.855201 91.39837 
L 268.875164 93.471111 
L 270.895128 94.103396 
L 272.915091 93.182848 
L 274.935055 92.81753 
L 276.955018 95.437086 
L 278.974982 98.415339 
L 280.994945 102.550084 
L 283.014909 107.490765 
L 285.034872 107.416817 
L 287.054836 102.402082 
L 289.074799 98.221535 
L 291.094762 97.86072 
L 293.114726 100.80326 
L 295.134689 104.077573 
L 297.154653 107.833538 
L 299.174616 110.727353 
L 301.19458 110.438967 
L 303.214543 109.687694 
L 305.234507 110.710045 
L 307.25447 112.769399 
L 309.274434 115.550586 
L 311.294397 119.115857 
L 313.31436 121.956437 
L 315.334324 124.293317 
L 317.354287 124.749239 
L 319.374251 124.654867 
L 321.394214 122.392561 
L 323.414178 119.582239 
L 325.434141 120.094857 
L 327.454105 125.736494 
L 329.474068 132.361636 
L 331.494032 135.572475 
L 333.513995 134.209524 
L 335.533958 132.169244 
L 337.553922 132.43319 
L 339.573885 133.842995 
L 341.593849 135.435213 
L 343.613812 136.394219 
L 345.633776 136.988451 
L 349.673703 137.621416 
L 351.693666 138.159668 
L 353.71363 139.182665 
L 357.753556 141.849818 
L 359.77352 144.557436 
L 361.793483 150.189946 
L 365.83341 171.521057 
L 367.853374 178.736371 
L 369.873337 183.768559 
L 371.893301 189.207612 
L 373.913264 195.302106 
L 377.953191 203.923316 
L 379.973154 206.115758 
L 381.993118 206.100404 
L 384.013081 207.63469 
L 386.033045 213.232364 
L 388.053008 222.084176 
L 390.072972 228.73758 
L 392.092935 230.334582 
L 394.112899 229.806212 
L 396.132862 231.779193 
L 398.152825 237.242154 
L 400.172789 244.982066 
L 404.212716 256.322648 
L 406.232679 259.405044 
L 408.252643 258.991925 
L 410.272606 257.510182 
L 414.312533 259.615806 
L 416.332497 259.465871 
L 418.35246 258.036856 
L 420.372423 253.618235 
L 422.392387 247.910862 
L 424.41235 247.551336 
L 426.432314 251.347116 
L 430.472241 257.769605 
L 432.492204 259.510227 
L 434.512168 255.455248 
L 436.532131 247.544741 
L 438.552095 240.562993 
L 440.572058 236.601467 
L 442.592021 234.191614 
L 444.611985 232.205397 
L 446.631948 231.422304 
L 448.651912 232.309876 
L 450.671875 237.861649 
L 452.691839 246.555913 
L 454.711802 247.375617 
L 458.751729 230.489743 
L 460.771693 234.98119 
L 462.791656 243.625693 
L 464.811619 246.899576 
L 466.831583 249.193655 
L 468.851546 247.502034 
L 470.87151 240.606459 
L 472.891473 236.803235 
L 474.911437 238.697096 
L 476.9314 246.888883 
L 478.951364 262.87241 
L 478.951364 262.87241 
" clip-path="url(#pb9f29387fe)" style="fill: none; stroke: #4c72b0; stroke-width: 1.5; stroke-linecap: round"/>
   </g>
   <g id="line2d_17">
    <path d="M 76.978636 264.267415 
L 78.9986 223.404312 
L 81.018563 191.448741 
L 83.038527 176.978235 
L 85.05849 178.634273 
L 87.078454 187.044991 
L 89.098417 192.928611 
L 91.118381 192.056856 
L 93.138344 185.671732 
L 95.158307 178.21138 
L 97.178271 173.157386 
L 99.198234 170.423474 
L 101.218198 168.463089 
L 105.258125 165.127623 
L 107.278088 162.382685 
L 109.298052 158.236793 
L 115.357942 144.037968 
L 117.377905 138.416305 
L 119.397869 132.259144 
L 125.457759 115.669368 
L 129.497686 102.504809 
L 131.51765 96.639701 
L 135.557577 86.326023 
L 139.597503 76.219073 
L 141.617467 71.758586 
L 143.63743 67.68786 
L 145.657394 64.573038 
L 147.677357 61.908722 
L 149.697321 60.159998 
L 151.717284 60.635131 
L 153.737248 61.651301 
L 155.757211 61.104619 
L 157.777175 60.229147 
L 159.797138 60.711265 
L 161.817101 61.936991 
L 163.837065 64.339786 
L 165.857028 67.21308 
L 167.876992 69.478526 
L 169.896955 70.382548 
L 171.916919 71.079047 
L 175.956846 73.495447 
L 177.976809 74.270623 
L 179.996772 75.279657 
L 182.016736 76.855905 
L 184.036699 76.631079 
L 188.076626 74.681903 
L 192.116553 70.711437 
L 194.136517 69.471988 
L 196.15648 69.168406 
L 198.176444 70.3675 
L 200.196407 72.127014 
L 202.21637 72.703297 
L 206.256297 72.649224 
L 208.276261 71.368075 
L 210.296224 71.527861 
L 212.316188 74.621218 
L 214.336151 78.082343 
L 216.356115 79.946075 
L 218.376078 80.528164 
L 220.396042 80.217327 
L 222.416005 78.94669 
L 224.435968 77.078831 
L 226.455932 75.688448 
L 228.475895 74.464115 
L 230.495859 74.706363 
L 232.515822 77.044804 
L 234.535786 78.15432 
L 236.555749 76.252877 
L 238.575713 73.694087 
L 240.595676 72.042144 
L 242.61564 72.149737 
L 244.635603 73.760758 
L 246.655566 76.065281 
L 248.67553 77.054427 
L 250.695493 76.168747 
L 252.715457 74.977614 
L 254.73542 75.700464 
L 256.755384 77.995832 
L 258.775347 80.107404 
L 260.795311 82.656871 
L 262.815274 85.866169 
L 264.835238 87.79013 
L 266.855201 86.523563 
L 268.875164 83.065997 
L 270.895128 80.238926 
L 272.915091 79.782873 
L 274.935055 82.677192 
L 278.974982 95.57237 
L 280.994945 99.161467 
L 283.014909 101.754701 
L 285.034872 103.691107 
L 287.054836 104.377445 
L 289.074799 105.932536 
L 291.094762 109.1089 
L 293.114726 110.580684 
L 295.134689 112.379968 
L 297.154653 115.351958 
L 299.174616 117.657078 
L 301.19458 118.912105 
L 303.214543 121.181075 
L 305.234507 122.801126 
L 307.25447 120.787056 
L 309.274434 117.079027 
L 311.294397 115.125608 
L 313.31436 113.898583 
L 315.334324 113.544212 
L 317.354287 115.826239 
L 319.374251 119.896786 
L 321.394214 122.176953 
L 323.414178 121.956017 
L 325.434141 122.312488 
L 327.454105 125.575743 
L 329.474068 131.528899 
L 331.494032 136.678799 
L 333.513995 137.245504 
L 335.533958 135.882347 
L 339.573885 134.162711 
L 341.593849 134.835797 
L 343.613812 137.428478 
L 347.653739 143.158771 
L 349.673703 145.886696 
L 351.693666 150.516529 
L 353.71363 157.187413 
L 355.733593 163.081227 
L 357.753556 168.429715 
L 359.77352 172.701303 
L 361.793483 174.491057 
L 363.813447 177.067158 
L 367.853374 186.403895 
L 369.873337 189.855793 
L 371.893301 195.175861 
L 375.933228 210.02544 
L 377.953191 219.135664 
L 381.993118 239.617509 
L 384.013081 245.842341 
L 386.033045 248.128229 
L 388.053008 250.75006 
L 390.072972 253.853814 
L 392.092935 255.691944 
L 394.112899 256.17988 
L 396.132862 258.230709 
L 398.152825 261.11468 
L 400.172789 262.919552 
L 402.192752 262.739121 
L 404.212716 262.40573 
L 406.232679 259.471686 
L 408.252643 253.329025 
L 410.272606 247.88928 
L 412.29257 247.045341 
L 414.312533 247.323293 
L 416.332497 246.821696 
L 418.35246 247.613162 
L 420.372423 249.768109 
L 422.392387 251.049192 
L 426.432314 255.025381 
L 428.452277 255.682823 
L 432.492204 259.603614 
L 434.512168 256.411092 
L 438.552095 239.636958 
L 440.572058 234.406611 
L 442.592021 231.344816 
L 444.611985 229.123411 
L 446.631948 228.317685 
L 448.651912 229.325045 
L 450.671875 235.144921 
L 452.691839 244.09021 
L 454.711802 244.897079 
L 456.731766 236.173039 
L 458.751729 228.414539 
L 460.771693 234.455089 
L 462.791656 244.60042 
L 464.811619 247.129798 
L 466.831583 248.035747 
L 468.851546 245.315214 
L 470.87151 237.786853 
L 472.891473 233.779869 
L 474.911437 235.894782 
L 476.9314 244.690285 
L 478.951364 261.559196 
L 478.951364 261.559196 
" clip-path="url(#pb9f29387fe)" style="fill: none; stroke: #dd8452; stroke-width: 1.5; stroke-linecap: round"/>
   </g>
   <g id="patch_3">
    <path d="M 56.88 309.78 
L 56.88 29.04 
" style="fill: none; stroke: #ffffff; stroke-width: 1.25; stroke-linejoin: miter; stroke-linecap: square"/>
   </g>
   <g id="patch_4">
    <path d="M 499.05 309.78 
L 499.05 29.04 
" style="fill: none; stroke: #ffffff; stroke-width: 1.25; stroke-linejoin: miter; stroke-linecap: square"/>
   </g>
   <g id="patch_5">
    <path d="M 56.88 309.78 
L 499.05 309.78 
" style="fill: none; stroke: #ffffff; stroke-width: 1.25; stroke-linejoin: miter; stroke-linecap: square"/>
   </g>
   <g id="patch_6">
    <path d="M 56.88 29.04 
L 499.05 29.04 
" style="fill: none; stroke: #ffffff; stroke-width: 1.25; stroke-linejoin: miter; stroke-linecap: square"/>
   </g>
   <g id="text_18">
    <!-- Average Number of Bounds vs Depth -->
    <g style="fill: #262626" transform="translate(166.624688 23.04) scale(0.12 -0.12)">
     <use xlink:href="#DejaVuSans-41"/>
     <use xlink:href="#DejaVuSans-76" x="62.533203"/>
     <use xlink:href="#DejaVuSans-65" x="121.712891"/>
     <use xlink:href="#DejaVuSans-72" x="183.236328"/>
     <use xlink:href="#DejaVuSans-61" x="224.349609"/>
     <use xlink:href="#DejaVuSans-67" x="285.628906"/>
     <use xlink:href="#DejaVuSans-65" x="349.105469"/>
     <use xlink:href="#DejaVuSans-20" x="410.628906"/>
     <use xlink:href="#DejaVuSans-4e" x="442.416016"/>
     <use xlink:href="#DejaVuSans-75" x="517.220703"/>
     <use xlink:href="#DejaVuSans-6d" x="580.599609"/>
     <use xlink:href="#DejaVuSans-62" x="678.011719"/>
     <use xlink:href="#DejaVuSans-65" x="741.488281"/>
     <use xlink:href="#DejaVuSans-72" x="803.011719"/>
     <use xlink:href="#DejaVuSans-20" x="844.125"/>
     <use xlink:href="#DejaVuSans-6f" x="875.912109"/>
     <use xlink:href="#DejaVuSans-66" x="937.09375"/>
     <use xlink:href="#DejaVuSans-20" x="972.298828"/>
     <use xlink:href="#DejaVuSans-42" x="1004.085938"/>
     <use xlink:href="#DejaVuSans-6f" x="1072.689453"/>
     <use xlink:href="#DejaVuSans-75" x="1133.871094"/>
     <use xlink:href="#DejaVuSans-6e" x="1197.25"/>
     <use xlink:href="#DejaVuSans-64" x="1260.628906"/>
     <use xlink:href="#DejaVuSans-73" x="1324.105469"/>
     <use xlink:href="#DejaVuSans-20" x="1376.205078"/>
     <use xlink:href="#DejaVuSans-76" x="1407.992188"/>
     <use xlink:href="#DejaVuSans-73" x="1467.171875"/>
     <use xlink:href="#DejaVuSans-20" x="1519.271484"/>
     <use xlink:href="#DejaVuSans-44" x="1551.058594"/>
     <use xlink:href="#DejaVuSans-65" x="1628.060547"/>
     <use xlink:href="#DejaVuSans-70" x="1689.583984"/>
     <use xlink:href="#DejaVuSans-74" x="1753.060547"/>
     <use xlink:href="#DejaVuSans-68" x="1792.269531"/>
    </g>
   </g>
   <g id="legend_1">
    <g id="patch_7">
     <path d="M 376.293437 70.131875 
L 491.35 70.131875 
Q 493.55 70.131875 493.55 67.931875 
L 493.55 36.74 
Q 493.55 34.54 491.35 34.54 
L 376.293437 34.54 
Q 374.093437 34.54 374.093437 36.74 
L 374.093437 67.931875 
Q 374.093437 70.131875 376.293437 70.131875 
z
" style="fill: #eaeaf2; opacity: 0.8; stroke: #cccccc; stroke-linejoin: miter"/>
    </g>
    <g id="line2d_18">
     <path d="M 378.493437 43.448281 
L 389.493437 43.448281 
L 400.493437 43.448281 
" style="fill: none; stroke: #4c72b0; stroke-width: 1.5; stroke-linecap: round"/>
    </g>
    <g id="text_19">
     <!-- compbnd -->
     <g style="fill: #262626" transform="translate(409.293437 47.298281) scale(0.11 -0.11)">
      <defs>
       <path id="DejaVuSans-63" d="M 3122 3366 
L 3122 2828 
Q 2878 2963 2633 3030 
Q 2388 3097 2138 3097 
Q 1578 3097 1268 2742 
Q 959 2388 959 1747 
Q 959 1106 1268 751 
Q 1578 397 2138 397 
Q 2388 397 2633 464 
Q 2878 531 3122 666 
L 3122 134 
Q 2881 22 2623 -34 
Q 2366 -91 2075 -91 
Q 1284 -91 818 406 
Q 353 903 353 1747 
Q 353 2603 823 3093 
Q 1294 3584 2113 3584 
Q 2378 3584 2631 3529 
Q 2884 3475 3122 3366 
z
" transform="scale(0.015625)"/>
      </defs>
      <use xlink:href="#DejaVuSans-63"/>
      <use xlink:href="#DejaVuSans-6f" x="54.980469"/>
      <use xlink:href="#DejaVuSans-6d" x="116.162109"/>
      <use xlink:href="#DejaVuSans-70" x="213.574219"/>
      <use xlink:href="#DejaVuSans-62" x="277.050781"/>
      <use xlink:href="#DejaVuSans-6e" x="340.527344"/>
      <use xlink:href="#DejaVuSans-64" x="403.90625"/>
     </g>
    </g>
    <g id="line2d_19">
     <path d="M 378.493437 59.594219 
L 389.493437 59.594219 
L 400.493437 59.594219 
" style="fill: none; stroke: #dd8452; stroke-width: 1.5; stroke-linecap: round"/>
    </g>
    <g id="text_20">
     <!-- compbnd+dvs -->
     <g style="fill: #262626" transform="translate(409.293437 63.444219) scale(0.11 -0.11)">
      <defs>
       <path id="DejaVuSans-2b" d="M 2944 4013 
L 2944 2272 
L 4684 2272 
L 4684 1741 
L 2944 1741 
L 2944 0 
L 2419 0 
L 2419 1741 
L 678 1741 
L 678 2272 
L 2419 2272 
L 2419 4013 
L 2944 4013 
z
" transform="scale(0.015625)"/>
      </defs>
      <use xlink:href="#DejaVuSans-63"/>
      <use xlink:href="#DejaVuSans-6f" x="54.980469"/>
      <use xlink:href="#DejaVuSans-6d" x="116.162109"/>
      <use xlink:href="#DejaVuSans-70" x="213.574219"/>
      <use xlink:href="#DejaVuSans-62" x="277.050781"/>
      <use xlink:href="#DejaVuSans-6e" x="340.527344"/>
      <use xlink:href="#DejaVuSans-64" x="403.90625"/>
      <use xlink:href="#DejaVuSans-2b" x="467.382812"/>
      <use xlink:href="#DejaVuSans-64" x="551.171875"/>
      <use xlink:href="#DejaVuSans-76" x="614.648438"/>
      <use xlink:href="#DejaVuSans-73" x="673.828125"/>
     </g>
    </g>
   </g>
  </g>
 </g>
 <defs>
  <clipPath id="pb9f29387fe">
   <rect x="56.88" y="29.04" width="442.17" height="280.74"/>
  </clipPath>
 </defs>
</svg>
