<?xml version="1.0" encoding="utf-8" standalone="no"?>
<!DOCTYPE svg PUBLIC "-//W3C//DTD SVG 1.1//EN"
  "http://www.w3.org/Graphics/SVG/1.1/DTD/svg11.dtd">
<svg xmlns:xlink="http://www.w3.org/1999/xlink" width="512.447845pt" height="360pt" viewBox="0 0 512.447845 360" xmlns="http://www.w3.org/2000/svg" version="1.1">
 <metadata>
  <rdf:RDF xmlns:dc="http://purl.org/dc/elements/1.1/" xmlns:cc="http://creativecommons.org/ns#" xmlns:rdf="http://www.w3.org/1999/02/22-rdf-syntax-ns#">
   <cc:Work>
    <dc:type rdf:resource="http://purl.org/dc/dcmitype/StillImage"/>
    <dc:date>2024-08-19T21:17:28.078407</dc:date>
    <dc:format>image/svg+xml</dc:format>
    <dc:creator>
     <cc:Agent>
      <dc:title>Matplotlib v3.9.0, https://matplotlib.org/</dc:title>
     </cc:Agent>
    </dc:creator>
   </cc:Work>
  </rdf:RDF>
 </metadata>
 <defs>
  <style type="text/css">*{stroke-linejoin: round; stroke-linecap: butt}</style>
 </defs>
 <g id="figure_1">
  <g id="patch_1">
   <path d="M 0 360 
L 512.447845 360 
L 512.447845 0 
L 0 0 
L 0 360 
z
" style="fill: none"/>
  </g>
  <g id="axes_1">
   <g id="patch_2">
    <path d="M 72.448099 293.506804 
L 493.007845 293.506804 
L 493.007845 19.44 
L 72.448099 19.44 
L 72.448099 293.506804 
z
" style="fill: none"/>
   </g>
   <g id="matplotlib.axis_1">
    <g id="xtick_1">
     <g id="text_1">
      <!-- $\mathdefault{0}$ -->
      <g style="fill: #262626" transform="translate(87.540524 317.422309) scale(0.165 -0.165)">
       <defs>
        <path id="CMR17-30" d="M 2688 2025 
C 2688 2416 2682 3080 2413 3591 
C 2176 4039 1798 4198 1466 4198 
C 1158 4198 768 4058 525 3597 
C 269 3118 243 2524 243 2025 
C 243 1661 250 1106 448 619 
C 723 -39 1216 -128 1466 -128 
C 1760 -128 2208 -7 2470 600 
C 2662 1042 2688 1559 2688 2025 
z
M 1466 -26 
C 1056 -26 813 325 723 812 
C 653 1188 653 1738 653 2096 
C 653 2588 653 2997 736 3387 
C 858 3929 1216 4096 1466 4096 
C 1728 4096 2067 3923 2189 3400 
C 2272 3036 2278 2607 2278 2096 
C 2278 1680 2278 1169 2202 792 
C 2067 95 1690 -26 1466 -26 
z
" transform="scale(0.015625)"/>
       </defs>
       <use xlink:href="#CMR17-30" transform="scale(0.996264)"/>
      </g>
     </g>
    </g>
    <g id="xtick_2">
     <g id="text_2">
      <!-- $\mathdefault{100}$ -->
      <g style="fill: #262626" transform="translate(155.958078 317.422309) scale(0.165 -0.165)">
       <defs>
        <path id="CMR17-31" d="M 1702 4058 
C 1702 4192 1696 4192 1606 4192 
C 1357 3916 979 3827 621 3827 
C 602 3827 570 3827 563 3808 
C 557 3795 557 3782 557 3648 
C 755 3648 1088 3686 1344 3839 
L 1344 461 
C 1344 236 1331 160 781 160 
L 589 160 
L 589 0 
C 896 0 1216 0 1523 0 
C 1830 0 2150 0 2458 0 
L 2458 160 
L 2266 160 
C 1715 160 1702 230 1702 458 
L 1702 4058 
z
" transform="scale(0.015625)"/>
       </defs>
       <use xlink:href="#CMR17-31" transform="scale(0.996264)"/>
       <use xlink:href="#CMR17-30" transform="translate(45.690477 0) scale(0.996264)"/>
       <use xlink:href="#CMR17-30" transform="translate(91.380954 0) scale(0.996264)"/>
      </g>
     </g>
    </g>
    <g id="xtick_3">
     <g id="text_3">
      <!-- $\mathdefault{200}$ -->
      <g style="fill: #262626" transform="translate(232.423487 317.422309) scale(0.165 -0.165)">
       <defs>
        <path id="CMR17-32" d="M 2669 989 
L 2554 989 
C 2490 536 2438 459 2413 420 
C 2381 369 1920 369 1830 369 
L 602 369 
C 832 619 1280 1072 1824 1597 
C 2214 1967 2669 2402 2669 3035 
C 2669 3790 2067 4224 1395 4224 
C 691 4224 262 3604 262 3030 
C 262 2780 448 2748 525 2748 
C 589 2748 781 2787 781 3010 
C 781 3207 614 3264 525 3264 
C 486 3264 448 3258 422 3245 
C 544 3790 915 4058 1306 4058 
C 1862 4058 2227 3617 2227 3035 
C 2227 2479 1901 2000 1536 1584 
L 262 146 
L 262 0 
L 2515 0 
L 2669 989 
z
" transform="scale(0.015625)"/>
       </defs>
       <use xlink:href="#CMR17-32" transform="scale(0.996264)"/>
       <use xlink:href="#CMR17-30" transform="translate(45.690477 0) scale(0.996264)"/>
       <use xlink:href="#CMR17-30" transform="translate(91.380954 0) scale(0.996264)"/>
      </g>
     </g>
    </g>
    <g id="xtick_4">
     <g id="text_4">
      <!-- $\mathdefault{300}$ -->
      <g style="fill: #262626" transform="translate(308.888895 317.422309) scale(0.165 -0.165)">
       <defs>
        <path id="CMR17-33" d="M 1414 2157 
C 1984 2157 2234 1662 2234 1090 
C 2234 320 1824 25 1453 25 
C 1114 25 563 194 390 693 
C 422 680 454 680 486 680 
C 640 680 755 782 755 948 
C 755 1133 614 1216 486 1216 
C 378 1216 211 1165 211 926 
C 211 335 787 -128 1466 -128 
C 2176 -128 2720 430 2720 1085 
C 2720 1707 2208 2157 1600 2227 
C 2086 2328 2554 2756 2554 3329 
C 2554 3820 2048 4179 1472 4179 
C 890 4179 378 3829 378 3329 
C 378 3110 544 3072 627 3072 
C 762 3072 877 3155 877 3321 
C 877 3486 762 3569 627 3569 
C 602 3569 570 3569 544 3557 
C 730 3959 1235 4032 1459 4032 
C 1683 4032 2106 3925 2106 3320 
C 2106 3143 2080 2828 1862 2550 
C 1670 2304 1453 2304 1242 2284 
C 1210 2284 1062 2269 1037 2269 
C 992 2263 966 2257 966 2208 
C 966 2163 973 2157 1101 2157 
L 1414 2157 
z
" transform="scale(0.015625)"/>
       </defs>
       <use xlink:href="#CMR17-33" transform="scale(0.996264)"/>
       <use xlink:href="#CMR17-30" transform="translate(45.690477 0) scale(0.996264)"/>
       <use xlink:href="#CMR17-30" transform="translate(91.380954 0) scale(0.996264)"/>
      </g>
     </g>
    </g>
    <g id="xtick_5">
     <g id="text_5">
      <!-- $\mathdefault{400}$ -->
      <g style="fill: #262626" transform="translate(385.354303 317.422309) scale(0.165 -0.165)">
       <defs>
        <path id="CMR17-34" d="M 2150 4122 
C 2150 4256 2144 4256 2029 4256 
L 128 1254 
L 128 1088 
L 1779 1088 
L 1779 457 
C 1779 224 1766 160 1318 160 
L 1197 160 
L 1197 0 
C 1402 0 1747 0 1965 0 
C 2182 0 2528 0 2733 0 
L 2733 160 
L 2611 160 
C 2163 160 2150 224 2150 457 
L 2150 1088 
L 2803 1088 
L 2803 1254 
L 2150 1254 
L 2150 4122 
z
M 1798 3703 
L 1798 1254 
L 256 1254 
L 1798 3703 
z
" transform="scale(0.015625)"/>
       </defs>
       <use xlink:href="#CMR17-34" transform="scale(0.996264)"/>
       <use xlink:href="#CMR17-30" transform="translate(45.690477 0) scale(0.996264)"/>
       <use xlink:href="#CMR17-30" transform="translate(91.380954 0) scale(0.996264)"/>
      </g>
     </g>
    </g>
    <g id="xtick_6">
     <g id="text_6">
      <!-- $\mathdefault{500}$ -->
      <g style="fill: #262626" transform="translate(461.819712 317.422309) scale(0.165 -0.165)">
       <defs>
        <path id="CMR17-35" d="M 730 3692 
C 794 3666 1056 3584 1325 3584 
C 1920 3584 2246 3911 2432 4100 
C 2432 4157 2432 4192 2394 4192 
C 2387 4192 2374 4192 2323 4163 
C 2099 4058 1837 3973 1517 3973 
C 1325 3973 1037 3999 723 4139 
C 653 4171 640 4171 634 4171 
C 602 4171 595 4164 595 4037 
L 595 2203 
C 595 2089 595 2057 659 2057 
C 691 2057 704 2070 736 2114 
C 941 2401 1222 2522 1542 2522 
C 1766 2522 2246 2382 2246 1289 
C 2246 1085 2246 715 2054 421 
C 1894 159 1645 25 1370 25 
C 947 25 518 320 403 814 
C 429 807 480 795 506 795 
C 589 795 749 840 749 1038 
C 749 1210 627 1280 506 1280 
C 358 1280 262 1190 262 1011 
C 262 454 704 -128 1382 -128 
C 2042 -128 2669 440 2669 1264 
C 2669 2030 2170 2624 1549 2624 
C 1222 2624 947 2503 730 2274 
L 730 3692 
z
" transform="scale(0.015625)"/>
       </defs>
       <use xlink:href="#CMR17-35" transform="scale(0.996264)"/>
       <use xlink:href="#CMR17-30" transform="translate(45.690477 0) scale(0.996264)"/>
       <use xlink:href="#CMR17-30" transform="translate(91.380954 0) scale(0.996264)"/>
      </g>
     </g>
    </g>
    <g id="text_7">
     <!-- Depth -->
     <g style="fill: #262626" transform="translate(261.179901 337.071936) scale(0.18 -0.18)">
      <defs>
       <path id="CMSS17-44" d="M 570 4416 
L 570 0 
L 2144 0 
C 3194 0 4000 980 4000 2170 
C 4000 3398 3194 4416 2144 4416 
L 570 4416 
z
M 1094 357 
L 1094 4059 
L 2003 4059 
C 2861 4059 3475 3277 3475 2170 
C 3475 1107 2867 357 2003 357 
L 1094 357 
z
" transform="scale(0.015625)"/>
       <path id="CMSS17-65" d="M 2502 1377 
C 2502 1590 2490 2003 2285 2345 
C 2061 2713 1696 2816 1421 2816 
C 755 2816 192 2188 192 1375 
C 192 582 774 -64 1510 -64 
C 1798 -64 2150 19 2470 248 
C 2470 274 2458 414 2451 420 
C 2451 433 2432 630 2432 656 
C 2125 407 1773 325 1517 325 
C 1107 325 666 667 646 1377 
L 2502 1377 
z
M 698 1728 
C 781 2084 1062 2421 1421 2421 
C 1517 2421 1965 2421 2080 1728 
L 698 1728 
z
" transform="scale(0.015625)"/>
       <path id="CMSS17-70" d="M 966 333 
C 1178 129 1466 -5 1773 -5 
C 2368 -5 2880 603 2880 1412 
C 2880 2159 2496 2816 1946 2816 
C 1626 2816 1242 2702 954 2472 
L 954 2765 
L 480 2765 
L 480 -1216 
L 966 -1216 
L 966 333 
z
M 966 2100 
C 1018 2176 1235 2415 1587 2415 
C 2035 2415 2394 1960 2394 1412 
C 2394 787 1958 384 1530 384 
C 1402 384 1267 415 1139 523 
C 966 674 966 768 966 857 
L 966 2100 
z
" transform="scale(0.015625)"/>
       <path id="CMSS17-74" d="M 1069 2368 
L 1901 2368 
L 1901 2737 
L 1069 2737 
L 1069 3520 
L 614 3520 
L 614 2737 
L 109 2737 
L 109 2368 
L 602 2368 
L 602 749 
C 602 384 685 -64 1107 -64 
C 1427 -64 1722 25 2003 172 
L 1901 548 
C 1747 414 1562 337 1363 337 
C 1082 337 1069 696 1069 856 
L 1069 2368 
z
" transform="scale(0.015625)"/>
       <path id="CMSS17-68" d="M 2618 1891 
C 2618 2292 2522 2820 1798 2820 
C 1395 2820 1133 2623 947 2407 
L 947 4448 
L 474 4448 
L 474 32 
L 960 32 
L 960 1573 
C 960 1973 1114 2432 1549 2432 
C 2112 2432 2131 2056 2131 1839 
L 2131 32 
L 2618 32 
L 2618 1891 
z
" transform="scale(0.015625)"/>
      </defs>
      <use xlink:href="#CMSS17-44" transform="scale(0.996264)"/>
      <use xlink:href="#CMSS17-65" transform="translate(67.542842 0) scale(0.996264)"/>
      <use xlink:href="#CMSS17-70" transform="translate(109.181664 0) scale(0.996264)"/>
      <use xlink:href="#CMSS17-74" transform="translate(157.386607 0) scale(0.996264)"/>
      <use xlink:href="#CMSS17-68" transform="translate(191.218174 0) scale(0.996264)"/>
     </g>
    </g>
   </g>
   <g id="matplotlib.axis_2">
    <g id="ytick_1">
     <g id="text_8">
      <!-- $\mathdefault{1.0}$ -->
      <g style="fill: #262626" transform="translate(39.381364 266.448836) scale(0.165 -0.165)">
       <defs>
        <path id="CMMI12-3a" d="M 1178 307 
C 1178 492 1024 619 870 619 
C 685 619 557 466 557 313 
C 557 128 710 0 864 0 
C 1050 0 1178 153 1178 307 
z
" transform="scale(0.015625)"/>
       </defs>
       <use xlink:href="#CMR17-31" transform="scale(0.996264)"/>
       <use xlink:href="#CMMI12-3a" transform="translate(45.690477 0) scale(0.996264)"/>
       <use xlink:href="#CMR17-30" transform="translate(72.787654 0) scale(0.996264)"/>
      </g>
     </g>
    </g>
    <g id="ytick_2">
     <g id="text_9">
      <!-- $\mathdefault{1.2}$ -->
      <g style="fill: #262626" transform="translate(39.381364 201.786067) scale(0.165 -0.165)">
       <use xlink:href="#CMR17-31" transform="scale(0.996264)"/>
       <use xlink:href="#CMMI12-3a" transform="translate(45.690477 0) scale(0.996264)"/>
       <use xlink:href="#CMR17-32" transform="translate(72.787654 0) scale(0.996264)"/>
      </g>
     </g>
    </g>
    <g id="ytick_3">
     <g id="text_10">
      <!-- $\mathdefault{1.4}$ -->
      <g style="fill: #262626" transform="translate(39.381364 137.123299) scale(0.165 -0.165)">
       <use xlink:href="#CMR17-31" transform="scale(0.996264)"/>
       <use xlink:href="#CMMI12-3a" transform="translate(45.690477 0) scale(0.996264)"/>
       <use xlink:href="#CMR17-34" transform="translate(72.787654 0) scale(0.996264)"/>
      </g>
     </g>
    </g>
    <g id="ytick_4">
     <g id="text_11">
      <!-- $\mathdefault{1.6}$ -->
      <g style="fill: #262626" transform="translate(39.381364 72.46053) scale(0.165 -0.165)">
       <defs>
        <path id="CMR17-36" d="M 678 2176 
C 678 3690 1395 4032 1811 4032 
C 1946 4032 2272 4009 2400 3776 
C 2298 3776 2106 3776 2106 3553 
C 2106 3381 2246 3323 2336 3323 
C 2394 3323 2566 3348 2566 3560 
C 2566 3954 2246 4179 1805 4179 
C 1043 4179 243 3390 243 1984 
C 243 253 966 -128 1478 -128 
C 2099 -128 2688 427 2688 1283 
C 2688 2081 2170 2662 1517 2662 
C 1126 2662 838 2407 678 1960 
L 678 2176 
z
M 1478 25 
C 691 25 691 1200 691 1436 
C 691 1896 909 2560 1504 2560 
C 1613 2560 1926 2560 2138 2120 
C 2253 1870 2253 1609 2253 1289 
C 2253 944 2253 690 2118 434 
C 1978 171 1773 25 1478 25 
z
" transform="scale(0.015625)"/>
       </defs>
       <use xlink:href="#CMR17-31" transform="scale(0.996264)"/>
       <use xlink:href="#CMMI12-3a" transform="translate(45.690477 0) scale(0.996264)"/>
       <use xlink:href="#CMR17-36" transform="translate(72.787654 0) scale(0.996264)"/>
      </g>
     </g>
    </g>
    <g id="text_12">
     <!-- Average Number of Bounds -->
     <g style="fill: #262626" transform="translate(31.8933 254.023475) rotate(-90) scale(0.18 -0.18)">
      <defs>
       <path id="CMSS17-41" d="M 2272 4416 
L 1722 4416 
L 166 0 
L 653 0 
L 1101 1280 
L 2816 1280 
L 3270 0 
L 3827 0 
L 2272 4416 
z
M 2694 1637 
L 1222 1637 
C 1530 2528 1914 3638 1958 3925 
L 1965 3925 
C 2010 3663 2138 3281 2246 2956 
L 2694 1637 
z
" transform="scale(0.015625)"/>
       <path id="CMSS17-76" d="M 2675 2752 
L 2176 2752 
L 1747 1556 
C 1613 1165 1421 627 1389 352 
L 1382 352 
C 1370 468 1318 634 1286 749 
C 1248 890 1197 1056 1158 1172 
L 595 2752 
L 83 2752 
L 1094 0 
L 1664 0 
L 2675 2752 
z
" transform="scale(0.015625)"/>
       <path id="CMSS17-72" d="M 954 1363 
C 954 1965 1395 2368 1958 2368 
L 1958 2789 
C 1549 2789 1165 2585 934 2253 
L 934 2758 
L 480 2758 
L 480 0 
L 954 0 
L 954 1363 
z
" transform="scale(0.015625)"/>
       <path id="CMSS17-61" d="M 2406 1791 
C 2406 2392 1978 2808 1402 2808 
C 1120 2808 813 2757 461 2553 
L 499 2135 
C 659 2248 934 2432 1395 2432 
C 1722 2432 1920 2180 1920 1782 
L 1920 1536 
C 896 1536 256 1238 256 726 
C 256 461 416 -64 947 -64 
C 1043 -64 1562 -64 1933 217 
L 1933 -19 
L 2406 -19 
L 2406 1791 
z
M 1920 816 
C 1920 701 1920 548 1728 434 
C 1562 325 1350 325 1261 325 
C 941 325 723 511 723 744 
C 723 1211 1722 1211 1920 1211 
L 1920 816 
z
" transform="scale(0.015625)"/>
       <path id="CMSS17-67" d="M 2848 2808 
C 2483 2808 2170 2738 1914 2617 
C 1702 2777 1485 2808 1338 2808 
C 781 2808 358 2349 358 1814 
C 358 1468 550 1207 563 1195 
C 448 1035 384 863 384 672 
C 384 448 474 289 544 200 
C 211 -3 166 -314 166 -435 
C 166 -898 749 -1280 1498 -1280 
C 2253 -1280 2835 -898 2835 -428 
C 2835 448 1856 448 1587 448 
L 1069 448 
C 973 448 717 448 717 791 
C 717 921 774 1004 781 1010 
C 877 940 1075 832 1338 832 
C 1869 832 2310 1278 2310 1827 
C 2310 2132 2170 2355 2112 2432 
L 2131 2432 
C 2150 2432 2419 2432 2515 2432 
C 2720 2432 2739 2429 2918 2419 
L 2848 2808 
z
M 1338 1182 
C 1120 1182 813 1315 813 1823 
C 813 2375 1165 2464 1331 2464 
C 1549 2464 1856 2331 1856 1823 
C 1856 1271 1504 1182 1338 1182 
z
M 1581 -10 
C 1734 -10 2381 -10 2381 -442 
C 2381 -714 1984 -929 1504 -929 
C 1018 -929 621 -720 621 -435 
C 621 -403 621 -10 1062 -10 
L 1581 -10 
z
" transform="scale(0.015625)"/>
       <path id="CMSS17-4e" d="M 1466 4180 
L 1350 4416 
L 563 4416 
L 563 0 
L 1062 0 
L 1062 3926 
L 1069 3932 
C 1114 3817 1139 3760 1402 3194 
L 2771 236 
L 2886 0 
L 3674 0 
L 3674 4416 
L 3174 4416 
L 3174 490 
L 3168 483 
C 3123 598 3098 655 2835 1221 
L 1466 4180 
z
" transform="scale(0.015625)"/>
       <path id="CMSS17-75" d="M 2618 2739 
L 2131 2739 
L 2131 972 
C 2131 498 1786 306 1421 306 
C 998 306 960 447 960 709 
L 960 2739 
L 474 2739 
L 474 678 
C 474 179 646 -64 1088 -64 
C 1306 -64 1798 -13 2144 306 
L 2144 0 
L 2618 0 
L 2618 2739 
z
" transform="scale(0.015625)"/>
       <path id="CMSS17-6d" d="M 4288 1877 
C 4288 2308 4179 2816 3462 2816 
C 2982 2816 2694 2516 2566 2331 
C 2451 2670 2182 2816 1798 2816 
C 1363 2816 1088 2568 941 2389 
L 941 2758 
L 474 2758 
L 474 0 
L 960 0 
L 960 1559 
C 960 1939 1101 2428 1555 2428 
C 2138 2428 2138 2016 2138 1829 
L 2138 0 
L 2624 0 
L 2624 1559 
C 2624 1939 2765 2428 3219 2428 
C 3802 2428 3802 2016 3802 1829 
L 3802 0 
L 4288 0 
L 4288 1877 
z
" transform="scale(0.015625)"/>
       <path id="CMSS17-62" d="M 954 4416 
L 480 4416 
L 480 -13 
L 966 -13 
L 966 274 
C 1210 38 1504 -64 1766 -64 
C 2381 -64 2880 549 2880 1352 
C 2880 2086 2496 2756 1926 2756 
C 1523 2756 1165 2591 954 2419 
L 954 4416 
z
M 966 2046 
C 1107 2222 1306 2368 1587 2368 
C 1965 2368 2394 2097 2394 1352 
C 2394 558 1882 325 1530 325 
C 1402 325 1267 356 1139 464 
C 966 615 966 709 966 797 
L 966 2046 
z
" transform="scale(0.015625)"/>
       <path id="CMSS17-6f" d="M 2829 1356 
C 2829 2176 2221 2816 1504 2816 
C 768 2816 173 2157 173 1356 
C 173 544 787 -64 1498 -64 
C 2227 -64 2829 563 2829 1356 
z
M 1504 337 
C 1050 337 659 709 659 1408 
C 659 2151 1114 2427 1498 2427 
C 1914 2427 2342 2126 2342 1408 
C 2342 683 1926 337 1504 337 
z
" transform="scale(0.015625)"/>
       <path id="CMSS17-66" d="M 1075 2368 
L 1722 2368 
L 1722 2737 
L 1062 2737 
L 1062 3559 
C 1062 4014 1408 4092 1606 4092 
C 1670 4092 1850 4092 2080 4009 
L 2080 4429 
C 1933 4461 1754 4480 1613 4480 
C 1018 4480 602 3993 602 3359 
L 602 2737 
L 160 2737 
L 160 2368 
L 602 2368 
L 602 0 
L 1075 0 
L 1075 2368 
z
" transform="scale(0.015625)"/>
       <path id="CMSS17-42" d="M 570 4416 
L 570 0 
L 2163 0 
C 3034 0 3667 574 3667 1200 
C 3667 1685 3251 2176 2502 2317 
C 3334 2558 3501 3040 3501 3313 
C 3501 3883 2874 4416 1997 4416 
L 570 4416 
z
M 1088 2496 
L 1088 4059 
L 1824 4059 
C 2483 4059 3002 3724 3002 3306 
C 3002 2926 2592 2496 1766 2496 
L 1088 2496 
z
M 1088 357 
L 1088 2107 
L 1939 2107 
C 2630 2107 3162 1679 3162 1206 
C 3162 772 2694 357 1984 357 
L 1088 357 
z
" transform="scale(0.015625)"/>
       <path id="CMSS17-6e" d="M 2618 1877 
C 2618 2283 2522 2816 1798 2816 
C 1389 2816 1120 2606 941 2389 
L 941 2758 
L 474 2758 
L 474 0 
L 960 0 
L 960 1559 
C 960 1964 1114 2428 1549 2428 
C 2112 2428 2131 2048 2131 1829 
L 2131 0 
L 2618 0 
L 2618 1877 
z
" transform="scale(0.015625)"/>
       <path id="CMSS17-64" d="M 2611 4416 
L 2138 4416 
L 2138 2438 
C 1939 2603 1613 2756 1254 2756 
C 672 2756 211 2131 211 1347 
C 211 562 666 -64 1235 -64 
C 1677 -64 1971 172 2125 306 
L 2125 -13 
L 2611 -13 
L 2611 4416 
z
M 2125 836 
C 2125 747 2125 653 1926 482 
C 1798 375 1645 325 1498 325 
C 1152 325 698 576 698 1340 
C 698 2134 1210 2368 1562 2368 
C 1798 2368 1990 2254 2125 2065 
L 2125 836 
z
" transform="scale(0.015625)"/>
       <path id="CMSS17-73" d="M 2061 2627 
C 1683 2807 1389 2807 1197 2807 
C 742 2807 198 2648 198 2003 
C 198 1359 902 1218 1094 1179 
C 1389 1122 1715 1058 1715 740 
C 1715 337 1254 337 1171 337 
C 915 337 563 407 243 638 
L 166 210 
C 531 0 883 -64 1178 -64 
C 1965 -64 2163 416 2163 781 
C 2163 1094 1984 1305 1862 1401 
C 1651 1568 1574 1587 1050 1696 
C 960 1709 646 1779 646 2066 
C 646 2432 1050 2432 1139 2432 
C 1555 2432 1811 2303 1984 2208 
L 2061 2627 
z
" transform="scale(0.015625)"/>
      </defs>
      <use xlink:href="#CMSS17-41" transform="scale(0.996264)"/>
      <use xlink:href="#CMSS17-76" transform="translate(62.217855 0) scale(0.996264)"/>
      <use xlink:href="#CMSS17-65" transform="translate(105.217997 0) scale(0.996264)"/>
      <use xlink:href="#CMSS17-72" transform="translate(146.856819 0) scale(0.996264)"/>
      <use xlink:href="#CMSS17-61" transform="translate(178.766591 0) scale(0.996264)"/>
      <use xlink:href="#CMSS17-67" transform="translate(223.688512 0) scale(0.996264)"/>
      <use xlink:href="#CMSS17-65" transform="translate(270.532135 0) scale(0.996264)"/>
      <use xlink:href="#CMSS17-4e" transform="translate(343.40007 0) scale(0.996264)"/>
      <use xlink:href="#CMSS17-75" transform="translate(409.461589 0) scale(0.996264)"/>
      <use xlink:href="#CMSS17-6d" transform="translate(457.666532 0) scale(0.996264)"/>
      <use xlink:href="#CMSS17-62" transform="translate(531.895787 0) scale(0.996264)"/>
      <use xlink:href="#CMSS17-65" transform="translate(582.703169 0) scale(0.996264)"/>
      <use xlink:href="#CMSS17-72" transform="translate(624.341991 0) scale(0.996264)"/>
      <use xlink:href="#CMSS17-6f" transform="translate(687.480876 0) scale(0.996264)"/>
      <use xlink:href="#CMSS17-66" transform="translate(734.3245 0) scale(0.996264)"/>
      <use xlink:href="#CMSS17-42" transform="translate(794.180271 0) scale(0.996264)"/>
      <use xlink:href="#CMSS17-6f" transform="translate(856.518311 0) scale(0.996264)"/>
      <use xlink:href="#CMSS17-75" transform="translate(903.361935 0) scale(0.996264)"/>
      <use xlink:href="#CMSS17-6e" transform="translate(951.566878 0) scale(0.996264)"/>
      <use xlink:href="#CMSS17-64" transform="translate(999.771821 0) scale(0.996264)"/>
      <use xlink:href="#CMSS17-73" transform="translate(1047.976764 0) scale(0.996264)"/>
     </g>
    </g>
   </g>
   <g id="PolyCollection_1">
    <defs>
     <path id="m496b01f495" d="M 91.564451 -122.247275 
L 91.564451 -102.957393 
L 93.485692 -146.202624 
L 95.406934 -181.097021 
L 97.328175 -198.544228 
L 99.249417 -197.704653 
L 101.170658 -187.669591 
L 103.091899 -180.423537 
L 105.013141 -180.733329 
L 106.934382 -186.614828 
L 108.855624 -193.261303 
L 110.776865 -197.085793 
L 112.698107 -198.071358 
L 114.619348 -198.354002 
L 116.540589 -199.78293 
L 118.461831 -201.917481 
L 120.383072 -204.90541 
L 122.304314 -208.881089 
L 124.225555 -212.470353 
L 126.146796 -215.359787 
L 128.068038 -219.140378 
L 129.989279 -224.028077 
L 131.910521 -229.727633 
L 133.831762 -235.201353 
L 135.753004 -240.470404 
L 137.674245 -246.287397 
L 139.595486 -253.159223 
L 141.516728 -260.737339 
L 143.437969 -267.739313 
L 145.359211 -273.489609 
L 147.280452 -278.854912 
L 149.201693 -284.962595 
L 151.122935 -290.301831 
L 153.044176 -294.25404 
L 154.965418 -296.664997 
L 156.886659 -298.866036 
L 158.807901 -302.652978 
L 160.729142 -305.955837 
L 162.650383 -306.142743 
L 164.571625 -303.773247 
L 166.492866 -302.437747 
L 168.414108 -301.972511 
L 170.335349 -301.387325 
L 172.25659 -300.57204 
L 174.177832 -299.059568 
L 176.099073 -296.804881 
L 178.020315 -293.764227 
L 179.941556 -292.112212 
L 181.862798 -291.934591 
L 183.784039 -291.133088 
L 185.70528 -289.667501 
L 187.626522 -287.241758 
L 189.547763 -284.609572 
L 191.469005 -280.609395 
L 193.390246 -277.113619 
L 195.311487 -275.669601 
L 197.232729 -274.882941 
L 199.15397 -275.770074 
L 201.075212 -275.872948 
L 202.996453 -275.429307 
L 204.917695 -275.985255 
L 206.838936 -276.379298 
L 208.760177 -276.259609 
L 210.681419 -273.748445 
L 212.60266 -270.203683 
L 214.523902 -267.964793 
L 216.445143 -269.405316 
L 218.366384 -272.095781 
L 220.287626 -273.148868 
L 222.208867 -274.396983 
L 224.130109 -276.06484 
L 226.05135 -277.08169 
L 227.972592 -277.602249 
L 229.893833 -280.892871 
L 231.815074 -284.999555 
L 233.736316 -286.652704 
L 235.657557 -284.087668 
L 237.578799 -280.276938 
L 239.50004 -279.280558 
L 241.421281 -279.62138 
L 243.342523 -278.195668 
L 245.263764 -277.086428 
L 247.185006 -277.243713 
L 249.106247 -278.724078 
L 251.027489 -278.39603 
L 252.94873 -275.39288 
L 254.869971 -272.078998 
L 256.791213 -268.587597 
L 258.712454 -264.372019 
L 260.633696 -261.888598 
L 262.554937 -262.194523 
L 264.476178 -263.254677 
L 266.39742 -263.114776 
L 268.318661 -261.403974 
L 270.239903 -257.955533 
L 272.161144 -254.357275 
L 274.082386 -252.134061 
L 276.003627 -251.381371 
L 277.924868 -252.505317 
L 279.84611 -252.933799 
L 281.767351 -249.772759 
L 283.688593 -246.974814 
L 285.609834 -242.862843 
L 287.531075 -236.855291 
L 289.452317 -236.348107 
L 291.373558 -241.614813 
L 293.2948 -245.681422 
L 295.216041 -245.475382 
L 297.137283 -241.936472 
L 299.058524 -239.005762 
L 300.979765 -235.373412 
L 302.901007 -231.900599 
L 304.822248 -231.889111 
L 306.74349 -232.253077 
L 308.664731 -230.551899 
L 310.585972 -228.200459 
L 312.507214 -225.422289 
L 314.428455 -221.791428 
L 316.349697 -218.964222 
L 318.270938 -216.21745 
L 320.19218 -214.896823 
L 322.113421 -213.366614 
L 324.034662 -214.402896 
L 325.955904 -216.825934 
L 327.877145 -216.099223 
L 329.798387 -209.915006 
L 331.719628 -202.518345 
L 333.640869 -198.606055 
L 335.562111 -199.834038 
L 337.483352 -201.550442 
L 339.404594 -200.338083 
L 341.325835 -197.905088 
L 343.247076 -195.392283 
L 345.168318 -193.610213 
L 347.089559 -192.212736 
L 349.010801 -190.87633 
L 350.932042 -189.365287 
L 352.853284 -187.717171 
L 354.774525 -185.465845 
L 356.695766 -183.167584 
L 358.617008 -181.098371 
L 360.538249 -177.329868 
L 362.459491 -171.72933 
L 364.380732 -162.493894 
L 366.301973 -152.915295 
L 368.223215 -146.664314 
L 370.144456 -142.74697 
L 372.065698 -139.128585 
L 373.986939 -134.548021 
L 375.908181 -130.647607 
L 377.829422 -125.452745 
L 379.750663 -122.92984 
L 381.671905 -122.866077 
L 383.593146 -121.883471 
L 385.514388 -118.270607 
L 387.435629 -112.065526 
L 389.35687 -107.138008 
L 391.278112 -105.007101 
L 393.199353 -104.387712 
L 395.120595 -102.471457 
L 397.041836 -99.102686 
L 398.963078 -94.41796 
L 400.884319 -91.684527 
L 402.80556 -89.707341 
L 404.726802 -90.466665 
L 406.648043 -94.059326 
L 408.569285 -96.539328 
L 410.490526 -95.132179 
L 412.411767 -91.970119 
L 414.333009 -90.034722 
L 416.25425 -89.919391 
L 418.175492 -91.919861 
L 420.096733 -94.62945 
L 422.017975 -94.244608 
L 423.939216 -91.727471 
L 425.860457 -90.723535 
L 427.781699 -90.877835 
L 429.70294 -89.97877 
L 431.624182 -88.140888 
L 433.545423 -85.77556 
L 435.466664 -84.610631 
L 437.387906 -84.384536 
L 439.309147 -87.003742 
L 441.230389 -91.989314 
L 443.15163 -92.595962 
L 445.072872 -89.539437 
L 446.994113 -88.044902 
L 448.915354 -85.120865 
L 450.836596 -80.950189 
L 452.757837 -81.502816 
L 454.679079 -85.871698 
L 456.60032 -85.866581 
L 458.521561 -83.017314 
L 460.442803 -81.96368 
L 462.364044 -83.403295 
L 464.285286 -83.00077 
L 466.206527 -80.759493 
L 468.127769 -83.001765 
L 470.04901 -88.1438 
L 471.970251 -91.842679 
L 473.891493 -96.528823 
L 473.891493 -138.363641 
L 473.891493 -138.363641 
L 471.970251 -162.866534 
L 470.04901 -179.006611 
L 468.127769 -186.345219 
L 466.206527 -184.164343 
L 464.285286 -176.219427 
L 462.364044 -173.278036 
L 460.442803 -176.121903 
L 458.521561 -181.112537 
L 456.60032 -189.963189 
L 454.679079 -194.476677 
L 452.757837 -187.796217 
L 450.836596 -178.977305 
L 448.915354 -177.723758 
L 446.994113 -185.030255 
L 445.072872 -191.362714 
L 443.15163 -193.343864 
L 441.230389 -193.779523 
L 439.309147 -192.789765 
L 437.387906 -188.745093 
L 435.466664 -180.338801 
L 433.545423 -167.659254 
L 431.624182 -154.150623 
L 429.70294 -146.006694 
L 427.781699 -145.794576 
L 425.860457 -149.530583 
L 423.939216 -153.89279 
L 422.017975 -157.53955 
L 420.096733 -156.798713 
L 418.175492 -151.088526 
L 416.25425 -145.410918 
L 414.333009 -141.631841 
L 412.411767 -139.028876 
L 410.490526 -137.909231 
L 408.569285 -138.252491 
L 406.648043 -138.81986 
L 404.726802 -141.841203 
L 402.80556 -148.145693 
L 400.884319 -156.529326 
L 398.963078 -165.134121 
L 397.041836 -174.197093 
L 395.120595 -180.686955 
L 393.199353 -183.623398 
L 391.278112 -184.395736 
L 389.35687 -186.878907 
L 387.435629 -193.524663 
L 385.514388 -202.110573 
L 383.593146 -208.488502 
L 381.671905 -211.460492 
L 379.750663 -212.660472 
L 377.829422 -214.725217 
L 375.908181 -218.085133 
L 373.986939 -222.615219 
L 372.065698 -229.065128 
L 370.144456 -235.870566 
L 368.223215 -242.784116 
L 366.301973 -251.202446 
L 364.380732 -261.7332 
L 362.459491 -271.380029 
L 360.538249 -277.085474 
L 358.617008 -279.672865 
L 356.695766 -280.541618 
L 354.774525 -280.812948 
L 352.853284 -280.492418 
L 350.932042 -279.818752 
L 349.010801 -279.044871 
L 347.089559 -278.364685 
L 345.168318 -278.051771 
L 343.247076 -278.032167 
L 341.325835 -278.322199 
L 339.404594 -278.396304 
L 337.483352 -277.80831 
L 335.562111 -276.298829 
L 333.640869 -275.648977 
L 331.719628 -277.879041 
L 329.798387 -282.251503 
L 327.877145 -285.947797 
L 325.955904 -286.302577 
L 324.034662 -284.059808 
L 322.113421 -281.473638 
L 320.19218 -280.062992 
L 318.270938 -279.700311 
L 316.349697 -281.146403 
L 314.428455 -283.519979 
L 312.507214 -286.473228 
L 310.585972 -288.891245 
L 308.664731 -290.481011 
L 306.74349 -291.049424 
L 304.822248 -290.613342 
L 302.901007 -290.649963 
L 300.979765 -292.714106 
L 299.058524 -295.715033 
L 297.137283 -298.418499 
L 295.216041 -300.162043 
L 293.2948 -299.422423 
L 291.373558 -296.265352 
L 289.452317 -292.805117 
L 287.531075 -292.333546 
L 285.609834 -295.150696 
L 283.688593 -298.323105 
L 281.767351 -300.978814 
L 279.84611 -302.980979 
L 277.924868 -303.221668 
L 276.003627 -303.05891 
L 274.082386 -303.756101 
L 272.161144 -305.469404 
L 270.239903 -308.079439 
L 268.318661 -310.558268 
L 266.39742 -311.905146 
L 264.476178 -312.043775 
L 262.554937 -311.530249 
L 260.633696 -311.645429 
L 258.712454 -313.376455 
L 256.791213 -316.238578 
L 254.869971 -319.067803 
L 252.94873 -321.502115 
L 251.027489 -323.137578 
L 249.106247 -323.215328 
L 247.185006 -322.346782 
L 245.263764 -322.002102 
L 243.342523 -322.563469 
L 241.421281 -323.443507 
L 239.50004 -323.997224 
L 237.578799 -325.193139 
L 235.657557 -327.123436 
L 233.736316 -328.102418 
L 231.815074 -326.888226 
L 229.893833 -324.040461 
L 227.972592 -321.104973 
L 226.05135 -319.060164 
L 224.130109 -317.051695 
L 222.208867 -314.932077 
L 220.287626 -312.922578 
L 218.366384 -311.047355 
L 216.445143 -309.116325 
L 214.523902 -308.279102 
L 212.60266 -309.346242 
L 210.681419 -311.379686 
L 208.760177 -313.136974 
L 206.838936 -313.719462 
L 204.917695 -313.487957 
L 202.996453 -312.792501 
L 201.075212 -312.218094 
L 199.15397 -311.536364 
L 197.232729 -310.876244 
L 195.311487 -311.206393 
L 193.390246 -312.4901 
L 191.469005 -314.848661 
L 189.547763 -317.374714 
L 187.626522 -319.250856 
L 185.70528 -320.61678 
L 183.784039 -321.298171 
L 181.862798 -321.492822 
L 179.941556 -321.531796 
L 178.020315 -322.237855 
L 176.099073 -323.521627 
L 174.177832 -324.613166 
L 172.25659 -325.312222 
L 170.335349 -325.631023 
L 168.414108 -325.768268 
L 166.492866 -325.850668 
L 164.571625 -326.091198 
L 162.650383 -326.228747 
L 160.729142 -325.020874 
L 158.807901 -322.27282 
L 156.886659 -318.858466 
L 154.965418 -315.497124 
L 153.044176 -311.751099 
L 151.122935 -307.149009 
L 149.201693 -301.666591 
L 147.280452 -295.559423 
L 145.359211 -289.287064 
L 143.437969 -282.601964 
L 141.516728 -275.33158 
L 139.595486 -267.834082 
L 137.674245 -260.68287 
L 135.753004 -254.114029 
L 133.831762 -248.011876 
L 131.910521 -242.144038 
L 129.989279 -236.511666 
L 128.068038 -231.460706 
L 126.146796 -227.104375 
L 124.225555 -223.291773 
L 122.304314 -219.521 
L 120.383072 -215.901955 
L 118.461831 -212.92245 
L 116.540589 -210.616418 
L 114.619348 -208.77879 
L 112.698107 -207.090947 
L 110.776865 -204.600392 
L 108.855624 -200.684274 
L 106.934382 -196.10331 
L 105.013141 -193.183124 
L 103.091899 -194.168897 
L 101.170658 -198.829028 
L 99.249417 -202.973759 
L 97.328175 -199.573074 
L 95.406934 -183.661162 
L 93.485692 -155.956985 
L 91.564451 -122.247275 
z
" style="stroke: #ffffff; stroke-opacity: 0.2; stroke-width: 1.5"/>
    </defs>
    <g clip-path="url(#pfe8e8c898b)">
     <use xlink:href="#m496b01f495" x="0" y="360" style="fill: #4c72b0; fill-opacity: 0.2; stroke: #ffffff; stroke-opacity: 0.2; stroke-width: 1.5"/>
    </g>
   </g>
   <g id="PolyCollection_2">
    <defs>
     <path id="m9a5bc7bd98" d="M 91.564451 -130.810311 
L 91.564451 -104.267518 
L 93.485692 -146.298721 
L 95.406934 -179.280973 
L 97.328175 -193.406844 
L 99.249417 -190.334018 
L 101.170658 -180.826975 
L 103.091899 -174.795675 
L 105.013141 -176.195379 
L 106.934382 -183.226596 
L 108.855624 -190.826007 
L 110.776865 -195.305864 
L 112.698107 -197.36889 
L 114.619348 -199.092015 
L 116.540589 -200.662576 
L 118.461831 -202.067334 
L 120.383072 -204.59374 
L 122.304314 -208.667221 
L 124.225555 -213.365287 
L 126.146796 -217.619414 
L 128.068038 -221.826002 
L 129.989279 -227.184096 
L 131.910521 -233.247653 
L 133.831762 -238.237754 
L 135.753004 -242.891685 
L 137.674245 -248.435773 
L 139.595486 -254.705784 
L 141.516728 -261.120331 
L 143.437969 -266.552774 
L 145.359211 -271.359748 
L 147.280452 -275.962168 
L 149.201693 -280.855213 
L 151.122935 -285.390097 
L 153.044176 -289.3794 
L 154.965418 -293.086426 
L 156.886659 -295.770318 
L 158.807901 -298.275201 
L 160.729142 -299.969181 
L 162.650383 -298.793238 
L 164.571625 -296.931761 
L 166.492866 -297.25823 
L 168.414108 -298.053025 
L 170.335349 -297.157804 
L 172.25659 -295.671722 
L 174.177832 -292.762419 
L 176.099073 -289.282467 
L 178.020315 -286.484649 
L 179.941556 -285.402281 
L 181.862798 -284.371941 
L 183.784039 -282.593714 
L 185.70528 -280.939288 
L 187.626522 -280.019376 
L 189.547763 -278.704191 
L 191.469005 -276.413538 
L 193.390246 -276.541453 
L 195.311487 -277.29422 
L 197.232729 -277.879909 
L 199.15397 -279.660053 
L 201.075212 -281.40375 
L 202.996453 -282.467279 
L 204.917695 -282.876085 
L 206.838936 -281.548123 
L 208.760177 -279.327728 
L 210.681419 -278.5173 
L 212.60266 -278.218752 
L 214.523902 -277.781569 
L 216.445143 -279.317068 
L 218.366384 -279.34059 
L 220.287626 -275.799195 
L 222.208867 -272.091542 
L 224.130109 -270.349738 
L 226.05135 -269.834661 
L 227.972592 -269.999263 
L 229.893833 -270.864081 
L 231.815074 -272.3828 
L 233.736316 -273.541304 
L 235.657557 -275.060223 
L 237.578799 -274.925308 
L 239.50004 -271.970044 
L 241.421281 -270.383651 
L 243.342523 -272.386669 
L 245.263764 -274.9706 
L 247.185006 -276.43415 
L 249.106247 -275.950169 
L 251.027489 -273.96506 
L 252.94873 -271.067359 
L 254.869971 -269.641444 
L 256.791213 -270.397988 
L 258.712454 -271.582758 
L 260.633696 -270.486369 
L 262.554937 -267.879108 
L 264.476178 -266.047515 
L 266.39742 -263.699352 
L 268.318661 -260.164272 
L 270.239903 -257.707827 
L 272.161144 -258.618589 
L 274.082386 -261.997223 
L 276.003627 -264.814901 
L 277.924868 -265.237417 
L 279.84611 -262.16109 
L 281.767351 -255.045256 
L 283.688593 -248.182792 
L 285.609834 -244.981249 
L 287.531075 -242.613268 
L 289.452317 -240.734732 
L 291.373558 -240.246294 
L 293.2948 -238.330993 
L 295.216041 -234.23924 
L 297.137283 -232.714386 
L 299.058524 -230.836433 
L 300.979765 -227.452682 
L 302.901007 -225.067412 
L 304.822248 -223.994182 
L 306.74349 -221.046818 
L 308.664731 -218.486838 
L 310.585972 -220.273297 
L 312.507214 -223.678662 
L 314.428455 -224.601655 
L 316.349697 -225.165228 
L 318.270938 -225.337177 
L 320.19218 -222.677957 
L 322.113421 -217.672626 
L 324.034662 -214.658463 
L 325.955904 -214.741438 
L 327.877145 -214.412609 
L 329.798387 -211.052385 
L 331.719628 -204.454137 
L 333.640869 -198.455758 
L 335.562111 -197.62885 
L 337.483352 -198.316331 
L 339.404594 -197.883542 
L 341.325835 -197.78479 
L 343.247076 -196.537286 
L 345.168318 -193.109803 
L 347.089559 -188.822876 
L 349.010801 -184.347611 
L 350.932042 -180.593883 
L 352.853284 -176.046361 
L 354.774525 -170.285016 
L 356.695766 -165.445661 
L 358.617008 -160.157922 
L 360.538249 -155.272551 
L 362.459491 -153.06382 
L 364.380732 -150.530417 
L 366.301973 -146.396442 
L 368.223215 -142.419792 
L 370.144456 -139.106395 
L 372.065698 -134.302942 
L 373.986939 -127.789928 
L 375.908181 -122.608602 
L 377.829422 -116.686787 
L 379.750663 -109.979294 
L 381.671905 -102.531994 
L 383.593146 -97.944485 
L 385.514388 -96.935879 
L 387.435629 -96.239796 
L 389.35687 -96.228741 
L 391.278112 -95.952041 
L 393.199353 -94.772806 
L 395.120595 -93.465062 
L 397.041836 -93.248624 
L 398.963078 -93.793353 
L 400.884319 -93.113141 
L 402.80556 -91.341054 
L 404.726802 -90.890885 
L 406.648043 -91.132247 
L 408.569285 -91.323437 
L 410.490526 -90.124968 
L 412.411767 -89.694289 
L 414.333009 -89.847431 
L 416.25425 -89.75529 
L 418.175492 -90.049937 
L 420.096733 -91.062173 
L 422.017975 -90.846273 
L 423.939216 -89.938449 
L 425.860457 -90.116783 
L 427.781699 -90.500604 
L 429.70294 -89.092229 
L 431.624182 -86.348246 
L 433.545423 -83.744189 
L 435.466664 -83.099404 
L 437.387906 -83.300854 
L 439.309147 -86.201727 
L 441.230389 -91.381334 
L 443.15163 -92.015669 
L 445.072872 -88.80645 
L 446.994113 -87.045485 
L 448.915354 -83.779284 
L 450.836596 -79.346082 
L 452.757837 -80.048149 
L 454.679079 -85.376558 
L 456.60032 -87.303706 
L 458.521561 -86.094806 
L 460.442803 -83.386882 
L 462.364044 -82.780259 
L 464.285286 -81.388806 
L 466.206527 -78.950778 
L 468.127769 -81.449275 
L 470.04901 -87.035753 
L 471.970251 -91.173473 
L 473.891493 -96.281523 
L 473.891493 -148.462652 
L 473.891493 -148.462652 
L 471.970251 -168.239278 
L 470.04901 -182.256936 
L 468.127769 -189.259224 
L 466.206527 -188.439209 
L 464.285286 -182.433429 
L 462.364044 -178.497851 
L 460.442803 -178.247029 
L 458.521561 -180.931323 
L 456.60032 -188.408472 
L 454.679079 -193.736046 
L 452.757837 -191.560495 
L 450.836596 -187.257855 
L 448.915354 -187.245898 
L 446.994113 -192.563361 
L 445.072872 -197.478846 
L 443.15163 -199.448197 
L 441.230389 -199.541457 
L 439.309147 -197.384996 
L 437.387906 -191.765753 
L 435.466664 -182.089685 
L 433.545423 -169.231046 
L 431.624182 -156.646248 
L 429.70294 -148.608037 
L 427.781699 -146.258466 
L 425.860457 -147.026284 
L 423.939216 -149.082682 
L 422.017975 -152.603677 
L 420.096733 -156.602934 
L 418.175492 -160.374295 
L 416.25425 -163.790297 
L 414.333009 -165.432337 
L 412.411767 -165.031143 
L 410.490526 -163.102343 
L 408.569285 -158.725313 
L 406.648043 -151.142301 
L 404.726802 -142.940248 
L 402.80556 -136.983271 
L 400.884319 -133.779162 
L 398.963078 -132.828171 
L 397.041836 -134.595349 
L 395.120595 -137.716761 
L 393.199353 -140.660255 
L 391.278112 -143.07523 
L 389.35687 -146.503095 
L 387.435629 -151.046713 
L 385.514388 -155.998691 
L 383.593146 -161.764781 
L 381.671905 -170.031629 
L 379.750663 -180.791105 
L 377.829422 -192.454144 
L 375.908181 -203.497069 
L 373.986939 -213.038174 
L 372.065698 -221.246887 
L 370.144456 -227.534875 
L 368.223215 -232.235973 
L 366.301973 -236.645102 
L 364.380732 -240.663054 
L 362.459491 -243.69448 
L 360.538249 -246.491334 
L 358.617008 -250.407591 
L 356.695766 -255.301375 
L 354.774525 -260.859376 
L 352.853284 -266.511734 
L 350.932042 -270.835795 
L 349.010801 -273.584441 
L 347.089559 -275.454939 
L 345.168318 -276.735539 
L 343.247076 -277.429896 
L 341.325835 -277.082956 
L 339.404594 -275.902239 
L 337.483352 -274.6465 
L 335.562111 -273.812867 
L 333.640869 -274.409664 
L 331.719628 -277.07556 
L 329.798387 -280.445931 
L 327.877145 -283.068716 
L 325.955904 -284.555747 
L 324.034662 -285.573813 
L 322.113421 -287.07426 
L 320.19218 -288.84831 
L 318.270938 -289.714857 
L 316.349697 -289.158232 
L 314.428455 -287.594526 
L 312.507214 -285.330002 
L 310.585972 -282.647365 
L 308.664731 -280.919784 
L 306.74349 -280.876053 
L 304.822248 -281.778305 
L 302.901007 -283.050798 
L 300.979765 -284.91796 
L 299.058524 -287.037247 
L 297.137283 -288.798136 
L 295.216041 -290.345135 
L 293.2948 -292.182295 
L 291.373558 -293.639489 
L 289.452317 -295.125079 
L 287.531075 -297.371592 
L 285.609834 -300.355181 
L 283.688593 -304.083269 
L 281.767351 -308.632046 
L 279.84611 -312.675845 
L 277.924868 -314.815515 
L 276.003627 -314.889748 
L 274.082386 -313.43327 
L 272.161144 -311.521827 
L 270.239903 -310.56744 
L 268.318661 -311.233245 
L 266.39742 -312.989795 
L 264.476178 -315.008764 
L 262.554937 -316.911656 
L 260.633696 -318.48213 
L 258.712454 -319.149469 
L 256.791213 -318.960434 
L 254.869971 -318.720844 
L 252.94873 -319.03712 
L 251.027489 -319.748188 
L 249.106247 -320.142368 
L 247.185006 -319.792272 
L 245.263764 -318.659963 
L 243.342523 -317.198892 
L 241.421281 -316.106118 
L 239.50004 -316.097642 
L 237.578799 -316.588627 
L 235.657557 -316.466536 
L 233.736316 -315.655148 
L 231.815074 -314.443374 
L 229.893833 -312.991764 
L 227.972592 -311.919735 
L 226.05135 -311.63865 
L 224.130109 -312.232833 
L 222.208867 -313.700934 
L 220.287626 -315.798917 
L 218.366384 -317.622358 
L 216.445143 -318.294842 
L 214.523902 -318.172552 
L 212.60266 -318.101545 
L 210.681419 -318.072966 
L 208.760177 -318.323288 
L 206.838936 -318.936184 
L 204.917695 -319.293849 
L 202.996453 -318.91284 
L 201.075212 -317.814619 
L 199.15397 -316.179713 
L 197.232729 -314.451774 
L 195.311487 -313.101155 
L 193.390246 -312.12131 
L 191.469005 -311.719544 
L 189.547763 -312.092062 
L 187.626522 -312.581126 
L 185.70528 -313.141151 
L 183.784039 -313.845294 
L 181.862798 -314.565044 
L 179.941556 -315.26749 
L 178.020315 -316.208185 
L 176.099073 -317.658868 
L 174.177832 -319.336666 
L 172.25659 -320.778788 
L 170.335349 -321.644995 
L 168.414108 -321.944834 
L 166.492866 -321.60446 
L 164.571625 -321.128686 
L 162.650383 -320.819821 
L 160.729142 -320.06437 
L 158.807901 -318.295061 
L 156.886659 -315.702108 
L 154.965418 -312.392376 
L 153.044176 -308.324019 
L 151.122935 -303.737034 
L 149.201693 -298.741353 
L 147.280452 -293.467426 
L 145.359211 -288.042435 
L 143.437969 -282.371457 
L 141.516728 -276.373562 
L 139.595486 -270.071825 
L 137.674245 -263.777571 
L 135.753004 -257.701014 
L 133.831762 -251.891739 
L 131.910521 -246.129377 
L 129.989279 -240.309503 
L 128.068038 -234.776535 
L 126.146796 -229.691369 
L 124.225555 -224.945785 
L 122.304314 -220.568935 
L 120.383072 -216.826 
L 118.461831 -213.876049 
L 116.540589 -211.472188 
L 114.619348 -209.061409 
L 112.698107 -206.252405 
L 110.776865 -202.783758 
L 108.855624 -198.518239 
L 106.934382 -194.089816 
L 105.013141 -191.121492 
L 103.091899 -190.981077 
L 101.170658 -193.151394 
L 99.249417 -194.609574 
L 97.328175 -190.758265 
L 95.406934 -177.991406 
L 93.485692 -156.58273 
L 91.564451 -130.810311 
z
" style="stroke: #ffffff; stroke-opacity: 0.2; stroke-width: 1.5"/>
    </defs>
    <g clip-path="url(#pfe8e8c898b)">
     <use xlink:href="#m9a5bc7bd98" x="0" y="360" style="fill: #dd8452; fill-opacity: 0.2; stroke: #ffffff; stroke-opacity: 0.2; stroke-width: 1.5"/>
    </g>
   </g>
   <g id="line2d_1">
    <path d="M 91.564451 250.637803 
L 93.485692 209.195692 
L 95.406934 175.977485 
L 97.328175 158.97753 
L 99.249417 158.664237 
L 101.170658 167.104742 
L 103.091899 173.877398 
L 105.013141 174.141558 
L 106.934382 169.083952 
L 108.855624 162.823193 
L 110.776865 158.699592 
L 112.698107 157.089751 
L 114.619348 156.366513 
L 116.540589 154.912629 
L 118.461831 152.722464 
L 120.383072 149.663181 
L 124.225555 142.069716 
L 126.146796 138.760285 
L 128.068038 134.731503 
L 129.989279 129.748924 
L 135.753004 112.741491 
L 137.674245 106.576417 
L 139.595486 99.542973 
L 143.437969 84.782502 
L 145.359211 78.586266 
L 151.122935 61.231038 
L 153.044176 56.990552 
L 154.965418 53.978809 
L 156.886659 51.202665 
L 158.807901 47.517289 
L 160.729142 44.394466 
L 162.650383 43.702742 
L 164.571625 45.069999 
L 166.492866 45.95092 
L 170.335349 46.498062 
L 172.25659 46.997966 
L 174.177832 48.089089 
L 176.099073 49.837969 
L 178.020315 52.099952 
L 179.941556 53.314056 
L 181.862798 53.331463 
L 183.784039 53.721275 
L 185.70528 54.742789 
L 187.626522 56.617798 
L 189.547763 58.894323 
L 191.469005 62.254036 
L 193.390246 65.333626 
L 195.311487 66.755994 
L 197.232729 67.234824 
L 199.15397 66.359901 
L 201.075212 65.949234 
L 202.996453 65.879475 
L 204.917695 65.170949 
L 206.838936 64.7483 
L 208.760177 65.099295 
L 210.681419 67.395031 
L 212.60266 70.389308 
L 214.523902 72.130212 
L 216.445143 70.887782 
L 218.366384 68.407666 
L 222.208867 65.243596 
L 224.130109 63.43579 
L 226.05135 62.043377 
L 227.972592 60.825 
L 229.893833 57.558784 
L 231.815074 53.825466 
L 233.736316 52.336221 
L 235.657557 54.283676 
L 237.578799 57.366978 
L 239.50004 58.499025 
L 241.421281 58.498159 
L 243.342523 59.688957 
L 245.263764 60.662208 
L 247.185006 60.320977 
L 249.106247 58.917535 
L 251.027489 58.977194 
L 252.94873 61.33514 
L 254.869971 64.322955 
L 256.791213 67.643603 
L 258.712454 71.368793 
L 260.633696 73.548704 
L 262.554937 73.28236 
L 264.476178 72.206626 
L 266.39742 72.175378 
L 268.318661 73.761258 
L 272.161144 80.31611 
L 274.082386 82.339582 
L 276.003627 82.956837 
L 277.924868 82.058171 
L 279.84611 81.701537 
L 281.767351 84.258826 
L 283.688593 87.166286 
L 285.609834 91.202748 
L 287.531075 96.025989 
L 289.452317 95.953799 
L 291.373558 91.058264 
L 293.2948 86.977089 
L 295.216041 86.62485 
L 297.137283 89.497446 
L 299.058524 92.693928 
L 300.979765 96.360614 
L 302.901007 99.185643 
L 304.822248 98.904112 
L 306.74349 98.170696 
L 308.664731 99.168746 
L 310.585972 101.17915 
L 312.507214 103.894228 
L 314.428455 107.374752 
L 316.349697 110.147811 
L 318.270938 112.429143 
L 320.19218 112.874229 
L 322.113421 112.782099 
L 324.034662 110.573568 
L 325.955904 107.830048 
L 327.877145 108.330481 
L 329.798387 113.838017 
L 331.719628 120.305678 
L 333.640869 123.440196 
L 335.562111 122.109642 
L 337.483352 120.117859 
L 339.404594 120.375531 
L 341.325835 121.751826 
L 343.247076 123.306197 
L 345.168318 124.242407 
L 347.089559 124.822514 
L 350.932042 125.440434 
L 352.853284 125.965891 
L 354.774525 126.964571 
L 358.617008 129.568326 
L 360.538249 132.211584 
L 362.459491 137.710209 
L 366.301973 158.534279 
L 368.223215 165.578085 
L 370.144456 170.490658 
L 372.065698 175.800424 
L 373.986939 181.750053 
L 377.829422 190.166336 
L 379.750663 192.306663 
L 381.671905 192.291674 
L 383.593146 193.789491 
L 385.514388 199.254108 
L 387.435629 207.895512 
L 389.35687 214.390764 
L 391.278112 215.949806 
L 393.199353 215.433994 
L 395.120595 217.360078 
L 397.041836 222.693184 
L 398.963078 230.249118 
L 402.80556 241.320135 
L 404.726802 244.329262 
L 406.648043 243.925962 
L 408.569285 242.47944 
L 412.411767 244.535014 
L 414.333009 244.388643 
L 416.25425 242.993596 
L 418.175492 238.680006 
L 420.096733 233.108296 
L 422.017975 232.757317 
L 423.939216 236.462871 
L 427.781699 242.732698 
L 429.70294 244.431945 
L 431.624182 240.473353 
L 433.545423 232.750878 
L 435.466664 225.935087 
L 437.387906 222.067726 
L 439.309147 219.715156 
L 441.230389 217.776151 
L 443.15163 217.011672 
L 445.072872 217.878147 
L 446.994113 223.297954 
L 448.915354 231.785555 
L 450.836596 232.585775 
L 454.679079 216.101278 
L 456.60032 220.485964 
L 458.521561 228.924986 
L 460.442803 232.121049 
L 462.364044 234.360598 
L 464.285286 232.709187 
L 466.206527 225.97752 
L 468.127769 222.264698 
L 470.04901 224.113543 
L 471.970251 232.11061 
L 473.891493 247.714208 
L 473.891493 247.714208 
" clip-path="url(#pfe8e8c898b)" style="fill: none; stroke: #4c72b0; stroke-width: 2.25; stroke-linecap: round"/>
   </g>
   <g id="line2d_2">
    <path d="M 91.564451 249.076054 
L 93.485692 209.184268 
L 95.406934 177.988282 
L 97.328175 163.86174 
L 99.249417 165.478414 
L 101.170658 173.689209 
L 103.091899 179.432975 
L 105.013141 178.581941 
L 106.934382 172.348593 
L 108.855624 165.065573 
L 110.776865 160.131713 
L 112.698107 157.462786 
L 114.619348 155.548999 
L 118.461831 152.292817 
L 120.383072 149.613126 
L 122.304314 145.565782 
L 128.068038 131.704464 
L 129.989279 126.216428 
L 131.910521 120.205623 
L 137.674245 104.010186 
L 141.516728 91.158549 
L 143.437969 85.432855 
L 149.201693 70.298661 
L 151.122935 65.497625 
L 153.044176 61.143164 
L 154.965418 57.1692 
L 156.886659 54.128417 
L 158.807901 51.527431 
L 160.729142 49.820275 
L 162.650383 50.284115 
L 164.571625 51.276129 
L 166.492866 50.742443 
L 168.414108 49.88778 
L 170.335349 50.358439 
L 172.25659 51.555029 
L 174.177832 53.900709 
L 176.099073 56.705705 
L 178.020315 58.917301 
L 179.941556 59.799835 
L 181.862798 60.479778 
L 185.70528 62.83874 
L 187.626522 63.59549 
L 189.547763 64.580539 
L 191.469005 66.11932 
L 193.390246 65.899839 
L 197.232729 63.996994 
L 201.075212 60.120906 
L 202.996453 58.910919 
L 204.917695 58.614553 
L 206.838936 59.785144 
L 208.760177 61.502834 
L 210.681419 62.06542 
L 214.523902 62.012632 
L 216.445143 60.761936 
L 218.366384 60.917923 
L 220.287626 63.937751 
L 222.208867 67.316605 
L 224.130109 69.136037 
L 226.05135 69.704289 
L 227.972592 69.40084 
L 229.893833 68.160407 
L 231.815074 66.336947 
L 233.736316 64.979613 
L 235.657557 63.784383 
L 237.578799 64.020873 
L 239.50004 66.303729 
L 241.421281 67.386872 
L 243.342523 65.530626 
L 245.263764 63.032658 
L 247.185006 61.419982 
L 249.106247 61.525017 
L 251.027489 63.097744 
L 252.94873 65.347489 
L 254.869971 66.313123 
L 256.791213 65.448496 
L 258.712454 64.285676 
L 260.633696 64.991344 
L 262.554937 67.232151 
L 264.476178 69.293531 
L 266.39742 71.782397 
L 268.318661 74.91541 
L 270.239903 76.793639 
L 272.161144 75.557177 
L 274.082386 72.181798 
L 276.003627 69.421927 
L 277.924868 68.976714 
L 279.84611 71.802235 
L 283.688593 84.390894 
L 285.609834 87.894678 
L 287.531075 90.426271 
L 289.452317 92.316648 
L 291.373558 92.986672 
L 293.2948 94.504799 
L 295.216041 97.60566 
L 297.137283 99.04246 
L 299.058524 100.798975 
L 300.979765 103.700321 
L 302.901007 105.950648 
L 304.822248 107.175843 
L 306.74349 109.390879 
L 308.664731 110.972422 
L 310.585972 109.006227 
L 312.507214 105.386337 
L 314.428455 103.479351 
L 316.349697 102.281493 
L 318.270938 101.935545 
L 320.19218 104.163328 
L 322.113421 108.137119 
L 324.034662 110.363085 
L 325.955904 110.147402 
L 327.877145 110.495399 
L 329.798387 113.681086 
L 331.719628 119.492735 
L 333.640869 124.520222 
L 335.562111 125.073457 
L 337.483352 123.742702 
L 341.325835 122.063942 
L 343.247076 122.721029 
L 345.168318 125.252082 
L 349.010801 130.846166 
L 350.932042 133.509247 
L 352.853284 138.02903 
L 354.774525 144.541346 
L 356.695766 150.295065 
L 358.617008 155.516419 
L 360.538249 159.686471 
L 362.459491 161.433682 
L 364.380732 163.948549 
L 368.223215 173.063352 
L 370.144456 176.433198 
L 372.065698 181.626808 
L 375.908181 196.123412 
L 377.829422 205.017086 
L 381.671905 225.012077 
L 383.593146 231.088945 
L 385.514388 233.320497 
L 387.435629 235.880007 
L 389.35687 238.909984 
L 391.278112 240.704423 
L 393.199353 241.18076 
L 395.120595 243.182841 
L 397.041836 245.99826 
L 398.963078 247.76023 
L 400.884319 247.584088 
L 402.80556 247.258622 
L 404.726802 244.394319 
L 406.648043 238.39767 
L 408.569285 233.087228 
L 410.490526 232.263349 
L 412.411767 232.534694 
L 414.333009 232.04502 
L 416.25425 232.817674 
L 418.175492 234.921397 
L 420.096733 236.172029 
L 423.939216 240.053704 
L 425.860457 240.695518 
L 429.70294 244.523112 
L 431.624182 241.406476 
L 435.466664 225.031063 
L 437.387906 219.925042 
L 439.309147 216.936026 
L 441.230389 214.767424 
L 443.15163 213.98085 
L 445.072872 214.964265 
L 446.994113 220.645802 
L 448.915354 229.378461 
L 450.836596 230.166151 
L 452.757837 221.649482 
L 454.679079 214.075402 
L 456.60032 219.972367 
L 458.521561 229.876545 
L 460.442803 232.345798 
L 462.364044 233.230213 
L 464.285286 230.574348 
L 466.206527 223.224936 
L 468.127769 219.313198 
L 470.04901 221.37784 
L 471.970251 229.964274 
L 473.891493 246.43221 
L 473.891493 246.43221 
" clip-path="url(#pfe8e8c898b)" style="fill: none; stroke: #dd8452; stroke-width: 2.25; stroke-linecap: round"/>
   </g>
   <g id="patch_3">
    <path d="M 72.448099 293.506804 
L 72.448099 19.44 
" style="fill: none; stroke: #262626; stroke-width: 1.875; stroke-linejoin: miter; stroke-linecap: square"/>
   </g>
   <g id="patch_4">
    <path d="M 493.007845 293.506804 
L 493.007845 19.44 
" style="fill: none; stroke: #262626; stroke-width: 1.875; stroke-linejoin: miter; stroke-linecap: square"/>
   </g>
   <g id="patch_5">
    <path d="M 72.448099 293.506804 
L 493.007845 293.506804 
" style="fill: none; stroke: #262626; stroke-width: 1.875; stroke-linejoin: miter; stroke-linecap: square"/>
   </g>
   <g id="patch_6">
    <path d="M 72.448099 19.44 
L 493.007845 19.44 
" style="fill: none; stroke: #262626; stroke-width: 1.875; stroke-linejoin: miter; stroke-linecap: square"/>
   </g>
   <g id="legend_1">
    <g id="patch_7">
     <path d="M 209.804049 285.256804 
L 355.651894 285.256804 
Q 358.951894 285.256804 358.951894 281.956804 
L 358.951894 236.700888 
Q 358.951894 233.400888 355.651894 233.400888 
L 209.804049 233.400888 
Q 206.504049 233.400888 206.504049 236.700888 
L 206.504049 281.956804 
Q 206.504049 285.256804 209.804049 285.256804 
z
" style="fill: #ffffff; opacity: 0.8; stroke: #cccccc; stroke-width: 1.5; stroke-linejoin: miter"/>
    </g>
    <g id="line2d_3">
     <path d="M 213.104049 245.775888 
L 229.604049 245.775888 
L 246.104049 245.775888 
" style="fill: none; stroke: #4c72b0; stroke-width: 2.25; stroke-linecap: round"/>
    </g>
    <g id="text_13">
     <!-- \texttt{compbnd} -->
     <g style="fill: #262626" transform="translate(259.304049 251.550888) scale(0.165 -0.165)">
      <defs>
       <path id="CMTT12-63" d="M 2918 702 
C 2918 868 2758 868 2707 868 
C 2560 868 2534 817 2502 728 
C 2362 377 2048 339 1894 339 
C 1350 339 890 792 890 1385 
C 890 1711 1075 2445 1914 2445 
C 2086 2445 2221 2432 2278 2426 
C 2323 2413 2330 2405 2330 2373 
C 2349 2107 2547 2107 2586 2107 
C 2726 2107 2848 2203 2848 2375 
C 2848 2816 2202 2816 1920 2816 
C 826 2816 474 1922 474 1385 
C 474 607 1069 -32 1837 -32 
C 2694 -32 2918 600 2918 702 
z
" transform="scale(0.015625)"/>
       <path id="CMTT12-6f" d="M 2918 1385 
C 2918 2183 2336 2816 1645 2816 
C 954 2816 371 2183 371 1385 
C 371 581 960 -32 1645 -32 
C 2330 -32 2918 581 2918 1385 
z
M 1645 339 
C 1184 339 787 824 787 1430 
C 787 2023 1197 2445 1645 2445 
C 2093 2445 2502 2023 2502 1430 
C 2502 818 2106 339 1645 339 
z
" transform="scale(0.015625)"/>
       <path id="CMTT12-6d" d="M 2899 1943 
C 2899 2084 2899 2803 2336 2803 
C 2112 2803 1894 2700 1722 2463 
C 1683 2559 1542 2803 1235 2803 
C 947 2803 749 2613 698 2555 
C 691 2752 557 2752 442 2752 
L 250 2752 
C 160 2752 -6 2752 -6 2567 
C -6 2381 141 2381 339 2381 
L 339 371 
C 134 371 -6 371 -6 186 
C -6 0 160 0 250 0 
L 787 0 
C 877 0 1043 0 1043 186 
C 1043 371 896 371 698 371 
L 698 1552 
C 698 2091 928 2432 1210 2432 
C 1389 2432 1440 2207 1440 1905 
L 1440 371 
C 1331 371 1158 371 1158 186 
C 1158 0 1331 0 1421 0 
L 1888 0 
C 1978 0 2144 0 2144 186 
C 2144 371 1997 371 1798 371 
L 1798 1552 
C 1798 2091 2029 2432 2310 2432 
C 2490 2432 2541 2207 2541 1905 
L 2541 371 
C 2432 371 2259 371 2259 186 
C 2259 0 2432 0 2522 0 
L 2989 0 
C 3078 0 3245 0 3245 186 
C 3245 371 3098 371 2899 371 
L 2899 1943 
z
" transform="scale(0.015625)"/>
       <path id="CMTT12-70" d="M 1293 -1408 
C 1382 -1408 1549 -1408 1549 -1222 
C 1549 -1037 1382 -1037 1293 -1037 
L 1030 -1037 
L 1030 326 
C 1184 153 1421 -32 1779 -32 
C 2458 -32 3053 579 3053 1395 
C 3053 2186 2515 2816 1850 2816 
C 1382 2816 1088 2533 1030 2469 
C 1030 2664 1030 2752 774 2752 
L 352 2752 
C 262 2752 96 2752 96 2567 
C 96 2381 262 2381 352 2381 
L 614 2381 
L 614 -1037 
L 352 -1037 
C 262 -1037 96 -1037 96 -1222 
C 96 -1408 262 -1408 352 -1408 
L 1293 -1408 
z
M 1030 1717 
C 1030 2084 1389 2445 1805 2445 
C 2266 2445 2637 1974 2637 1395 
C 2637 777 2202 339 1747 339 
C 1267 339 1030 886 1030 1208 
L 1030 1717 
z
" transform="scale(0.015625)"/>
       <path id="CMTT12-62" d="M 1030 3644 
C 1030 3841 992 3904 774 3904 
L 352 3904 
C 262 3904 96 3904 96 3719 
C 96 3533 262 3533 352 3533 
L 614 3533 
L 614 262 
C 614 147 614 0 826 0 
C 1030 0 1030 137 1030 326 
C 1184 153 1421 -32 1779 -32 
C 2458 -32 3053 576 3053 1388 
C 3053 2176 2515 2803 1850 2803 
C 1382 2803 1088 2522 1030 2458 
L 1030 3644 
z
M 1030 1708 
C 1030 2073 1389 2432 1805 2432 
C 2266 2432 2637 1964 2637 1388 
C 2637 774 2202 339 1747 339 
C 1267 339 1030 883 1030 1203 
L 1030 1708 
z
" transform="scale(0.015625)"/>
       <path id="CMTT12-6e" d="M 2675 1879 
C 2675 2507 2381 2803 1856 2803 
C 1421 2803 1139 2560 1030 2438 
C 1030 2666 1030 2752 774 2752 
L 352 2752 
C 262 2752 96 2752 96 2567 
C 96 2381 262 2381 352 2381 
L 614 2381 
L 614 371 
L 352 371 
C 262 371 96 371 96 186 
C 96 0 262 0 352 0 
L 1293 0 
C 1382 0 1549 0 1549 186 
C 1549 371 1382 371 1293 371 
L 1030 371 
L 1030 1533 
C 1030 2155 1466 2432 1811 2432 
C 2182 2432 2259 2219 2259 1854 
L 2259 371 
L 1997 371 
C 1907 371 1741 371 1741 186 
C 1741 0 1907 0 1997 0 
L 2938 0 
C 3027 0 3194 0 3194 186 
C 3194 371 3027 371 2938 371 
L 2675 371 
L 2675 1879 
z
" transform="scale(0.015625)"/>
       <path id="CMTT12-64" d="M 2675 3642 
C 2675 3840 2637 3904 2419 3904 
L 1997 3904 
C 1907 3904 1741 3904 1741 3719 
C 1741 3533 1907 3533 1997 3533 
L 2259 3533 
L 2259 2483 
C 2157 2585 1894 2803 1504 2803 
C 826 2803 237 2188 237 1382 
C 237 595 787 -32 1446 -32 
C 1862 -32 2138 215 2259 355 
C 2259 84 2259 0 2515 0 
L 2938 0 
C 3027 0 3194 0 3194 186 
C 3194 371 3027 371 2938 371 
L 2675 371 
L 2675 3642 
z
M 2259 1222 
C 2259 864 1965 339 1485 339 
C 1024 339 653 806 653 1382 
C 653 1996 1088 2432 1542 2432 
C 1958 2432 2259 2054 2259 1721 
L 2259 1222 
z
" transform="scale(0.015625)"/>
      </defs>
      <use xlink:href="#CMTT12-63" transform="scale(0.996264)"/>
      <use xlink:href="#CMTT12-6f" transform="translate(51.266111 0) scale(0.996264)"/>
      <use xlink:href="#CMTT12-6d" transform="translate(102.532222 0) scale(0.996264)"/>
      <use xlink:href="#CMTT12-70" transform="translate(153.798333 0) scale(0.996264)"/>
      <use xlink:href="#CMTT12-62" transform="translate(205.064443 0) scale(0.996264)"/>
      <use xlink:href="#CMTT12-6e" transform="translate(256.330554 0) scale(0.996264)"/>
      <use xlink:href="#CMTT12-64" transform="translate(307.596665 0) scale(0.996264)"/>
     </g>
    </g>
    <g id="line2d_4">
     <path d="M 213.104049 269.228846 
L 229.604049 269.228846 
L 246.104049 269.228846 
" style="fill: none; stroke: #dd8452; stroke-width: 2.25; stroke-linecap: round"/>
    </g>
    <g id="text_14">
     <!-- \texttt{compbnd+dvs} -->
     <g style="fill: #262626" transform="translate(259.304049 275.003846) scale(0.165 -0.165)">
      <defs>
       <path id="CMTT12-2b" d="M 1856 1792 
L 2765 1792 
C 2848 1792 3053 1792 3053 1997 
C 3053 2208 2854 2208 2765 2208 
L 1856 2208 
L 1856 3113 
C 1856 3196 1856 3398 1651 3398 
C 1440 3398 1440 3202 1440 3113 
L 1440 2208 
L 525 2208 
C 442 2208 237 2208 237 2003 
C 237 1792 435 1792 525 1792 
L 1440 1792 
L 1440 867 
C 1440 783 1440 576 1645 576 
C 1856 576 1856 776 1856 867 
L 1856 1792 
z
" transform="scale(0.015625)"/>
       <path id="CMTT12-76" d="M 2714 2381 
L 2880 2381 
C 2970 2381 3142 2381 3142 2567 
C 3142 2752 2970 2752 2880 2752 
L 2176 2752 
C 2086 2752 1914 2752 1914 2567 
C 1914 2381 2086 2381 2176 2381 
L 2336 2381 
L 1645 325 
L 954 2381 
L 1114 2381 
C 1203 2381 1376 2381 1376 2567 
C 1376 2752 1203 2752 1114 2752 
L 410 2752 
C 320 2752 147 2752 147 2567 
C 147 2381 320 2381 410 2381 
L 576 2381 
L 1312 185 
C 1382 -32 1523 -32 1645 -32 
C 1766 -32 1907 -32 1978 185 
L 2714 2381 
z
" transform="scale(0.015625)"/>
       <path id="CMTT12-73" d="M 2688 2573 
C 2688 2675 2688 2816 2509 2816 
C 2355 2816 2317 2669 2317 2662 
C 2061 2816 1766 2816 1638 2816 
C 595 2816 454 2286 454 2069 
C 454 1807 608 1629 826 1507 
C 1030 1392 1216 1361 1741 1278 
C 1990 1233 2502 1150 2502 799 
C 2502 562 2285 339 1690 339 
C 1280 339 1011 499 877 960 
C 845 1049 826 1120 666 1120 
C 454 1120 454 998 454 870 
L 454 211 
C 454 108 454 -32 634 -32 
C 710 -32 768 -32 864 230 
C 1158 -32 1491 -32 1690 -32 
C 2874 -32 2874 734 2874 798 
C 2874 1461 2080 1596 1773 1640 
C 1210 1736 826 1800 826 2068 
C 826 2241 1024 2445 1626 2445 
C 2234 2445 2259 2157 2272 1990 
C 2285 1862 2400 1843 2477 1843 
C 2688 1843 2688 1958 2688 2086 
L 2688 2573 
z
" transform="scale(0.015625)"/>
      </defs>
      <use xlink:href="#CMTT12-63" transform="scale(0.996264)"/>
      <use xlink:href="#CMTT12-6f" transform="translate(51.266111 0) scale(0.996264)"/>
      <use xlink:href="#CMTT12-6d" transform="translate(102.532222 0) scale(0.996264)"/>
      <use xlink:href="#CMTT12-70" transform="translate(153.798333 0) scale(0.996264)"/>
      <use xlink:href="#CMTT12-62" transform="translate(205.064443 0) scale(0.996264)"/>
      <use xlink:href="#CMTT12-6e" transform="translate(256.330554 0) scale(0.996264)"/>
      <use xlink:href="#CMTT12-64" transform="translate(307.596665 0) scale(0.996264)"/>
      <use xlink:href="#CMTT12-2b" transform="translate(358.862776 0) scale(0.996264)"/>
      <use xlink:href="#CMTT12-64" transform="translate(410.128887 0) scale(0.996264)"/>
      <use xlink:href="#CMTT12-76" transform="translate(461.394998 0) scale(0.996264)"/>
      <use xlink:href="#CMTT12-73" transform="translate(512.661108 0) scale(0.996264)"/>
     </g>
    </g>
   </g>
  </g>
 </g>
 <defs>
  <clipPath id="pfe8e8c898b">
   <rect x="72.448099" y="19.44" width="420.559746" height="274.066804"/>
  </clipPath>
 </defs>
</svg>
