<?xml version="1.0" encoding="utf-8" standalone="no"?>
<!DOCTYPE svg PUBLIC "-//W3C//DTD SVG 1.1//EN"
  "http://www.w3.org/Graphics/SVG/1.1/DTD/svg11.dtd">
<svg xmlns:xlink="http://www.w3.org/1999/xlink" width="512.01pt" height="360pt" viewBox="0 0 512.01 360" xmlns="http://www.w3.org/2000/svg" version="1.1">
 <metadata>
  <rdf:RDF xmlns:dc="http://purl.org/dc/elements/1.1/" xmlns:cc="http://creativecommons.org/ns#" xmlns:rdf="http://www.w3.org/1999/02/22-rdf-syntax-ns#">
   <cc:Work>
    <dc:type rdf:resource="http://purl.org/dc/dcmitype/StillImage"/>
    <dc:date>2024-08-07T03:12:15.924040</dc:date>
    <dc:format>image/svg+xml</dc:format>
    <dc:creator>
     <cc:Agent>
      <dc:title>Matplotlib v3.9.0, https://matplotlib.org/</dc:title>
     </cc:Agent>
    </dc:creator>
   </cc:Work>
  </rdf:RDF>
 </metadata>
 <defs>
  <style type="text/css">*{stroke-linejoin: round; stroke-linecap: butt}</style>
 </defs>
 <g id="figure_1">
  <g id="patch_1">
   <path d="M 0 360 
L 512.01 360 
L 512.01 0 
L 0 0 
z
" style="fill: #ffffff"/>
  </g>
  <g id="axes_1">
   <g id="patch_2">
    <path d="M 70.74 309.78 
L 490.127097 309.78 
L 490.127097 29.04 
L 70.74 29.04 
z
" style="fill: #eaeaf2"/>
   </g>
   <g id="matplotlib.axis_1">
    <g id="xtick_1">
     <g id="line2d_1">
      <path d="M 89.80305 309.78 
L 89.80305 29.04 
" clip-path="url(#p37e3122d59)" style="fill: none; stroke: #ffffff; stroke-linecap: round"/>
     </g>
     <g id="text_1">
      <!-- 0 -->
      <g style="fill: #262626" transform="translate(86.303675 327.638281) scale(0.11 -0.11)">
       <defs>
        <path id="DejaVuSans-30" d="M 2034 4250 
Q 1547 4250 1301 3770 
Q 1056 3291 1056 2328 
Q 1056 1369 1301 889 
Q 1547 409 2034 409 
Q 2525 409 2770 889 
Q 3016 1369 3016 2328 
Q 3016 3291 2770 3770 
Q 2525 4250 2034 4250 
z
M 2034 4750 
Q 2819 4750 3233 4129 
Q 3647 3509 3647 2328 
Q 3647 1150 3233 529 
Q 2819 -91 2034 -91 
Q 1250 -91 836 529 
Q 422 1150 422 2328 
Q 422 3509 836 4129 
Q 1250 4750 2034 4750 
z
" transform="scale(0.015625)"/>
       </defs>
       <use xlink:href="#DejaVuSans-30"/>
      </g>
     </g>
    </g>
    <g id="xtick_2">
     <g id="line2d_2">
      <path d="M 146.792736 309.78 
L 146.792736 29.04 
" clip-path="url(#p37e3122d59)" style="fill: none; stroke: #ffffff; stroke-linecap: round"/>
     </g>
     <g id="text_2">
      <!-- 100 -->
      <g style="fill: #262626" transform="translate(136.294611 327.638281) scale(0.11 -0.11)">
       <defs>
        <path id="DejaVuSans-31" d="M 794 531 
L 1825 531 
L 1825 4091 
L 703 3866 
L 703 4441 
L 1819 4666 
L 2450 4666 
L 2450 531 
L 3481 531 
L 3481 0 
L 794 0 
L 794 531 
z
" transform="scale(0.015625)"/>
       </defs>
       <use xlink:href="#DejaVuSans-31"/>
       <use xlink:href="#DejaVuSans-30" x="63.623047"/>
       <use xlink:href="#DejaVuSans-30" x="127.246094"/>
      </g>
     </g>
    </g>
    <g id="xtick_3">
     <g id="line2d_3">
      <path d="M 203.782421 309.78 
L 203.782421 29.04 
" clip-path="url(#p37e3122d59)" style="fill: none; stroke: #ffffff; stroke-linecap: round"/>
     </g>
     <g id="text_3">
      <!-- 200 -->
      <g style="fill: #262626" transform="translate(193.284296 327.638281) scale(0.11 -0.11)">
       <defs>
        <path id="DejaVuSans-32" d="M 1228 531 
L 3431 531 
L 3431 0 
L 469 0 
L 469 531 
Q 828 903 1448 1529 
Q 2069 2156 2228 2338 
Q 2531 2678 2651 2914 
Q 2772 3150 2772 3378 
Q 2772 3750 2511 3984 
Q 2250 4219 1831 4219 
Q 1534 4219 1204 4116 
Q 875 4013 500 3803 
L 500 4441 
Q 881 4594 1212 4672 
Q 1544 4750 1819 4750 
Q 2544 4750 2975 4387 
Q 3406 4025 3406 3419 
Q 3406 3131 3298 2873 
Q 3191 2616 2906 2266 
Q 2828 2175 2409 1742 
Q 1991 1309 1228 531 
z
" transform="scale(0.015625)"/>
       </defs>
       <use xlink:href="#DejaVuSans-32"/>
       <use xlink:href="#DejaVuSans-30" x="63.623047"/>
       <use xlink:href="#DejaVuSans-30" x="127.246094"/>
      </g>
     </g>
    </g>
    <g id="xtick_4">
     <g id="line2d_4">
      <path d="M 260.772107 309.78 
L 260.772107 29.04 
" clip-path="url(#p37e3122d59)" style="fill: none; stroke: #ffffff; stroke-linecap: round"/>
     </g>
     <g id="text_4">
      <!-- 300 -->
      <g style="fill: #262626" transform="translate(250.273982 327.638281) scale(0.11 -0.11)">
       <defs>
        <path id="DejaVuSans-33" d="M 2597 2516 
Q 3050 2419 3304 2112 
Q 3559 1806 3559 1356 
Q 3559 666 3084 287 
Q 2609 -91 1734 -91 
Q 1441 -91 1130 -33 
Q 819 25 488 141 
L 488 750 
Q 750 597 1062 519 
Q 1375 441 1716 441 
Q 2309 441 2620 675 
Q 2931 909 2931 1356 
Q 2931 1769 2642 2001 
Q 2353 2234 1838 2234 
L 1294 2234 
L 1294 2753 
L 1863 2753 
Q 2328 2753 2575 2939 
Q 2822 3125 2822 3475 
Q 2822 3834 2567 4026 
Q 2313 4219 1838 4219 
Q 1578 4219 1281 4162 
Q 984 4106 628 3988 
L 628 4550 
Q 988 4650 1302 4700 
Q 1616 4750 1894 4750 
Q 2613 4750 3031 4423 
Q 3450 4097 3450 3541 
Q 3450 3153 3228 2886 
Q 3006 2619 2597 2516 
z
" transform="scale(0.015625)"/>
       </defs>
       <use xlink:href="#DejaVuSans-33"/>
       <use xlink:href="#DejaVuSans-30" x="63.623047"/>
       <use xlink:href="#DejaVuSans-30" x="127.246094"/>
      </g>
     </g>
    </g>
    <g id="xtick_5">
     <g id="line2d_5">
      <path d="M 317.761793 309.78 
L 317.761793 29.04 
" clip-path="url(#p37e3122d59)" style="fill: none; stroke: #ffffff; stroke-linecap: round"/>
     </g>
     <g id="text_5">
      <!-- 400 -->
      <g style="fill: #262626" transform="translate(307.263668 327.638281) scale(0.11 -0.11)">
       <defs>
        <path id="DejaVuSans-34" d="M 2419 4116 
L 825 1625 
L 2419 1625 
L 2419 4116 
z
M 2253 4666 
L 3047 4666 
L 3047 1625 
L 3713 1625 
L 3713 1100 
L 3047 1100 
L 3047 0 
L 2419 0 
L 2419 1100 
L 313 1100 
L 313 1709 
L 2253 4666 
z
" transform="scale(0.015625)"/>
       </defs>
       <use xlink:href="#DejaVuSans-34"/>
       <use xlink:href="#DejaVuSans-30" x="63.623047"/>
       <use xlink:href="#DejaVuSans-30" x="127.246094"/>
      </g>
     </g>
    </g>
    <g id="xtick_6">
     <g id="line2d_6">
      <path d="M 374.751479 309.78 
L 374.751479 29.04 
" clip-path="url(#p37e3122d59)" style="fill: none; stroke: #ffffff; stroke-linecap: round"/>
     </g>
     <g id="text_6">
      <!-- 500 -->
      <g style="fill: #262626" transform="translate(364.253354 327.638281) scale(0.11 -0.11)">
       <defs>
        <path id="DejaVuSans-35" d="M 691 4666 
L 3169 4666 
L 3169 4134 
L 1269 4134 
L 1269 2991 
Q 1406 3038 1543 3061 
Q 1681 3084 1819 3084 
Q 2600 3084 3056 2656 
Q 3513 2228 3513 1497 
Q 3513 744 3044 326 
Q 2575 -91 1722 -91 
Q 1428 -91 1123 -41 
Q 819 9 494 109 
L 494 744 
Q 775 591 1075 516 
Q 1375 441 1709 441 
Q 2250 441 2565 725 
Q 2881 1009 2881 1497 
Q 2881 1984 2565 2268 
Q 2250 2553 1709 2553 
Q 1456 2553 1204 2497 
Q 953 2441 691 2322 
L 691 4666 
z
" transform="scale(0.015625)"/>
       </defs>
       <use xlink:href="#DejaVuSans-35"/>
       <use xlink:href="#DejaVuSans-30" x="63.623047"/>
       <use xlink:href="#DejaVuSans-30" x="127.246094"/>
      </g>
     </g>
    </g>
    <g id="xtick_7">
     <g id="line2d_7">
      <path d="M 431.741164 309.78 
L 431.741164 29.04 
" clip-path="url(#p37e3122d59)" style="fill: none; stroke: #ffffff; stroke-linecap: round"/>
     </g>
     <g id="text_7">
      <!-- 600 -->
      <g style="fill: #262626" transform="translate(421.243039 327.638281) scale(0.11 -0.11)">
       <defs>
        <path id="DejaVuSans-36" d="M 2113 2584 
Q 1688 2584 1439 2293 
Q 1191 2003 1191 1497 
Q 1191 994 1439 701 
Q 1688 409 2113 409 
Q 2538 409 2786 701 
Q 3034 994 3034 1497 
Q 3034 2003 2786 2293 
Q 2538 2584 2113 2584 
z
M 3366 4563 
L 3366 3988 
Q 3128 4100 2886 4159 
Q 2644 4219 2406 4219 
Q 1781 4219 1451 3797 
Q 1122 3375 1075 2522 
Q 1259 2794 1537 2939 
Q 1816 3084 2150 3084 
Q 2853 3084 3261 2657 
Q 3669 2231 3669 1497 
Q 3669 778 3244 343 
Q 2819 -91 2113 -91 
Q 1303 -91 875 529 
Q 447 1150 447 2328 
Q 447 3434 972 4092 
Q 1497 4750 2381 4750 
Q 2619 4750 2861 4703 
Q 3103 4656 3366 4563 
z
" transform="scale(0.015625)"/>
       </defs>
       <use xlink:href="#DejaVuSans-36"/>
       <use xlink:href="#DejaVuSans-30" x="63.623047"/>
       <use xlink:href="#DejaVuSans-30" x="127.246094"/>
      </g>
     </g>
    </g>
    <g id="xtick_8">
     <g id="line2d_8">
      <path d="M 488.73085 309.78 
L 488.73085 29.04 
" clip-path="url(#p37e3122d59)" style="fill: none; stroke: #ffffff; stroke-linecap: round"/>
     </g>
     <g id="text_8">
      <!-- 700 -->
      <g style="fill: #262626" transform="translate(478.232725 327.638281) scale(0.11 -0.11)">
       <defs>
        <path id="DejaVuSans-37" d="M 525 4666 
L 3525 4666 
L 3525 4397 
L 1831 0 
L 1172 0 
L 2766 4134 
L 525 4134 
L 525 4666 
z
" transform="scale(0.015625)"/>
       </defs>
       <use xlink:href="#DejaVuSans-37"/>
       <use xlink:href="#DejaVuSans-30" x="63.623047"/>
       <use xlink:href="#DejaVuSans-30" x="127.246094"/>
      </g>
     </g>
    </g>
    <g id="text_9">
     <!-- Depth -->
     <g style="fill: #262626" transform="translate(262.157924 343.044062) scale(0.12 -0.12)">
      <defs>
       <path id="DejaVuSans-44" d="M 1259 4147 
L 1259 519 
L 2022 519 
Q 2988 519 3436 956 
Q 3884 1394 3884 2338 
Q 3884 3275 3436 3711 
Q 2988 4147 2022 4147 
L 1259 4147 
z
M 628 4666 
L 1925 4666 
Q 3281 4666 3915 4102 
Q 4550 3538 4550 2338 
Q 4550 1131 3912 565 
Q 3275 0 1925 0 
L 628 0 
L 628 4666 
z
" transform="scale(0.015625)"/>
       <path id="DejaVuSans-65" d="M 3597 1894 
L 3597 1613 
L 953 1613 
Q 991 1019 1311 708 
Q 1631 397 2203 397 
Q 2534 397 2845 478 
Q 3156 559 3463 722 
L 3463 178 
Q 3153 47 2828 -22 
Q 2503 -91 2169 -91 
Q 1331 -91 842 396 
Q 353 884 353 1716 
Q 353 2575 817 3079 
Q 1281 3584 2069 3584 
Q 2775 3584 3186 3129 
Q 3597 2675 3597 1894 
z
M 3022 2063 
Q 3016 2534 2758 2815 
Q 2500 3097 2075 3097 
Q 1594 3097 1305 2825 
Q 1016 2553 972 2059 
L 3022 2063 
z
" transform="scale(0.015625)"/>
       <path id="DejaVuSans-70" d="M 1159 525 
L 1159 -1331 
L 581 -1331 
L 581 3500 
L 1159 3500 
L 1159 2969 
Q 1341 3281 1617 3432 
Q 1894 3584 2278 3584 
Q 2916 3584 3314 3078 
Q 3713 2572 3713 1747 
Q 3713 922 3314 415 
Q 2916 -91 2278 -91 
Q 1894 -91 1617 61 
Q 1341 213 1159 525 
z
M 3116 1747 
Q 3116 2381 2855 2742 
Q 2594 3103 2138 3103 
Q 1681 3103 1420 2742 
Q 1159 2381 1159 1747 
Q 1159 1113 1420 752 
Q 1681 391 2138 391 
Q 2594 391 2855 752 
Q 3116 1113 3116 1747 
z
" transform="scale(0.015625)"/>
       <path id="DejaVuSans-74" d="M 1172 4494 
L 1172 3500 
L 2356 3500 
L 2356 3053 
L 1172 3053 
L 1172 1153 
Q 1172 725 1289 603 
Q 1406 481 1766 481 
L 2356 481 
L 2356 0 
L 1766 0 
Q 1100 0 847 248 
Q 594 497 594 1153 
L 594 3053 
L 172 3053 
L 172 3500 
L 594 3500 
L 594 4494 
L 1172 4494 
z
" transform="scale(0.015625)"/>
       <path id="DejaVuSans-68" d="M 3513 2113 
L 3513 0 
L 2938 0 
L 2938 2094 
Q 2938 2591 2744 2837 
Q 2550 3084 2163 3084 
Q 1697 3084 1428 2787 
Q 1159 2491 1159 1978 
L 1159 0 
L 581 0 
L 581 4863 
L 1159 4863 
L 1159 2956 
Q 1366 3272 1645 3428 
Q 1925 3584 2291 3584 
Q 2894 3584 3203 3211 
Q 3513 2838 3513 2113 
z
" transform="scale(0.015625)"/>
      </defs>
      <use xlink:href="#DejaVuSans-44"/>
      <use xlink:href="#DejaVuSans-65" x="77.001953"/>
      <use xlink:href="#DejaVuSans-70" x="138.525391"/>
      <use xlink:href="#DejaVuSans-74" x="202.001953"/>
      <use xlink:href="#DejaVuSans-68" x="241.210938"/>
     </g>
    </g>
   </g>
   <g id="matplotlib.axis_2">
    <g id="ytick_1">
     <g id="line2d_9">
      <path d="M 70.74 309.78 
L 490.127097 309.78 
" clip-path="url(#p37e3122d59)" style="fill: none; stroke: #ffffff; stroke-linecap: round"/>
     </g>
     <g id="text_10">
      <!-- 0.000 -->
      <g style="fill: #262626" transform="translate(29.749062 313.959141) scale(0.11 -0.11)">
       <defs>
        <path id="DejaVuSans-2e" d="M 684 794 
L 1344 794 
L 1344 0 
L 684 0 
L 684 794 
z
" transform="scale(0.015625)"/>
       </defs>
       <use xlink:href="#DejaVuSans-30"/>
       <use xlink:href="#DejaVuSans-2e" x="63.623047"/>
       <use xlink:href="#DejaVuSans-30" x="95.410156"/>
       <use xlink:href="#DejaVuSans-30" x="159.033203"/>
       <use xlink:href="#DejaVuSans-30" x="222.65625"/>
      </g>
     </g>
    </g>
    <g id="ytick_2">
     <g id="line2d_10">
      <path d="M 70.74 267.983883 
L 490.127097 267.983883 
" clip-path="url(#p37e3122d59)" style="fill: none; stroke: #ffffff; stroke-linecap: round"/>
     </g>
     <g id="text_11">
      <!-- 0.001 -->
      <g style="fill: #262626" transform="translate(29.749062 272.163024) scale(0.11 -0.11)">
       <use xlink:href="#DejaVuSans-30"/>
       <use xlink:href="#DejaVuSans-2e" x="63.623047"/>
       <use xlink:href="#DejaVuSans-30" x="95.410156"/>
       <use xlink:href="#DejaVuSans-30" x="159.033203"/>
       <use xlink:href="#DejaVuSans-31" x="222.65625"/>
      </g>
     </g>
    </g>
    <g id="ytick_3">
     <g id="line2d_11">
      <path d="M 70.74 226.187767 
L 490.127097 226.187767 
" clip-path="url(#p37e3122d59)" style="fill: none; stroke: #ffffff; stroke-linecap: round"/>
     </g>
     <g id="text_12">
      <!-- 0.002 -->
      <g style="fill: #262626" transform="translate(29.749062 230.366907) scale(0.11 -0.11)">
       <use xlink:href="#DejaVuSans-30"/>
       <use xlink:href="#DejaVuSans-2e" x="63.623047"/>
       <use xlink:href="#DejaVuSans-30" x="95.410156"/>
       <use xlink:href="#DejaVuSans-30" x="159.033203"/>
       <use xlink:href="#DejaVuSans-32" x="222.65625"/>
      </g>
     </g>
    </g>
    <g id="ytick_4">
     <g id="line2d_12">
      <path d="M 70.74 184.39165 
L 490.127097 184.39165 
" clip-path="url(#p37e3122d59)" style="fill: none; stroke: #ffffff; stroke-linecap: round"/>
     </g>
     <g id="text_13">
      <!-- 0.003 -->
      <g style="fill: #262626" transform="translate(29.749062 188.570791) scale(0.11 -0.11)">
       <use xlink:href="#DejaVuSans-30"/>
       <use xlink:href="#DejaVuSans-2e" x="63.623047"/>
       <use xlink:href="#DejaVuSans-30" x="95.410156"/>
       <use xlink:href="#DejaVuSans-30" x="159.033203"/>
       <use xlink:href="#DejaVuSans-33" x="222.65625"/>
      </g>
     </g>
    </g>
    <g id="ytick_5">
     <g id="line2d_13">
      <path d="M 70.74 142.595533 
L 490.127097 142.595533 
" clip-path="url(#p37e3122d59)" style="fill: none; stroke: #ffffff; stroke-linecap: round"/>
     </g>
     <g id="text_14">
      <!-- 0.004 -->
      <g style="fill: #262626" transform="translate(29.749062 146.774674) scale(0.11 -0.11)">
       <use xlink:href="#DejaVuSans-30"/>
       <use xlink:href="#DejaVuSans-2e" x="63.623047"/>
       <use xlink:href="#DejaVuSans-30" x="95.410156"/>
       <use xlink:href="#DejaVuSans-30" x="159.033203"/>
       <use xlink:href="#DejaVuSans-34" x="222.65625"/>
      </g>
     </g>
    </g>
    <g id="ytick_6">
     <g id="line2d_14">
      <path d="M 70.74 100.799417 
L 490.127097 100.799417 
" clip-path="url(#p37e3122d59)" style="fill: none; stroke: #ffffff; stroke-linecap: round"/>
     </g>
     <g id="text_15">
      <!-- 0.005 -->
      <g style="fill: #262626" transform="translate(29.749062 104.978557) scale(0.11 -0.11)">
       <use xlink:href="#DejaVuSans-30"/>
       <use xlink:href="#DejaVuSans-2e" x="63.623047"/>
       <use xlink:href="#DejaVuSans-30" x="95.410156"/>
       <use xlink:href="#DejaVuSans-30" x="159.033203"/>
       <use xlink:href="#DejaVuSans-35" x="222.65625"/>
      </g>
     </g>
    </g>
    <g id="ytick_7">
     <g id="line2d_15">
      <path d="M 70.74 59.0033 
L 490.127097 59.0033 
" clip-path="url(#p37e3122d59)" style="fill: none; stroke: #ffffff; stroke-linecap: round"/>
     </g>
     <g id="text_16">
      <!-- 0.006 -->
      <g style="fill: #262626" transform="translate(29.749062 63.182441) scale(0.11 -0.11)">
       <use xlink:href="#DejaVuSans-30"/>
       <use xlink:href="#DejaVuSans-2e" x="63.623047"/>
       <use xlink:href="#DejaVuSans-30" x="95.410156"/>
       <use xlink:href="#DejaVuSans-30" x="159.033203"/>
       <use xlink:href="#DejaVuSans-36" x="222.65625"/>
      </g>
     </g>
    </g>
    <g id="text_17">
     <!-- Density -->
     <g style="fill: #262626" transform="translate(23.253437 192.220313) rotate(-90) scale(0.12 -0.12)">
      <defs>
       <path id="DejaVuSans-6e" d="M 3513 2113 
L 3513 0 
L 2938 0 
L 2938 2094 
Q 2938 2591 2744 2837 
Q 2550 3084 2163 3084 
Q 1697 3084 1428 2787 
Q 1159 2491 1159 1978 
L 1159 0 
L 581 0 
L 581 3500 
L 1159 3500 
L 1159 2956 
Q 1366 3272 1645 3428 
Q 1925 3584 2291 3584 
Q 2894 3584 3203 3211 
Q 3513 2838 3513 2113 
z
" transform="scale(0.015625)"/>
       <path id="DejaVuSans-73" d="M 2834 3397 
L 2834 2853 
Q 2591 2978 2328 3040 
Q 2066 3103 1784 3103 
Q 1356 3103 1142 2972 
Q 928 2841 928 2578 
Q 928 2378 1081 2264 
Q 1234 2150 1697 2047 
L 1894 2003 
Q 2506 1872 2764 1633 
Q 3022 1394 3022 966 
Q 3022 478 2636 193 
Q 2250 -91 1575 -91 
Q 1294 -91 989 -36 
Q 684 19 347 128 
L 347 722 
Q 666 556 975 473 
Q 1284 391 1588 391 
Q 1994 391 2212 530 
Q 2431 669 2431 922 
Q 2431 1156 2273 1281 
Q 2116 1406 1581 1522 
L 1381 1569 
Q 847 1681 609 1914 
Q 372 2147 372 2553 
Q 372 3047 722 3315 
Q 1072 3584 1716 3584 
Q 2034 3584 2315 3537 
Q 2597 3491 2834 3397 
z
" transform="scale(0.015625)"/>
       <path id="DejaVuSans-69" d="M 603 3500 
L 1178 3500 
L 1178 0 
L 603 0 
L 603 3500 
z
M 603 4863 
L 1178 4863 
L 1178 4134 
L 603 4134 
L 603 4863 
z
" transform="scale(0.015625)"/>
       <path id="DejaVuSans-79" d="M 2059 -325 
Q 1816 -950 1584 -1140 
Q 1353 -1331 966 -1331 
L 506 -1331 
L 506 -850 
L 844 -850 
Q 1081 -850 1212 -737 
Q 1344 -625 1503 -206 
L 1606 56 
L 191 3500 
L 800 3500 
L 1894 763 
L 2988 3500 
L 3597 3500 
L 2059 -325 
z
" transform="scale(0.015625)"/>
      </defs>
      <use xlink:href="#DejaVuSans-44"/>
      <use xlink:href="#DejaVuSans-65" x="77.001953"/>
      <use xlink:href="#DejaVuSans-6e" x="138.525391"/>
      <use xlink:href="#DejaVuSans-73" x="201.904297"/>
      <use xlink:href="#DejaVuSans-69" x="254.003906"/>
      <use xlink:href="#DejaVuSans-74" x="281.787109"/>
      <use xlink:href="#DejaVuSans-79" x="320.996094"/>
     </g>
    </g>
   </g>
   <g id="patch_3">
    <path d="M 89.80305 309.78 
L 97.42827 309.78 
L 97.42827 114.688002 
L 89.80305 114.688002 
z
" clip-path="url(#p37e3122d59)" style="fill: #dd8452; fill-opacity: 0.5; stroke: #ffffff; stroke-width: 0.803945; stroke-linejoin: miter"/>
   </g>
   <g id="patch_4">
    <path d="M 97.42827 309.78 
L 105.05349 309.78 
L 105.05349 73.165377 
L 97.42827 73.165377 
z
" clip-path="url(#p37e3122d59)" style="fill: #dd8452; fill-opacity: 0.5; stroke: #ffffff; stroke-width: 0.803945; stroke-linejoin: miter"/>
   </g>
   <g id="patch_5">
    <path d="M 105.05349 309.78 
L 112.67871 309.78 
L 112.67871 114.247085 
L 105.05349 114.247085 
z
" clip-path="url(#p37e3122d59)" style="fill: #dd8452; fill-opacity: 0.5; stroke: #ffffff; stroke-width: 0.803945; stroke-linejoin: miter"/>
   </g>
   <g id="patch_6">
    <path d="M 112.67871 309.78 
L 120.30393 309.78 
L 120.30393 159.261048 
L 112.67871 159.261048 
z
" clip-path="url(#p37e3122d59)" style="fill: #dd8452; fill-opacity: 0.5; stroke: #ffffff; stroke-width: 0.803945; stroke-linejoin: miter"/>
   </g>
   <g id="patch_7">
    <path d="M 120.30393 309.78 
L 127.92915 309.78 
L 127.92915 190.660593 
L 120.30393 190.660593 
z
" clip-path="url(#p37e3122d59)" style="fill: #dd8452; fill-opacity: 0.5; stroke: #ffffff; stroke-width: 0.803945; stroke-linejoin: miter"/>
   </g>
   <g id="patch_8">
    <path d="M 127.92915 309.78 
L 135.55437 309.78 
L 135.55437 213.034849 
L 127.92915 213.034849 
z
" clip-path="url(#p37e3122d59)" style="fill: #dd8452; fill-opacity: 0.5; stroke: #ffffff; stroke-width: 0.803945; stroke-linejoin: miter"/>
   </g>
   <g id="patch_9">
    <path d="M 135.55437 309.78 
L 143.17959 309.78 
L 143.17959 242.23881 
L 135.55437 242.23881 
z
" clip-path="url(#p37e3122d59)" style="fill: #dd8452; fill-opacity: 0.5; stroke: #ffffff; stroke-width: 0.803945; stroke-linejoin: miter"/>
   </g>
   <g id="patch_10">
    <path d="M 143.17959 309.78 
L 150.80481 309.78 
L 150.80481 255.227847 
L 143.17959 255.227847 
z
" clip-path="url(#p37e3122d59)" style="fill: #dd8452; fill-opacity: 0.5; stroke: #ffffff; stroke-width: 0.803945; stroke-linejoin: miter"/>
   </g>
   <g id="patch_11">
    <path d="M 150.80481 309.78 
L 158.430029 309.78 
L 158.430029 270.29099 
L 150.80481 270.29099 
z
" clip-path="url(#p37e3122d59)" style="fill: #dd8452; fill-opacity: 0.5; stroke: #ffffff; stroke-width: 0.803945; stroke-linejoin: miter"/>
   </g>
   <g id="patch_12">
    <path d="M 158.430029 309.78 
L 166.055249 309.78 
L 166.055249 276.868742 
L 158.430029 276.868742 
z
" clip-path="url(#p37e3122d59)" style="fill: #dd8452; fill-opacity: 0.5; stroke: #ffffff; stroke-width: 0.803945; stroke-linejoin: miter"/>
   </g>
   <g id="patch_13">
    <path d="M 166.055249 309.78 
L 173.680469 309.78 
L 173.680469 277.665091 
L 166.055249 277.665091 
z
" clip-path="url(#p37e3122d59)" style="fill: #dd8452; fill-opacity: 0.5; stroke: #ffffff; stroke-width: 0.803945; stroke-linejoin: miter"/>
   </g>
   <g id="patch_14">
    <path d="M 173.680469 309.78 
L 181.305689 309.78 
L 181.305689 281.934781 
L 173.680469 281.934781 
z
" clip-path="url(#p37e3122d59)" style="fill: #dd8452; fill-opacity: 0.5; stroke: #ffffff; stroke-width: 0.803945; stroke-linejoin: miter"/>
   </g>
   <g id="patch_15">
    <path d="M 181.305689 309.78 
L 188.930909 309.78 
L 188.930909 283.675951 
L 181.305689 283.675951 
z
" clip-path="url(#p37e3122d59)" style="fill: #dd8452; fill-opacity: 0.5; stroke: #ffffff; stroke-width: 0.803945; stroke-linejoin: miter"/>
   </g>
   <g id="patch_16">
    <path d="M 188.930909 309.78 
L 196.556129 309.78 
L 196.556129 283.689448 
L 188.930909 283.689448 
z
" clip-path="url(#p37e3122d59)" style="fill: #dd8452; fill-opacity: 0.5; stroke: #ffffff; stroke-width: 0.803945; stroke-linejoin: miter"/>
   </g>
   <g id="patch_17">
    <path d="M 196.556129 309.78 
L 204.181349 309.78 
L 204.181349 286.847849 
L 196.556129 286.847849 
z
" clip-path="url(#p37e3122d59)" style="fill: #dd8452; fill-opacity: 0.5; stroke: #ffffff; stroke-width: 0.803945; stroke-linejoin: miter"/>
   </g>
   <g id="patch_18">
    <path d="M 204.181349 309.78 
L 211.806569 309.78 
L 211.806569 286.726372 
L 204.181349 286.726372 
z
" clip-path="url(#p37e3122d59)" style="fill: #dd8452; fill-opacity: 0.5; stroke: #ffffff; stroke-width: 0.803945; stroke-linejoin: miter"/>
   </g>
   <g id="patch_19">
    <path d="M 211.806569 309.78 
L 219.431789 309.78 
L 219.431789 290.222209 
L 211.806569 290.222209 
z
" clip-path="url(#p37e3122d59)" style="fill: #dd8452; fill-opacity: 0.5; stroke: #ffffff; stroke-width: 0.803945; stroke-linejoin: miter"/>
   </g>
   <g id="patch_20">
    <path d="M 219.431789 309.78 
L 227.057009 309.78 
L 227.057009 291.612446 
L 219.431789 291.612446 
z
" clip-path="url(#p37e3122d59)" style="fill: #dd8452; fill-opacity: 0.5; stroke: #ffffff; stroke-width: 0.803945; stroke-linejoin: miter"/>
   </g>
   <g id="patch_21">
    <path d="M 227.057009 309.78 
L 234.682229 309.78 
L 234.682229 291.351495 
L 227.057009 291.351495 
z
" clip-path="url(#p37e3122d59)" style="fill: #dd8452; fill-opacity: 0.5; stroke: #ffffff; stroke-width: 0.803945; stroke-linejoin: miter"/>
   </g>
   <g id="patch_22">
    <path d="M 234.682229 309.78 
L 242.307449 309.78 
L 242.307449 294.266942 
L 234.682229 294.266942 
z
" clip-path="url(#p37e3122d59)" style="fill: #dd8452; fill-opacity: 0.5; stroke: #ffffff; stroke-width: 0.803945; stroke-linejoin: miter"/>
   </g>
   <g id="patch_23">
    <path d="M 242.307449 309.78 
L 249.932669 309.78 
L 249.932669 296.22857 
L 242.307449 296.22857 
z
" clip-path="url(#p37e3122d59)" style="fill: #dd8452; fill-opacity: 0.5; stroke: #ffffff; stroke-width: 0.803945; stroke-linejoin: miter"/>
   </g>
   <g id="patch_24">
    <path d="M 249.932669 309.78 
L 257.557889 309.78 
L 257.557889 296.948434 
L 249.932669 296.948434 
z
" clip-path="url(#p37e3122d59)" style="fill: #dd8452; fill-opacity: 0.5; stroke: #ffffff; stroke-width: 0.803945; stroke-linejoin: miter"/>
   </g>
   <g id="patch_25">
    <path d="M 257.557889 309.78 
L 265.183109 309.78 
L 265.183109 299.440961 
L 257.557889 299.440961 
z
" clip-path="url(#p37e3122d59)" style="fill: #dd8452; fill-opacity: 0.5; stroke: #ffffff; stroke-width: 0.803945; stroke-linejoin: miter"/>
   </g>
   <g id="patch_26">
    <path d="M 265.183109 309.78 
L 272.808329 309.78 
L 272.808329 300.844695 
L 265.183109 300.844695 
z
" clip-path="url(#p37e3122d59)" style="fill: #dd8452; fill-opacity: 0.5; stroke: #ffffff; stroke-width: 0.803945; stroke-linejoin: miter"/>
   </g>
   <g id="patch_27">
    <path d="M 272.808329 309.78 
L 280.433549 309.78 
L 280.433549 303.157256 
L 272.808329 303.157256 
z
" clip-path="url(#p37e3122d59)" style="fill: #dd8452; fill-opacity: 0.5; stroke: #ffffff; stroke-width: 0.803945; stroke-linejoin: miter"/>
   </g>
   <g id="patch_28">
    <path d="M 280.433549 309.78 
L 288.058769 309.78 
L 288.058769 304.569988 
L 280.433549 304.569988 
z
" clip-path="url(#p37e3122d59)" style="fill: #dd8452; fill-opacity: 0.5; stroke: #ffffff; stroke-width: 0.803945; stroke-linejoin: miter"/>
   </g>
   <g id="patch_29">
    <path d="M 288.058769 309.78 
L 295.683989 309.78 
L 295.683989 305.334843 
L 288.058769 305.334843 
z
" clip-path="url(#p37e3122d59)" style="fill: #dd8452; fill-opacity: 0.5; stroke: #ffffff; stroke-width: 0.803945; stroke-linejoin: miter"/>
   </g>
   <g id="patch_30">
    <path d="M 295.683989 309.78 
L 303.309209 309.78 
L 303.309209 306.135691 
L 295.683989 306.135691 
z
" clip-path="url(#p37e3122d59)" style="fill: #dd8452; fill-opacity: 0.5; stroke: #ffffff; stroke-width: 0.803945; stroke-linejoin: miter"/>
   </g>
   <g id="patch_31">
    <path d="M 303.309209 309.78 
L 310.934429 309.78 
L 310.934429 306.500122 
L 303.309209 306.500122 
z
" clip-path="url(#p37e3122d59)" style="fill: #dd8452; fill-opacity: 0.5; stroke: #ffffff; stroke-width: 0.803945; stroke-linejoin: miter"/>
   </g>
   <g id="patch_32">
    <path d="M 310.934429 309.78 
L 318.559648 309.78 
L 318.559648 307.179493 
L 310.934429 307.179493 
z
" clip-path="url(#p37e3122d59)" style="fill: #dd8452; fill-opacity: 0.5; stroke: #ffffff; stroke-width: 0.803945; stroke-linejoin: miter"/>
   </g>
   <g id="patch_33">
    <path d="M 318.559648 309.78 
L 326.184868 309.78 
L 326.184868 307.525928 
L 318.559648 307.525928 
z
" clip-path="url(#p37e3122d59)" style="fill: #dd8452; fill-opacity: 0.5; stroke: #ffffff; stroke-width: 0.803945; stroke-linejoin: miter"/>
   </g>
   <g id="patch_34">
    <path d="M 326.184868 309.78 
L 333.810088 309.78 
L 333.810088 307.737387 
L 326.184868 307.737387 
z
" clip-path="url(#p37e3122d59)" style="fill: #dd8452; fill-opacity: 0.5; stroke: #ffffff; stroke-width: 0.803945; stroke-linejoin: miter"/>
   </g>
   <g id="patch_35">
    <path d="M 333.810088 309.78 
L 341.435308 309.78 
L 341.435308 308.164806 
L 333.810088 308.164806 
z
" clip-path="url(#p37e3122d59)" style="fill: #dd8452; fill-opacity: 0.5; stroke: #ffffff; stroke-width: 0.803945; stroke-linejoin: miter"/>
   </g>
   <g id="patch_36">
    <path d="M 341.435308 309.78 
L 349.060528 309.78 
L 349.060528 308.731699 
L 341.435308 308.731699 
z
" clip-path="url(#p37e3122d59)" style="fill: #dd8452; fill-opacity: 0.5; stroke: #ffffff; stroke-width: 0.803945; stroke-linejoin: miter"/>
   </g>
   <g id="patch_37">
    <path d="M 349.060528 309.78 
L 356.685748 309.78 
L 356.685748 308.871172 
L 349.060528 308.871172 
z
" clip-path="url(#p37e3122d59)" style="fill: #dd8452; fill-opacity: 0.5; stroke: #ffffff; stroke-width: 0.803945; stroke-linejoin: miter"/>
   </g>
   <g id="patch_38">
    <path d="M 356.685748 309.78 
L 364.310968 309.78 
L 364.310968 308.961155 
L 356.685748 308.961155 
z
" clip-path="url(#p37e3122d59)" style="fill: #dd8452; fill-opacity: 0.5; stroke: #ffffff; stroke-width: 0.803945; stroke-linejoin: miter"/>
   </g>
   <g id="patch_39">
    <path d="M 364.310968 309.78 
L 371.936188 309.78 
L 371.936188 308.943159 
L 364.310968 308.943159 
z
" clip-path="url(#p37e3122d59)" style="fill: #dd8452; fill-opacity: 0.5; stroke: #ffffff; stroke-width: 0.803945; stroke-linejoin: miter"/>
   </g>
   <g id="patch_40">
    <path d="M 371.936188 309.78 
L 379.561408 309.78 
L 379.561408 309.118625 
L 371.936188 309.118625 
z
" clip-path="url(#p37e3122d59)" style="fill: #dd8452; fill-opacity: 0.5; stroke: #ffffff; stroke-width: 0.803945; stroke-linejoin: miter"/>
   </g>
   <g id="patch_41">
    <path d="M 379.561408 309.78 
L 387.186628 309.78 
L 387.186628 309.267097 
L 379.561408 309.267097 
z
" clip-path="url(#p37e3122d59)" style="fill: #dd8452; fill-opacity: 0.5; stroke: #ffffff; stroke-width: 0.803945; stroke-linejoin: miter"/>
   </g>
   <g id="patch_42">
    <path d="M 387.186628 309.78 
L 394.811848 309.78 
L 394.811848 309.379576 
L 387.186628 309.379576 
z
" clip-path="url(#p37e3122d59)" style="fill: #dd8452; fill-opacity: 0.5; stroke: #ffffff; stroke-width: 0.803945; stroke-linejoin: miter"/>
   </g>
   <g id="patch_43">
    <path d="M 394.811848 309.78 
L 402.437068 309.78 
L 402.437068 309.559542 
L 394.811848 309.559542 
z
" clip-path="url(#p37e3122d59)" style="fill: #dd8452; fill-opacity: 0.5; stroke: #ffffff; stroke-width: 0.803945; stroke-linejoin: miter"/>
   </g>
   <g id="patch_44">
    <path d="M 402.437068 309.78 
L 410.062288 309.78 
L 410.062288 309.654024 
L 402.437068 309.654024 
z
" clip-path="url(#p37e3122d59)" style="fill: #dd8452; fill-opacity: 0.5; stroke: #ffffff; stroke-width: 0.803945; stroke-linejoin: miter"/>
   </g>
   <g id="patch_45">
    <path d="M 410.062288 309.78 
L 417.687508 309.78 
L 417.687508 309.654024 
L 410.062288 309.654024 
z
" clip-path="url(#p37e3122d59)" style="fill: #dd8452; fill-opacity: 0.5; stroke: #ffffff; stroke-width: 0.803945; stroke-linejoin: miter"/>
   </g>
   <g id="patch_46">
    <path d="M 417.687508 309.78 
L 425.312728 309.78 
L 425.312728 309.67652 
L 417.687508 309.67652 
z
" clip-path="url(#p37e3122d59)" style="fill: #dd8452; fill-opacity: 0.5; stroke: #ffffff; stroke-width: 0.803945; stroke-linejoin: miter"/>
   </g>
   <g id="patch_47">
    <path d="M 425.312728 309.78 
L 432.937948 309.78 
L 432.937948 309.762003 
L 425.312728 309.762003 
z
" clip-path="url(#p37e3122d59)" style="fill: #dd8452; fill-opacity: 0.5; stroke: #ffffff; stroke-width: 0.803945; stroke-linejoin: miter"/>
   </g>
   <g id="patch_48">
    <path d="M 432.937948 309.78 
L 440.563168 309.78 
L 440.563168 309.78 
L 432.937948 309.78 
z
" clip-path="url(#p37e3122d59)" style="fill: #dd8452; fill-opacity: 0.5; stroke: #ffffff; stroke-width: 0.803945; stroke-linejoin: miter"/>
   </g>
   <g id="patch_49">
    <path d="M 440.563168 309.78 
L 448.188388 309.78 
L 448.188388 309.78 
L 440.563168 309.78 
z
" clip-path="url(#p37e3122d59)" style="fill: #dd8452; fill-opacity: 0.5; stroke: #ffffff; stroke-width: 0.803945; stroke-linejoin: miter"/>
   </g>
   <g id="patch_50">
    <path d="M 448.188388 309.78 
L 455.813608 309.78 
L 455.813608 309.78 
L 448.188388 309.78 
z
" clip-path="url(#p37e3122d59)" style="fill: #dd8452; fill-opacity: 0.5; stroke: #ffffff; stroke-width: 0.803945; stroke-linejoin: miter"/>
   </g>
   <g id="patch_51">
    <path d="M 455.813608 309.78 
L 463.438828 309.78 
L 463.438828 309.78 
L 455.813608 309.78 
z
" clip-path="url(#p37e3122d59)" style="fill: #dd8452; fill-opacity: 0.5; stroke: #ffffff; stroke-width: 0.803945; stroke-linejoin: miter"/>
   </g>
   <g id="patch_52">
    <path d="M 463.438828 309.78 
L 471.064048 309.78 
L 471.064048 309.775501 
L 463.438828 309.775501 
z
" clip-path="url(#p37e3122d59)" style="fill: #dd8452; fill-opacity: 0.5; stroke: #ffffff; stroke-width: 0.803945; stroke-linejoin: miter"/>
   </g>
   <g id="patch_53">
    <path d="M 89.80305 309.78 
L 97.42827 309.78 
L 97.42827 96.272995 
L 89.80305 96.272995 
z
" clip-path="url(#p37e3122d59)" style="fill: #4c72b0; fill-opacity: 0.5; stroke: #ffffff; stroke-width: 0.803945; stroke-linejoin: miter"/>
   </g>
   <g id="patch_54">
    <path d="M 97.42827 309.78 
L 105.05349 309.78 
L 105.05349 48.73951 
L 97.42827 48.73951 
z
" clip-path="url(#p37e3122d59)" style="fill: #4c72b0; fill-opacity: 0.5; stroke: #ffffff; stroke-width: 0.803945; stroke-linejoin: miter"/>
   </g>
   <g id="patch_55">
    <path d="M 105.05349 309.78 
L 112.67871 309.78 
L 112.67871 94.486833 
L 105.05349 94.486833 
z
" clip-path="url(#p37e3122d59)" style="fill: #4c72b0; fill-opacity: 0.5; stroke: #ffffff; stroke-width: 0.803945; stroke-linejoin: miter"/>
   </g>
   <g id="patch_56">
    <path d="M 112.67871 309.78 
L 120.30393 309.78 
L 120.30393 143.437549 
L 112.67871 143.437549 
z
" clip-path="url(#p37e3122d59)" style="fill: #4c72b0; fill-opacity: 0.5; stroke: #ffffff; stroke-width: 0.803945; stroke-linejoin: miter"/>
   </g>
   <g id="patch_57">
    <path d="M 120.30393 309.78 
L 127.92915 309.78 
L 127.92915 176.461286 
L 120.30393 176.461286 
z
" clip-path="url(#p37e3122d59)" style="fill: #4c72b0; fill-opacity: 0.5; stroke: #ffffff; stroke-width: 0.803945; stroke-linejoin: miter"/>
   </g>
   <g id="patch_58">
    <path d="M 127.92915 309.78 
L 135.55437 309.78 
L 135.55437 202.623824 
L 127.92915 202.623824 
z
" clip-path="url(#p37e3122d59)" style="fill: #4c72b0; fill-opacity: 0.5; stroke: #ffffff; stroke-width: 0.803945; stroke-linejoin: miter"/>
   </g>
   <g id="patch_59">
    <path d="M 135.55437 309.78 
L 143.17959 309.78 
L 143.17959 235.917509 
L 135.55437 235.917509 
z
" clip-path="url(#p37e3122d59)" style="fill: #4c72b0; fill-opacity: 0.5; stroke: #ffffff; stroke-width: 0.803945; stroke-linejoin: miter"/>
   </g>
   <g id="patch_60">
    <path d="M 143.17959 309.78 
L 150.80481 309.78 
L 150.80481 250.854676 
L 143.17959 250.854676 
z
" clip-path="url(#p37e3122d59)" style="fill: #4c72b0; fill-opacity: 0.5; stroke: #ffffff; stroke-width: 0.803945; stroke-linejoin: miter"/>
   </g>
   <g id="patch_61">
    <path d="M 150.80481 309.78 
L 158.430029 309.78 
L 158.430029 267.81196 
L 150.80481 267.81196 
z
" clip-path="url(#p37e3122d59)" style="fill: #4c72b0; fill-opacity: 0.5; stroke: #ffffff; stroke-width: 0.803945; stroke-linejoin: miter"/>
   </g>
   <g id="patch_62">
    <path d="M 158.430029 309.78 
L 166.055249 309.78 
L 166.055249 275.757453 
L 158.430029 275.757453 
z
" clip-path="url(#p37e3122d59)" style="fill: #4c72b0; fill-opacity: 0.5; stroke: #ffffff; stroke-width: 0.803945; stroke-linejoin: miter"/>
   </g>
   <g id="patch_63">
    <path d="M 166.055249 309.78 
L 173.680469 309.78 
L 173.680469 277.674089 
L 166.055249 277.674089 
z
" clip-path="url(#p37e3122d59)" style="fill: #4c72b0; fill-opacity: 0.5; stroke: #ffffff; stroke-width: 0.803945; stroke-linejoin: miter"/>
   </g>
   <g id="patch_64">
    <path d="M 173.680469 309.78 
L 181.305689 309.78 
L 181.305689 281.952778 
L 173.680469 281.952778 
z
" clip-path="url(#p37e3122d59)" style="fill: #4c72b0; fill-opacity: 0.5; stroke: #ffffff; stroke-width: 0.803945; stroke-linejoin: miter"/>
   </g>
   <g id="patch_65">
    <path d="M 181.305689 309.78 
L 188.930909 309.78 
L 188.930909 283.675951 
L 181.305689 283.675951 
z
" clip-path="url(#p37e3122d59)" style="fill: #4c72b0; fill-opacity: 0.5; stroke: #ffffff; stroke-width: 0.803945; stroke-linejoin: miter"/>
   </g>
   <g id="patch_66">
    <path d="M 188.930909 309.78 
L 196.556129 309.78 
L 196.556129 283.023575 
L 188.930909 283.023575 
z
" clip-path="url(#p37e3122d59)" style="fill: #4c72b0; fill-opacity: 0.5; stroke: #ffffff; stroke-width: 0.803945; stroke-linejoin: miter"/>
   </g>
   <g id="patch_67">
    <path d="M 196.556129 309.78 
L 204.181349 309.78 
L 204.181349 286.154981 
L 196.556129 286.154981 
z
" clip-path="url(#p37e3122d59)" style="fill: #4c72b0; fill-opacity: 0.5; stroke: #ffffff; stroke-width: 0.803945; stroke-linejoin: miter"/>
   </g>
   <g id="patch_68">
    <path d="M 204.181349 309.78 
L 211.806569 309.78 
L 211.806569 286.586899 
L 204.181349 286.586899 
z
" clip-path="url(#p37e3122d59)" style="fill: #4c72b0; fill-opacity: 0.5; stroke: #ffffff; stroke-width: 0.803945; stroke-linejoin: miter"/>
   </g>
   <g id="patch_69">
    <path d="M 211.806569 309.78 
L 219.431789 309.78 
L 219.431789 290.046743 
L 211.806569 290.046743 
z
" clip-path="url(#p37e3122d59)" style="fill: #4c72b0; fill-opacity: 0.5; stroke: #ffffff; stroke-width: 0.803945; stroke-linejoin: miter"/>
   </g>
   <g id="patch_70">
    <path d="M 219.431789 309.78 
L 227.057009 309.78 
L 227.057009 291.58995 
L 219.431789 291.58995 
z
" clip-path="url(#p37e3122d59)" style="fill: #4c72b0; fill-opacity: 0.5; stroke: #ffffff; stroke-width: 0.803945; stroke-linejoin: miter"/>
   </g>
   <g id="patch_71">
    <path d="M 227.057009 309.78 
L 234.682229 309.78 
L 234.682229 291.549458 
L 227.057009 291.549458 
z
" clip-path="url(#p37e3122d59)" style="fill: #4c72b0; fill-opacity: 0.5; stroke: #ffffff; stroke-width: 0.803945; stroke-linejoin: miter"/>
   </g>
   <g id="patch_72">
    <path d="M 234.682229 309.78 
L 242.307449 309.78 
L 242.307449 294.203954 
L 234.682229 294.203954 
z
" clip-path="url(#p37e3122d59)" style="fill: #4c72b0; fill-opacity: 0.5; stroke: #ffffff; stroke-width: 0.803945; stroke-linejoin: miter"/>
   </g>
   <g id="patch_73">
    <path d="M 242.307449 309.78 
L 249.932669 309.78 
L 249.932669 295.630184 
L 242.307449 295.630184 
z
" clip-path="url(#p37e3122d59)" style="fill: #4c72b0; fill-opacity: 0.5; stroke: #ffffff; stroke-width: 0.803945; stroke-linejoin: miter"/>
   </g>
   <g id="patch_74">
    <path d="M 249.932669 309.78 
L 257.557889 309.78 
L 257.557889 296.503018 
L 249.932669 296.503018 
z
" clip-path="url(#p37e3122d59)" style="fill: #4c72b0; fill-opacity: 0.5; stroke: #ffffff; stroke-width: 0.803945; stroke-linejoin: miter"/>
   </g>
   <g id="patch_75">
    <path d="M 257.557889 309.78 
L 265.183109 309.78 
L 265.183109 299.377973 
L 257.557889 299.377973 
z
" clip-path="url(#p37e3122d59)" style="fill: #4c72b0; fill-opacity: 0.5; stroke: #ffffff; stroke-width: 0.803945; stroke-linejoin: miter"/>
   </g>
   <g id="patch_76">
    <path d="M 265.183109 309.78 
L 272.808329 309.78 
L 272.808329 300.813201 
L 265.183109 300.813201 
z
" clip-path="url(#p37e3122d59)" style="fill: #4c72b0; fill-opacity: 0.5; stroke: #ffffff; stroke-width: 0.803945; stroke-linejoin: miter"/>
   </g>
   <g id="patch_77">
    <path d="M 272.808329 309.78 
L 280.433549 309.78 
L 280.433549 303.157256 
L 272.808329 303.157256 
z
" clip-path="url(#p37e3122d59)" style="fill: #4c72b0; fill-opacity: 0.5; stroke: #ffffff; stroke-width: 0.803945; stroke-linejoin: miter"/>
   </g>
   <g id="patch_78">
    <path d="M 280.433549 309.78 
L 288.058769 309.78 
L 288.058769 304.367527 
L 280.433549 304.367527 
z
" clip-path="url(#p37e3122d59)" style="fill: #4c72b0; fill-opacity: 0.5; stroke: #ffffff; stroke-width: 0.803945; stroke-linejoin: miter"/>
   </g>
   <g id="patch_79">
    <path d="M 288.058769 309.78 
L 295.683989 309.78 
L 295.683989 305.159376 
L 288.058769 305.159376 
z
" clip-path="url(#p37e3122d59)" style="fill: #4c72b0; fill-opacity: 0.5; stroke: #ffffff; stroke-width: 0.803945; stroke-linejoin: miter"/>
   </g>
   <g id="patch_80">
    <path d="M 295.683989 309.78 
L 303.309209 309.78 
L 303.309209 306.054707 
L 295.683989 306.054707 
z
" clip-path="url(#p37e3122d59)" style="fill: #4c72b0; fill-opacity: 0.5; stroke: #ffffff; stroke-width: 0.803945; stroke-linejoin: miter"/>
   </g>
   <g id="patch_81">
    <path d="M 303.309209 309.78 
L 310.934429 309.78 
L 310.934429 306.221175 
L 303.309209 306.221175 
z
" clip-path="url(#p37e3122d59)" style="fill: #4c72b0; fill-opacity: 0.5; stroke: #ffffff; stroke-width: 0.803945; stroke-linejoin: miter"/>
   </g>
   <g id="patch_82">
    <path d="M 310.934429 309.78 
L 318.559648 309.78 
L 318.559648 306.990529 
L 310.934429 306.990529 
z
" clip-path="url(#p37e3122d59)" style="fill: #4c72b0; fill-opacity: 0.5; stroke: #ffffff; stroke-width: 0.803945; stroke-linejoin: miter"/>
   </g>
   <g id="patch_83">
    <path d="M 318.559648 309.78 
L 326.184868 309.78 
L 326.184868 307.480936 
L 318.559648 307.480936 
z
" clip-path="url(#p37e3122d59)" style="fill: #4c72b0; fill-opacity: 0.5; stroke: #ffffff; stroke-width: 0.803945; stroke-linejoin: miter"/>
   </g>
   <g id="patch_84">
    <path d="M 326.184868 309.78 
L 333.810088 309.78 
L 333.810088 307.728389 
L 326.184868 307.728389 
z
" clip-path="url(#p37e3122d59)" style="fill: #4c72b0; fill-opacity: 0.5; stroke: #ffffff; stroke-width: 0.803945; stroke-linejoin: miter"/>
   </g>
   <g id="patch_85">
    <path d="M 333.810088 309.78 
L 341.435308 309.78 
L 341.435308 308.106317 
L 333.810088 308.106317 
z
" clip-path="url(#p37e3122d59)" style="fill: #4c72b0; fill-opacity: 0.5; stroke: #ffffff; stroke-width: 0.803945; stroke-linejoin: miter"/>
   </g>
   <g id="patch_86">
    <path d="M 341.435308 309.78 
L 349.060528 309.78 
L 349.060528 308.67321 
L 341.435308 308.67321 
z
" clip-path="url(#p37e3122d59)" style="fill: #4c72b0; fill-opacity: 0.5; stroke: #ffffff; stroke-width: 0.803945; stroke-linejoin: miter"/>
   </g>
   <g id="patch_87">
    <path d="M 349.060528 309.78 
L 356.685748 309.78 
L 356.685748 308.808184 
L 349.060528 308.808184 
z
" clip-path="url(#p37e3122d59)" style="fill: #4c72b0; fill-opacity: 0.5; stroke: #ffffff; stroke-width: 0.803945; stroke-linejoin: miter"/>
   </g>
   <g id="patch_88">
    <path d="M 356.685748 309.78 
L 364.310968 309.78 
L 364.310968 308.902666 
L 356.685748 308.902666 
z
" clip-path="url(#p37e3122d59)" style="fill: #4c72b0; fill-opacity: 0.5; stroke: #ffffff; stroke-width: 0.803945; stroke-linejoin: miter"/>
   </g>
   <g id="patch_89">
    <path d="M 364.310968 309.78 
L 371.936188 309.78 
L 371.936188 308.880171 
L 364.310968 308.880171 
z
" clip-path="url(#p37e3122d59)" style="fill: #4c72b0; fill-opacity: 0.5; stroke: #ffffff; stroke-width: 0.803945; stroke-linejoin: miter"/>
   </g>
   <g id="patch_90">
    <path d="M 371.936188 309.78 
L 379.561408 309.78 
L 379.561408 309.100629 
L 371.936188 309.100629 
z
" clip-path="url(#p37e3122d59)" style="fill: #4c72b0; fill-opacity: 0.5; stroke: #ffffff; stroke-width: 0.803945; stroke-linejoin: miter"/>
   </g>
   <g id="patch_91">
    <path d="M 379.561408 309.78 
L 387.186628 309.78 
L 387.186628 309.267097 
L 379.561408 309.267097 
z
" clip-path="url(#p37e3122d59)" style="fill: #4c72b0; fill-opacity: 0.5; stroke: #ffffff; stroke-width: 0.803945; stroke-linejoin: miter"/>
   </g>
   <g id="patch_92">
    <path d="M 387.186628 309.78 
L 394.811848 309.78 
L 394.811848 309.379576 
L 387.186628 309.379576 
z
" clip-path="url(#p37e3122d59)" style="fill: #4c72b0; fill-opacity: 0.5; stroke: #ffffff; stroke-width: 0.803945; stroke-linejoin: miter"/>
   </g>
   <g id="patch_93">
    <path d="M 394.811848 309.78 
L 402.437068 309.78 
L 402.437068 309.532547 
L 394.811848 309.532547 
z
" clip-path="url(#p37e3122d59)" style="fill: #4c72b0; fill-opacity: 0.5; stroke: #ffffff; stroke-width: 0.803945; stroke-linejoin: miter"/>
   </g>
   <g id="patch_94">
    <path d="M 402.437068 309.78 
L 410.062288 309.78 
L 410.062288 309.595535 
L 402.437068 309.595535 
z
" clip-path="url(#p37e3122d59)" style="fill: #4c72b0; fill-opacity: 0.5; stroke: #ffffff; stroke-width: 0.803945; stroke-linejoin: miter"/>
   </g>
   <g id="patch_95">
    <path d="M 410.062288 309.78 
L 417.687508 309.78 
L 417.687508 309.591036 
L 410.062288 309.591036 
z
" clip-path="url(#p37e3122d59)" style="fill: #4c72b0; fill-opacity: 0.5; stroke: #ffffff; stroke-width: 0.803945; stroke-linejoin: miter"/>
   </g>
   <g id="patch_96">
    <path d="M 417.687508 309.78 
L 425.312728 309.78 
L 425.312728 309.618031 
L 417.687508 309.618031 
z
" clip-path="url(#p37e3122d59)" style="fill: #4c72b0; fill-opacity: 0.5; stroke: #ffffff; stroke-width: 0.803945; stroke-linejoin: miter"/>
   </g>
   <g id="patch_97">
    <path d="M 425.312728 309.78 
L 432.937948 309.78 
L 432.937948 309.699015 
L 425.312728 309.699015 
z
" clip-path="url(#p37e3122d59)" style="fill: #4c72b0; fill-opacity: 0.5; stroke: #ffffff; stroke-width: 0.803945; stroke-linejoin: miter"/>
   </g>
   <g id="patch_98">
    <path d="M 432.937948 309.78 
L 440.563168 309.78 
L 440.563168 309.730509 
L 432.937948 309.730509 
z
" clip-path="url(#p37e3122d59)" style="fill: #4c72b0; fill-opacity: 0.5; stroke: #ffffff; stroke-width: 0.803945; stroke-linejoin: miter"/>
   </g>
   <g id="patch_99">
    <path d="M 440.563168 309.78 
L 448.188388 309.78 
L 448.188388 309.78 
L 440.563168 309.78 
z
" clip-path="url(#p37e3122d59)" style="fill: #4c72b0; fill-opacity: 0.5; stroke: #ffffff; stroke-width: 0.803945; stroke-linejoin: miter"/>
   </g>
   <g id="patch_100">
    <path d="M 448.188388 309.78 
L 455.813608 309.78 
L 455.813608 309.78 
L 448.188388 309.78 
z
" clip-path="url(#p37e3122d59)" style="fill: #4c72b0; fill-opacity: 0.5; stroke: #ffffff; stroke-width: 0.803945; stroke-linejoin: miter"/>
   </g>
   <g id="patch_101">
    <path d="M 455.813608 309.78 
L 463.438828 309.78 
L 463.438828 309.78 
L 455.813608 309.78 
z
" clip-path="url(#p37e3122d59)" style="fill: #4c72b0; fill-opacity: 0.5; stroke: #ffffff; stroke-width: 0.803945; stroke-linejoin: miter"/>
   </g>
   <g id="patch_102">
    <path d="M 463.438828 309.78 
L 471.064048 309.78 
L 471.064048 309.775501 
L 463.438828 309.775501 
z
" clip-path="url(#p37e3122d59)" style="fill: #4c72b0; fill-opacity: 0.5; stroke: #ffffff; stroke-width: 0.803945; stroke-linejoin: miter"/>
   </g>
   <g id="line2d_16">
    <path d="M 89.80305 224.635401 
L 93.634819 135.613664 
L 95.550703 98.805172 
L 97.466588 76.38824 
L 99.382472 70.073697 
L 101.298356 76.417738 
L 105.130125 102.395246 
L 107.04601 113.601525 
L 108.961894 122.654659 
L 116.625432 154.895927 
L 122.373085 180.033535 
L 126.204854 195.908406 
L 130.036623 210.684858 
L 131.952507 217.517237 
L 133.868391 223.897974 
L 135.784276 229.812898 
L 137.70016 235.297764 
L 139.616045 240.414196 
L 141.531929 245.207038 
L 143.447813 249.675264 
L 145.363698 253.781476 
L 147.279582 257.492724 
L 149.195467 260.816445 
L 151.111351 263.798416 
L 153.027235 266.487538 
L 154.94312 268.905404 
L 156.859004 271.047788 
L 158.774889 272.907341 
L 160.690773 274.489292 
L 162.606657 275.81041 
L 164.522542 276.895205 
L 166.438426 277.779271 
L 170.270195 279.139588 
L 176.017848 280.72333 
L 193.260808 284.923802 
L 199.008461 285.978548 
L 204.756115 287.002854 
L 210.503768 288.395851 
L 216.251421 289.721984 
L 221.999074 290.826573 
L 233.494381 292.729404 
L 239.242034 294.047904 
L 248.821456 296.494212 
L 254.569109 297.676167 
L 260.316762 298.923413 
L 273.727953 302.321692 
L 281.391491 303.873693 
L 287.139144 304.868398 
L 290.970913 305.374549 
L 296.718566 305.859831 
L 317.793295 307.235673 
L 344.615676 308.622172 
L 350.36333 308.857544 
L 359.942752 308.938531 
L 375.269827 309.089082 
L 396.344556 309.504493 
L 409.755746 309.656 
L 471.064048 309.77652 
L 471.064048 309.77652 
" clip-path="url(#p37e3122d59)" style="fill: none; stroke: #dd8452; stroke-width: 1.5; stroke-linecap: round"/>
   </g>
   <g id="line2d_17">
    <path d="M 89.80305 219.715103 
L 93.634819 117.691942 
L 95.550703 74.72408 
L 97.466588 48.889607 
L 99.382472 42.408571 
L 101.298356 50.790742 
L 105.130125 81.384032 
L 107.04601 93.870226 
L 108.961894 103.759651 
L 120.4572 156.284389 
L 128.120738 191.36673 
L 131.952507 207.660392 
L 133.868391 215.049303 
L 135.784276 221.852831 
L 137.70016 228.107134 
L 139.616045 233.892377 
L 141.531929 239.290332 
L 143.447813 244.345586 
L 145.363698 249.048189 
L 147.279582 253.352545 
L 149.195467 257.220945 
L 151.111351 260.657783 
L 153.027235 263.71068 
L 154.94312 266.44239 
L 156.859004 268.89862 
L 158.774889 271.097907 
L 160.690773 273.043593 
L 162.606657 274.735543 
L 164.522542 276.173136 
L 166.438426 277.360905 
L 168.354311 278.318856 
L 170.270195 279.086334 
L 174.101964 280.258617 
L 181.765502 282.151723 
L 187.513155 283.341409 
L 195.176692 284.586878 
L 199.008461 285.27012 
L 202.84023 286.174061 
L 212.419652 288.684427 
L 220.08319 290.405522 
L 225.830843 291.526209 
L 241.157918 294.247885 
L 246.905572 295.474351 
L 260.316762 298.79494 
L 269.896184 301.396141 
L 275.643838 302.704915 
L 281.391491 303.765338 
L 289.055029 304.954063 
L 294.802682 305.613372 
L 300.550335 305.999127 
L 312.045641 306.718974 
L 327.372717 307.68114 
L 354.195099 308.854253 
L 375.269827 309.063212 
L 386.765133 309.312209 
L 405.923978 309.582949 
L 471.064048 309.776409 
L 471.064048 309.776409 
" clip-path="url(#p37e3122d59)" style="fill: none; stroke: #4c72b0; stroke-width: 1.5; stroke-linecap: round"/>
   </g>
   <g id="patch_103">
    <path d="M 70.74 309.78 
L 70.74 29.04 
" style="fill: none; stroke: #ffffff; stroke-width: 1.25; stroke-linejoin: miter; stroke-linecap: square"/>
   </g>
   <g id="patch_104">
    <path d="M 490.127097 309.78 
L 490.127097 29.04 
" style="fill: none; stroke: #ffffff; stroke-width: 1.25; stroke-linejoin: miter; stroke-linecap: square"/>
   </g>
   <g id="patch_105">
    <path d="M 70.74 309.78 
L 490.127097 309.78 
" style="fill: none; stroke: #ffffff; stroke-width: 1.25; stroke-linejoin: miter; stroke-linecap: square"/>
   </g>
   <g id="patch_106">
    <path d="M 70.74 29.04 
L 490.127097 29.04 
" style="fill: none; stroke: #ffffff; stroke-width: 1.25; stroke-linejoin: miter; stroke-linecap: square"/>
   </g>
   <g id="text_18">
    <!-- Distribution of Depths -->
    <g style="fill: #262626" transform="translate(214.432611 23.04) scale(0.12 -0.12)">
     <defs>
      <path id="DejaVuSans-72" d="M 2631 2963 
Q 2534 3019 2420 3045 
Q 2306 3072 2169 3072 
Q 1681 3072 1420 2755 
Q 1159 2438 1159 1844 
L 1159 0 
L 581 0 
L 581 3500 
L 1159 3500 
L 1159 2956 
Q 1341 3275 1631 3429 
Q 1922 3584 2338 3584 
Q 2397 3584 2469 3576 
Q 2541 3569 2628 3553 
L 2631 2963 
z
" transform="scale(0.015625)"/>
      <path id="DejaVuSans-62" d="M 3116 1747 
Q 3116 2381 2855 2742 
Q 2594 3103 2138 3103 
Q 1681 3103 1420 2742 
Q 1159 2381 1159 1747 
Q 1159 1113 1420 752 
Q 1681 391 2138 391 
Q 2594 391 2855 752 
Q 3116 1113 3116 1747 
z
M 1159 2969 
Q 1341 3281 1617 3432 
Q 1894 3584 2278 3584 
Q 2916 3584 3314 3078 
Q 3713 2572 3713 1747 
Q 3713 922 3314 415 
Q 2916 -91 2278 -91 
Q 1894 -91 1617 61 
Q 1341 213 1159 525 
L 1159 0 
L 581 0 
L 581 4863 
L 1159 4863 
L 1159 2969 
z
" transform="scale(0.015625)"/>
      <path id="DejaVuSans-75" d="M 544 1381 
L 544 3500 
L 1119 3500 
L 1119 1403 
Q 1119 906 1312 657 
Q 1506 409 1894 409 
Q 2359 409 2629 706 
Q 2900 1003 2900 1516 
L 2900 3500 
L 3475 3500 
L 3475 0 
L 2900 0 
L 2900 538 
Q 2691 219 2414 64 
Q 2138 -91 1772 -91 
Q 1169 -91 856 284 
Q 544 659 544 1381 
z
M 1991 3584 
L 1991 3584 
z
" transform="scale(0.015625)"/>
      <path id="DejaVuSans-6f" d="M 1959 3097 
Q 1497 3097 1228 2736 
Q 959 2375 959 1747 
Q 959 1119 1226 758 
Q 1494 397 1959 397 
Q 2419 397 2687 759 
Q 2956 1122 2956 1747 
Q 2956 2369 2687 2733 
Q 2419 3097 1959 3097 
z
M 1959 3584 
Q 2709 3584 3137 3096 
Q 3566 2609 3566 1747 
Q 3566 888 3137 398 
Q 2709 -91 1959 -91 
Q 1206 -91 779 398 
Q 353 888 353 1747 
Q 353 2609 779 3096 
Q 1206 3584 1959 3584 
z
" transform="scale(0.015625)"/>
      <path id="DejaVuSans-20" transform="scale(0.015625)"/>
      <path id="DejaVuSans-66" d="M 2375 4863 
L 2375 4384 
L 1825 4384 
Q 1516 4384 1395 4259 
Q 1275 4134 1275 3809 
L 1275 3500 
L 2222 3500 
L 2222 3053 
L 1275 3053 
L 1275 0 
L 697 0 
L 697 3053 
L 147 3053 
L 147 3500 
L 697 3500 
L 697 3744 
Q 697 4328 969 4595 
Q 1241 4863 1831 4863 
L 2375 4863 
z
" transform="scale(0.015625)"/>
     </defs>
     <use xlink:href="#DejaVuSans-44"/>
     <use xlink:href="#DejaVuSans-69" x="77.001953"/>
     <use xlink:href="#DejaVuSans-73" x="104.785156"/>
     <use xlink:href="#DejaVuSans-74" x="156.884766"/>
     <use xlink:href="#DejaVuSans-72" x="196.09375"/>
     <use xlink:href="#DejaVuSans-69" x="237.207031"/>
     <use xlink:href="#DejaVuSans-62" x="264.990234"/>
     <use xlink:href="#DejaVuSans-75" x="328.466797"/>
     <use xlink:href="#DejaVuSans-74" x="391.845703"/>
     <use xlink:href="#DejaVuSans-69" x="431.054688"/>
     <use xlink:href="#DejaVuSans-6f" x="458.837891"/>
     <use xlink:href="#DejaVuSans-6e" x="520.019531"/>
     <use xlink:href="#DejaVuSans-20" x="583.398438"/>
     <use xlink:href="#DejaVuSans-6f" x="615.185547"/>
     <use xlink:href="#DejaVuSans-66" x="676.367188"/>
     <use xlink:href="#DejaVuSans-20" x="711.572266"/>
     <use xlink:href="#DejaVuSans-44" x="743.359375"/>
     <use xlink:href="#DejaVuSans-65" x="820.361328"/>
     <use xlink:href="#DejaVuSans-70" x="881.884766"/>
     <use xlink:href="#DejaVuSans-74" x="945.361328"/>
     <use xlink:href="#DejaVuSans-68" x="984.570312"/>
     <use xlink:href="#DejaVuSans-73" x="1047.949219"/>
    </g>
   </g>
   <g id="legend_1">
    <g id="patch_107">
     <path d="M 334.989285 151.829375 
L 482.427097 151.829375 
Q 484.627097 151.829375 484.627097 149.629375 
L 484.627097 36.74 
Q 484.627097 34.54 482.427097 34.54 
L 334.989285 34.54 
Q 332.789285 34.54 332.789285 36.74 
L 332.789285 149.629375 
Q 332.789285 151.829375 334.989285 151.829375 
z
" style="fill: #eaeaf2; opacity: 0.8; stroke: #cccccc; stroke-linejoin: miter"/>
    </g>
    <g id="text_19">
     <!-- Test Name -->
     <g style="fill: #262626" transform="translate(377.285066 48.058125) scale(0.12 -0.12)">
      <defs>
       <path id="DejaVuSans-54" d="M -19 4666 
L 3928 4666 
L 3928 4134 
L 2272 4134 
L 2272 0 
L 1638 0 
L 1638 4134 
L -19 4134 
L -19 4666 
z
" transform="scale(0.015625)"/>
       <path id="DejaVuSans-4e" d="M 628 4666 
L 1478 4666 
L 3547 763 
L 3547 4666 
L 4159 4666 
L 4159 0 
L 3309 0 
L 1241 3903 
L 1241 0 
L 628 0 
L 628 4666 
z
" transform="scale(0.015625)"/>
       <path id="DejaVuSans-61" d="M 2194 1759 
Q 1497 1759 1228 1600 
Q 959 1441 959 1056 
Q 959 750 1161 570 
Q 1363 391 1709 391 
Q 2188 391 2477 730 
Q 2766 1069 2766 1631 
L 2766 1759 
L 2194 1759 
z
M 3341 1997 
L 3341 0 
L 2766 0 
L 2766 531 
Q 2569 213 2275 61 
Q 1981 -91 1556 -91 
Q 1019 -91 701 211 
Q 384 513 384 1019 
Q 384 1609 779 1909 
Q 1175 2209 1959 2209 
L 2766 2209 
L 2766 2266 
Q 2766 2663 2505 2880 
Q 2244 3097 1772 3097 
Q 1472 3097 1187 3025 
Q 903 2953 641 2809 
L 641 3341 
Q 956 3463 1253 3523 
Q 1550 3584 1831 3584 
Q 2591 3584 2966 3190 
Q 3341 2797 3341 1997 
z
" transform="scale(0.015625)"/>
       <path id="DejaVuSans-6d" d="M 3328 2828 
Q 3544 3216 3844 3400 
Q 4144 3584 4550 3584 
Q 5097 3584 5394 3201 
Q 5691 2819 5691 2113 
L 5691 0 
L 5113 0 
L 5113 2094 
Q 5113 2597 4934 2840 
Q 4756 3084 4391 3084 
Q 3944 3084 3684 2787 
Q 3425 2491 3425 1978 
L 3425 0 
L 2847 0 
L 2847 2094 
Q 2847 2600 2669 2842 
Q 2491 3084 2119 3084 
Q 1678 3084 1418 2786 
Q 1159 2488 1159 1978 
L 1159 0 
L 581 0 
L 581 3500 
L 1159 3500 
L 1159 2956 
Q 1356 3278 1631 3431 
Q 1906 3584 2284 3584 
Q 2666 3584 2933 3390 
Q 3200 3197 3328 2828 
z
" transform="scale(0.015625)"/>
      </defs>
      <use xlink:href="#DejaVuSans-54"/>
      <use xlink:href="#DejaVuSans-65" x="44.083984"/>
      <use xlink:href="#DejaVuSans-73" x="105.607422"/>
      <use xlink:href="#DejaVuSans-74" x="157.707031"/>
      <use xlink:href="#DejaVuSans-20" x="196.916016"/>
      <use xlink:href="#DejaVuSans-4e" x="228.703125"/>
      <use xlink:href="#DejaVuSans-61" x="303.507812"/>
      <use xlink:href="#DejaVuSans-6d" x="364.787109"/>
      <use xlink:href="#DejaVuSans-65" x="462.199219"/>
     </g>
    </g>
    <g id="patch_108">
     <path d="M 337.189285 64.412031 
L 359.189285 64.412031 
L 359.189285 56.712031 
L 337.189285 56.712031 
z
" style="fill: #4c72b0; fill-opacity: 0.5; stroke: #ffffff; stroke-linejoin: miter"/>
    </g>
    <g id="text_20">
     <!-- compbnd -->
     <g style="fill: #262626" transform="translate(367.989285 64.412031) scale(0.11 -0.11)">
      <defs>
       <path id="DejaVuSans-63" d="M 3122 3366 
L 3122 2828 
Q 2878 2963 2633 3030 
Q 2388 3097 2138 3097 
Q 1578 3097 1268 2742 
Q 959 2388 959 1747 
Q 959 1106 1268 751 
Q 1578 397 2138 397 
Q 2388 397 2633 464 
Q 2878 531 3122 666 
L 3122 134 
Q 2881 22 2623 -34 
Q 2366 -91 2075 -91 
Q 1284 -91 818 406 
Q 353 903 353 1747 
Q 353 2603 823 3093 
Q 1294 3584 2113 3584 
Q 2378 3584 2631 3529 
Q 2884 3475 3122 3366 
z
" transform="scale(0.015625)"/>
       <path id="DejaVuSans-64" d="M 2906 2969 
L 2906 4863 
L 3481 4863 
L 3481 0 
L 2906 0 
L 2906 525 
Q 2725 213 2448 61 
Q 2172 -91 1784 -91 
Q 1150 -91 751 415 
Q 353 922 353 1747 
Q 353 2572 751 3078 
Q 1150 3584 1784 3584 
Q 2172 3584 2448 3432 
Q 2725 3281 2906 2969 
z
M 947 1747 
Q 947 1113 1208 752 
Q 1469 391 1925 391 
Q 2381 391 2643 752 
Q 2906 1113 2906 1747 
Q 2906 2381 2643 2742 
Q 2381 3103 1925 3103 
Q 1469 3103 1208 2742 
Q 947 2381 947 1747 
z
" transform="scale(0.015625)"/>
      </defs>
      <use xlink:href="#DejaVuSans-63"/>
      <use xlink:href="#DejaVuSans-6f" x="54.980469"/>
      <use xlink:href="#DejaVuSans-6d" x="116.162109"/>
      <use xlink:href="#DejaVuSans-70" x="213.574219"/>
      <use xlink:href="#DejaVuSans-62" x="277.050781"/>
      <use xlink:href="#DejaVuSans-6e" x="340.527344"/>
      <use xlink:href="#DejaVuSans-64" x="403.90625"/>
     </g>
    </g>
    <g id="patch_109">
     <path d="M 337.189285 80.557969 
L 359.189285 80.557969 
L 359.189285 72.857969 
L 337.189285 72.857969 
z
" style="fill: #dd8452; fill-opacity: 0.5; stroke: #ffffff; stroke-linejoin: miter"/>
    </g>
    <g id="text_21">
     <!-- compbnd+dvs -->
     <g style="fill: #262626" transform="translate(367.989285 80.557969) scale(0.11 -0.11)">
      <defs>
       <path id="DejaVuSans-2b" d="M 2944 4013 
L 2944 2272 
L 4684 2272 
L 4684 1741 
L 2944 1741 
L 2944 0 
L 2419 0 
L 2419 1741 
L 678 1741 
L 678 2272 
L 2419 2272 
L 2419 4013 
L 2944 4013 
z
" transform="scale(0.015625)"/>
       <path id="DejaVuSans-76" d="M 191 3500 
L 800 3500 
L 1894 563 
L 2988 3500 
L 3597 3500 
L 2284 0 
L 1503 0 
L 191 3500 
z
" transform="scale(0.015625)"/>
      </defs>
      <use xlink:href="#DejaVuSans-63"/>
      <use xlink:href="#DejaVuSans-6f" x="54.980469"/>
      <use xlink:href="#DejaVuSans-6d" x="116.162109"/>
      <use xlink:href="#DejaVuSans-70" x="213.574219"/>
      <use xlink:href="#DejaVuSans-62" x="277.050781"/>
      <use xlink:href="#DejaVuSans-6e" x="340.527344"/>
      <use xlink:href="#DejaVuSans-64" x="403.90625"/>
      <use xlink:href="#DejaVuSans-2b" x="467.382812"/>
      <use xlink:href="#DejaVuSans-64" x="551.171875"/>
      <use xlink:href="#DejaVuSans-76" x="614.648438"/>
      <use xlink:href="#DejaVuSans-73" x="673.828125"/>
     </g>
    </g>
    <g id="patch_110">
     <path d="M 337.189285 96.703906 
L 359.189285 96.703906 
L 359.189285 89.003906 
L 337.189285 89.003906 
z
" style="fill: #55a868; fill-opacity: 0.5; stroke: #ffffff; stroke-linejoin: miter"/>
    </g>
    <g id="text_22">
     <!-- compbnd-mdm -->
     <g style="fill: #262626" transform="translate(367.989285 96.703906) scale(0.11 -0.11)">
      <defs>
       <path id="DejaVuSans-2d" d="M 313 2009 
L 1997 2009 
L 1997 1497 
L 313 1497 
L 313 2009 
z
" transform="scale(0.015625)"/>
      </defs>
      <use xlink:href="#DejaVuSans-63"/>
      <use xlink:href="#DejaVuSans-6f" x="54.980469"/>
      <use xlink:href="#DejaVuSans-6d" x="116.162109"/>
      <use xlink:href="#DejaVuSans-70" x="213.574219"/>
      <use xlink:href="#DejaVuSans-62" x="277.050781"/>
      <use xlink:href="#DejaVuSans-6e" x="340.527344"/>
      <use xlink:href="#DejaVuSans-64" x="403.90625"/>
      <use xlink:href="#DejaVuSans-2d" x="467.382812"/>
      <use xlink:href="#DejaVuSans-6d" x="503.466797"/>
      <use xlink:href="#DejaVuSans-64" x="600.878906"/>
      <use xlink:href="#DejaVuSans-6d" x="664.355469"/>
     </g>
    </g>
    <g id="patch_111">
     <path d="M 337.189285 112.849844 
L 359.189285 112.849844 
L 359.189285 105.149844 
L 337.189285 105.149844 
z
" style="fill: #c44e52; fill-opacity: 0.5; stroke: #ffffff; stroke-linejoin: miter"/>
    </g>
    <g id="text_23">
     <!-- compbnd-mdm+dvs -->
     <g style="fill: #262626" transform="translate(367.989285 112.849844) scale(0.11 -0.11)">
      <use xlink:href="#DejaVuSans-63"/>
      <use xlink:href="#DejaVuSans-6f" x="54.980469"/>
      <use xlink:href="#DejaVuSans-6d" x="116.162109"/>
      <use xlink:href="#DejaVuSans-70" x="213.574219"/>
      <use xlink:href="#DejaVuSans-62" x="277.050781"/>
      <use xlink:href="#DejaVuSans-6e" x="340.527344"/>
      <use xlink:href="#DejaVuSans-64" x="403.90625"/>
      <use xlink:href="#DejaVuSans-2d" x="467.382812"/>
      <use xlink:href="#DejaVuSans-6d" x="503.466797"/>
      <use xlink:href="#DejaVuSans-64" x="600.878906"/>
      <use xlink:href="#DejaVuSans-6d" x="664.355469"/>
      <use xlink:href="#DejaVuSans-2b" x="761.767578"/>
      <use xlink:href="#DejaVuSans-64" x="845.556641"/>
      <use xlink:href="#DejaVuSans-76" x="909.033203"/>
      <use xlink:href="#DejaVuSans-73" x="968.212891"/>
     </g>
    </g>
    <g id="patch_112">
     <path d="M 337.189285 128.995781 
L 359.189285 128.995781 
L 359.189285 121.295781 
L 337.189285 121.295781 
z
" style="fill: #8172b3; fill-opacity: 0.5; stroke: #ffffff; stroke-linejoin: miter"/>
    </g>
    <g id="text_24">
     <!-- compbnd-mrm -->
     <g style="fill: #262626" transform="translate(367.989285 128.995781) scale(0.11 -0.11)">
      <use xlink:href="#DejaVuSans-63"/>
      <use xlink:href="#DejaVuSans-6f" x="54.980469"/>
      <use xlink:href="#DejaVuSans-6d" x="116.162109"/>
      <use xlink:href="#DejaVuSans-70" x="213.574219"/>
      <use xlink:href="#DejaVuSans-62" x="277.050781"/>
      <use xlink:href="#DejaVuSans-6e" x="340.527344"/>
      <use xlink:href="#DejaVuSans-64" x="403.90625"/>
      <use xlink:href="#DejaVuSans-2d" x="467.382812"/>
      <use xlink:href="#DejaVuSans-6d" x="503.466797"/>
      <use xlink:href="#DejaVuSans-72" x="600.878906"/>
      <use xlink:href="#DejaVuSans-6d" x="640.242188"/>
     </g>
    </g>
    <g id="patch_113">
     <path d="M 337.189285 145.141719 
L 359.189285 145.141719 
L 359.189285 137.441719 
L 337.189285 137.441719 
z
" style="fill: #937860; fill-opacity: 0.5; stroke: #ffffff; stroke-linejoin: miter"/>
    </g>
    <g id="text_25">
     <!-- compbnd-mrm+dvs -->
     <g style="fill: #262626" transform="translate(367.989285 145.141719) scale(0.11 -0.11)">
      <use xlink:href="#DejaVuSans-63"/>
      <use xlink:href="#DejaVuSans-6f" x="54.980469"/>
      <use xlink:href="#DejaVuSans-6d" x="116.162109"/>
      <use xlink:href="#DejaVuSans-70" x="213.574219"/>
      <use xlink:href="#DejaVuSans-62" x="277.050781"/>
      <use xlink:href="#DejaVuSans-6e" x="340.527344"/>
      <use xlink:href="#DejaVuSans-64" x="403.90625"/>
      <use xlink:href="#DejaVuSans-2d" x="467.382812"/>
      <use xlink:href="#DejaVuSans-6d" x="503.466797"/>
      <use xlink:href="#DejaVuSans-72" x="600.878906"/>
      <use xlink:href="#DejaVuSans-6d" x="640.242188"/>
      <use xlink:href="#DejaVuSans-2b" x="737.654297"/>
      <use xlink:href="#DejaVuSans-64" x="821.443359"/>
      <use xlink:href="#DejaVuSans-76" x="884.919922"/>
      <use xlink:href="#DejaVuSans-73" x="944.099609"/>
     </g>
    </g>
   </g>
  </g>
 </g>
 <defs>
  <clipPath id="p37e3122d59">
   <rect x="70.74" y="29.04" width="419.387097" height="280.74"/>
  </clipPath>
 </defs>
</svg>
