<?xml version="1.0" encoding="utf-8" standalone="no"?>
<!DOCTYPE svg PUBLIC "-//W3C//DTD SVG 1.1//EN"
  "http://www.w3.org/Graphics/SVG/1.1/DTD/svg11.dtd">
<svg xmlns:xlink="http://www.w3.org/1999/xlink" width="546.283425pt" height="360pt" viewBox="0 0 546.283425 360" xmlns="http://www.w3.org/2000/svg" version="1.1">
 <metadata>
  <rdf:RDF xmlns:dc="http://purl.org/dc/elements/1.1/" xmlns:cc="http://creativecommons.org/ns#" xmlns:rdf="http://www.w3.org/1999/02/22-rdf-syntax-ns#">
   <cc:Work>
    <dc:type rdf:resource="http://purl.org/dc/dcmitype/StillImage"/>
    <dc:date>2024-08-19T21:17:36.599853</dc:date>
    <dc:format>image/svg+xml</dc:format>
    <dc:creator>
     <cc:Agent>
      <dc:title>Matplotlib v3.9.0, https://matplotlib.org/</dc:title>
     </cc:Agent>
    </dc:creator>
   </cc:Work>
  </rdf:RDF>
 </metadata>
 <defs>
  <style type="text/css">*{stroke-linejoin: round; stroke-linecap: butt}</style>
 </defs>
 <g id="figure_1">
  <g id="patch_1">
   <path d="M 0 360 
L 546.283425 360 
L 546.283425 0 
L 0 0 
L 0 360 
z
" style="fill: none"/>
  </g>
  <g id="axes_1">
   <g id="patch_2">
    <path d="M 80.495953 222.73104 
L 511.689353 222.73104 
L 511.689353 19.44 
L 80.495953 19.44 
L 80.495953 222.73104 
z
" style="fill: none"/>
   </g>
   <g id="matplotlib.axis_1">
    <g id="xtick_1">
     <g id="text_1">
      <!-- compbnd -->
      <g style="fill: #262626" transform="translate(97.782691 286.406948) rotate(-45) scale(0.165 -0.165)">
       <defs>
        <path id="CMSS17-63" d="M 2464 2541 
C 2464 2585 2170 2714 2093 2739 
C 1882 2816 1613 2816 1542 2816 
C 710 2816 211 2093 211 1363 
C 211 595 768 -64 1517 -64 
C 1946 -64 2253 76 2502 242 
L 2464 664 
C 2189 453 1869 337 1523 337 
C 1024 337 698 774 698 1369 
C 698 1831 909 2414 1549 2414 
C 1901 2414 2099 2343 2394 2145 
L 2464 2541 
z
" transform="scale(0.015625)"/>
        <path id="CMSS17-6f" d="M 2829 1356 
C 2829 2176 2221 2816 1504 2816 
C 768 2816 173 2157 173 1356 
C 173 544 787 -64 1498 -64 
C 2227 -64 2829 563 2829 1356 
z
M 1504 337 
C 1050 337 659 709 659 1408 
C 659 2151 1114 2427 1498 2427 
C 1914 2427 2342 2126 2342 1408 
C 2342 683 1926 337 1504 337 
z
" transform="scale(0.015625)"/>
        <path id="CMSS17-6d" d="M 4288 1877 
C 4288 2308 4179 2816 3462 2816 
C 2982 2816 2694 2516 2566 2331 
C 2451 2670 2182 2816 1798 2816 
C 1363 2816 1088 2568 941 2389 
L 941 2758 
L 474 2758 
L 474 0 
L 960 0 
L 960 1559 
C 960 1939 1101 2428 1555 2428 
C 2138 2428 2138 2016 2138 1829 
L 2138 0 
L 2624 0 
L 2624 1559 
C 2624 1939 2765 2428 3219 2428 
C 3802 2428 3802 2016 3802 1829 
L 3802 0 
L 4288 0 
L 4288 1877 
z
" transform="scale(0.015625)"/>
        <path id="CMSS17-70" d="M 966 333 
C 1178 129 1466 -5 1773 -5 
C 2368 -5 2880 603 2880 1412 
C 2880 2159 2496 2816 1946 2816 
C 1626 2816 1242 2702 954 2472 
L 954 2765 
L 480 2765 
L 480 -1216 
L 966 -1216 
L 966 333 
z
M 966 2100 
C 1018 2176 1235 2415 1587 2415 
C 2035 2415 2394 1960 2394 1412 
C 2394 787 1958 384 1530 384 
C 1402 384 1267 415 1139 523 
C 966 674 966 768 966 857 
L 966 2100 
z
" transform="scale(0.015625)"/>
        <path id="CMSS17-62" d="M 954 4416 
L 480 4416 
L 480 -13 
L 966 -13 
L 966 274 
C 1210 38 1504 -64 1766 -64 
C 2381 -64 2880 549 2880 1352 
C 2880 2086 2496 2756 1926 2756 
C 1523 2756 1165 2591 954 2419 
L 954 4416 
z
M 966 2046 
C 1107 2222 1306 2368 1587 2368 
C 1965 2368 2394 2097 2394 1352 
C 2394 558 1882 325 1530 325 
C 1402 325 1267 356 1139 464 
C 966 615 966 709 966 797 
L 966 2046 
z
" transform="scale(0.015625)"/>
        <path id="CMSS17-6e" d="M 2618 1877 
C 2618 2283 2522 2816 1798 2816 
C 1389 2816 1120 2606 941 2389 
L 941 2758 
L 474 2758 
L 474 0 
L 960 0 
L 960 1559 
C 960 1964 1114 2428 1549 2428 
C 2112 2428 2131 2048 2131 1829 
L 2131 0 
L 2618 0 
L 2618 1877 
z
" transform="scale(0.015625)"/>
        <path id="CMSS17-64" d="M 2611 4416 
L 2138 4416 
L 2138 2438 
C 1939 2603 1613 2756 1254 2756 
C 672 2756 211 2131 211 1347 
C 211 562 666 -64 1235 -64 
C 1677 -64 1971 172 2125 306 
L 2125 -13 
L 2611 -13 
L 2611 4416 
z
M 2125 836 
C 2125 747 2125 653 1926 482 
C 1798 375 1645 325 1498 325 
C 1152 325 698 576 698 1340 
C 698 2134 1210 2368 1562 2368 
C 1798 2368 1990 2254 2125 2065 
L 2125 836 
z
" transform="scale(0.015625)"/>
       </defs>
       <use xlink:href="#CMSS17-63" transform="scale(0.996264)"/>
       <use xlink:href="#CMSS17-6f" transform="translate(41.638822 0) scale(0.996264)"/>
       <use xlink:href="#CMSS17-6d" transform="translate(88.482446 0) scale(0.996264)"/>
       <use xlink:href="#CMSS17-70" transform="translate(162.7117 0) scale(0.996264)"/>
       <use xlink:href="#CMSS17-62" transform="translate(210.916643 0) scale(0.996264)"/>
       <use xlink:href="#CMSS17-6e" transform="translate(259.121586 0) scale(0.996264)"/>
       <use xlink:href="#CMSS17-64" transform="translate(307.326529 0) scale(0.996264)"/>
      </g>
     </g>
    </g>
    <g id="xtick_2">
     <g id="text_2">
      <!-- compbnd+dvs -->
      <g style="fill: #262626" transform="translate(157.518207 310.667049) rotate(-45) scale(0.165 -0.165)">
       <defs>
        <path id="CMSS17-2b" d="M 2451 1505 
L 4141 1505 
C 4230 1505 4339 1505 4339 1613 
C 4339 1728 4237 1728 4141 1728 
L 2451 1728 
L 2451 3413 
C 2451 3502 2451 3611 2342 3611 
C 2227 3611 2227 3509 2227 3413 
L 2227 1728 
L 531 1728 
C 442 1728 333 1728 333 1620 
C 333 1505 435 1505 531 1505 
L 2227 1505 
L 2227 -186 
C 2227 -275 2227 -384 2336 -384 
C 2451 -384 2451 -282 2451 -186 
L 2451 1505 
z
" transform="scale(0.015625)"/>
        <path id="CMSS17-76" d="M 2675 2752 
L 2176 2752 
L 1747 1556 
C 1613 1165 1421 627 1389 352 
L 1382 352 
C 1370 468 1318 634 1286 749 
C 1248 890 1197 1056 1158 1172 
L 595 2752 
L 83 2752 
L 1094 0 
L 1664 0 
L 2675 2752 
z
" transform="scale(0.015625)"/>
        <path id="CMSS17-73" d="M 2061 2627 
C 1683 2807 1389 2807 1197 2807 
C 742 2807 198 2648 198 2003 
C 198 1359 902 1218 1094 1179 
C 1389 1122 1715 1058 1715 740 
C 1715 337 1254 337 1171 337 
C 915 337 563 407 243 638 
L 166 210 
C 531 0 883 -64 1178 -64 
C 1965 -64 2163 416 2163 781 
C 2163 1094 1984 1305 1862 1401 
C 1651 1568 1574 1587 1050 1696 
C 960 1709 646 1779 646 2066 
C 646 2432 1050 2432 1139 2432 
C 1555 2432 1811 2303 1984 2208 
L 2061 2627 
z
" transform="scale(0.015625)"/>
       </defs>
       <use xlink:href="#CMSS17-63" transform="scale(0.996264)"/>
       <use xlink:href="#CMSS17-6f" transform="translate(41.638822 0) scale(0.996264)"/>
       <use xlink:href="#CMSS17-6d" transform="translate(88.482446 0) scale(0.996264)"/>
       <use xlink:href="#CMSS17-70" transform="translate(162.7117 0) scale(0.996264)"/>
       <use xlink:href="#CMSS17-62" transform="translate(210.916643 0) scale(0.996264)"/>
       <use xlink:href="#CMSS17-6e" transform="translate(259.121586 0) scale(0.996264)"/>
       <use xlink:href="#CMSS17-64" transform="translate(307.326529 0) scale(0.996264)"/>
       <use xlink:href="#CMSS17-2b" transform="translate(355.531473 0) scale(0.996264)"/>
       <use xlink:href="#CMSS17-64" transform="translate(428.399407 0) scale(0.996264)"/>
       <use xlink:href="#CMSS17-76" transform="translate(476.604351 0) scale(0.996264)"/>
       <use xlink:href="#CMSS17-73" transform="translate(519.604492 0) scale(0.996264)"/>
      </g>
     </g>
    </g>
    <g id="xtick_3">
     <g id="text_3">
      <!-- compbnd-mdm -->
      <g style="fill: #262626" transform="translate(227.697421 314.039755) rotate(-45) scale(0.165 -0.165)">
       <defs>
        <path id="CMSS17-2d" d="M 1664 1216 
L 1664 1585 
L 64 1585 
L 64 1216 
L 1664 1216 
z
" transform="scale(0.015625)"/>
       </defs>
       <use xlink:href="#CMSS17-63" transform="scale(0.996264)"/>
       <use xlink:href="#CMSS17-6f" transform="translate(41.638822 0) scale(0.996264)"/>
       <use xlink:href="#CMSS17-6d" transform="translate(88.482446 0) scale(0.996264)"/>
       <use xlink:href="#CMSS17-70" transform="translate(162.7117 0) scale(0.996264)"/>
       <use xlink:href="#CMSS17-62" transform="translate(210.916643 0) scale(0.996264)"/>
       <use xlink:href="#CMSS17-6e" transform="translate(259.121586 0) scale(0.996264)"/>
       <use xlink:href="#CMSS17-64" transform="translate(307.326529 0) scale(0.996264)"/>
       <use xlink:href="#CMSS17-2d" transform="translate(355.531473 0) scale(0.996264)"/>
       <use xlink:href="#CMSS17-6d" transform="translate(386.760585 0) scale(0.996264)"/>
       <use xlink:href="#CMSS17-64" transform="translate(460.98984 0) scale(0.996264)"/>
       <use xlink:href="#CMSS17-6d" transform="translate(509.194783 0) scale(0.996264)"/>
      </g>
     </g>
    </g>
    <g id="xtick_4">
     <g id="text_4">
      <!-- compbnd-mdm+dvs -->
      <g style="fill: #262626" transform="translate(287.432937 338.299856) rotate(-45) scale(0.165 -0.165)">
       <use xlink:href="#CMSS17-63" transform="scale(0.996264)"/>
       <use xlink:href="#CMSS17-6f" transform="translate(41.638822 0) scale(0.996264)"/>
       <use xlink:href="#CMSS17-6d" transform="translate(88.482446 0) scale(0.996264)"/>
       <use xlink:href="#CMSS17-70" transform="translate(162.7117 0) scale(0.996264)"/>
       <use xlink:href="#CMSS17-62" transform="translate(210.916643 0) scale(0.996264)"/>
       <use xlink:href="#CMSS17-6e" transform="translate(259.121586 0) scale(0.996264)"/>
       <use xlink:href="#CMSS17-64" transform="translate(307.326529 0) scale(0.996264)"/>
       <use xlink:href="#CMSS17-2d" transform="translate(355.531473 0) scale(0.996264)"/>
       <use xlink:href="#CMSS17-6d" transform="translate(386.760585 0) scale(0.996264)"/>
       <use xlink:href="#CMSS17-64" transform="translate(460.98984 0) scale(0.996264)"/>
       <use xlink:href="#CMSS17-6d" transform="translate(509.194783 0) scale(0.996264)"/>
       <use xlink:href="#CMSS17-2b" transform="translate(583.424037 0) scale(0.996264)"/>
       <use xlink:href="#CMSS17-64" transform="translate(656.291972 0) scale(0.996264)"/>
       <use xlink:href="#CMSS17-76" transform="translate(704.496915 0) scale(0.996264)"/>
       <use xlink:href="#CMSS17-73" transform="translate(747.497057 0) scale(0.996264)"/>
      </g>
     </g>
    </g>
    <g id="xtick_5">
     <g id="text_5">
      <!-- compbnd-mrm -->
      <g style="fill: #262626" transform="translate(372.413995 312.068874) rotate(-45) scale(0.165 -0.165)">
       <defs>
        <path id="CMSS17-72" d="M 954 1363 
C 954 1965 1395 2368 1958 2368 
L 1958 2789 
C 1549 2789 1165 2585 934 2253 
L 934 2758 
L 480 2758 
L 480 0 
L 954 0 
L 954 1363 
z
" transform="scale(0.015625)"/>
       </defs>
       <use xlink:href="#CMSS17-63" transform="scale(0.996264)"/>
       <use xlink:href="#CMSS17-6f" transform="translate(41.638822 0) scale(0.996264)"/>
       <use xlink:href="#CMSS17-6d" transform="translate(88.482446 0) scale(0.996264)"/>
       <use xlink:href="#CMSS17-70" transform="translate(162.7117 0) scale(0.996264)"/>
       <use xlink:href="#CMSS17-62" transform="translate(210.916643 0) scale(0.996264)"/>
       <use xlink:href="#CMSS17-6e" transform="translate(259.121586 0) scale(0.996264)"/>
       <use xlink:href="#CMSS17-64" transform="translate(307.326529 0) scale(0.996264)"/>
       <use xlink:href="#CMSS17-2d" transform="translate(355.531473 0) scale(0.996264)"/>
       <use xlink:href="#CMSS17-6d" transform="translate(386.760585 0) scale(0.996264)"/>
       <use xlink:href="#CMSS17-72" transform="translate(460.98984 0) scale(0.996264)"/>
       <use xlink:href="#CMSS17-6d" transform="translate(492.899612 0) scale(0.996264)"/>
      </g>
     </g>
    </g>
    <g id="xtick_6">
     <g id="text_6">
      <!-- compbnd-mrm+dvs -->
      <g style="fill: #262626" transform="translate(432.149511 336.328975) rotate(-45) scale(0.165 -0.165)">
       <use xlink:href="#CMSS17-63" transform="scale(0.996264)"/>
       <use xlink:href="#CMSS17-6f" transform="translate(41.638822 0) scale(0.996264)"/>
       <use xlink:href="#CMSS17-6d" transform="translate(88.482446 0) scale(0.996264)"/>
       <use xlink:href="#CMSS17-70" transform="translate(162.7117 0) scale(0.996264)"/>
       <use xlink:href="#CMSS17-62" transform="translate(210.916643 0) scale(0.996264)"/>
       <use xlink:href="#CMSS17-6e" transform="translate(259.121586 0) scale(0.996264)"/>
       <use xlink:href="#CMSS17-64" transform="translate(307.326529 0) scale(0.996264)"/>
       <use xlink:href="#CMSS17-2d" transform="translate(355.531473 0) scale(0.996264)"/>
       <use xlink:href="#CMSS17-6d" transform="translate(386.760585 0) scale(0.996264)"/>
       <use xlink:href="#CMSS17-72" transform="translate(460.98984 0) scale(0.996264)"/>
       <use xlink:href="#CMSS17-6d" transform="translate(492.899612 0) scale(0.996264)"/>
       <use xlink:href="#CMSS17-2b" transform="translate(567.128867 0) scale(0.996264)"/>
       <use xlink:href="#CMSS17-64" transform="translate(639.996802 0) scale(0.996264)"/>
       <use xlink:href="#CMSS17-76" transform="translate(688.201745 0) scale(0.996264)"/>
       <use xlink:href="#CMSS17-73" transform="translate(731.201886 0) scale(0.996264)"/>
      </g>
     </g>
    </g>
   </g>
   <g id="matplotlib.axis_2">
    <g id="ytick_1">
     <g id="text_7">
      <!-- $\mathdefault{0.0}$ -->
      <g style="fill: #262626" transform="translate(47.429218 228.438792) scale(0.165 -0.165)">
       <defs>
        <path id="CMR17-30" d="M 2688 2025 
C 2688 2416 2682 3080 2413 3591 
C 2176 4039 1798 4198 1466 4198 
C 1158 4198 768 4058 525 3597 
C 269 3118 243 2524 243 2025 
C 243 1661 250 1106 448 619 
C 723 -39 1216 -128 1466 -128 
C 1760 -128 2208 -7 2470 600 
C 2662 1042 2688 1559 2688 2025 
z
M 1466 -26 
C 1056 -26 813 325 723 812 
C 653 1188 653 1738 653 2096 
C 653 2588 653 2997 736 3387 
C 858 3929 1216 4096 1466 4096 
C 1728 4096 2067 3923 2189 3400 
C 2272 3036 2278 2607 2278 2096 
C 2278 1680 2278 1169 2202 792 
C 2067 95 1690 -26 1466 -26 
z
" transform="scale(0.015625)"/>
        <path id="CMMI12-3a" d="M 1178 307 
C 1178 492 1024 619 870 619 
C 685 619 557 466 557 313 
C 557 128 710 0 864 0 
C 1050 0 1178 153 1178 307 
z
" transform="scale(0.015625)"/>
       </defs>
       <use xlink:href="#CMR17-30" transform="scale(0.996264)"/>
       <use xlink:href="#CMMI12-3a" transform="translate(45.690477 0) scale(0.996264)"/>
       <use xlink:href="#CMR17-30" transform="translate(72.787654 0) scale(0.996264)"/>
      </g>
     </g>
    </g>
    <g id="ytick_2">
     <g id="text_8">
      <!-- $\mathdefault{0.5}$ -->
      <g style="fill: #262626" transform="translate(47.429218 166.704807) scale(0.165 -0.165)">
       <defs>
        <path id="CMR17-35" d="M 730 3692 
C 794 3666 1056 3584 1325 3584 
C 1920 3584 2246 3911 2432 4100 
C 2432 4157 2432 4192 2394 4192 
C 2387 4192 2374 4192 2323 4163 
C 2099 4058 1837 3973 1517 3973 
C 1325 3973 1037 3999 723 4139 
C 653 4171 640 4171 634 4171 
C 602 4171 595 4164 595 4037 
L 595 2203 
C 595 2089 595 2057 659 2057 
C 691 2057 704 2070 736 2114 
C 941 2401 1222 2522 1542 2522 
C 1766 2522 2246 2382 2246 1289 
C 2246 1085 2246 715 2054 421 
C 1894 159 1645 25 1370 25 
C 947 25 518 320 403 814 
C 429 807 480 795 506 795 
C 589 795 749 840 749 1038 
C 749 1210 627 1280 506 1280 
C 358 1280 262 1190 262 1011 
C 262 454 704 -128 1382 -128 
C 2042 -128 2669 440 2669 1264 
C 2669 2030 2170 2624 1549 2624 
C 1222 2624 947 2503 730 2274 
L 730 3692 
z
" transform="scale(0.015625)"/>
       </defs>
       <use xlink:href="#CMR17-30" transform="scale(0.996264)"/>
       <use xlink:href="#CMMI12-3a" transform="translate(45.690477 0) scale(0.996264)"/>
       <use xlink:href="#CMR17-35" transform="translate(72.787654 0) scale(0.996264)"/>
      </g>
     </g>
    </g>
    <g id="ytick_3">
     <g id="text_9">
      <!-- $\mathdefault{1.0}$ -->
      <g style="fill: #262626" transform="translate(47.429218 104.970821) scale(0.165 -0.165)">
       <defs>
        <path id="CMR17-31" d="M 1702 4058 
C 1702 4192 1696 4192 1606 4192 
C 1357 3916 979 3827 621 3827 
C 602 3827 570 3827 563 3808 
C 557 3795 557 3782 557 3648 
C 755 3648 1088 3686 1344 3839 
L 1344 461 
C 1344 236 1331 160 781 160 
L 589 160 
L 589 0 
C 896 0 1216 0 1523 0 
C 1830 0 2150 0 2458 0 
L 2458 160 
L 2266 160 
C 1715 160 1702 230 1702 458 
L 1702 4058 
z
" transform="scale(0.015625)"/>
       </defs>
       <use xlink:href="#CMR17-31" transform="scale(0.996264)"/>
       <use xlink:href="#CMMI12-3a" transform="translate(45.690477 0) scale(0.996264)"/>
       <use xlink:href="#CMR17-30" transform="translate(72.787654 0) scale(0.996264)"/>
      </g>
     </g>
    </g>
    <g id="ytick_4">
     <g id="text_10">
      <!-- $\mathdefault{1.5}$ -->
      <g style="fill: #262626" transform="translate(47.429218 43.236836) scale(0.165 -0.165)">
       <use xlink:href="#CMR17-31" transform="scale(0.996264)"/>
       <use xlink:href="#CMMI12-3a" transform="translate(45.690477 0) scale(0.996264)"/>
       <use xlink:href="#CMR17-35" transform="translate(72.787654 0) scale(0.996264)"/>
      </g>
     </g>
    </g>
    <g id="text_11">
     <!-- Average Number of Bounds -->
     <g style="fill: #262626" transform="translate(39.941154 218.635593) rotate(-90) scale(0.18 -0.18)">
      <defs>
       <path id="CMSS17-41" d="M 2272 4416 
L 1722 4416 
L 166 0 
L 653 0 
L 1101 1280 
L 2816 1280 
L 3270 0 
L 3827 0 
L 2272 4416 
z
M 2694 1637 
L 1222 1637 
C 1530 2528 1914 3638 1958 3925 
L 1965 3925 
C 2010 3663 2138 3281 2246 2956 
L 2694 1637 
z
" transform="scale(0.015625)"/>
       <path id="CMSS17-65" d="M 2502 1377 
C 2502 1590 2490 2003 2285 2345 
C 2061 2713 1696 2816 1421 2816 
C 755 2816 192 2188 192 1375 
C 192 582 774 -64 1510 -64 
C 1798 -64 2150 19 2470 248 
C 2470 274 2458 414 2451 420 
C 2451 433 2432 630 2432 656 
C 2125 407 1773 325 1517 325 
C 1107 325 666 667 646 1377 
L 2502 1377 
z
M 698 1728 
C 781 2084 1062 2421 1421 2421 
C 1517 2421 1965 2421 2080 1728 
L 698 1728 
z
" transform="scale(0.015625)"/>
       <path id="CMSS17-61" d="M 2406 1791 
C 2406 2392 1978 2808 1402 2808 
C 1120 2808 813 2757 461 2553 
L 499 2135 
C 659 2248 934 2432 1395 2432 
C 1722 2432 1920 2180 1920 1782 
L 1920 1536 
C 896 1536 256 1238 256 726 
C 256 461 416 -64 947 -64 
C 1043 -64 1562 -64 1933 217 
L 1933 -19 
L 2406 -19 
L 2406 1791 
z
M 1920 816 
C 1920 701 1920 548 1728 434 
C 1562 325 1350 325 1261 325 
C 941 325 723 511 723 744 
C 723 1211 1722 1211 1920 1211 
L 1920 816 
z
" transform="scale(0.015625)"/>
       <path id="CMSS17-67" d="M 2848 2808 
C 2483 2808 2170 2738 1914 2617 
C 1702 2777 1485 2808 1338 2808 
C 781 2808 358 2349 358 1814 
C 358 1468 550 1207 563 1195 
C 448 1035 384 863 384 672 
C 384 448 474 289 544 200 
C 211 -3 166 -314 166 -435 
C 166 -898 749 -1280 1498 -1280 
C 2253 -1280 2835 -898 2835 -428 
C 2835 448 1856 448 1587 448 
L 1069 448 
C 973 448 717 448 717 791 
C 717 921 774 1004 781 1010 
C 877 940 1075 832 1338 832 
C 1869 832 2310 1278 2310 1827 
C 2310 2132 2170 2355 2112 2432 
L 2131 2432 
C 2150 2432 2419 2432 2515 2432 
C 2720 2432 2739 2429 2918 2419 
L 2848 2808 
z
M 1338 1182 
C 1120 1182 813 1315 813 1823 
C 813 2375 1165 2464 1331 2464 
C 1549 2464 1856 2331 1856 1823 
C 1856 1271 1504 1182 1338 1182 
z
M 1581 -10 
C 1734 -10 2381 -10 2381 -442 
C 2381 -714 1984 -929 1504 -929 
C 1018 -929 621 -720 621 -435 
C 621 -403 621 -10 1062 -10 
L 1581 -10 
z
" transform="scale(0.015625)"/>
       <path id="CMSS17-4e" d="M 1466 4180 
L 1350 4416 
L 563 4416 
L 563 0 
L 1062 0 
L 1062 3926 
L 1069 3932 
C 1114 3817 1139 3760 1402 3194 
L 2771 236 
L 2886 0 
L 3674 0 
L 3674 4416 
L 3174 4416 
L 3174 490 
L 3168 483 
C 3123 598 3098 655 2835 1221 
L 1466 4180 
z
" transform="scale(0.015625)"/>
       <path id="CMSS17-75" d="M 2618 2739 
L 2131 2739 
L 2131 972 
C 2131 498 1786 306 1421 306 
C 998 306 960 447 960 709 
L 960 2739 
L 474 2739 
L 474 678 
C 474 179 646 -64 1088 -64 
C 1306 -64 1798 -13 2144 306 
L 2144 0 
L 2618 0 
L 2618 2739 
z
" transform="scale(0.015625)"/>
       <path id="CMSS17-66" d="M 1075 2368 
L 1722 2368 
L 1722 2737 
L 1062 2737 
L 1062 3559 
C 1062 4014 1408 4092 1606 4092 
C 1670 4092 1850 4092 2080 4009 
L 2080 4429 
C 1933 4461 1754 4480 1613 4480 
C 1018 4480 602 3993 602 3359 
L 602 2737 
L 160 2737 
L 160 2368 
L 602 2368 
L 602 0 
L 1075 0 
L 1075 2368 
z
" transform="scale(0.015625)"/>
       <path id="CMSS17-42" d="M 570 4416 
L 570 0 
L 2163 0 
C 3034 0 3667 574 3667 1200 
C 3667 1685 3251 2176 2502 2317 
C 3334 2558 3501 3040 3501 3313 
C 3501 3883 2874 4416 1997 4416 
L 570 4416 
z
M 1088 2496 
L 1088 4059 
L 1824 4059 
C 2483 4059 3002 3724 3002 3306 
C 3002 2926 2592 2496 1766 2496 
L 1088 2496 
z
M 1088 357 
L 1088 2107 
L 1939 2107 
C 2630 2107 3162 1679 3162 1206 
C 3162 772 2694 357 1984 357 
L 1088 357 
z
" transform="scale(0.015625)"/>
      </defs>
      <use xlink:href="#CMSS17-41" transform="scale(0.996264)"/>
      <use xlink:href="#CMSS17-76" transform="translate(62.217855 0) scale(0.996264)"/>
      <use xlink:href="#CMSS17-65" transform="translate(105.217997 0) scale(0.996264)"/>
      <use xlink:href="#CMSS17-72" transform="translate(146.856819 0) scale(0.996264)"/>
      <use xlink:href="#CMSS17-61" transform="translate(178.766591 0) scale(0.996264)"/>
      <use xlink:href="#CMSS17-67" transform="translate(223.688512 0) scale(0.996264)"/>
      <use xlink:href="#CMSS17-65" transform="translate(270.532135 0) scale(0.996264)"/>
      <use xlink:href="#CMSS17-4e" transform="translate(343.40007 0) scale(0.996264)"/>
      <use xlink:href="#CMSS17-75" transform="translate(409.461589 0) scale(0.996264)"/>
      <use xlink:href="#CMSS17-6d" transform="translate(457.666532 0) scale(0.996264)"/>
      <use xlink:href="#CMSS17-62" transform="translate(531.895787 0) scale(0.996264)"/>
      <use xlink:href="#CMSS17-65" transform="translate(582.703169 0) scale(0.996264)"/>
      <use xlink:href="#CMSS17-72" transform="translate(624.341991 0) scale(0.996264)"/>
      <use xlink:href="#CMSS17-6f" transform="translate(687.480876 0) scale(0.996264)"/>
      <use xlink:href="#CMSS17-66" transform="translate(734.3245 0) scale(0.996264)"/>
      <use xlink:href="#CMSS17-42" transform="translate(794.180271 0) scale(0.996264)"/>
      <use xlink:href="#CMSS17-6f" transform="translate(856.518311 0) scale(0.996264)"/>
      <use xlink:href="#CMSS17-75" transform="translate(903.361935 0) scale(0.996264)"/>
      <use xlink:href="#CMSS17-6e" transform="translate(951.566878 0) scale(0.996264)"/>
      <use xlink:href="#CMSS17-64" transform="translate(999.771821 0) scale(0.996264)"/>
      <use xlink:href="#CMSS17-73" transform="translate(1047.976764 0) scale(0.996264)"/>
     </g>
    </g>
   </g>
   <g id="patch_3">
    <path d="M 87.68251 222.73104 
L 145.174963 222.73104 
L 145.174963 46.038609 
L 87.68251 46.038609 
z
" clip-path="url(#p2bfd2d2ce2)" style="fill: #5875a4; stroke: #ffffff; stroke-width: 1.5; stroke-linejoin: miter"/>
   </g>
   <g id="patch_4">
    <path d="M 159.548076 222.73104 
L 217.04053 222.73104 
L 217.04053 46.408281 
L 159.548076 46.408281 
z
" clip-path="url(#p2bfd2d2ce2)" style="fill: #5875a4; stroke: #ffffff; stroke-width: 1.5; stroke-linejoin: miter"/>
   </g>
   <g id="patch_5">
    <path d="M 231.413643 222.73104 
L 288.906096 222.73104 
L 288.906096 37.30625 
L 231.413643 37.30625 
z
" clip-path="url(#p2bfd2d2ce2)" style="fill: #5875a4; stroke: #ffffff; stroke-width: 1.5; stroke-linejoin: miter"/>
   </g>
   <g id="patch_6">
    <path d="M 303.27921 222.73104 
L 360.771663 222.73104 
L 360.771663 38.412578 
L 303.27921 38.412578 
z
" clip-path="url(#p2bfd2d2ce2)" style="fill: #5875a4; stroke: #ffffff; stroke-width: 1.5; stroke-linejoin: miter"/>
   </g>
   <g id="patch_7">
    <path d="M 375.144777 222.73104 
L 432.63723 222.73104 
L 432.63723 29.120526 
L 375.144777 29.120526 
z
" clip-path="url(#p2bfd2d2ce2)" style="fill: #5875a4; stroke: #ffffff; stroke-width: 1.5; stroke-linejoin: miter"/>
   </g>
   <g id="patch_8">
    <path d="M 447.010343 222.73104 
L 504.502797 222.73104 
L 504.502797 30.117361 
L 447.010343 30.117361 
z
" clip-path="url(#p2bfd2d2ce2)" style="fill: #5875a4; stroke: #ffffff; stroke-width: 1.5; stroke-linejoin: miter"/>
   </g>
   <g id="line2d_1">
    <path clip-path="url(#p2bfd2d2ce2)" style="fill: none; stroke: #424242; stroke-width: 3.375; stroke-linecap: round"/>
   </g>
   <g id="line2d_2">
    <path clip-path="url(#p2bfd2d2ce2)" style="fill: none; stroke: #424242; stroke-width: 3.375; stroke-linecap: round"/>
   </g>
   <g id="line2d_3">
    <path clip-path="url(#p2bfd2d2ce2)" style="fill: none; stroke: #424242; stroke-width: 3.375; stroke-linecap: round"/>
   </g>
   <g id="line2d_4">
    <path clip-path="url(#p2bfd2d2ce2)" style="fill: none; stroke: #424242; stroke-width: 3.375; stroke-linecap: round"/>
   </g>
   <g id="line2d_5">
    <path clip-path="url(#p2bfd2d2ce2)" style="fill: none; stroke: #424242; stroke-width: 3.375; stroke-linecap: round"/>
   </g>
   <g id="line2d_6">
    <path clip-path="url(#p2bfd2d2ce2)" style="fill: none; stroke: #424242; stroke-width: 3.375; stroke-linecap: round"/>
   </g>
   <g id="patch_9">
    <path d="M 80.495953 222.73104 
L 80.495953 19.44 
" style="fill: none; stroke: #262626; stroke-width: 1.875; stroke-linejoin: miter; stroke-linecap: square"/>
   </g>
   <g id="patch_10">
    <path d="M 511.689353 222.73104 
L 511.689353 19.44 
" style="fill: none; stroke: #262626; stroke-width: 1.875; stroke-linejoin: miter; stroke-linecap: square"/>
   </g>
   <g id="patch_11">
    <path d="M 80.495953 222.73104 
L 511.689353 222.73104 
" style="fill: none; stroke: #262626; stroke-width: 1.875; stroke-linejoin: miter; stroke-linecap: square"/>
   </g>
   <g id="patch_12">
    <path d="M 80.495953 19.44 
L 511.689353 19.44 
" style="fill: none; stroke: #262626; stroke-width: 1.875; stroke-linejoin: miter; stroke-linecap: square"/>
   </g>
  </g>
 </g>
 <defs>
  <clipPath id="p2bfd2d2ce2">
   <rect x="80.495953" y="19.44" width="431.1934" height="203.29104"/>
  </clipPath>
 </defs>
</svg>
